<?xml version="1.0" encoding="utf-8"?>
<svg version="1.1" xmlns:xlink="http://www.w3.org/1999/xlink" width="12px" height="12px" viewBox="176 562  12 12" xmlns="http://www.w3.org/2000/svg">
  <path d="M 182 562  C 185.36 562  188 564.64  188 568  C 188 571.36  185.36 574  182 574  C 178.64 574  176 571.36  176 568  C 176 564.64  178.64 562  182 562  Z " fill-rule="nonzero" fill="#ffffff" stroke="none" />
  <path d="M 182 562.5  C 185.08 562.5  187.5 564.92  187.5 568  C 187.5 571.08  185.08 573.5  182 573.5  C 178.92 573.5  176.5 571.08  176.5 568  C 176.5 564.92  178.92 562.5  182 562.5  Z " stroke-width="1" stroke="#797979" fill="none" />
  <path d="M 182 571  C 180.32 571  179 569.68  179 568  C 179 566.32  180.32 565  182 565  C 183.68 565  185 566.32  185 568  C 185 569.68  183.68 571  182 571  " fill-rule="nonzero" fill="#797979" stroke="none" />
</svg>