<?xml version="1.0" encoding="utf-8"?>
<svg version="1.1" xmlns:xlink="http://www.w3.org/1999/xlink" width="12px" height="12px" viewBox="176 590  12 12" xmlns="http://www.w3.org/2000/svg">
  <path d="M 182 590  C 185.36 590  188 592.64  188 596  C 188 599.36  185.36 602  182 602  C 178.64 602  176 599.36  176 596  C 176 592.64  178.64 590  182 590  Z " fill-rule="nonzero" fill="#f0f0f0" stroke="none" />
  <path d="M 182 590.5  C 185.08 590.5  187.5 592.92  187.5 596  C 187.5 599.08  185.08 601.5  182 601.5  C 178.92 601.5  176.5 599.08  176.5 596  C 176.5 592.92  178.92 590.5  182 590.5  Z " stroke-width="1" stroke="#797979" fill="none" />
  <path d="M 182 599  C 180.32 599  179 597.68  179 596  C 179 594.32  180.32 593  182 593  C 183.68 593  185 594.32  185 596  C 185 597.68  183.68 599  182 599  " fill-rule="nonzero" fill="#797979" stroke="none" />
</svg>