<?xml version="1.0" encoding="utf-8"?>
<svg version="1.1" xmlns:xlink="http://www.w3.org/1999/xlink" width="12px" height="12px" viewBox="176 530  12 12" xmlns="http://www.w3.org/2000/svg">
  <path d="M 182 530  C 185.36 530  188 532.64  188 536  C 188 539.36  185.36 542  182 542  C 178.64 542  176 539.36  176 536  C 176 532.64  178.64 530  182 530  Z " fill-rule="nonzero" fill="#f0f0f0" stroke="none" />
  <path d="M 182 530.5  C 185.08 530.5  187.5 532.92  187.5 536  C 187.5 539.08  185.08 541.5  182 541.5  C 178.92 541.5  176.5 539.08  176.5 536  C 176.5 532.92  178.92 530.5  182 530.5  Z " stroke-width="1" stroke="#797979" fill="none" />
  <path d="M 182 539  C 180.32 539  179 537.68  179 536  C 179 534.32  180.32 533  182 533  C 183.68 533  185 534.32  185 536  C 185 537.68  183.68 539  182 539  " fill-rule="nonzero" fill="#797979" stroke="none" />
</svg>