<?xml version="1.0" encoding="utf-8"?>
<svg version="1.1" xmlns:xlink="http://www.w3.org/1999/xlink" width="12px" height="12px" viewBox="157 507  12 12" xmlns="http://www.w3.org/2000/svg">
  <path d="M 163 507  C 166.36 507  169 509.64  169 513  C 169 516.36  166.36 519  163 519  C 159.64 519  157 516.36  157 513  C 157 509.64  159.64 507  163 507  Z " fill-rule="nonzero" fill="#f0f0f0" stroke="none" />
  <path d="M 163 507.5  C 166.08 507.5  168.5 509.92  168.5 513  C 168.5 516.08  166.08 518.5  163 518.5  C 159.92 518.5  157.5 516.08  157.5 513  C 157.5 509.92  159.92 507.5  163 507.5  Z " stroke-width="1" stroke="#797979" fill="none" />
  <path d="M 163 516  C 161.32 516  160 514.68  160 513  C 160 511.32  161.32 510  163 510  C 164.68 510  166 511.32  166 513  C 166 514.68  164.68 516  163 516  " fill-rule="nonzero" fill="#797979" stroke="none" />
</svg>