<?xml version="1.0" encoding="utf-8"?>
<svg version="1.1" xmlns:xlink="http://www.w3.org/1999/xlink" width="12px" height="12px" viewBox="897 182  12 12" xmlns="http://www.w3.org/2000/svg">
  <path d="M 903 182  C 906.36 182  909 184.64  909 188  C 909 191.36  906.36 194  903 194  C 899.64 194  897 191.36  897 188  C 897 184.64  899.64 182  903 182  Z " fill-rule="nonzero" fill="#ffffff" stroke="none" />
  <path d="M 903 182.5  C 906.08 182.5  908.5 184.92  908.5 188  C 908.5 191.08  906.08 193.5  903 193.5  C 899.92 193.5  897.5 191.08  897.5 188  C 897.5 184.92  899.92 182.5  903 182.5  Z " stroke-width="1" stroke="#797979" fill="none" />
  <path d="M 903 191  C 901.32 191  900 189.68  900 188  C 900 186.32  901.32 185  903 185  C 904.68 185  906 186.32  906 188  C 906 189.68  904.68 191  903 191  " fill-rule="nonzero" fill="#797979" stroke="none" />
</svg>