<?xml version="1.0" encoding="utf-8"?>
<svg version="1.1" xmlns:xlink="http://www.w3.org/1999/xlink" width="12px" height="12px" viewBox="986 182  12 12" xmlns="http://www.w3.org/2000/svg">
  <path d="M 992 182  C 995.36 182  998 184.64  998 188  C 998 191.36  995.36 194  992 194  C 988.64 194  986 191.36  986 188  C 986 184.64  988.64 182  992 182  Z " fill-rule="nonzero" fill="#f0f0f0" stroke="none" />
  <path d="M 992 182.5  C 995.08 182.5  997.5 184.92  997.5 188  C 997.5 191.08  995.08 193.5  992 193.5  C 988.92 193.5  986.5 191.08  986.5 188  C 986.5 184.92  988.92 182.5  992 182.5  Z " stroke-width="1" stroke="#797979" fill="none" />
  <path d="M 992 191  C 990.32 191  989 189.68  989 188  C 989 186.32  990.32 185  992 185  C 993.68 185  995 186.32  995 188  C 995 189.68  993.68 191  992 191  " fill-rule="nonzero" fill="#797979" stroke="none" />
</svg>