<?xml version="1.0" encoding="utf-8"?>
<svg version="1.1" xmlns:xlink="http://www.w3.org/1999/xlink" width="12px" height="12px" viewBox="897 395  12 12" xmlns="http://www.w3.org/2000/svg">
  <path d="M 903 395  C 906.36 395  909 397.64  909 401  C 909 404.36  906.36 407  903 407  C 899.64 407  897 404.36  897 401  C 897 397.64  899.64 395  903 395  Z " fill-rule="nonzero" fill="#f0f0f0" stroke="none" />
  <path d="M 903 395.5  C 906.08 395.5  908.5 397.92  908.5 401  C 908.5 404.08  906.08 406.5  903 406.5  C 899.92 406.5  897.5 404.08  897.5 401  C 897.5 397.92  899.92 395.5  903 395.5  Z " stroke-width="1" stroke="#797979" fill="none" />
  <path d="M 903 404  C 901.32 404  900 402.68  900 401  C 900 399.32  901.32 398  903 398  C 904.68 398  906 399.32  906 401  C 906 402.68  904.68 404  903 404  " fill-rule="nonzero" fill="#797979" stroke="none" />
</svg>