<?xml version="1.0" encoding="utf-8"?>
<svg version="1.1" xmlns:xlink="http://www.w3.org/1999/xlink" width="12px" height="12px" viewBox="892 75  12 12" xmlns="http://www.w3.org/2000/svg">
  <path d="M 898 75  C 901.36 75  904 77.64  904 81  C 904 84.36  901.36 87  898 87  C 894.64 87  892 84.36  892 81  C 892 77.64  894.64 75  898 75  Z " fill-rule="nonzero" fill="#ffffff" stroke="none" />
  <path d="M 898 75.5  C 901.08 75.5  903.5 77.92  903.5 81  C 903.5 84.08  901.08 86.5  898 86.5  C 894.92 86.5  892.5 84.08  892.5 81  C 892.5 77.92  894.92 75.5  898 75.5  Z " stroke-width="1" stroke="#797979" fill="none" />
  <path d="M 898 84  C 896.32 84  895 82.68  895 81  C 895 79.32  896.32 78  898 78  C 899.68 78  901 79.32  901 81  C 901 82.68  899.68 84  898 84  " fill-rule="nonzero" fill="#797979" stroke="none" />
</svg>