<?xml version="1.0" encoding="utf-8"?>
<svg version="1.1" xmlns:xlink="http://www.w3.org/1999/xlink" width="12px" height="12px" viewBox="226 228  12 12" xmlns="http://www.w3.org/2000/svg">
  <path d="M 232 228  C 235.36 228  238 230.64  238 234  C 238 237.36  235.36 240  232 240  C 228.64 240  226 237.36  226 234  C 226 230.64  228.64 228  232 228  Z " fill-rule="nonzero" fill="#f0f0f0" stroke="none" />
  <path d="M 232 228.5  C 235.08 228.5  237.5 230.92  237.5 234  C 237.5 237.08  235.08 239.5  232 239.5  C 228.92 239.5  226.5 237.08  226.5 234  C 226.5 230.92  228.92 228.5  232 228.5  Z " stroke-width="1" stroke="#797979" fill="none" />
  <path d="M 232 237  C 230.32 237  229 235.68  229 234  C 229 232.32  230.32 231  232 231  C 233.68 231  235 232.32  235 234  C 235 235.68  233.68 237  232 237  " fill-rule="nonzero" fill="#797979" stroke="none" />
</svg>