<?xml version="1.0" encoding="utf-8"?>
<svg version="1.1" xmlns:xlink="http://www.w3.org/1999/xlink" width="12px" height="12px" viewBox="986 395  12 12" xmlns="http://www.w3.org/2000/svg">
  <path d="M 992 395  C 995.36 395  998 397.64  998 401  C 998 404.36  995.36 407  992 407  C 988.64 407  986 404.36  986 401  C 986 397.64  988.64 395  992 395  Z " fill-rule="nonzero" fill="#ffffff" stroke="none" />
  <path d="M 992 395.5  C 995.08 395.5  997.5 397.92  997.5 401  C 997.5 404.08  995.08 406.5  992 406.5  C 988.92 406.5  986.5 404.08  986.5 401  C 986.5 397.92  988.92 395.5  992 395.5  Z " stroke-width="1" stroke="#797979" fill="none" />
  <path d="M 992 404  C 990.32 404  989 402.68  989 401  C 989 399.32  990.32 398  992 398  C 993.68 398  995 399.32  995 401  C 995 402.68  993.68 404  992 404  " fill-rule="nonzero" fill="#797979" stroke="none" />
</svg>