<?xml version="1.0" encoding="utf-8"?>
<svg version="1.1" xmlns:xlink="http://www.w3.org/1999/xlink" width="12px" height="12px" viewBox="981 75  12 12" xmlns="http://www.w3.org/2000/svg">
  <path d="M 987 75  C 990.36 75  993 77.64  993 81  C 993 84.36  990.36 87  987 87  C 983.64 87  981 84.36  981 81  C 981 77.64  983.64 75  987 75  Z " fill-rule="nonzero" fill="#ffffff" stroke="none" />
  <path d="M 987 75.5  C 990.08 75.5  992.5 77.92  992.5 81  C 992.5 84.08  990.08 86.5  987 86.5  C 983.92 86.5  981.5 84.08  981.5 81  C 981.5 77.92  983.92 75.5  987 75.5  Z " stroke-width="1" stroke="#797979" fill="none" />
  <path d="M 987 84  C 985.32 84  984 82.68  984 81  C 984 79.32  985.32 78  987 78  C 988.68 78  990 79.32  990 81  C 990 82.68  988.68 84  987 84  " fill-rule="nonzero" fill="#797979" stroke="none" />
</svg>