<?xml version="1.0" encoding="utf-8"?>
<svg version="1.1" xmlns:xlink="http://www.w3.org/1999/xlink" width="300px" height="170px" xmlns="http://www.w3.org/2000/svg">
  <g transform="matrix(1 0 0 1 -545 -232 )">
    <path d="M 545 232  L 845 232  L 845 402  L 545 402  L 545 232  " fill-rule="nonzero" fill="#cccccc" stroke="none" />
    <path d="M 557 244  L 833 244  L 833 390  L 557 390  L 557 244  " fill-rule="nonzero" fill="#ffffff" stroke="none" />
    <path d="M 713.75 283  C 706.61 283  701 277.39  701 270.25  C 701 263.11  706.61 257.5  713.75 257.5  C 720.89 257.5  726.5 263.11  726.5 270.25  C 726.5 277.39  720.89 283  713.75 283  " fill-rule="nonzero" fill="#cccccc" stroke="none" />
    <path d="M 562 386  L 562 310.65  L 628.75 276.4  L 722.2 339.42  L 775.6 296.95  L 829 339.42  L 829 386  L 562 386  " fill-rule="nonzero" fill="#169bd5" stroke="none" />
  </g>
</svg>