<?xml version="1.0" encoding="utf-8"?>
<svg version="1.1" xmlns:xlink="http://www.w3.org/1999/xlink" width="12px" height="12px" viewBox="235 174  12 12" xmlns="http://www.w3.org/2000/svg">
  <path d="M 241 174  C 244.36 174  247 176.64  247 180  C 247 183.36  244.36 186  241 186  C 237.64 186  235 183.36  235 180  C 235 176.64  237.64 174  241 174  Z " fill-rule="nonzero" fill="#f0f0f0" stroke="none" />
  <path d="M 241 174.5  C 244.08 174.5  246.5 176.92  246.5 180  C 246.5 183.08  244.08 185.5  241 185.5  C 237.92 185.5  235.5 183.08  235.5 180  C 235.5 176.92  237.92 174.5  241 174.5  Z " stroke-width="1" stroke="#797979" fill="none" />
  <path d="M 241 183  C 239.32 183  238 181.68  238 180  C 238 178.32  239.32 177  241 177  C 242.68 177  244 178.32  244 180  C 244 181.68  242.68 183  241 183  " fill-rule="nonzero" fill="#797979" stroke="none" />
</svg>