<?xml version="1.0" encoding="utf-8"?>
<svg version="1.1" xmlns:xlink="http://www.w3.org/1999/xlink" width="12px" height="12px" viewBox="1053 190  12 12" xmlns="http://www.w3.org/2000/svg">
  <path d="M 1059 190  C 1062.36 190  1065 192.64  1065 196  C 1065 199.36  1062.36 202  1059 202  C 1055.64 202  1053 199.36  1053 196  C 1053 192.64  1055.64 190  1059 190  Z " fill-rule="nonzero" fill="#ffffff" stroke="none" />
  <path d="M 1059 190.5  C 1062.08 190.5  1064.5 192.92  1064.5 196  C 1064.5 199.08  1062.08 201.5  1059 201.5  C 1055.92 201.5  1053.5 199.08  1053.5 196  C 1053.5 192.92  1055.92 190.5  1059 190.5  Z " stroke-width="1" stroke="#797979" fill="none" />
  <path d="M 1059 199  C 1057.32 199  1056 197.68  1056 196  C 1056 194.32  1057.32 193  1059 193  C 1060.68 193  1062 194.32  1062 196  C 1062 197.68  1060.68 199  1059 199  " fill-rule="nonzero" fill="#797979" stroke="none" />
</svg>