<?xml version="1.0" encoding="utf-8"?>
<svg version="1.1" xmlns:xlink="http://www.w3.org/1999/xlink" width="12px" height="12px" viewBox="321 227  12 12" xmlns="http://www.w3.org/2000/svg">
  <path d="M 327 227  C 330.36 227  333 229.64  333 233  C 333 236.36  330.36 239  327 239  C 323.64 239  321 236.36  321 233  C 321 229.64  323.64 227  327 227  Z " fill-rule="nonzero" fill="#f0f0f0" stroke="none" />
  <path d="M 327 227.5  C 330.08 227.5  332.5 229.92  332.5 233  C 332.5 236.08  330.08 238.5  327 238.5  C 323.92 238.5  321.5 236.08  321.5 233  C 321.5 229.92  323.92 227.5  327 227.5  Z " stroke-width="1" stroke="#797979" fill="none" />
  <path d="M 327 236  C 325.32 236  324 234.68  324 233  C 324 231.32  325.32 230  327 230  C 328.68 230  330 231.32  330 233  C 330 234.68  328.68 236  327 236  " fill-rule="nonzero" fill="#797979" stroke="none" />
</svg>