<?xml version="1.0" encoding="utf-8"?>
<svg version="1.1" xmlns:xlink="http://www.w3.org/1999/xlink" width="12px" height="12px" viewBox="256 458  12 12" xmlns="http://www.w3.org/2000/svg">
  <path d="M 262 458  C 265.36 458  268 460.64  268 464  C 268 467.36  265.36 470  262 470  C 258.64 470  256 467.36  256 464  C 256 460.64  258.64 458  262 458  Z " fill-rule="nonzero" fill="#f0f0f0" stroke="none" />
  <path d="M 262 458.5  C 265.08 458.5  267.5 460.92  267.5 464  C 267.5 467.08  265.08 469.5  262 469.5  C 258.92 469.5  256.5 467.08  256.5 464  C 256.5 460.92  258.92 458.5  262 458.5  Z " stroke-width="1" stroke="#797979" fill="none" />
  <path d="M 262 467  C 260.32 467  259 465.68  259 464  C 259 462.32  260.32 461  262 461  C 263.68 461  265 462.32  265 464  C 265 465.68  263.68 467  262 467  " fill-rule="nonzero" fill="#797979" stroke="none" />
</svg>