<?xml version="1.0" encoding="utf-8"?>
<svg version="1.1" xmlns:xlink="http://www.w3.org/1999/xlink" width="12px" height="12px" viewBox="169 227  12 12" xmlns="http://www.w3.org/2000/svg">
  <path d="M 175 227  C 178.36 227  181 229.64  181 233  C 181 236.36  178.36 239  175 239  C 171.64 239  169 236.36  169 233  C 169 229.64  171.64 227  175 227  Z " fill-rule="nonzero" fill="#f0f0f0" stroke="none" />
  <path d="M 175 227.5  C 178.08 227.5  180.5 229.92  180.5 233  C 180.5 236.08  178.08 238.5  175 238.5  C 171.92 238.5  169.5 236.08  169.5 233  C 169.5 229.92  171.92 227.5  175 227.5  Z " stroke-width="1" stroke="#797979" fill="none" />
  <path d="M 175 236  C 173.32 236  172 234.68  172 233  C 172 231.32  173.32 230  175 230  C 176.68 230  178 231.32  178 233  C 178 234.68  176.68 236  175 236  " fill-rule="nonzero" fill="#797979" stroke="none" />
</svg>