<?xml version="1.0" encoding="utf-8"?>
<svg version="1.1" xmlns:xlink="http://www.w3.org/1999/xlink" width="12px" height="12px" viewBox="169 347  12 12" xmlns="http://www.w3.org/2000/svg">
  <path d="M 175 347  C 178.36 347  181 349.64  181 353  C 181 356.36  178.36 359  175 359  C 171.64 359  169 356.36  169 353  C 169 349.64  171.64 347  175 347  Z " fill-rule="nonzero" fill="#f0f0f0" stroke="none" />
  <path d="M 175 347.5  C 178.08 347.5  180.5 349.92  180.5 353  C 180.5 356.08  178.08 358.5  175 358.5  C 171.92 358.5  169.5 356.08  169.5 353  C 169.5 349.92  171.92 347.5  175 347.5  Z " stroke-width="1" stroke="#797979" fill="none" />
  <path d="M 175 356  C 173.32 356  172 354.68  172 353  C 172 351.32  173.32 350  175 350  C 176.68 350  178 351.32  178 353  C 178 354.68  176.68 356  175 356  " fill-rule="nonzero" fill="#797979" stroke="none" />
</svg>