<?xml version="1.0" encoding="utf-8"?>
<svg version="1.1" xmlns:xlink="http://www.w3.org/1999/xlink" width="12px" height="12px" viewBox="242 347  12 12" xmlns="http://www.w3.org/2000/svg">
  <path d="M 248 347  C 251.36 347  254 349.64  254 353  C 254 356.36  251.36 359  248 359  C 244.64 359  242 356.36  242 353  C 242 349.64  244.64 347  248 347  Z " fill-rule="nonzero" fill="#ffffff" stroke="none" />
  <path d="M 248 347.5  C 251.08 347.5  253.5 349.92  253.5 353  C 253.5 356.08  251.08 358.5  248 358.5  C 244.92 358.5  242.5 356.08  242.5 353  C 242.5 349.92  244.92 347.5  248 347.5  Z " stroke-width="1" stroke="#797979" fill="none" />
  <path d="M 248 356  C 246.32 356  245 354.68  245 353  C 245 351.32  246.32 350  248 350  C 249.68 350  251 351.32  251 353  C 251 354.68  249.68 356  248 356  " fill-rule="nonzero" fill="#797979" stroke="none" />
</svg>