<?xml version="1.0" encoding="utf-8"?>
<svg version="1.1" xmlns:xlink="http://www.w3.org/1999/xlink" width="12px" height="12px" viewBox="242 227  12 12" xmlns="http://www.w3.org/2000/svg">
  <path d="M 248 227  C 251.36 227  254 229.64  254 233  C 254 236.36  251.36 239  248 239  C 244.64 239  242 236.36  242 233  C 242 229.64  244.64 227  248 227  Z " fill-rule="nonzero" fill="#f0f0f0" stroke="none" />
  <path d="M 248 227.5  C 251.08 227.5  253.5 229.92  253.5 233  C 253.5 236.08  251.08 238.5  248 238.5  C 244.92 238.5  242.5 236.08  242.5 233  C 242.5 229.92  244.92 227.5  248 227.5  Z " stroke-width="1" stroke="#797979" fill="none" />
  <path d="M 248 236  C 246.32 236  245 234.68  245 233  C 245 231.32  246.32 230  248 230  C 249.68 230  251 231.32  251 233  C 251 234.68  249.68 236  248 236  " fill-rule="nonzero" fill="#797979" stroke="none" />
</svg>