<?xml version="1.0" encoding="utf-8"?>
<svg version="1.1" xmlns:xlink="http://www.w3.org/1999/xlink" width="12px" height="12px" viewBox="321 347  12 12" xmlns="http://www.w3.org/2000/svg">
  <path d="M 327 347  C 330.36 347  333 349.64  333 353  C 333 356.36  330.36 359  327 359  C 323.64 359  321 356.36  321 353  C 321 349.64  323.64 347  327 347  Z " fill-rule="nonzero" fill="#ffffff" stroke="none" />
  <path d="M 327 347.5  C 330.08 347.5  332.5 349.92  332.5 353  C 332.5 356.08  330.08 358.5  327 358.5  C 323.92 358.5  321.5 356.08  321.5 353  C 321.5 349.92  323.92 347.5  327 347.5  Z " stroke-width="1" stroke="#797979" fill="none" />
  <path d="M 327 356  C 325.32 356  324 354.68  324 353  C 324 351.32  325.32 350  327 350  C 328.68 350  330 351.32  330 353  C 330 354.68  328.68 356  327 356  " fill-rule="nonzero" fill="#797979" stroke="none" />
</svg>