<?xml version="1.0" encoding="utf-8"?>
<svg version="1.1" xmlns:xlink="http://www.w3.org/1999/xlink" width="12px" height="12px" viewBox="394 227  12 12" xmlns="http://www.w3.org/2000/svg">
  <path d="M 400 227  C 403.36 227  406 229.64  406 233  C 406 236.36  403.36 239  400 239  C 396.64 239  394 236.36  394 233  C 394 229.64  396.64 227  400 227  Z " fill-rule="nonzero" fill="#ffffff" stroke="none" />
  <path d="M 400 227.5  C 403.08 227.5  405.5 229.92  405.5 233  C 405.5 236.08  403.08 238.5  400 238.5  C 396.92 238.5  394.5 236.08  394.5 233  C 394.5 229.92  396.92 227.5  400 227.5  Z " stroke-width="1" stroke="#797979" fill="none" />
  <path d="M 400 236  C 398.32 236  397 234.68  397 233  C 397 231.32  398.32 230  400 230  C 401.68 230  403 231.32  403 233  C 403 234.68  401.68 236  400 236  " fill-rule="nonzero" fill="#797979" stroke="none" />
</svg>