<?xml version="1.0" encoding="utf-8"?>
<svg version="1.1" xmlns:xlink="http://www.w3.org/1999/xlink" width="12px" height="12px" viewBox="240 101  12 12" xmlns="http://www.w3.org/2000/svg">
  <path d="M 246 101  C 249.36 101  252 103.64  252 107  C 252 110.36  249.36 113  246 113  C 242.64 113  240 110.36  240 107  C 240 103.64  242.64 101  246 101  Z " fill-rule="nonzero" fill="#ffffff" stroke="none" />
  <path d="M 246 101.5  C 249.08 101.5  251.5 103.92  251.5 107  C 251.5 110.08  249.08 112.5  246 112.5  C 242.92 112.5  240.5 110.08  240.5 107  C 240.5 103.92  242.92 101.5  246 101.5  Z " stroke-width="1" stroke="#797979" fill="none" />
  <path d="M 246 110  C 244.32 110  243 108.68  243 107  C 243 105.32  244.32 104  246 104  C 247.68 104  249 105.32  249 107  C 249 108.68  247.68 110  246 110  " fill-rule="nonzero" fill="#797979" stroke="none" />
</svg>