<?xml version="1.0" encoding="utf-8"?>
<svg version="1.1" xmlns:xlink="http://www.w3.org/1999/xlink" width="12px" height="12px" viewBox="140 101  12 12" xmlns="http://www.w3.org/2000/svg">
  <path d="M 146 101  C 149.36 101  152 103.64  152 107  C 152 110.36  149.36 113  146 113  C 142.64 113  140 110.36  140 107  C 140 103.64  142.64 101  146 101  Z " fill-rule="nonzero" fill="#f0f0f0" stroke="none" />
  <path d="M 146 101.5  C 149.08 101.5  151.5 103.92  151.5 107  C 151.5 110.08  149.08 112.5  146 112.5  C 142.92 112.5  140.5 110.08  140.5 107  C 140.5 103.92  142.92 101.5  146 101.5  Z " stroke-width="1" stroke="#797979" fill="none" />
  <path d="M 146 110  C 144.32 110  143 108.68  143 107  C 143 105.32  144.32 104  146 104  C 147.68 104  149 105.32  149 107  C 149 108.68  147.68 110  146 110  " fill-rule="nonzero" fill="#797979" stroke="none" />
</svg>