<?xml version="1.0" encoding="utf-8"?>
<svg version="1.1" xmlns:xlink="http://www.w3.org/1999/xlink" width="12px" height="12px" viewBox="364 224  12 12" xmlns="http://www.w3.org/2000/svg">
  <path d="M 370 224  C 373.36 224  376 226.64  376 230  C 376 233.36  373.36 236  370 236  C 366.64 236  364 233.36  364 230  C 364 226.64  366.64 224  370 224  Z " fill-rule="nonzero" fill="#f0f0f0" stroke="none" />
  <path d="M 370 224.5  C 373.08 224.5  375.5 226.92  375.5 230  C 375.5 233.08  373.08 235.5  370 235.5  C 366.92 235.5  364.5 233.08  364.5 230  C 364.5 226.92  366.92 224.5  370 224.5  Z " stroke-width="1" stroke="#797979" fill="none" />
  <path d="M 370 233  C 368.32 233  367 231.68  367 230  C 367 228.32  368.32 227  370 227  C 371.68 227  373 228.32  373 230  C 373 231.68  371.68 233  370 233  " fill-rule="nonzero" fill="#797979" stroke="none" />
</svg>