<?xml version="1.0" encoding="utf-8"?>
<svg version="1.1" xmlns:xlink="http://www.w3.org/1999/xlink" width="12px" height="12px" viewBox="469 224  12 12" xmlns="http://www.w3.org/2000/svg">
  <path d="M 475 224  C 478.36 224  481 226.64  481 230  C 481 233.36  478.36 236  475 236  C 471.64 236  469 233.36  469 230  C 469 226.64  471.64 224  475 224  Z " fill-rule="nonzero" fill="#f0f0f0" stroke="none" />
  <path d="M 475 224.5  C 478.08 224.5  480.5 226.92  480.5 230  C 480.5 233.08  478.08 235.5  475 235.5  C 471.92 235.5  469.5 233.08  469.5 230  C 469.5 226.92  471.92 224.5  475 224.5  Z " stroke-width="1" stroke="#797979" fill="none" />
  <path d="M 475 233  C 473.32 233  472 231.68  472 230  C 472 228.32  473.32 227  475 227  C 476.68 227  478 228.32  478 230  C 478 231.68  476.68 233  475 233  " fill-rule="nonzero" fill="#797979" stroke="none" />
</svg>