<?xml version="1.0" encoding="utf-8"?>
<svg version="1.1" xmlns:xlink="http://www.w3.org/1999/xlink" width="12px" height="12px" viewBox="863 95  12 12" xmlns="http://www.w3.org/2000/svg">
  <path d="M 869 95  C 872.36 95  875 97.64  875 101  C 875 104.36  872.36 107  869 107  C 865.64 107  863 104.36  863 101  C 863 97.64  865.64 95  869 95  Z " fill-rule="nonzero" fill="#f0f0f0" stroke="none" />
  <path d="M 869 95.5  C 872.08 95.5  874.5 97.92  874.5 101  C 874.5 104.08  872.08 106.5  869 106.5  C 865.92 106.5  863.5 104.08  863.5 101  C 863.5 97.92  865.92 95.5  869 95.5  Z " stroke-width="1" stroke="#797979" fill="none" />
  <path d="M 869 104  C 867.32 104  866 102.68  866 101  C 866 99.32  867.32 98  869 98  C 870.68 98  872 99.32  872 101  C 872 102.68  870.68 104  869 104  " fill-rule="nonzero" fill="#797979" stroke="none" />
</svg>