<?xml version="1.0" encoding="utf-8"?>
<svg version="1.1" xmlns:xlink="http://www.w3.org/1999/xlink" width="12px" height="12px" viewBox="968 95  12 12" xmlns="http://www.w3.org/2000/svg">
  <path d="M 974 95  C 977.36 95  980 97.64  980 101  C 980 104.36  977.36 107  974 107  C 970.64 107  968 104.36  968 101  C 968 97.64  970.64 95  974 95  Z " fill-rule="nonzero" fill="#f0f0f0" stroke="none" />
  <path d="M 974 95.5  C 977.08 95.5  979.5 97.92  979.5 101  C 979.5 104.08  977.08 106.5  974 106.5  C 970.92 106.5  968.5 104.08  968.5 101  C 968.5 97.92  970.92 95.5  974 95.5  Z " stroke-width="1" stroke="#797979" fill="none" />
  <path d="M 974 104  C 972.32 104  971 102.68  971 101  C 971 99.32  972.32 98  974 98  C 975.68 98  977 99.32  977 101  C 977 102.68  975.68 104  974 104  " fill-rule="nonzero" fill="#797979" stroke="none" />
</svg>