<?xml version="1.0" encoding="utf-8"?>
<svg version="1.1" xmlns:xlink="http://www.w3.org/1999/xlink" width="12px" height="12px" viewBox="364 146  12 12" xmlns="http://www.w3.org/2000/svg">
  <path d="M 370 146  C 373.36 146  376 148.64  376 152  C 376 155.36  373.36 158  370 158  C 366.64 158  364 155.36  364 152  C 364 148.64  366.64 146  370 146  Z " fill-rule="nonzero" fill="#ffffff" stroke="none" />
  <path d="M 370 146.5  C 373.08 146.5  375.5 148.92  375.5 152  C 375.5 155.08  373.08 157.5  370 157.5  C 366.92 157.5  364.5 155.08  364.5 152  C 364.5 148.92  366.92 146.5  370 146.5  Z " stroke-width="1" stroke="#797979" fill="none" />
  <path d="M 370 155  C 368.32 155  367 153.68  367 152  C 367 150.32  368.32 149  370 149  C 371.68 149  373 150.32  373 152  C 373 153.68  371.68 155  370 155  " fill-rule="nonzero" fill="#797979" stroke="none" />
</svg>