<?xml version="1.0" encoding="utf-8"?>
<svg version="1.1" xmlns:xlink="http://www.w3.org/1999/xlink" width="12px" height="12px" viewBox="307 673  12 12" xmlns="http://www.w3.org/2000/svg">
  <path d="M 313 673  C 316.36 673  319 675.64  319 679  C 319 682.36  316.36 685  313 685  C 309.64 685  307 682.36  307 679  C 307 675.64  309.64 673  313 673  Z " fill-rule="nonzero" fill="#f0f0f0" stroke="none" />
  <path d="M 313 673.5  C 316.08 673.5  318.5 675.92  318.5 679  C 318.5 682.08  316.08 684.5  313 684.5  C 309.92 684.5  307.5 682.08  307.5 679  C 307.5 675.92  309.92 673.5  313 673.5  Z " stroke-width="1" stroke="#797979" fill="none" />
  <path d="M 313 682  C 311.32 682  310 680.68  310 679  C 310 677.32  311.32 676  313 676  C 314.68 676  316 677.32  316 679  C 316 680.68  314.68 682  313 682  " fill-rule="nonzero" fill="#797979" stroke="none" />
</svg>