<?xml version="1.0" encoding="utf-8"?>
<svg version="1.1" xmlns:xlink="http://www.w3.org/1999/xlink" width="12px" height="12px" viewBox="263 202  12 12" xmlns="http://www.w3.org/2000/svg">
  <path d="M 269 202  C 272.36 202  275 204.64  275 208  C 275 211.36  272.36 214  269 214  C 265.64 214  263 211.36  263 208  C 263 204.64  265.64 202  269 202  Z " fill-rule="nonzero" fill="#f0f0f0" stroke="none" />
  <path d="M 269 202.5  C 272.08 202.5  274.5 204.92  274.5 208  C 274.5 211.08  272.08 213.5  269 213.5  C 265.92 213.5  263.5 211.08  263.5 208  C 263.5 204.92  265.92 202.5  269 202.5  Z " stroke-width="1" stroke="#797979" fill="none" />
  <path d="M 269 211  C 267.32 211  266 209.68  266 208  C 266 206.32  267.32 205  269 205  C 270.68 205  272 206.32  272 208  C 272 209.68  270.68 211  269 211  " fill-rule="nonzero" fill="#797979" stroke="none" />
</svg>