<?xml version="1.0" encoding="utf-8"?>
<svg version="1.1" xmlns:xlink="http://www.w3.org/1999/xlink" width="12px" height="12px" viewBox="263 140  12 12" xmlns="http://www.w3.org/2000/svg">
  <path d="M 269 140  C 272.36 140  275 142.64  275 146  C 275 149.36  272.36 152  269 152  C 265.64 152  263 149.36  263 146  C 263 142.64  265.64 140  269 140  Z " fill-rule="nonzero" fill="#f0f0f0" stroke="none" />
  <path d="M 269 140.5  C 272.08 140.5  274.5 142.92  274.5 146  C 274.5 149.08  272.08 151.5  269 151.5  C 265.92 151.5  263.5 149.08  263.5 146  C 263.5 142.92  265.92 140.5  269 140.5  Z " stroke-width="1" stroke="#797979" fill="none" />
  <path d="M 269 149  C 267.32 149  266 147.68  266 146  C 266 144.32  267.32 143  269 143  C 270.68 143  272 144.32  272 146  C 272 147.68  270.68 149  269 149  " fill-rule="nonzero" fill="#797979" stroke="none" />
</svg>