<?xml version="1.0" encoding="utf-8"?>
<svg version="1.1" xmlns:xlink="http://www.w3.org/1999/xlink" width="26px" height="26px" xmlns="http://www.w3.org/2000/svg">
  <g transform="matrix(1 0 0 1 -251 -284 )">
    <path d="M 264 284  C 271.28 284  277 289.72  277 297  C 277 304.28  271.28 310  264 310  C 256.72 310  251 304.28  251 297  C 251 289.72  256.72 284  264 284  Z " fill-rule="nonzero" fill="#ffffff" stroke="none" />
    <path d="M 264 284.5  C 271 284.5  276.5 290  276.5 297  C 276.5 304  271 309.5  264 309.5  C 257 309.5  251.5 304  251.5 297  C 251.5 290  257 284.5  264 284.5  Z " stroke-width="1" stroke="#797979" fill="none" />
  </g>
</svg>