<?xml version="1.0" encoding="utf-8"?>
<svg version="1.1" xmlns:xlink="http://www.w3.org/1999/xlink" width="12px" height="12px" viewBox="263 170  12 12" xmlns="http://www.w3.org/2000/svg">
  <path d="M 269 170  C 272.36 170  275 172.64  275 176  C 275 179.36  272.36 182  269 182  C 265.64 182  263 179.36  263 176  C 263 172.64  265.64 170  269 170  Z " fill-rule="nonzero" fill="#ffffff" stroke="none" />
  <path d="M 269 170.5  C 272.08 170.5  274.5 172.92  274.5 176  C 274.5 179.08  272.08 181.5  269 181.5  C 265.92 181.5  263.5 179.08  263.5 176  C 263.5 172.92  265.92 170.5  269 170.5  Z " stroke-width="1" stroke="#797979" fill="none" />
  <path d="M 269 179  C 267.32 179  266 177.68  266 176  C 266 174.32  267.32 173  269 173  C 270.68 173  272 174.32  272 176  C 272 177.68  270.68 179  269 179  " fill-rule="nonzero" fill="#797979" stroke="none" />
</svg>