<svg t="1611623688989" class="icon" viewBox="0 0 1024 1024" version="1.1" xmlns="http://www.w3.org/2000/svg" p-id="9448" width="200" height="200"><path d="M981.81 264.77c24.3 18.39 39.35 43.02 42.38 69.37v497.92c0.33 27.56-13.94 54.01-39.42 73.03-24.36 18.42-56.84 28.76-90.69 28.88H137.15c-35.2 0.26-68.95-10.91-93.24-30.87-24.23-19.65-37.5-46.05-36.87-73.36V236.89c-0.34-27.57 13.93-54.01 39.41-73.03 24.36-18.42 56.84-28.77 90.7-28.88h251.32c18.48 0.78 36.54 4.62 52.97 11.29 16.37 6.26 30.82 15.2 42.38 26.22l42.39 37.84c5.61 7.61 13.11 14.26 22.03 19.59 9.5 4.99 20.79 7.43 32.21 6.97h307.27c34.78-0.56 68.5 9.43 94.09 27.88z" fill="#FBC95F" p-id="9449"></path><path d="M7.01 443.79l0.02-206.9c-0.34-27.57 13.93-54.01 39.41-73.03 24.36-18.42 56.84-28.77 90.7-28.88h251.32c18.48 0.78 36.54 4.62 52.97 11.29 16.37 6.26 30.82 15.2 42.38 26.22l42.39 37.84c5.61 7.61 13.11 14.26 22.03 19.59 9.5 4.99 20.79 7.43 32.21 6.97h307.27c34.78-0.56 68.49 9.43 94.09 27.88 24.3 18.39 39.35 43.02 42.38 69.37v110.2L7.01 443.79z" fill="#FE9D02" p-id="9450"></path><path d="M716.92 534.48c-6.14-14.63-23.31-22.68-39.84-18.66h-82.65V403.48c1.94-10.76-1.9-21.71-10.3-29.42-8.41-7.71-20.35-11.23-32.08-9.46h-78.83c-10.8 0.55-20.96 4.86-28.4 12.05-7.84 6.82-12.54 16.14-13.14 26.04v112.35h-89.84c-6.97-0.07-13.84 1.54-19.92 4.66-6.3 3.15-11.35 8.05-14.42 14-3.15 5.92-4.61 12.47-4.23 19.05 1.18 7.02 4.91 13.45 10.59 18.27L483.4 734.3c3.59 3.15 7.57 5.89 11.86 8.17 4.78 2.56 10.16 4.03 15.69 4.27 5.09 2.24 11.01 2.24 16.11 0 4.31-2.1 8.29-4.71 11.87-7.77l169.52-169.11c9.81-9.42 12.94-23.14 8.05-35.38h0.42z" fill="#FFFFFF" p-id="9451"></path></svg>