<?xml version="1.0" encoding="utf-8"?>
<svg version="1.1" xmlns:xlink="http://www.w3.org/1999/xlink" width="12px" height="12px" viewBox="303 291  12 12" xmlns="http://www.w3.org/2000/svg">
  <path d="M 309 291  C 312.36 291  315 293.64  315 297  C 315 300.36  312.36 303  309 303  C 305.64 303  303 300.36  303 297  C 303 293.64  305.64 291  309 291  Z " fill-rule="nonzero" fill="#ffffff" stroke="none" />
  <path d="M 309 291.5  C 312.08 291.5  314.5 293.92  314.5 297  C 314.5 300.08  312.08 302.5  309 302.5  C 305.92 302.5  303.5 300.08  303.5 297  C 303.5 293.92  305.92 291.5  309 291.5  Z " stroke-width="1" stroke="#797979" fill="none" />
  <path d="M 309 300  C 307.32 300  306 298.68  306 297  C 306 295.32  307.32 294  309 294  C 310.68 294  312 295.32  312 297  C 312 298.68  310.68 300  309 300  " fill-rule="nonzero" fill="#797979" stroke="none" />
</svg>