<?xml version="1.0" encoding="utf-8"?>
<svg version="1.1" xmlns:xlink="http://www.w3.org/1999/xlink" width="12px" height="12px" viewBox="378 291  12 12" xmlns="http://www.w3.org/2000/svg">
  <path d="M 384 291  C 387.36 291  390 293.64  390 297  C 390 300.36  387.36 303  384 303  C 380.64 303  378 300.36  378 297  C 378 293.64  380.64 291  384 291  Z " fill-rule="nonzero" fill="#ffffff" stroke="none" />
  <path d="M 384 291.5  C 387.08 291.5  389.5 293.92  389.5 297  C 389.5 300.08  387.08 302.5  384 302.5  C 380.92 302.5  378.5 300.08  378.5 297  C 378.5 293.92  380.92 291.5  384 291.5  Z " stroke-width="1" stroke="#797979" fill="none" />
  <path d="M 384 300  C 382.32 300  381 298.68  381 297  C 381 295.32  382.32 294  384 294  C 385.68 294  387 295.32  387 297  C 387 298.68  385.68 300  384 300  " fill-rule="nonzero" fill="#797979" stroke="none" />
</svg>