<?xml version="1.0" encoding="utf-8"?>
<svg version="1.1" xmlns:xlink="http://www.w3.org/1999/xlink" width="12px" height="12px" viewBox="44 223  12 12" xmlns="http://www.w3.org/2000/svg">
  <path d="M 50 223  C 53.36 223  56 225.64  56 229  C 56 232.36  53.36 235  50 235  C 46.64 235  44 232.36  44 229  C 44 225.64  46.64 223  50 223  Z " fill-rule="nonzero" fill="#f0f0f0" stroke="none" />
  <path d="M 50 223.5  C 53.08 223.5  55.5 225.92  55.5 229  C 55.5 232.08  53.08 234.5  50 234.5  C 46.92 234.5  44.5 232.08  44.5 229  C 44.5 225.92  46.92 223.5  50 223.5  Z " stroke-width="1" stroke="#797979" fill="none" />
  <path d="M 50 232  C 48.32 232  47 230.68  47 229  C 47 227.32  48.32 226  50 226  C 51.68 226  53 227.32  53 229  C 53 230.68  51.68 232  50 232  " fill-rule="nonzero" fill="#797979" stroke="none" />
</svg>