<?xml version="1.0" encoding="utf-8"?>
<svg version="1.1" xmlns:xlink="http://www.w3.org/1999/xlink" width="12px" height="12px" viewBox="400 432  12 12" xmlns="http://www.w3.org/2000/svg">
  <path d="M 406 432  C 409.36 432  412 434.64  412 438  C 412 441.36  409.36 444  406 444  C 402.64 444  400 441.36  400 438  C 400 434.64  402.64 432  406 432  Z " fill-rule="nonzero" fill="#f0f0f0" stroke="none" />
  <path d="M 406 432.5  C 409.08 432.5  411.5 434.92  411.5 438  C 411.5 441.08  409.08 443.5  406 443.5  C 402.92 443.5  400.5 441.08  400.5 438  C 400.5 434.92  402.92 432.5  406 432.5  Z " stroke-width="1" stroke="#797979" fill="none" />
  <path d="M 406 441  C 404.32 441  403 439.68  403 438  C 403 436.32  404.32 435  406 435  C 407.68 435  409 436.32  409 438  C 409 439.68  407.68 441  406 441  " fill-rule="nonzero" fill="#797979" stroke="none" />
</svg>