<?xml version="1.0" encoding="utf-8"?>
<svg version="1.1" xmlns:xlink="http://www.w3.org/1999/xlink" width="12px" height="12px" viewBox="280 432  12 12" xmlns="http://www.w3.org/2000/svg">
  <path d="M 286 432  C 289.36 432  292 434.64  292 438  C 292 441.36  289.36 444  286 444  C 282.64 444  280 441.36  280 438  C 280 434.64  282.64 432  286 432  Z " fill-rule="nonzero" fill="#ffffff" stroke="none" />
  <path d="M 286 432.5  C 289.08 432.5  291.5 434.92  291.5 438  C 291.5 441.08  289.08 443.5  286 443.5  C 282.92 443.5  280.5 441.08  280.5 438  C 280.5 434.92  282.92 432.5  286 432.5  Z " stroke-width="1" stroke="#797979" fill="none" />
  <path d="M 286 441  C 284.32 441  283 439.68  283 438  C 283 436.32  284.32 435  286 435  C 287.68 435  289 436.32  289 438  C 289 439.68  287.68 441  286 441  " fill-rule="nonzero" fill="#797979" stroke="none" />
</svg>