<?xml version="1.0" encoding="utf-8"?>
<svg version="1.1" xmlns:xlink="http://www.w3.org/1999/xlink" width="12px" height="12px" viewBox="380 444  12 12" xmlns="http://www.w3.org/2000/svg">
  <path d="M 386 444  C 389.36 444  392 446.64  392 450  C 392 453.36  389.36 456  386 456  C 382.64 456  380 453.36  380 450  C 380 446.64  382.64 444  386 444  Z " fill-rule="nonzero" fill="#f0f0f0" stroke="none" />
  <path d="M 386 444.5  C 389.08 444.5  391.5 446.92  391.5 450  C 391.5 453.08  389.08 455.5  386 455.5  C 382.92 455.5  380.5 453.08  380.5 450  C 380.5 446.92  382.92 444.5  386 444.5  Z " stroke-width="1" stroke="#797979" fill="none" />
  <path d="M 386 453  C 384.32 453  383 451.68  383 450  C 383 448.32  384.32 447  386 447  C 387.68 447  389 448.32  389 450  C 389 451.68  387.68 453  386 453  " fill-rule="nonzero" fill="#797979" stroke="none" />
</svg>