<?xml version="1.0" encoding="utf-8"?>
<svg version="1.1" xmlns:xlink="http://www.w3.org/1999/xlink" width="12px" height="12px" viewBox="280 444  12 12" xmlns="http://www.w3.org/2000/svg">
  <path d="M 286 444  C 289.36 444  292 446.64  292 450  C 292 453.36  289.36 456  286 456  C 282.64 456  280 453.36  280 450  C 280 446.64  282.64 444  286 444  Z " fill-rule="nonzero" fill="#ffffff" stroke="none" />
  <path d="M 286 444.5  C 289.08 444.5  291.5 446.92  291.5 450  C 291.5 453.08  289.08 455.5  286 455.5  C 282.92 455.5  280.5 453.08  280.5 450  C 280.5 446.92  282.92 444.5  286 444.5  Z " stroke-width="1" stroke="#797979" fill="none" />
  <path d="M 286 453  C 284.32 453  283 451.68  283 450  C 283 448.32  284.32 447  286 447  C 287.68 447  289 448.32  289 450  C 289 451.68  287.68 453  286 453  " fill-rule="nonzero" fill="#797979" stroke="none" />
</svg>