<?xml version="1.0" encoding="utf-8"?>
<svg version="1.1" xmlns:xlink="http://www.w3.org/1999/xlink" width="12px" height="12px" viewBox="480 444  12 12" xmlns="http://www.w3.org/2000/svg">
  <path d="M 486 444  C 489.36 444  492 446.64  492 450  C 492 453.36  489.36 456  486 456  C 482.64 456  480 453.36  480 450  C 480 446.64  482.64 444  486 444  Z " fill-rule="nonzero" fill="#ffffff" stroke="none" />
  <path d="M 486 444.5  C 489.08 444.5  491.5 446.92  491.5 450  C 491.5 453.08  489.08 455.5  486 455.5  C 482.92 455.5  480.5 453.08  480.5 450  C 480.5 446.92  482.92 444.5  486 444.5  Z " stroke-width="1" stroke="#797979" fill="none" />
  <path d="M 486 453  C 484.32 453  483 451.68  483 450  C 483 448.32  484.32 447  486 447  C 487.68 447  489 448.32  489 450  C 489 451.68  487.68 453  486 453  " fill-rule="nonzero" fill="#797979" stroke="none" />
</svg>