<?xml version="1.0" encoding="utf-8"?>
<svg version="1.1" xmlns:xlink="http://www.w3.org/1999/xlink" width="12px" height="12px" viewBox="655 230  12 12" xmlns="http://www.w3.org/2000/svg">
  <path d="M 661 230  C 664.36 230  667 232.64  667 236  C 667 239.36  664.36 242  661 242  C 657.64 242  655 239.36  655 236  C 655 232.64  657.64 230  661 230  Z " fill-rule="nonzero" fill="#f0f0f0" stroke="none" />
  <path d="M 661 230.5  C 664.08 230.5  666.5 232.92  666.5 236  C 666.5 239.08  664.08 241.5  661 241.5  C 657.92 241.5  655.5 239.08  655.5 236  C 655.5 232.92  657.92 230.5  661 230.5  Z " stroke-width="1" stroke="#797979" fill="none" />
  <path d="M 661 239  C 659.32 239  658 237.68  658 236  C 658 234.32  659.32 233  661 233  C 662.68 233  664 234.32  664 236  C 664 237.68  662.68 239  661 239  " fill-rule="nonzero" fill="#797979" stroke="none" />
</svg>