<?xml version="1.0" encoding="utf-8"?>
<svg version="1.1" xmlns:xlink="http://www.w3.org/1999/xlink" width="12px" height="12px" viewBox="453 230  12 12" xmlns="http://www.w3.org/2000/svg">
  <path d="M 459 230  C 462.36 230  465 232.64  465 236  C 465 239.36  462.36 242  459 242  C 455.64 242  453 239.36  453 236  C 453 232.64  455.64 230  459 230  Z " fill-rule="nonzero" fill="#ffffff" stroke="none" />
  <path d="M 459 230.5  C 462.08 230.5  464.5 232.92  464.5 236  C 464.5 239.08  462.08 241.5  459 241.5  C 455.92 241.5  453.5 239.08  453.5 236  C 453.5 232.92  455.92 230.5  459 230.5  Z " stroke-width="1" stroke="#797979" fill="none" />
  <path d="M 459 239  C 457.32 239  456 237.68  456 236  C 456 234.32  457.32 233  459 233  C 460.68 233  462 234.32  462 236  C 462 237.68  460.68 239  459 239  " fill-rule="nonzero" fill="#797979" stroke="none" />
</svg>