<?xml version="1.0" encoding="utf-8"?>
<svg version="1.1" xmlns:xlink="http://www.w3.org/1999/xlink" width="12px" height="12px" viewBox="850 157  12 12" xmlns="http://www.w3.org/2000/svg">
  <path d="M 856 157  C 859.36 157  862 159.64  862 163  C 862 166.36  859.36 169  856 169  C 852.64 169  850 166.36  850 163  C 850 159.64  852.64 157  856 157  Z " fill-rule="nonzero" fill="#f0f0f0" stroke="none" />
  <path d="M 856 157.5  C 859.08 157.5  861.5 159.92  861.5 163  C 861.5 166.08  859.08 168.5  856 168.5  C 852.92 168.5  850.5 166.08  850.5 163  C 850.5 159.92  852.92 157.5  856 157.5  Z " stroke-width="1" stroke="#797979" fill="none" />
  <path d="M 856 166  C 854.32 166  853 164.68  853 163  C 853 161.32  854.32 160  856 160  C 857.68 160  859 161.32  859 163  C 859 164.68  857.68 166  856 166  " fill-rule="nonzero" fill="#797979" stroke="none" />
</svg>