<?xml version="1.0" encoding="utf-8"?>
<svg version="1.1" xmlns:xlink="http://www.w3.org/1999/xlink" width="33px" height="35px" xmlns="http://www.w3.org/2000/svg">
  <g transform="matrix(1 0 0 1 -283 -283 )">
    <path d="M 299.5 283  C 308.74 283  316 290.7  316 300.5  C 316 310.3  308.74 318  299.5 318  C 290.26 318  283 310.3  283 300.5  C 283 290.7  290.26 283  299.5 283  Z " fill-rule="nonzero" fill="#f2f2f2" stroke="none" />
    <path d="M 299.5 283.5  C 308.46 283.5  315.5 290.98  315.5 300.5  C 315.5 310.02  308.46 317.5  299.5 317.5  C 290.54 317.5  283.5 310.02  283.5 300.5  C 283.5 290.98  290.54 283.5  299.5 283.5  Z " stroke-width="1" stroke="#797979" fill="none" />
  </g>
</svg>