<?xml version="1.0" encoding="utf-8"?>
<svg version="1.1" xmlns:xlink="http://www.w3.org/1999/xlink" width="12px" height="12px" viewBox="111 202  12 12" xmlns="http://www.w3.org/2000/svg">
  <path d="M 117 202  C 120.36 202  123 204.64  123 208  C 123 211.36  120.36 214  117 214  C 113.64 214  111 211.36  111 208  C 111 204.64  113.64 202  117 202  Z " fill-rule="nonzero" fill="#ffffff" stroke="none" />
  <path d="M 117 202.5  C 120.08 202.5  122.5 204.92  122.5 208  C 122.5 211.08  120.08 213.5  117 213.5  C 113.92 213.5  111.5 211.08  111.5 208  C 111.5 204.92  113.92 202.5  117 202.5  Z " stroke-width="1" stroke="#797979" fill="none" />
  <path d="M 117 211  C 115.32 211  114 209.68  114 208  C 114 206.32  115.32 205  117 205  C 118.68 205  120 206.32  120 208  C 120 209.68  118.68 211  117 211  " fill-rule="nonzero" fill="#797979" stroke="none" />
</svg>