<?xml version="1.0" encoding="utf-8"?>
<svg version="1.1" xmlns:xlink="http://www.w3.org/1999/xlink" width="12px" height="12px" viewBox="111 140  12 12" xmlns="http://www.w3.org/2000/svg">
  <path d="M 117 140  C 120.36 140  123 142.64  123 146  C 123 149.36  120.36 152  117 152  C 113.64 152  111 149.36  111 146  C 111 142.64  113.64 140  117 140  Z " fill-rule="nonzero" fill="#f0f0f0" stroke="none" />
  <path d="M 117 140.5  C 120.08 140.5  122.5 142.92  122.5 146  C 122.5 149.08  120.08 151.5  117 151.5  C 113.92 151.5  111.5 149.08  111.5 146  C 111.5 142.92  113.92 140.5  117 140.5  Z " stroke-width="1" stroke="#797979" fill="none" />
  <path d="M 117 149  C 115.32 149  114 147.68  114 146  C 114 144.32  115.32 143  117 143  C 118.68 143  120 144.32  120 146  C 120 147.68  118.68 149  117 149  " fill-rule="nonzero" fill="#797979" stroke="none" />
</svg>