<?xml version="1.0" encoding="utf-8"?>
<svg version="1.1" xmlns:xlink="http://www.w3.org/1999/xlink" width="12px" height="12px" viewBox="111 170  12 12" xmlns="http://www.w3.org/2000/svg">
  <path d="M 117 170  C 120.36 170  123 172.64  123 176  C 123 179.36  120.36 182  117 182  C 113.64 182  111 179.36  111 176  C 111 172.64  113.64 170  117 170  Z " fill-rule="nonzero" fill="#f0f0f0" stroke="none" />
  <path d="M 117 170.5  C 120.08 170.5  122.5 172.92  122.5 176  C 122.5 179.08  120.08 181.5  117 181.5  C 113.92 181.5  111.5 179.08  111.5 176  C 111.5 172.92  113.92 170.5  117 170.5  Z " stroke-width="1" stroke="#797979" fill="none" />
  <path d="M 117 179  C 115.32 179  114 177.68  114 176  C 114 174.32  115.32 173  117 173  C 118.68 173  120 174.32  120 176  C 120 177.68  118.68 179  117 179  " fill-rule="nonzero" fill="#797979" stroke="none" />
</svg>