<?xml version="1.0" encoding="utf-8"?>
<svg version="1.1" xmlns:xlink="http://www.w3.org/1999/xlink" width="12px" height="12px" viewBox="111 239  12 12" xmlns="http://www.w3.org/2000/svg">
  <path d="M 117 239  C 120.36 239  123 241.64  123 245  C 123 248.36  120.36 251  117 251  C 113.64 251  111 248.36  111 245  C 111 241.64  113.64 239  117 239  Z " fill-rule="nonzero" fill="#ffffff" stroke="none" />
  <path d="M 117 239.5  C 120.08 239.5  122.5 241.92  122.5 245  C 122.5 248.08  120.08 250.5  117 250.5  C 113.92 250.5  111.5 248.08  111.5 245  C 111.5 241.92  113.92 239.5  117 239.5  Z " stroke-width="1" stroke="#797979" fill="none" />
  <path d="M 117 248  C 115.32 248  114 246.68  114 245  C 114 243.32  115.32 242  117 242  C 118.68 242  120 243.32  120 245  C 120 246.68  118.68 248  117 248  " fill-rule="nonzero" fill="#797979" stroke="none" />
</svg>