<?xml version="1.0" encoding="utf-8"?>
<svg version="1.1" xmlns:xlink="http://www.w3.org/1999/xlink" width="12px" height="12px" viewBox="189 241  12 12" xmlns="http://www.w3.org/2000/svg">
  <path d="M 195 241  C 198.36 241  201 243.64  201 247  C 201 250.36  198.36 253  195 253  C 191.64 253  189 250.36  189 247  C 189 243.64  191.64 241  195 241  Z " fill-rule="nonzero" fill="#f0f0f0" stroke="none" />
  <path d="M 195 241.5  C 198.08 241.5  200.5 243.92  200.5 247  C 200.5 250.08  198.08 252.5  195 252.5  C 191.92 252.5  189.5 250.08  189.5 247  C 189.5 243.92  191.92 241.5  195 241.5  Z " stroke-width="1" stroke="#797979" fill="none" />
  <path d="M 195 250  C 193.32 250  192 248.68  192 247  C 192 245.32  193.32 244  195 244  C 196.68 244  198 245.32  198 247  C 198 248.68  196.68 250  195 250  " fill-rule="nonzero" fill="#797979" stroke="none" />
</svg>