<?xml version="1.0" encoding="utf-8"?>
<svg version="1.1" xmlns:xlink="http://www.w3.org/1999/xlink" width="12px" height="12px" viewBox="1054 199  12 12" xmlns="http://www.w3.org/2000/svg">
  <path d="M 1060 199  C 1063.36 199  1066 201.64  1066 205  C 1066 208.36  1063.36 211  1060 211  C 1056.64 211  1054 208.36  1054 205  C 1054 201.64  1056.64 199  1060 199  Z " fill-rule="nonzero" fill="#ffffff" stroke="none" />
  <path d="M 1060 199.5  C 1063.08 199.5  1065.5 201.92  1065.5 205  C 1065.5 208.08  1063.08 210.5  1060 210.5  C 1056.92 210.5  1054.5 208.08  1054.5 205  C 1054.5 201.92  1056.92 199.5  1060 199.5  Z " stroke-width="1" stroke="#797979" fill="none" />
  <path d="M 1060 208  C 1058.32 208  1057 206.68  1057 205  C 1057 203.32  1058.32 202  1060 202  C 1061.68 202  1063 203.32  1063 205  C 1063 206.68  1061.68 208  1060 208  " fill-rule="nonzero" fill="#797979" stroke="none" />
</svg>