<?xml version="1.0" encoding="utf-8"?>
<svg version="1.1" xmlns:xlink="http://www.w3.org/1999/xlink" width="12px" height="12px" viewBox="462 241  12 12" xmlns="http://www.w3.org/2000/svg">
  <path d="M 468 241  C 471.36 241  474 243.64  474 247  C 474 250.36  471.36 253  468 253  C 464.64 253  462 250.36  462 247  C 462 243.64  464.64 241  468 241  Z " fill-rule="nonzero" fill="#ffffff" stroke="none" />
  <path d="M 468 241.5  C 471.08 241.5  473.5 243.92  473.5 247  C 473.5 250.08  471.08 252.5  468 252.5  C 464.92 252.5  462.5 250.08  462.5 247  C 462.5 243.92  464.92 241.5  468 241.5  Z " stroke-width="1" stroke="#797979" fill="none" />
  <path d="M 468 250  C 466.32 250  465 248.68  465 247  C 465 245.32  466.32 244  468 244  C 469.68 244  471 245.32  471 247  C 471 248.68  469.68 250  468 250  " fill-rule="nonzero" fill="#797979" stroke="none" />
</svg>