<?xml version="1.0" encoding="utf-8"?>
<svg version="1.1" xmlns:xlink="http://www.w3.org/1999/xlink" width="12px" height="12px" viewBox="277 241  12 12" xmlns="http://www.w3.org/2000/svg">
  <path d="M 283 241  C 286.36 241  289 243.64  289 247  C 289 250.36  286.36 253  283 253  C 279.64 253  277 250.36  277 247  C 277 243.64  279.64 241  283 241  Z " fill-rule="nonzero" fill="#f0f0f0" stroke="none" />
  <path d="M 283 241.5  C 286.08 241.5  288.5 243.92  288.5 247  C 288.5 250.08  286.08 252.5  283 252.5  C 279.92 252.5  277.5 250.08  277.5 247  C 277.5 243.92  279.92 241.5  283 241.5  Z " stroke-width="1" stroke="#797979" fill="none" />
  <path d="M 283 250  C 281.32 250  280 248.68  280 247  C 280 245.32  281.32 244  283 244  C 284.68 244  286 245.32  286 247  C 286 248.68  284.68 250  283 250  " fill-rule="nonzero" fill="#797979" stroke="none" />
</svg>