<?xml version="1.0" encoding="utf-8"?>
<svg version="1.1" xmlns:xlink="http://www.w3.org/1999/xlink" width="12px" height="12px" viewBox="189 198  12 12" xmlns="http://www.w3.org/2000/svg">
  <path d="M 195 198  C 198.36 198  201 200.64  201 204  C 201 207.36  198.36 210  195 210  C 191.64 210  189 207.36  189 204  C 189 200.64  191.64 198  195 198  Z " fill-rule="nonzero" fill="#f0f0f0" stroke="none" />
  <path d="M 195 198.5  C 198.08 198.5  200.5 200.92  200.5 204  C 200.5 207.08  198.08 209.5  195 209.5  C 191.92 209.5  189.5 207.08  189.5 204  C 189.5 200.92  191.92 198.5  195 198.5  Z " stroke-width="1" stroke="#797979" fill="none" />
  <path d="M 195 207  C 193.32 207  192 205.68  192 204  C 192 202.32  193.32 201  195 201  C 196.68 201  198 202.32  198 204  C 198 205.68  196.68 207  195 207  " fill-rule="nonzero" fill="#797979" stroke="none" />
</svg>