<?xml version="1.0" encoding="utf-8"?>
<svg version="1.1" xmlns:xlink="http://www.w3.org/1999/xlink" width="12px" height="12px" viewBox="803 199  12 12" xmlns="http://www.w3.org/2000/svg">
  <path d="M 809 199  C 812.36 199  815 201.64  815 205  C 815 208.36  812.36 211  809 211  C 805.64 211  803 208.36  803 205  C 803 201.64  805.64 199  809 199  Z " fill-rule="nonzero" fill="#f0f0f0" stroke="none" />
  <path d="M 809 199.5  C 812.08 199.5  814.5 201.92  814.5 205  C 814.5 208.08  812.08 210.5  809 210.5  C 805.92 210.5  803.5 208.08  803.5 205  C 803.5 201.92  805.92 199.5  809 199.5  Z " stroke-width="1" stroke="#797979" fill="none" />
  <path d="M 809 208  C 807.32 208  806 206.68  806 205  C 806 203.32  807.32 202  809 202  C 810.68 202  812 203.32  812 205  C 812 206.68  810.68 208  809 208  " fill-rule="nonzero" fill="#797979" stroke="none" />
</svg>