<?xml version="1.0" encoding="utf-8"?>
<svg version="1.1" xmlns:xlink="http://www.w3.org/1999/xlink" width="12px" height="12px" viewBox="289 198  12 12" xmlns="http://www.w3.org/2000/svg">
  <path d="M 295 198  C 298.36 198  301 200.64  301 204  C 301 207.36  298.36 210  295 210  C 291.64 210  289 207.36  289 204  C 289 200.64  291.64 198  295 198  Z " fill-rule="nonzero" fill="#f0f0f0" stroke="none" />
  <path d="M 295 198.5  C 298.08 198.5  300.5 200.92  300.5 204  C 300.5 207.08  298.08 209.5  295 209.5  C 291.92 209.5  289.5 207.08  289.5 204  C 289.5 200.92  291.92 198.5  295 198.5  Z " stroke-width="1" stroke="#797979" fill="none" />
  <path d="M 295 207  C 293.32 207  292 205.68  292 204  C 292 202.32  293.32 201  295 201  C 296.68 201  298 202.32  298 204  C 298 205.68  296.68 207  295 207  " fill-rule="nonzero" fill="#797979" stroke="none" />
</svg>