<?xml version="1.0" encoding="utf-8"?>
<svg version="1.1" xmlns:xlink="http://www.w3.org/1999/xlink" width="12px" height="12px" viewBox="891 158  12 12" xmlns="http://www.w3.org/2000/svg">
  <path d="M 897 158  C 900.36 158  903 160.64  903 164  C 903 167.36  900.36 170  897 170  C 893.64 170  891 167.36  891 164  C 891 160.64  893.64 158  897 158  Z " fill-rule="nonzero" fill="#f0f0f0" stroke="none" />
  <path d="M 897 158.5  C 900.08 158.5  902.5 160.92  902.5 164  C 902.5 167.08  900.08 169.5  897 169.5  C 893.92 169.5  891.5 167.08  891.5 164  C 891.5 160.92  893.92 158.5  897 158.5  Z " stroke-width="1" stroke="#797979" fill="none" />
  <path d="M 897 167  C 895.32 167  894 165.68  894 164  C 894 162.32  895.32 161  897 161  C 898.68 161  900 162.32  900 164  C 900 165.68  898.68 167  897 167  " fill-rule="nonzero" fill="#797979" stroke="none" />
</svg>