<?xml version="1.0" encoding="utf-8"?>
<svg version="1.1" xmlns:xlink="http://www.w3.org/1999/xlink" width="12px" height="12px" viewBox="469 462  12 12" xmlns="http://www.w3.org/2000/svg">
  <path d="M 475 462  C 478.36 462  481 464.64  481 468  C 481 471.36  478.36 474  475 474  C 471.64 474  469 471.36  469 468  C 469 464.64  471.64 462  475 462  Z " fill-rule="nonzero" fill="#ffffff" stroke="none" />
  <path d="M 475 462.5  C 478.08 462.5  480.5 464.92  480.5 468  C 480.5 471.08  478.08 473.5  475 473.5  C 471.92 473.5  469.5 471.08  469.5 468  C 469.5 464.92  471.92 462.5  475 462.5  Z " stroke-width="1" stroke="#797979" fill="none" />
  <path d="M 475 471  C 473.32 471  472 469.68  472 468  C 472 466.32  473.32 465  475 465  C 476.68 465  478 466.32  478 468  C 478 469.68  476.68 471  475 471  " fill-rule="nonzero" fill="#797979" stroke="none" />
</svg>