<?xml version="1.0" encoding="utf-8"?>
<svg version="1.1" xmlns:xlink="http://www.w3.org/1999/xlink" width="12px" height="12px" viewBox="564 348  12 12" xmlns="http://www.w3.org/2000/svg">
  <path d="M 570 348  C 573.36 348  576 350.64  576 354  C 576 357.36  573.36 360  570 360  C 566.64 360  564 357.36  564 354  C 564 350.64  566.64 348  570 348  Z " fill-rule="nonzero" fill="#f0f0f0" stroke="none" />
  <path d="M 570 348.5  C 573.08 348.5  575.5 350.92  575.5 354  C 575.5 357.08  573.08 359.5  570 359.5  C 566.92 359.5  564.5 357.08  564.5 354  C 564.5 350.92  566.92 348.5  570 348.5  Z " stroke-width="1" stroke="#797979" fill="none" />
  <path d="M 570 357  C 568.32 357  567 355.68  567 354  C 567 352.32  568.32 351  570 351  C 571.68 351  573 352.32  573 354  C 573 355.68  571.68 357  570 357  " fill-rule="nonzero" fill="#797979" stroke="none" />
</svg>