<?xml version="1.0" encoding="utf-8"?>
<svg version="1.1" xmlns:xlink="http://www.w3.org/1999/xlink" width="12px" height="12px" viewBox="364 348  12 12" xmlns="http://www.w3.org/2000/svg">
  <path d="M 370 348  C 373.36 348  376 350.64  376 354  C 376 357.36  373.36 360  370 360  C 366.64 360  364 357.36  364 354  C 364 350.64  366.64 348  370 348  Z " fill-rule="nonzero" fill="#f0f0f0" stroke="none" />
  <path d="M 370 348.5  C 373.08 348.5  375.5 350.92  375.5 354  C 375.5 357.08  373.08 359.5  370 359.5  C 366.92 359.5  364.5 357.08  364.5 354  C 364.5 350.92  366.92 348.5  370 348.5  Z " stroke-width="1" stroke="#797979" fill="none" />
  <path d="M 370 357  C 368.32 357  367 355.68  367 354  C 367 352.32  368.32 351  370 351  C 371.68 351  373 352.32  373 354  C 373 355.68  371.68 357  370 357  " fill-rule="nonzero" fill="#797979" stroke="none" />
</svg>