<?xml version="1.0" encoding="utf-8"?>
<svg version="1.1" xmlns:xlink="http://www.w3.org/1999/xlink" width="12px" height="12px" viewBox="469 284  12 12" xmlns="http://www.w3.org/2000/svg">
  <path d="M 475 284  C 478.36 284  481 286.64  481 290  C 481 293.36  478.36 296  475 296  C 471.64 296  469 293.36  469 290  C 469 286.64  471.64 284  475 284  Z " fill-rule="nonzero" fill="#ffffff" stroke="none" />
  <path d="M 475 284.5  C 478.08 284.5  480.5 286.92  480.5 290  C 480.5 293.08  478.08 295.5  475 295.5  C 471.92 295.5  469.5 293.08  469.5 290  C 469.5 286.92  471.92 284.5  475 284.5  Z " stroke-width="1" stroke="#797979" fill="none" />
  <path d="M 475 293  C 473.32 293  472 291.68  472 290  C 472 288.32  473.32 287  475 287  C 476.68 287  478 288.32  478 290  C 478 291.68  476.68 293  475 293  " fill-rule="nonzero" fill="#797979" stroke="none" />
</svg>