<?xml version="1.0" encoding="utf-8"?>
<svg version="1.1" xmlns:xlink="http://www.w3.org/1999/xlink" width="22px" height="25px" xmlns="http://www.w3.org/2000/svg">
  <g transform="matrix(1 0 0 1 -1507 -21 )">
    <path d="M 21.4270833333333 7.14285714285714  L 14.6666666666667 7.14285714285714  L 14.6666666666667 0.558035714285715  C 14.8767361111111 0.688244047619047  15.0486111111111 0.818452380952378  15.1822916666667 0.948660714285715  L 21.0260416666667 6.640625  C 21.1597222222222 6.77083333333333  21.2934027777778 6.93824404761905  21.4270833333333 7.14285714285714  Z M 12.8333333333333 0  L 12.8333333333333 7.58928571428572  C 12.8333333333333 7.96130952380952  12.9670138888889 8.27752976190476  13.234375 8.53794642857143  C 13.5017361111111 8.79836309523809  13.8263888888889 8.92857142857143  14.2083333333333 8.92857142857143  L 22 8.92857142857143  L 22 23.6607142857143  C 22 24.0327380952381  21.8663194444444 24.3489583333333  21.5989583333333 24.609375  C 21.3315972222222 24.8697916666667  21.0069444444444 25  20.625 25  L 1.375 25  C 0.993055555555556 25  0.668402777777778 24.8697916666667  0.401041666666667 24.609375  C 0.133680555555556 24.3489583333333  0 24.0327380952381  0 23.6607142857143  L 0 1.33928571428572  C 0 0.967261904761904  0.133680555555556 0.651041666666666  0.401041666666667 0.390625  C 0.668402777777778 0.130208333333334  0.993055555555556 0  1.375 0  L 12.8333333333333 0  Z " fill-rule="nonzero" fill="#ffffff" stroke="none" transform="matrix(1 0 0 1 1507 21 )" />
  </g>
</svg>