<svg t="1611384814310" class="icon" viewBox="0 0 1024 1024" version="1.1" xmlns="http://www.w3.org/2000/svg" p-id="7780" width="200" height="200"><path d="M0 512.512C0 794.9824 229.0176 1024 511.488 1024c282.496 0 511.488-229.0176 511.488-511.488C1022.976 230.016 794.0096 0.9984 511.488 0.9984 229.0432 0.9984 0 230.016 0 512.4864z" fill="#EDEEF5" p-id="7781"></path><path d="M666.2912 416.5888c95.9232-130.4064 77.3888 85.8112-11.776 94.208-140.4928 46.2848 11.776-94.208 11.776-94.208z" fill="#F3EDED" p-id="7782"></path><path d="M386.9952 515.0208c4.1984 16 35.328 81.6128-34.5088 184.2432-69.8112 102.656 160.6912 158.1568 160.6912 158.1568s218.7264-74.0352 230.5024-110.208c72.3712-61.4144-134.6048 0.8448-95.0528-225.4592-94.208-59.7248-261.632-6.7328-261.632-6.7328z" fill="#FAF7F7" p-id="7783"></path><path d="M511.488 1024c186.24 0 349.184-99.5584 438.6304-248.32l-0.0256-0.6912c-25.8048-39.2704-203.0336-98.7136-272.5888-98.7136-137.9584 241.152-324.1728 41.4976-320.7936 2.2528-96.3584-6.656-212.48 62.9504-276.9152 108.16C170.5728 929.3056 329.9072 1024 511.5136 1024z" fill="#61A6E7" p-id="7784"></path><path d="M392.448 554.5728c5.6832 20.1728 152.576 157.312 285.6448 123.648-38.9632-47.9488-25.1648-122.8288-22.7328-167.424 13.7984-30.2592-258.8416 16.8448-262.912 43.776z" fill="#EDE6E6" p-id="7785"></path><path d="M530.0224 169.2672c54.6816 10.0864 131.2256 15.1296 141.312 91.6992 106.8544 445.8752-370.9952 508.1344-309.5808 40.3712 31.1296-165.7344 168.2688-132.096 168.2688-132.096z" fill="#FFF8F6" p-id="7786"></path><path d="M414.6432 229.8368c29.6192 20.1728 89.4208 86.3744 234.4192 53.8368 12.3904 48.2304 6.1952 48.2304 39.7568 99.2768 24.5504 8.3968 95.6416-233.0368-112.5376-265.856-243.712-37.8624-275.0208 176.6656-212.4032 254.08 15.232-16 3.3792-103.4752 50.7648-141.3376z" fill="#61A6E7" p-id="7787"></path></svg>