<?xml version="1.0" encoding="utf-8"?>
<svg version="1.1" xmlns:xlink="http://www.w3.org/1999/xlink" width="12px" height="12px" viewBox="327 50  12 12" xmlns="http://www.w3.org/2000/svg">
  <path d="M 333 50  C 336.36 50  339 52.64  339 56  C 339 59.36  336.36 62  333 62  C 329.64 62  327 59.36  327 56  C 327 52.64  329.64 50  333 50  Z " fill-rule="nonzero" fill="#f0f0f0" stroke="none" />
  <path d="M 333 50.5  C 336.08 50.5  338.5 52.92  338.5 56  C 338.5 59.08  336.08 61.5  333 61.5  C 329.92 61.5  327.5 59.08  327.5 56  C 327.5 52.92  329.92 50.5  333 50.5  Z " stroke-width="1" stroke="#797979" fill="none" />
  <path d="M 333 59  C 331.32 59  330 57.68  330 56  C 330 54.32  331.32 53  333 53  C 334.68 53  336 54.32  336 56  C 336 57.68  334.68 59  333 59  " fill-rule="nonzero" fill="#797979" stroke="none" />
</svg>