<?xml version="1.0" encoding="utf-8"?>
<svg version="1.1" xmlns:xlink="http://www.w3.org/1999/xlink" width="1456px" height="115px" xmlns="http://www.w3.org/2000/svg">
  <g transform="matrix(1 0 0 1 -67 -357 )">
    <path d="M 67 357  L 1523 357  L 1523 472  L 67 472  L 67 357  " fill-rule="nonzero" fill="#cccccc" stroke="none" />
    <path d="M 75 365  L 1515 365  L 1515 464  L 75 464  L 75 365  " fill-rule="nonzero" fill="#ffffff" stroke="none" />
    <path d="M 832.745 391.5  C 827.915 391.5  824.12 387.705  824.12 382.875  C 824.12 378.045  827.915 374.25  832.745 374.25  C 837.575 374.25  841.37 378.045  841.37 382.875  C 841.37 387.705  837.575 391.5  832.745 391.5  " fill-rule="nonzero" fill="#cccccc" stroke="none" />
    <path d="M 78 461  L 78 409.85  L 436.5 386.6  L 938.4 456.59271978022  L 1225.2 400.55  L 1512 456.59271978022  L 1512 461  L 78 461  " fill-rule="nonzero" fill="#169bd5" stroke="none" />
  </g>
</svg>