<?xml version="1.0" encoding="utf-8"?>
<svg version="1.1" xmlns:xlink="http://www.w3.org/1999/xlink" width="12px" height="12px" viewBox="166 607  12 12" xmlns="http://www.w3.org/2000/svg">
  <path d="M 172 607  C 175.36 607  178 609.64  178 613  C 178 616.36  175.36 619  172 619  C 168.64 619  166 616.36  166 613  C 166 609.64  168.64 607  172 607  Z " fill-rule="nonzero" fill="#ffffff" stroke="none" />
  <path d="M 172 607.5  C 175.08 607.5  177.5 609.92  177.5 613  C 177.5 616.08  175.08 618.5  172 618.5  C 168.92 618.5  166.5 616.08  166.5 613  C 166.5 609.92  168.92 607.5  172 607.5  Z " stroke-width="1" stroke="#797979" fill="none" />
  <path d="M 172 616  C 170.32 616  169 614.68  169 613  C 169 611.32  170.32 610  172 610  C 173.68 610  175 611.32  175 613  C 175 614.68  173.68 616  172 616  " fill-rule="nonzero" fill="#797979" stroke="none" />
</svg>