<?xml version="1.0" encoding="utf-8"?>
<svg version="1.1" xmlns:xlink="http://www.w3.org/1999/xlink" width="12px" height="12px" viewBox="255 607  12 12" xmlns="http://www.w3.org/2000/svg">
  <path d="M 261 607  C 264.36 607  267 609.64  267 613  C 267 616.36  264.36 619  261 619  C 257.64 619  255 616.36  255 613  C 255 609.64  257.64 607  261 607  Z " fill-rule="nonzero" fill="#ffffff" stroke="none" />
  <path d="M 261 607.5  C 264.08 607.5  266.5 609.92  266.5 613  C 266.5 616.08  264.08 618.5  261 618.5  C 257.92 618.5  255.5 616.08  255.5 613  C 255.5 609.92  257.92 607.5  261 607.5  Z " stroke-width="1" stroke="#797979" fill="none" />
  <path d="M 261 616  C 259.32 616  258 614.68  258 613  C 258 611.32  259.32 610  261 610  C 262.68 610  264 611.32  264 613  C 264 614.68  262.68 616  261 616  " fill-rule="nonzero" fill="#797979" stroke="none" />
</svg>