<svg t="1609150204007" class="icon" viewBox="0 0 1024 1024" version="1.1" xmlns="http://www.w3.org/2000/svg" p-id="10991" width="200" height="200"><path d="M392.401455 978.827636C392.401455 1003.752727 445.952 1024 512 1024s119.598545-20.247273 119.598545-45.172364c0-24.948364-53.550545-45.172364-119.598545-45.172363s-119.598545 20.224-119.598545 45.149091z" fill="#000000" fill-opacity=".201" p-id="10992"></path><path d="M452.189091 978.827636c0 16.64 26.786909 30.114909 59.810909 30.114909 33.024 0 59.810909-13.498182 59.810909-30.114909 0-16.64-26.786909-30.114909-59.810909-30.114909-33.024 0-59.810909 13.498182-59.810909 30.114909z" fill="#000000" fill-opacity=".201" p-id="10993"></path><path d="M524.683636 950.574545v0.325819a12.637091 12.637091 0 1 1-22.109091 8.610909 12.869818 12.869818 0 0 1-3.188363-9.890909c-1.349818-79.36-125.114182-124.509091-125.114182-124.509091l0.349091-0.372364C205.893818 764.928 93.160727 604.229818 93.44 424.052364 93.44 189.858909 280.832 0 512 0s418.56 189.858909 418.56 424.052364c0.302545 180.433455-112.779636 341.294545-281.832727 400.919272l0.139636 0.139637s-123.810909 45.847273-124.183273 125.44z" fill="#FFFFFF" p-id="10994"></path><path d="M183.133091 421.655273c0 118.341818 62.673455 227.723636 164.421818 286.906182a326.772364 326.772364 0 0 0 328.890182 0c101.748364-59.182545 164.421818-168.564364 164.421818-286.906182 0-182.970182-147.246545-331.310545-328.866909-331.310546S183.133091 238.685091 183.133091 421.655273z" fill="#FF9D3B" p-id="10995"></path><path d="M483.723636 530.618182a18.152727 18.152727 0 0 1-12.218181-4.724364 18.548364 18.548364 0 0 1-1.373091-26.042182l149.666909-167.959272a18.199273 18.199273 0 0 1 25.786182-1.349819 18.548364 18.548364 0 0 1 1.37309 26.01891l-149.666909 167.959272a18.176 18.176 0 0 1-13.568 6.097455z" fill="#FFFFFF" p-id="10996"></path><path d="M483.607273 530.618182a19.456 19.456 0 0 1-13.870546-5.725091l-92.183272-93.789091a17.757091 17.757091 0 0 1 0.791272-25.832727 19.688727 19.688727 0 0 1 26.996364 0.744727l92.16 93.789091a17.757091 17.757091 0 0 1-0.791273 25.832727 19.502545 19.502545 0 0 1-13.102545 4.980364z" fill="#FFFFFF" p-id="10997"></path></svg>