<svg t="1609151560756" class="icon" viewBox="0 0 1024 1024" version="1.1" xmlns="http://www.w3.org/2000/svg" p-id="14864" width="200" height="200"><path d="M512 512m-512 0a512 512 0 1 0 1024 0 512 512 0 1 0-1024 0Z" fill="#1890FF" p-id="14865"></path><path d="M512 0v576L4.736 442.112A512.128 512.128 0 0 1 512 0z" fill="#C4E3FF" p-id="14866"></path><path d="M512.832 512.832m-320.832 0a320.832 320.832 0 1 0 641.664 0 320.832 320.832 0 1 0-641.664 0Z" fill="#FFFFFF" p-id="14867"></path><path d="M512 512m-128 0a128 128 0 1 0 256 0 128 128 0 1 0-256 0Z" fill="#1890FF" p-id="14868"></path></svg>