<svg t="1609206454314" class="icon" viewBox="0 0 1099 1024" version="1.1" xmlns="http://www.w3.org/2000/svg" p-id="20031" width="200" height="200"><path d="M1036.487805 946.57561h-142.360976V551.960976C894.126829 357.15122 739.278049 199.804878 549.463415 199.804878S204.8 357.15122 204.8 551.960976v392.117073H62.439024c-9.990244 0-19.980488 4.995122-24.975609 9.990244S24.97561 974.04878 24.97561 984.039024v2.497561c0 19.980488 17.482927 37.463415 37.463414 37.463415h976.546342c19.980488 0 37.463415-17.482927 37.463414-37.463415v-2.497561c-2.497561-22.478049-19.980488-37.463415-39.960975-37.463414zM551.960976 129.873171c19.980488 0 37.463415-17.482927 37.463414-39.960976v-49.951219c0-22.478049-17.482927-39.960976-37.463414-39.960976s-37.463415 17.482927-37.463415 39.960976v52.44878c0 19.980488 17.482927 37.463415 37.463415 37.463415zM249.756098 182.321951c4.995122 9.990244 12.487805 14.985366 22.478048 17.482927 9.990244 2.497561 19.980488 2.497561 29.970732-4.995122 9.990244-4.995122 14.985366-12.487805 17.482927-22.478049 2.497561-9.990244 2.497561-19.980488-4.995122-29.970731l-24.97561-44.956098c-4.995122-9.990244-12.487805-14.985366-22.478049-17.482927-9.990244-2.497561-19.980488-2.497561-29.970731 4.995122-7.492683 2.497561-14.985366 12.487805-17.482927 22.478049-2.497561 9.990244-2.497561 19.980488 2.497561 29.970732L249.756098 182.321951z m-134.868293 199.804878c4.995122-9.990244 7.492683-19.980488 4.995122-29.970731-2.497561-9.990244-9.990244-17.482927-17.482927-22.478049l-44.956098-24.97561c-17.482927-9.990244-42.458537-4.995122-52.44878 14.985366s-4.995122 39.960976 14.985366 49.951219l44.956097 24.97561c9.990244 4.995122 19.980488 7.492683 29.970732 4.995122 7.492683-2.497561 14.985366-9.990244 19.980488-17.482927z m979.043902-54.946341c-4.995122-9.990244-12.487805-14.985366-22.478048-17.482927-9.990244-2.497561-19.980488-2.497561-29.970732 4.995122l-44.956098 24.97561c-12.487805 7.492683-19.980488 19.980488-19.980488 34.965853 0 14.985366 7.492683 27.473171 19.980488 34.965854 12.487805 7.492683 27.473171 7.492683 37.463415 0l44.956097-24.97561c9.990244-4.995122 14.985366-12.487805 17.482927-22.478049 4.995122-14.985366 2.497561-24.97561-2.497561-34.965853z m-292.214634-124.878049c9.990244 4.995122 19.980488 7.492683 29.970732 4.995122 9.990244-4.995122 17.482927-9.990244 22.478049-19.980488l24.975609-44.956097c4.995122-9.990244 7.492683-19.980488 4.995122-29.970732-2.497561-9.990244-9.990244-17.482927-17.482926-22.478049-9.990244-4.995122-19.980488-7.492683-29.970732-4.995122-9.990244 2.497561-17.482927 9.990244-22.478049 17.482927l-24.97561 44.956098c-12.487805 19.980488-4.995122 44.956098 12.487805 54.946341z" fill="#FF5757" p-id="20032"></path><path d="M706.809756 492.019512c-17.482927-9.990244-37.463415-4.995122-47.453658 12.487805l-74.92683 137.365854-97.404878-59.941464-107.395122 199.804878c-4.995122 7.492683-4.995122 17.482927-4.995122 27.473171 2.497561 9.990244 7.492683 17.482927 14.985366 22.478049 4.995122 2.497561 9.990244 4.995122 17.482927 4.995122 12.487805 0 22.478049-7.492683 29.970732-17.482927l74.926829-137.365854 97.404878 59.941464 107.395122-199.804878c4.995122-7.492683 4.995122-17.482927 2.497561-27.473171s-4.995122-17.482927-12.487805-22.478049z" fill="#FFFFFF" p-id="20033"></path></svg>