<svg t="1609206039888" class="icon" viewBox="0 0 1024 1024" version="1.1" xmlns="http://www.w3.org/2000/svg" p-id="12663" width="200" height="200"><path d="M512 420.906667a35.2 35.2 0 0 0-35.2 35.2v111.573333a35.2 35.2 0 0 0 70.4 0v-111.573333A35.2 35.2 0 0 0 512 420.906667zM512 636.373333a34.986667 34.986667 0 1 0 34.986667 34.773334A34.773333 34.773333 0 0 0 512 636.373333z" fill="#d81e06" p-id="12664"></path><path d="M853.333333 0H170.666667a170.666667 170.666667 0 0 0-170.666667 170.666667v682.666666a170.666667 170.666667 0 0 0 170.666667 170.666667h682.666666a170.666667 170.666667 0 0 0 170.666667-170.666667V170.666667a170.666667 170.666667 0 0 0-170.666667-170.666667z m-57.173333 777.173333H237.866667s-61.226667-12.8-8.746667-87.253333c37.76-64 181.546667-313.173333 242.133333-417.493333 18.56-31.786667 55.04-36.693333 75.946667 0 29.866667 49.28 260.266667 443.093333 260.266667 443.093333s25.6 47.786667-11.306667 61.653333z" fill="#d81e06" p-id="12665"></path></svg>