<svg t="1609212118052" class="icon" viewBox="0 0 1228 1024" version="1.1" xmlns="http://www.w3.org/2000/svg" p-id="9412" width="200" height="200"><path d="M1061.546667 1014.442667H167.253333A167.253333 167.253333 0 0 1 0 847.189333V176.810667A167.253333 167.253333 0 0 1 167.253333 9.557333h894.293334A167.253333 167.253333 0 0 1 1228.8 176.810667v670.378666a167.253333 167.253333 0 0 1-167.253333 167.253334zM167.253333 120.832a55.978667 55.978667 0 0 0-55.296 55.978667v670.378666a55.978667 55.978667 0 0 0 55.296 55.978667h894.293334a55.978667 55.978667 0 0 0 55.296-55.978667V176.810667a55.978667 55.978667 0 0 0-55.296-55.978667z" fill="#4F7DF7" p-id="9413"></path><path d="M614.4 623.957333A55.978667 55.978667 0 0 1 582.314667 614.4L23.893333 222.549333a55.978667 55.978667 0 0 1 64.170667-91.477333L614.4 499.712l526.336-368.64a55.978667 55.978667 0 0 1 64.170667 91.477333L646.485333 614.4a55.978667 55.978667 0 0 1-32.085333 9.557333z" fill="#4F7DF7" p-id="9414"></path></svg>