<svg t="1614076167036" class="icon" viewBox="0 0 1024 1024" version="1.1" xmlns="http://www.w3.org/2000/svg" p-id="10250" width="200" height="200"><path d="M-155.35795223 455.28060829l47.06502736 47.06502736 71.20093929-71.20093929z" fill="#d81e06" p-id="10251"></path><path d="M1024 460.8L617.813333 0l-537.6 0L1024 1024z" fill="#d81e06" p-id="10252"></path><path d="M471.04 261.12l17.066667 18.77333301 75.093333-66.56000001 46.08 52.906667 6.826667-6.826667-61.43999999-68.266666 15.35999999-13.653334 61.44 68.266667 8.533333-6.826667-54.613333-59.73333299 39.253333-35.84000001 136.533333 151.893333-39.253333 35.84-58.02666699-64.853333-6.82666601 6.82666699 64.853333 71.68000001-15.36 13.653333-64.85333299-71.68-6.82666701 6.826667 49.493333 56.32-75.093333 66.56 17.066667 18.773333-15.36 13.653333-155.306667-174.08 15.36-13.653333zM621.226667 187.733333l18.773333 22.186667 10.24-10.24-18.773333-22.186667-10.24 10.24z m37.546666 42.666667l18.773334 22.186667 10.24-10.24-18.773334-22.186667-10.24 10.24z m-11.946666 107.52l-76.8-87.04-6.826667 5.12 76.8 87.04 6.826667-5.12z m68.266666-44.373333l10.24-10.24-18.773333-22.186667-10.24 10.24 18.773333 22.186667zM546.13333299 273.066667l76.80000001 87.03999999 6.826667-5.11999999-76.8-87.04-6.82666701 5.12z m-18.77333299 15.36l76.8 87.04 6.826667-5.12-76.8-87.04-6.826667 5.12z m-17.06666699 17.066666l76.79999999 87.03999999 6.826667-6.82666599-76.8-87.04-6.82666699 6.826666zM773.12 312.32l54.613333 61.44-23.893333 20.48-13.653333-15.36-107.52 95.573333c-6.826667 6.826667-13.653333 10.24-20.48 11.946667-6.826667 1.706667-11.946667 0-17.066667-3.413333-5.12-3.413333-13.653333-11.946667-27.306667-27.306667 6.826667-6.826667 11.946667-15.36 18.77333401-23.893333 3.413333 5.12 8.533333 11.946667 13.653333 17.066666 3.413333 5.12 8.533333 5.12 13.653333 0L767.99999999 356.693333l-20.47999999-22.18666599 25.6-22.18666701z m58.026667 63.146667l95.573333 105.813333L904.53333301 501.76l-40.96000001-46.08000001-18.773333 11.94666701L884.053333 512l-80.213333 71.68-20.48-23.893333 58.026667-52.906667-47.786667-54.613333-59.733333 52.90666601-20.48-23.89333301 80.213333-71.68 27.30666699 30.72 18.77333301-11.94666699-30.72-34.13333301 22.186667-18.773333z m-34.133334 102.4l20.48 22.186666c-17.066667 15.36-32.426667 25.6-46.08 34.133334 5.12 25.6 8.533333 52.90666701 10.24 80.213333l-32.426666 1.706667c0-20.48-3.413333-44.373333-5.12-73.386667-20.48 3.413333-46.08-1.706667-76.8-18.773333 3.413333-10.24 6.826667-20.48 10.24-34.133334 15.36 10.24 29.013333 15.36 40.96000001 18.773334s25.6 1.706667 37.54666599-3.41333399c11.946667-3.413333 25.6-13.653333 40.96-27.30666601z" fill="#FFFFFF" p-id="10253"></path></svg>