<?xml version="1.0" encoding="utf-8"?>
<svg version="1.1" xmlns:xlink="http://www.w3.org/1999/xlink" width="12px" height="12px" viewBox="720 294  12 12" xmlns="http://www.w3.org/2000/svg">
  <path d="M 726 294  C 729.36 294  732 296.64  732 300  C 732 303.36  729.36 306  726 306  C 722.64 306  720 303.36  720 300  C 720 296.64  722.64 294  726 294  Z " fill-rule="nonzero" fill="#ffffff" stroke="none" />
  <path d="M 726 294.5  C 729.08 294.5  731.5 296.92  731.5 300  C 731.5 303.08  729.08 305.5  726 305.5  C 722.92 305.5  720.5 303.08  720.5 300  C 720.5 296.92  722.92 294.5  726 294.5  Z " stroke-width="1" stroke="#797979" fill="none" />
  <path d="M 726 303  C 724.32 303  723 301.68  723 300  C 723 298.32  724.32 297  726 297  C 727.68 297  729 298.32  729 300  C 729 301.68  727.68 303  726 303  " fill-rule="nonzero" fill="#797979" stroke="none" />
</svg>