<?xml version="1.0" encoding="utf-8"?>
<svg version="1.1" xmlns:xlink="http://www.w3.org/1999/xlink" width="12px" height="12px" viewBox="610 294  12 12" xmlns="http://www.w3.org/2000/svg">
  <path d="M 616 294  C 619.36 294  622 296.64  622 300  C 622 303.36  619.36 306  616 306  C 612.64 306  610 303.36  610 300  C 610 296.64  612.64 294  616 294  Z " fill-rule="nonzero" fill="#ffffff" stroke="none" />
  <path d="M 616 294.5  C 619.08 294.5  621.5 296.92  621.5 300  C 621.5 303.08  619.08 305.5  616 305.5  C 612.92 305.5  610.5 303.08  610.5 300  C 610.5 296.92  612.92 294.5  616 294.5  Z " stroke-width="1" stroke="#797979" fill="none" />
  <path d="M 616 303  C 614.32 303  613 301.68  613 300  C 613 298.32  614.32 297  616 297  C 617.68 297  619 298.32  619 300  C 619 301.68  617.68 303  616 303  " fill-rule="nonzero" fill="#797979" stroke="none" />
</svg>