<?xml version="1.0" encoding="utf-8"?>
<svg version="1.1" xmlns:xlink="http://www.w3.org/1999/xlink" width="12px" height="12px" viewBox="968 96  12 12" xmlns="http://www.w3.org/2000/svg">
  <path d="M 974 96  C 977.36 96  980 98.64  980 102  C 980 105.36  977.36 108  974 108  C 970.64 108  968 105.36  968 102  C 968 98.64  970.64 96  974 96  Z " fill-rule="nonzero" fill="#ffffff" stroke="none" />
  <path d="M 974 96.5  C 977.08 96.5  979.5 98.92  979.5 102  C 979.5 105.08  977.08 107.5  974 107.5  C 970.92 107.5  968.5 105.08  968.5 102  C 968.5 98.92  970.92 96.5  974 96.5  Z " stroke-width="1" stroke="#797979" fill="none" />
  <path d="M 974 105  C 972.32 105  971 103.68  971 102  C 971 100.32  972.32 99  974 99  C 975.68 99  977 100.32  977 102  C 977 103.68  975.68 105  974 105  " fill-rule="nonzero" fill="#797979" stroke="none" />
</svg>