<?xml version="1.0" encoding="utf-8"?>
<svg version="1.1" xmlns:xlink="http://www.w3.org/1999/xlink" width="12px" height="12px" viewBox="863 96  12 12" xmlns="http://www.w3.org/2000/svg">
  <path d="M 869 96  C 872.36 96  875 98.64  875 102  C 875 105.36  872.36 108  869 108  C 865.64 108  863 105.36  863 102  C 863 98.64  865.64 96  869 96  Z " fill-rule="nonzero" fill="#ffffff" stroke="none" />
  <path d="M 869 96.5  C 872.08 96.5  874.5 98.92  874.5 102  C 874.5 105.08  872.08 107.5  869 107.5  C 865.92 107.5  863.5 105.08  863.5 102  C 863.5 98.92  865.92 96.5  869 96.5  Z " stroke-width="1" stroke="#797979" fill="none" />
  <path d="M 869 105  C 867.32 105  866 103.68  866 102  C 866 100.32  867.32 99  869 99  C 870.68 99  872 100.32  872 102  C 872 103.68  870.68 105  869 105  " fill-rule="nonzero" fill="#797979" stroke="none" />
</svg>