<?xml version="1.0" encoding="utf-8"?>
<svg version="1.1" xmlns:xlink="http://www.w3.org/1999/xlink" width="12px" height="12px" viewBox="303 375  12 12" xmlns="http://www.w3.org/2000/svg">
  <path d="M 309 375  C 312.36 375  315 377.64  315 381  C 315 384.36  312.36 387  309 387  C 305.64 387  303 384.36  303 381  C 303 377.64  305.64 375  309 375  Z " fill-rule="nonzero" fill="#ffffff" stroke="none" />
  <path d="M 309 375.5  C 312.08 375.5  314.5 377.92  314.5 381  C 314.5 384.08  312.08 386.5  309 386.5  C 305.92 386.5  303.5 384.08  303.5 381  C 303.5 377.92  305.92 375.5  309 375.5  Z " stroke-width="1" stroke="#797979" fill="none" />
  <path d="M 309 384  C 307.32 384  306 382.68  306 381  C 306 379.32  307.32 378  309 378  C 310.68 378  312 379.32  312 381  C 312 382.68  310.68 384  309 384  " fill-rule="nonzero" fill="#797979" stroke="none" />
</svg>