<?xml version="1.0" encoding="utf-8"?>
<svg version="1.1" xmlns:xlink="http://www.w3.org/1999/xlink" width="12px" height="12px" viewBox="227 291  12 12" xmlns="http://www.w3.org/2000/svg">
  <path d="M 233 291  C 236.36 291  239 293.64  239 297  C 239 300.36  236.36 303  233 303  C 229.64 303  227 300.36  227 297  C 227 293.64  229.64 291  233 291  Z " fill-rule="nonzero" fill="#ffffff" stroke="none" />
  <path d="M 233 291.5  C 236.08 291.5  238.5 293.92  238.5 297  C 238.5 300.08  236.08 302.5  233 302.5  C 229.92 302.5  227.5 300.08  227.5 297  C 227.5 293.92  229.92 291.5  233 291.5  Z " stroke-width="1" stroke="#797979" fill="none" />
  <path d="M 233 300  C 231.32 300  230 298.68  230 297  C 230 295.32  231.32 294  233 294  C 234.68 294  236 295.32  236 297  C 236 298.68  234.68 300  233 300  " fill-rule="nonzero" fill="#797979" stroke="none" />
</svg>