<?xml version="1.0" encoding="utf-8"?>
<svg version="1.1" xmlns:xlink="http://www.w3.org/1999/xlink" width="185px" height="10px" preserveAspectRatio="xMinYMid meet" viewBox="25 216  185 8" xmlns="http://www.w3.org/2000/svg">
  <path d="M 205.5 247  L 205.5 225  A 5 5 0 0 0 200.5 220.5 L 35 220.5  A 5 5 0 0 0 30.5 225.5 L 30.5 975  A 5 5 0 0 0 35.5 980.5 L 625 980.5  A 5 5 0 0 1 630.5 985.5 L 630.5 998  A 5 5 0 0 0 635.5 1003.5 L 644 1003.5  " stroke-width="1" stroke="#ff0000" fill="none" stroke-opacity="0.298039215686275" />
  <path d="M 643 998  L 643 1009  L 644 1009  L 644 998  L 643 998  Z " fill-rule="nonzero" fill="#ff0000" stroke="none" fill-opacity="0.298039215686275" />
</svg>