<?xml version="1.0" encoding="utf-8"?>
<svg version="1.1" xmlns:xlink="http://www.w3.org/1999/xlink" width="110px" height="10px" preserveAspectRatio="xMinYMid meet" viewBox="55 56  110 8" xmlns="http://www.w3.org/2000/svg">
  <path d="M 180 69.5  L 164.5 69.5  A 4.5 4.5 0 0 1 160.5 65 A 4.5 4.5 0 0 0 156 60.5 L 65 60.5  A 5 5 0 0 1 60.5 55.5 L 60.5 -5  A 5 5 0 0 1 65.5 -9.5 L 625 -9.5  A 5 5 0 0 1 630.5 -4.5 L 630.5 76  A 5 5 0 0 0 635.5 81.5 L 643 81.5  " stroke-width="1" stroke="#ff0000" fill="none" stroke-opacity="0.298039215686275" />
  <path d="M 642 76  L 642 87  L 643 87  L 643 76  L 642 76  Z " fill-rule="nonzero" fill="#ff0000" stroke="none" fill-opacity="0.298039215686275" />
</svg>