<svg t="1601804057064" class="icon" viewBox="0 0 1024 1024" version="1.1" xmlns="http://www.w3.org/2000/svg" p-id="5098" width="200" height="200"><path d="M512 0C795.105882 0 1024 228.894118 1024 512S795.105882 1024 512 1024 0 795.105882 0 512 228.894118 0 512 0z" fill="#0F73EE" p-id="5099"></path><path d="M656.64502 901.019608h-6.02353c-20.078431-8.031373-32.12549-34.133333-48.188235-74.290196-4.015686-12.047059-12.047059-26.101961-18.070588-40.156863-16.062745-34.133333-34.133333-72.282353-38.14902-92.360784v-4.015687c-2.007843 2.007843-2.007843 4.015686-4.015686 8.031373-8.031373 18.070588-22.086275 94.368627-18.070588 114.447059 2.007843 8.031373 4.015686 8.031373 12.047058 8.031372 6.023529 0 16.062745 0 20.078432 12.047059 2.007843 6.023529 2.007843 12.047059-2.007843 18.070588-8.031373 12.047059-28.109804 20.078431-52.203922 14.054902-36.141176-8.031373-42.164706-28.109804-38.14902-72.282353 4.015686-42.164706 16.062745-110.431373 24.094118-132.517647v-2.007843h-6.023529c-6.023529 0-12.047059 0-18.070589 2.007843-8.031373 0-22.086275 4.015686-38.149019 4.015687-22.086275 0-36.141176-4.015686-44.172549-14.054902-4.015686-4.015686-6.023529-12.047059-4.015686-22.086275 4.015686-22.086275 38.14902-58.227451 80.313725-102.4 12.047059-14.054902 26.101961-28.109804 28.109804-32.12549 6.023529-10.039216 6.023529-48.188235 2.007843-54.211765-2.007843-2.007843-4.015686-4.015686-4.015686-8.031372-2.007843-4.015686-6.023529-10.039216-10.039216-14.054902-8.031373 4.015686-34.133333 24.094118-46.180392 32.12549-6.023529 4.015686-12.047059 8.031373-16.062745 12.047059-4.015686 4.015686-8.031373 6.023529-10.039216 6.023529-6.023529 4.015686-8.031373 4.015686-12.047059 10.039216-12.047059 12.047059-22.086275 18.070588-32.12549 18.070588-8.031373 0-16.062745-6.023529-18.070588-20.078431-2.007843-12.047059 10.039216-18.070588 20.078431-24.094118 8.031373-4.015686 20.078431-10.039216 28.109804-20.078431 16.062745-20.078431 60.235294-60.235294 78.305883-74.290196 8.031373-6.023529 8.031373-6.023529 4.015686-22.086275 0-6.023529-2.007843-16.062745-2.007843-30.117647 0-28.109804 12.047059-52.203922 26.10196-66.258823 10.039216-10.039216 20.078431-16.062745 30.117648-16.062746 14.054902 0 24.094118 8.031373 32.12549 18.070589 10.039216 12.047059 12.047059 28.109804 8.031372 44.172549-4.015686 14.054902-2.007843 22.086275 0 24.094117 8.031373-6.023529 24.094118-22.086275 30.117647-50.196078 4.015686-18.070588 2.007843-42.164706 2.007843-62.243137 0-16.062745-2.007843-28.109804 0-36.141177 4.015686-16.062745 14.054902-42.164706 30.117648-42.164706 2.007843 0 6.023529 0 12.047058 4.015687 16.062745 14.054902 8.031373 54.211765-2.007843 68.266666-2.007843 4.015686 0 24.094118 0 36.141177 0 18.070588 2.007843 34.133333 0 48.188235-4.015686 28.109804-32.12549 72.282353-50.196078 78.305882v2.007844c28.109804 22.086275 10.039216 56.219608 4.015686 68.266666 0 2.007843-2.007843 4.015686-2.007843 4.015686-2.007843 10.039216-4.015686 138.541176 4.015686 180.705883 8.031373 42.164706 40.156863 154.603922 58.227451 184.721568 6.023529 10.039216 12.047059 18.070588 18.070588 24.094118 12.047059 16.062745 24.094118 30.117647 20.078432 52.203922-8.031373 30.117647-26.101961 32.12549-32.12549 32.12549z m-110.431373-234.917647c10.039216 0 16.062745 8.031373 20.078431 24.094117 4.015686 18.070588 22.086275 56.219608 36.141177 86.337255 8.031373 16.062745 14.054902 30.117647 20.078431 42.164706 10.039216 26.101961 24.094118 58.227451 36.141177 62.243137 2.007843 0 6.023529 0 8.031372-12.047058 2.007843-12.047059-4.015686-20.078431-16.062745-36.141177-6.023529-8.031373-12.047059-16.062745-18.070588-26.101961-20.078431-32.12549-52.203922-146.572549-60.235294-192.752941-8.031373-42.164706-8.031373-180.705882-2.007843-192.752941 0-2.007843 2.007843-4.015686 2.007843-6.023529 10.039216-20.078431 14.054902-36.141176 0-44.172549l-2.007843-2.007844-2.007843-2.007843c-2.007843-4.015686-6.023529-14.054902-2.007844-24.094117 2.007843-4.015686 6.023529-8.031373 12.047059-8.031373 6.023529-2.007843 34.133333-36.141176 36.141177-62.243137 2.007843-8.031373 2.007843-18.070588 0-30.117647 0 6.023529-2.007843 12.047059-2.007843 18.070588-8.031373 46.180392-38.14902 64.25098-42.164706 66.258824-8.031373 4.015686-18.070588 2.007843-22.086275-4.015687-6.023529-8.031373-8.031373-24.094118-2.007843-42.164706 2.007843-10.039216 0-20.078431-4.015686-28.109803-6.023529-6.023529-12.047059-8.031373-18.070588-10.039216-2.007843 0-8.031373 4.015686-16.062746 10.039216-10.039216 12.047059-22.086275 30.117647-20.078431 52.203921 0 12.047059 2.007843 20.078431 4.015686 28.109804 2.007843 16.062745 4.015686 28.109804-12.047058 40.156863-16.062745 10.039216-48.188235 40.156863-66.258824 62.243137l2.007843-2.007843c40.156863-30.117647 52.203922-38.14902 58.227451-38.14902 12.047059 0 20.078431 12.047059 26.101961 22.086275 2.007843 2.007843 2.007843 4.015686 4.015686 6.023529 10.039216 14.054902 6.023529 60.235294 0 74.290196-2.007843 6.023529-12.047059 16.062745-32.12549 36.141177-26.101961 28.109804-72.282353 76.298039-74.290196 92.360784v4.015686c2.007843 2.007843 6.023529 6.023529 28.109804 6.02353 14.054902 0 28.109804-2.007843 36.141176-2.007843 8.031373 0 14.054902-2.007843 22.086275-2.007844 4.015686 0 18.070588 0 24.094117 8.031373 4.015686 6.023529 4.015686 12.047059 2.007844 20.078431-10.039216 24.094118-22.086275 90.352941-26.101961 134.525491-4.015686 44.172549 2.007843 46.180392 22.086274 50.196078 14.054902 2.007843 26.101961-2.007843 30.117647-4.015686-8.031373 0-26.101961-2.007843-30.117647-22.086275-8.031373-28.109804 12.047059-110.431373 18.070589-126.494117 2.007843-12.047059 10.039216-26.101961 22.086274-26.101961z m80.313726-526.054902c-2.007843 4.015686-6.023529 12.047059-10.039216 26.101961-2.007843 4.015686 0 14.054902 0 24.094117 0-4.015686 2.007843-8.031373 4.015686-10.039215 6.023529-10.039216 10.039216-32.12549 6.02353-40.156863z" fill="#FFFFFF" p-id="5100"></path></svg>