<?xml version="1.0" encoding="utf-8"?>
<svg version="1.1" xmlns:xlink="http://www.w3.org/1999/xlink" width="13px" height="46px" xmlns="http://www.w3.org/2000/svg">
  <defs>
    <mask fill="white" id="clip565">
      <path d="M 5.90909090909076 24.0648148148151  C 7.79471314414252 11.6385604788912  5.90909090909076 1.27777777777749  5.90909090909076 1.27777777777749  L 11.5649350649351 0.182539682539641  C 11.5649350649351 0.182539682539641  14.0782483380035 11.6314936386976  12.2121212121212 24.0648148148151  C 10.447272727273 35.82335352044  5.90909090909076 45.6349206349208  5.90909090909076 45.6349206349208  L 0.196969696969745 42.3796296296293  C 0.196969696969745 42.3796296296293  4.3096969696968 34.6048241044828  5.90909090909076 24.0648148148151  Z " fill-rule="evenodd" />
    </mask>
  </defs>
  <g transform="matrix(1 0 0 1 -1016 -657 )">
    <path d="M 5.90909090909076 24.0648148148151  C 7.79471314414252 11.6385604788912  5.90909090909076 1.27777777777749  5.90909090909076 1.27777777777749  L 11.5649350649351 0.182539682539641  C 11.5649350649351 0.182539682539641  14.0782483380035 11.6314936386976  12.2121212121212 24.0648148148151  C 10.447272727273 35.82335352044  5.90909090909076 45.6349206349208  5.90909090909076 45.6349206349208  L 0.196969696969745 42.3796296296293  C 0.196969696969745 42.3796296296293  4.3096969696968 34.6048241044828  5.90909090909076 24.0648148148151  Z " fill-rule="nonzero" fill="#06dfff" stroke="none" transform="matrix(1 0 0 1 1016 657 )" />
    <path d="M 5.90909090909076 24.0648148148151  C 7.79471314414252 11.6385604788912  5.90909090909076 1.27777777777749  5.90909090909076 1.27777777777749  L 11.5649350649351 0.182539682539641  C 11.5649350649351 0.182539682539641  14.0782483380035 11.6314936386976  12.2121212121212 24.0648148148151  C 10.447272727273 35.82335352044  5.90909090909076 45.6349206349208  5.90909090909076 45.6349206349208  L 0.196969696969745 42.3796296296293  C 0.196969696969745 42.3796296296293  4.3096969696968 34.6048241044828  5.90909090909076 24.0648148148151  Z " stroke-width="2" stroke="#797979" fill="none" transform="matrix(1 0 0 1 1016 657 )" mask="url(#clip565)" />
  </g>
</svg>