<?xml version="1.0" encoding="utf-8"?>
<svg version="1.1" xmlns:xlink="http://www.w3.org/1999/xlink" width="43px" height="27px" xmlns="http://www.w3.org/2000/svg">
  <defs>
    <linearGradient gradientUnits="userSpaceOnUse" x1="21.5" y1="0" x2="21.5" y2="27" id="LinearGradient610">
      <stop id="Stop611" stop-color="#64f3c4" offset="0" />
      <stop id="Stop612" stop-color="#4fee56" offset="1" />
    </linearGradient>
    <mask fill="white" id="clip613">
      <path d="M 18.1601941747574 19.8214285714284  L 0.208737864077648 20.8928571428571  L 0.208737864077648 26.7857142857142  L 18.6820388349515 25.3928571428572  L 18.6820388349515 26.1428571428571  L 19.2038834951456 26.1428571428571  C 19.2038834951456 26.1428571428571  20.2687495125911 21.5136771703668  24.4223300970873 18.3214285714286  C 32.4813587907076 12.1276344382321  42.6868932038835 11.6785714285714  42.6868932038835 11.6785714285714  L 42.6868932038835 0.214285714285779  C 42.6868932038835 0.214285714285779  31.5224998959839 0.490673995894781  24.4223300970873 6.42857142857133  C 18.0291901653884 11.7751772510233  18.1601941747574 19.8214285714284  18.1601941747574 19.8214285714284  Z " fill-rule="evenodd" />
    </mask>
  </defs>
  <g transform="matrix(1 0 0 1 -378 -510 )">
    <path d="M 18.1601941747574 19.8214285714284  L 0.208737864077648 20.8928571428571  L 0.208737864077648 26.7857142857142  L 18.6820388349515 25.3928571428572  L 18.6820388349515 26.1428571428571  L 19.2038834951456 26.1428571428571  C 19.2038834951456 26.1428571428571  20.2687495125911 21.5136771703668  24.4223300970873 18.3214285714286  C 32.4813587907076 12.1276344382321  42.6868932038835 11.6785714285714  42.6868932038835 11.6785714285714  L 42.6868932038835 0.214285714285779  C 42.6868932038835 0.214285714285779  31.5224998959839 0.490673995894781  24.4223300970873 6.42857142857133  C 18.0291901653884 11.7751772510233  18.1601941747574 19.8214285714284  18.1601941747574 19.8214285714284  Z " fill-rule="nonzero" fill="url(#LinearGradient610)" stroke="none" transform="matrix(1 0 0 1 378 510 )" />
    <path d="M 18.1601941747574 19.8214285714284  L 0.208737864077648 20.8928571428571  L 0.208737864077648 26.7857142857142  L 18.6820388349515 25.3928571428572  L 18.6820388349515 26.1428571428571  L 19.2038834951456 26.1428571428571  C 19.2038834951456 26.1428571428571  20.2687495125911 21.5136771703668  24.4223300970873 18.3214285714286  C 32.4813587907076 12.1276344382321  42.6868932038835 11.6785714285714  42.6868932038835 11.6785714285714  L 42.6868932038835 0.214285714285779  C 42.6868932038835 0.214285714285779  31.5224998959839 0.490673995894781  24.4223300970873 6.42857142857133  C 18.0291901653884 11.7751772510233  18.1601941747574 19.8214285714284  18.1601941747574 19.8214285714284  Z " stroke-width="2" stroke="#00c800" fill="none" transform="matrix(1 0 0 1 378 510 )" mask="url(#clip613)" />
  </g>
</svg>