<?xml version="1.0" encoding="utf-8"?>
<svg version="1.1" xmlns:xlink="http://www.w3.org/1999/xlink" width="820px" height="521px" xmlns="http://www.w3.org/2000/svg">
  <defs>
    <mask fill="white" id="clip564">
      <path d="M 0 76.9442980697636  L 0 16.5821355236142  L 25.705329153605 1  L 80.8861024033439 1  L 82.2570532915362 1.06981519507218  L 211.640543364681 0.534907597536062  L 226.206896551724 10  L 580.940438871473 10  L 594.649947753396 0  L 819.14315569488 1.06981519507218  L 820 521  L 0 521  L 0 149.240186790714  L 0 134.796194831939  L 0 76.9442980697636  Z " fill-rule="evenodd" />
    </mask>
  </defs>
  <g transform="matrix(1 0 0 1 -541 -404 )">
    <path d="M 0 76.9442980697636  L 0 16.5821355236142  L 25.705329153605 1  L 80.8861024033439 1  L 82.2570532915362 1.06981519507218  L 211.640543364681 0.534907597536062  L 226.206896551724 10  L 580.940438871473 10  L 594.649947753396 0  L 819.14315569488 1.06981519507218  L 820 521  L 0 521  L 0 149.240186790714  L 0 134.796194831939  L 0 76.9442980697636  Z " fill-rule="nonzero" fill="#ffffff" stroke="none" fill-opacity="0" transform="matrix(1 0 0 1 541 404 )" />
    <path d="M 0 76.9442980697636  L 0 16.5821355236142  L 25.705329153605 1  L 80.8861024033439 1  L 82.2570532915362 1.06981519507218  L 211.640543364681 0.534907597536062  L 226.206896551724 10  L 580.940438871473 10  L 594.649947753396 0  L 819.14315569488 1.06981519507218  L 820 521  L 0 521  L 0 149.240186790714  L 0 134.796194831939  L 0 76.9442980697636  Z " stroke-width="2" stroke-dasharray="3,1" stroke="#c79b0a" fill="none" transform="matrix(1 0 0 1 541 404 )" mask="url(#clip564)" />
  </g>
</svg>