<?xml version="1.0" encoding="utf-8"?>
<svg version="1.1" xmlns:xlink="http://www.w3.org/1999/xlink" width="7px" height="7px" xmlns="http://www.w3.org/2000/svg">
  <g transform="matrix(1 0 0 1 -994 -540 )">
    <path d="M 997.5 541  C 998.9 541  1000 542.1  1000 543.5  C 1000 544.9  998.9 546  997.5 546  C 996.1 546  995 544.9  995 543.5  C 995 542.1  996.1 541  997.5 541  Z " fill-rule="nonzero" fill="#ffffff" stroke="none" />
    <path d="M 997.5 541  C 998.9 541  1000 542.1  1000 543.5  C 1000 544.9  998.9 546  997.5 546  C 996.1 546  995 544.9  995 543.5  C 995 542.1  996.1 541  997.5 541  Z " stroke-width="2" stroke="#c79b0a" fill="none" />
  </g>
</svg>