<?xml version="1.0" encoding="utf-8"?>
<svg version="1.1" xmlns:xlink="http://www.w3.org/1999/xlink" width="106px" height="30px" xmlns="http://www.w3.org/2000/svg">
  <defs>
    <mask fill="white" id="clip567">
      <path d="M 0.255421686746899 20.1702127659574  L 6.5181649675626 27.3787287843804  C 6.5181649675626 27.3787287843804  26.8620790068622 10.9598194350028  50.9893728761199 11.1268472475382  C 78.260719263531 11.3156406263834  98.2882298424468 30  98.2882298424468 30  L 106 22.1361863531412  C 106 22.1361863531412  86.0597538027539 0.933724905476993  54.7167284522706 0.641762385059337  C 26.5963290729928 0.379818855801091  6.5181649675626 14.5531914893618  6.5181649675626 14.5531914893618  L 0.255421686746899 20.1702127659574  Z " fill-rule="evenodd" />
    </mask>
  </defs>
  <g transform="matrix(1 0 0 1 -902 -587 )">
    <path d="M 0.255421686746899 20.1702127659574  L 6.5181649675626 27.3787287843804  C 6.5181649675626 27.3787287843804  26.8620790068622 10.9598194350028  50.9893728761199 11.1268472475382  C 78.260719263531 11.3156406263834  98.2882298424468 30  98.2882298424468 30  L 106 22.1361863531412  C 106 22.1361863531412  86.0597538027539 0.933724905476993  54.7167284522706 0.641762385059337  C 26.5963290729928 0.379818855801091  6.5181649675626 14.5531914893618  6.5181649675626 14.5531914893618  L 0.255421686746899 20.1702127659574  Z " fill-rule="nonzero" fill="#06dfff" stroke="none" transform="matrix(1 0 0 1 902 587 )" />
    <path d="M 0.255421686746899 20.1702127659574  L 6.5181649675626 27.3787287843804  C 6.5181649675626 27.3787287843804  26.8620790068622 10.9598194350028  50.9893728761199 11.1268472475382  C 78.260719263531 11.3156406263834  98.2882298424468 30  98.2882298424468 30  L 106 22.1361863531412  C 106 22.1361863531412  86.0597538027539 0.933724905476993  54.7167284522706 0.641762385059337  C 26.5963290729928 0.379818855801091  6.5181649675626 14.5531914893618  6.5181649675626 14.5531914893618  L 0.255421686746899 20.1702127659574  Z " stroke-width="2" stroke="#797979" fill="none" transform="matrix(1 0 0 1 902 587 )" mask="url(#clip567)" />
  </g>
</svg>