<?xml version="1.0" encoding="utf-8"?>
<svg version="1.1" xmlns:xlink="http://www.w3.org/1999/xlink" width="26px" height="28px" xmlns="http://www.w3.org/2000/svg">
  <defs>
    <linearGradient gradientUnits="userSpaceOnUse" x1="0" y1="14" x2="26" y2="14" id="LinearGradient605">
      <stop id="Stop606" stop-color="#f7436d" offset="0" />
      <stop id="Stop607" stop-color="#f7436d" offset="0.01" />
      <stop id="Stop608" stop-color="#fa406b" offset="1" />
    </linearGradient>
    <mask fill="white" id="clip609">
      <path d="M 11.5081967213114 14.2121212121212  C 4.6925230030688 8.73286505256465  0 0.31818181818187  0 0.31818181818187  L 0.532786885245969 6.89393939393938  C 0.532786885245969 6.89393939393938  2.65457255902379 13.6116217523825  8.41803278688508 18.7727272727274  C 16.2528347592788 25.7886930488166  25.6803278688524 27.6818181818181  25.6803278688524 27.6818181818181  L 25.6803278688524 20.7878787878788  C 25.6803278688524 20.7878787878788  18.6989073670857 19.9928770443713  11.5081967213114 14.2121212121212  Z " fill-rule="evenodd" />
    </mask>
  </defs>
  <g transform="matrix(1 0 0 1 -378 -535 )">
    <path d="M 11.5081967213114 14.2121212121212  C 4.6925230030688 8.73286505256465  0 0.31818181818187  0 0.31818181818187  L 0.532786885245969 6.89393939393938  C 0.532786885245969 6.89393939393938  2.65457255902379 13.6116217523825  8.41803278688508 18.7727272727274  C 16.2528347592788 25.7886930488166  25.6803278688524 27.6818181818181  25.6803278688524 27.6818181818181  L 25.6803278688524 20.7878787878788  C 25.6803278688524 20.7878787878788  18.6989073670857 19.9928770443713  11.5081967213114 14.2121212121212  Z " fill-rule="nonzero" fill="url(#LinearGradient605)" stroke="none" transform="matrix(1 0 0 1 378 535 )" />
    <path d="M 11.5081967213114 14.2121212121212  C 4.6925230030688 8.73286505256465  0 0.31818181818187  0 0.31818181818187  L 0.532786885245969 6.89393939393938  C 0.532786885245969 6.89393939393938  2.65457255902379 13.6116217523825  8.41803278688508 18.7727272727274  C 16.2528347592788 25.7886930488166  25.6803278688524 27.6818181818181  25.6803278688524 27.6818181818181  L 25.6803278688524 20.7878787878788  C 25.6803278688524 20.7878787878788  18.6989073670857 19.9928770443713  11.5081967213114 14.2121212121212  Z " stroke-width="2" stroke="#fa5880" fill="none" transform="matrix(1 0 0 1 378 535 )" mask="url(#clip609)" />
  </g>
</svg>