<svg t="1601807902292" class="icon" viewBox="0 0 1024 1024" version="1.1" xmlns="http://www.w3.org/2000/svg" p-id="8434" width="200" height="200"><path d="M381.6 443.9c57.3 0 103.8-46.6 103.8-103.8s-46.6-103.8-103.8-103.8-103.8 46.6-103.8 103.8 46.6 103.8 103.8 103.8z" fill="#2F54EB" p-id="8435"></path><path d="M0 0v952.9h1024V0H0z m381.6 172.5c92.4 0 167.5 75.2 167.5 167.5 0 92.4-75.2 167.5-167.5 167.5-92.4 0-167.5-75.2-167.5-167.5S289.2 172.5 381.6 172.5z m242 624.6c0-102.6-108.5-186-241.9-186s-241.9 83.4-241.9 186H76c0-137.7 137.1-249.7 305.6-249.7S687.2 659.4 687.2 797.1h-63.6z m321.7-350.9h-289v-49.8h289v49.8z m0-87.5h-289v-49.8h289v49.8z m0-87.6h-289v-49.8h289v49.8z" fill="#2F54EB" p-id="8436"></path></svg>