<?xml version="1.0" encoding="utf-8"?>
<svg version="1.1" xmlns:xlink="http://www.w3.org/1999/xlink" width="235px" height="233px" xmlns="http://www.w3.org/2000/svg">
  <g transform="matrix(1 0 0 1 -835 -552 )">
    <path d="M 952.5 556.5  C 1015.78 556.5  1065.5 605.78  1065.5 668.5  C 1065.5 731.22  1015.78 780.5  952.5 780.5  C 889.22 780.5  839.5 731.22  839.5 668.5  C 839.5 605.78  889.22 556.5  952.5 556.5  Z " fill-rule="nonzero" fill="#ffffff" stroke="none" fill-opacity="0" />
    <path d="M 952.5 554.5  C 1016.9 554.5  1067.5 604.66  1067.5 668.5  C 1067.5 732.34  1016.9 782.5  952.5 782.5  C 888.1 782.5  837.5 732.34  837.5 668.5  C 837.5 604.66  888.1 554.5  952.5 554.5  Z " stroke-width="5" stroke-dasharray="85,40" stroke="#06dfff" fill="none" stroke-dashoffset="0.5" />
  </g>
</svg>