<?xml version="1.0" encoding="utf-8"?>
<svg version="1.1" xmlns:xlink="http://www.w3.org/1999/xlink" width="44px" height="16px" xmlns="http://www.w3.org/2000/svg">
  <defs>
    <linearGradient gradientUnits="userSpaceOnUse" x1="0" y1="8" x2="44" y2="8" id="LinearGradient641">
      <stop id="Stop642" stop-color="#00d7e9" offset="0" />
      <stop id="Stop643" stop-color="#00d7e9" offset="0.01" />
      <stop id="Stop644" stop-color="#00d7e3" offset="1" />
    </linearGradient>
    <mask fill="white" id="clip645">
      <path d="M 23.9743589743589 1.40350877192986  C 11.9191368010731 -0.785717154735266  0.282051282051043 0.561403508772059  0.282051282051043 0.561403508772059  L 4.51282051282055 11.5087719298247  C 4.51282051282055 11.5087719298247  10.590163370659 10.1713198366809  18.3333333333333 11.5087719298247  C 26.0689089729149 12.8449122807017  31.448717948718 15.7192982456141  31.448717948718 15.7192982456141  L 43.8589743589744 8.56140350877206  C 43.8589743589744 8.56140350877206  36.3308030035391 3.64743652715731  23.9743589743589 1.40350877192986  Z " fill-rule="evenodd" />
    </mask>
  </defs>
  <g transform="matrix(1 0 0 1 -416 -496 )">
    <path d="M 23.9743589743589 1.40350877192986  C 11.9191368010731 -0.785717154735266  0.282051282051043 0.561403508772059  0.282051282051043 0.561403508772059  L 4.51282051282055 11.5087719298247  C 4.51282051282055 11.5087719298247  10.590163370659 10.1713198366809  18.3333333333333 11.5087719298247  C 26.0689089729149 12.8449122807017  31.448717948718 15.7192982456141  31.448717948718 15.7192982456141  L 43.8589743589744 8.56140350877206  C 43.8589743589744 8.56140350877206  36.3308030035391 3.64743652715731  23.9743589743589 1.40350877192986  Z " fill-rule="nonzero" fill="url(#LinearGradient641)" stroke="none" transform="matrix(1 0 0 1 416 496 )" />
    <path d="M 23.9743589743589 1.40350877192986  C 11.9191368010731 -0.785717154735266  0.282051282051043 0.561403508772059  0.282051282051043 0.561403508772059  L 4.51282051282055 11.5087719298247  C 4.51282051282055 11.5087719298247  10.590163370659 10.1713198366809  18.3333333333333 11.5087719298247  C 26.0689089729149 12.8449122807017  31.448717948718 15.7192982456141  31.448717948718 15.7192982456141  L 43.8589743589744 8.56140350877206  C 43.8589743589744 8.56140350877206  36.3308030035391 3.64743652715731  23.9743589743589 1.40350877192986  Z " stroke-width="2" stroke="#5eeef2" fill="none" transform="matrix(1 0 0 1 416 496 )" mask="url(#clip645)" />
  </g>
</svg>