<?xml version="1.0" encoding="utf-8"?>
<svg version="1.1" xmlns:xlink="http://www.w3.org/1999/xlink" width="7px" height="7px" xmlns="http://www.w3.org/2000/svg">
  <g transform="matrix(1 0 0 1 -616 -483 )">
    <path d="M 619.5 484  C 620.9 484  622 485.1  622 486.5  C 622 487.9  620.9 489  619.5 489  C 618.1 489  617 487.9  617 486.5  C 617 485.1  618.1 484  619.5 484  Z " fill-rule="nonzero" fill="#ffffff" stroke="none" />
    <path d="M 619.5 484  C 620.9 484  622 485.1  622 486.5  C 622 487.9  620.9 489  619.5 489  C 618.1 489  617 487.9  617 486.5  C 617 485.1  618.1 484  619.5 484  Z " stroke-width="2" stroke="#06dfff" fill="none" />
  </g>
</svg>