<svg t="1623929168630" class="icon" viewBox="0 0 1024 1024" version="1.1" xmlns="http://www.w3.org/2000/svg" p-id="2407" width="128" height="128"><path d="M42.204 636.518c-7.524-30.22-7.524-59.589-7.524-93.571 0-204.618 127.917-386.42 318.335-452.32l21.482 62.259c-163.84 56.676-274.037 213.477-274.037 390.061 0 30.826 0 55.099 5.703 77.551l-63.958 16.020zM515.155 1016.749c-114.566 0-221.972-39.079-310.689-112.867l42.113-50.608c76.701 63.958 169.543 97.697 268.576 97.697 98.911 0 191.754-33.739 268.455-97.697l42.113 50.608c-88.595 73.91-196.001 112.867-310.567 112.867zM981.433 643.072l-63.837-15.899c5.583-22.452 5.583-46.725 5.583-77.551 0-176.583-110.077-333.383-274.037-390.061l21.482-62.259c190.418 65.778 318.335 247.581 318.335 452.198 0 33.982 0 63.23-7.524 93.571z" fill="#00B0F0" p-id="2408"></path><path d="M436.148 88.807c0 43.635 35.373 79.007 79.007 79.007s79.007-35.373 79.007-79.007c0-43.635-35.373-79.007-79.007-79.007-43.635 0-79.007 35.373-79.007 79.007z" fill="#00B0F0" p-id="2409"></path><path d="M54.628 806.618c13.914 23.787 39.334 39.509 68.426 39.509 43.635 0 79.007-35.373 79.007-79.007 0-14.547-3.932-28.177-10.79-39.883-13.712-23.413-39.133-39.137-68.225-39.137-43.635 0-79.007 35.373-79.007 79.007 0 14.547 3.932 28.177 10.79 39.883z" fill="#00B0F0" p-id="2410"></path><path d="M859.492 827.617c11.333 6.657 24.962 10.589 39.509 10.589 43.635 0 79.007-35.373 79.007-79.007 0-29.092-15.724-54.511-39.137-68.225-11.707-6.859-25.337-10.79-39.883-10.79-43.635 0-79.007 35.373-79.007 79.007 0 29.092 15.724 54.511 39.137 68.225z" fill="#00B0F0" p-id="2411"></path></svg>