<?xml version="1.0" encoding="utf-8"?>
<svg version="1.1" xmlns:xlink="http://www.w3.org/1999/xlink" width="15px" height="28px" xmlns="http://www.w3.org/2000/svg">
  <defs>
    <linearGradient gradientUnits="userSpaceOnUse" x1="0" y1="14" x2="15" y2="14" id="LinearGradient658">
      <stop id="Stop659" stop-color="#bd6bf4" offset="0" />
      <stop id="Stop660" stop-color="#955ef9" offset="1" />
    </linearGradient>
    <mask fill="white" id="clip661">
      <path d="M 10.3928571428571 8.37878787878799  C 5.56457115689386 14.8087351730804  0.214285714285779 17.3939393939394  0.214285714285779 17.3939393939394  L 0.214285714285779 27.7878787878788  C 0.214285714285779 27.7878787878788  7.7837571835089 23.3758476115788  12.5357142857142 16.3333333333333  C 14.8921262681285 12.8410743178048  14.5714285714287 10.0757575757576  14.5714285714287 10.0757575757576  L 14.5714285714287 0.31818181818187  C 14.5714285714287 0.31818181818187  13.0509455467127 4.83894612333859  10.3928571428571 8.37878787878799  Z " fill-rule="evenodd" />
    </mask>
  </defs>
  <g transform="matrix(1 0 0 1 -460 -532 )">
    <path d="M 10.3928571428571 8.37878787878799  C 5.56457115689386 14.8087351730804  0.214285714285779 17.3939393939394  0.214285714285779 17.3939393939394  L 0.214285714285779 27.7878787878788  C 0.214285714285779 27.7878787878788  7.7837571835089 23.3758476115788  12.5357142857142 16.3333333333333  C 14.8921262681285 12.8410743178048  14.5714285714287 10.0757575757576  14.5714285714287 10.0757575757576  L 14.5714285714287 0.31818181818187  C 14.5714285714287 0.31818181818187  13.0509455467127 4.83894612333859  10.3928571428571 8.37878787878799  Z " fill-rule="nonzero" fill="url(#LinearGradient658)" stroke="none" transform="matrix(1 0 0 1 460 532 )" />
    <path d="M 10.3928571428571 8.37878787878799  C 5.56457115689386 14.8087351730804  0.214285714285779 17.3939393939394  0.214285714285779 17.3939393939394  L 0.214285714285779 27.7878787878788  C 0.214285714285779 27.7878787878788  7.7837571835089 23.3758476115788  12.5357142857142 16.3333333333333  C 14.8921262681285 12.8410743178048  14.5714285714287 10.0757575757576  14.5714285714287 10.0757575757576  L 14.5714285714287 0.31818181818187  C 14.5714285714287 0.31818181818187  13.0509455467127 4.83894612333859  10.3928571428571 8.37878787878799  Z " stroke-width="2" stroke="#7c00ff" fill="none" transform="matrix(1 0 0 1 460 532 )" mask="url(#clip661)" />
  </g>
</svg>