<?xml version="1.0" encoding="utf-8"?>
<svg version="1.1" xmlns:xlink="http://www.w3.org/1999/xlink" width="813px" height="64px" xmlns="http://www.w3.org/2000/svg">
  <g transform="matrix(1 0 0 1 -544 -302 )">
    <path d="M 0 56.2166010848181  L 0 7.78510431211259  L 0 1.27183021379903  C 0 0.559605294071616  1.30528994082852 0  2.96656804733743 0  L 64.4732552537895 0  L 84.052902103502 0  L 228.42573964497 0  C 230.08701775148 0  273.084615384615 7  273.084615384615 7  L 802.576923076923 7  C 808.413846153846 6.51327433628319  813 7.07287963035469  813 7.78510455008222  L 813 62.728169786201  C 813 63.4403947059284  808.413846153846 64  802.576923076923 64  L 10.4230769230768 64  C 4.58615384615393 64  0 63.4403947059284  0 62.728169786201  L 0 56.2166010848181  Z " fill-rule="nonzero" fill="#ffffff" stroke="none" fill-opacity="0" transform="matrix(1 0 0 1 544 302 )" />
  </g>
</svg>