<?xml version="1.0" encoding="utf-8"?>
<svg version="1.1" xmlns:xlink="http://www.w3.org/1999/xlink" width="172px" height="170px" xmlns="http://www.w3.org/2000/svg">
  <g transform="matrix(1 0 0 1 -868 -584 )">
    <path d="M 954 585  C 1001.6 585  1039 621.96  1039 669  C 1039 716.04  1001.6 753  954 753  C 906.4 753  869 716.04  869 669  C 869 621.96  906.4 585  954 585  Z " fill-rule="nonzero" fill="#ffffff" stroke="none" fill-opacity="0" />
    <path d="M 954 585  C 1001.6 585  1039 621.96  1039 669  C 1039 716.04  1001.6 753  954 753  C 906.4 753  869 716.04  869 669  C 869 621.96  906.4 585  954 585  Z " stroke-width="2" stroke="#06dfff" fill="none" />
  </g>
</svg>