<?xml version="1.0" encoding="utf-8"?>
<svg version="1.1" xmlns:xlink="http://www.w3.org/1999/xlink" width="123px" height="121px" xmlns="http://www.w3.org/2000/svg">
  <g transform="matrix(1 0 0 1 -893 -608 )">
    <path d="M 954.5 610  C 987.82 610  1014 635.74  1014 668.5  C 1014 701.26  987.82 727  954.5 727  C 921.18 727  895 701.26  895 668.5  C 895 635.74  921.18 610  954.5 610  Z " fill-rule="nonzero" fill="#031857" stroke="none" />
    <path d="M 954.5 609.5  C 988.1 609.5  1014.5 635.46  1014.5 668.5  C 1014.5 701.54  988.1 727.5  954.5 727.5  C 920.9 727.5  894.5 701.54  894.5 668.5  C 894.5 635.46  920.9 609.5  954.5 609.5  Z " stroke-width="3" stroke="#f2f2f2" fill="none" />
  </g>
</svg>