<?xml version="1.0" encoding="utf-8"?>
<svg version="1.1" xmlns:xlink="http://www.w3.org/1999/xlink" width="7px" height="7px" xmlns="http://www.w3.org/2000/svg">
  <g transform="matrix(1 0 0 1 -607 -655 )">
    <path d="M 610.5 656  C 611.9 656  613 657.1  613 658.5  C 613 659.9  611.9 661  610.5 661  C 609.1 661  608 659.9  608 658.5  C 608 657.1  609.1 656  610.5 656  Z " fill-rule="nonzero" fill="#ffffff" stroke="none" />
    <path d="M 610.5 656  C 611.9 656  613 657.1  613 658.5  C 613 659.9  611.9 661  610.5 661  C 609.1 661  608 659.9  608 658.5  C 608 657.1  609.1 656  610.5 656  Z " stroke-width="2" stroke="#ffff00" fill="none" />
  </g>
</svg>