<?xml version="1.0" encoding="utf-8"?>
<svg version="1.1" xmlns:xlink="http://www.w3.org/1999/xlink" width="77px" height="28px" xmlns="http://www.w3.org/2000/svg">
  <defs>
    <mask fill="white" id="clip566">
      <path d="M 33.8715846994535 17.8181818181818  C 16.0671054479035 12.9478787878789  4.41803278688531 0.424242424242493  4.41803278688531 0.424242424242493  L 0.210382513661216 4.66666666666663  C 0.210382513661216 4.66666666666663  13.050411464988 19.3284848484851  33.0300546448087 25.0303030303028  C 55.7178270166536 31.5049708634797  77 24.6909090909091  77 24.6909090909091  L 76.1885245901639 18.9090909090909  C 76.1885245901639 18.9090909090909  56.2579456671178 23.9418297001482  33.8715846994535 17.8181818181818  Z " fill-rule="evenodd" />
    </mask>
  </defs>
  <g transform="matrix(1 0 0 1 -898 -718 )">
    <path d="M 33.8715846994535 17.8181818181818  C 16.0671054479035 12.9478787878789  4.41803278688531 0.424242424242493  4.41803278688531 0.424242424242493  L 0.210382513661216 4.66666666666663  C 0.210382513661216 4.66666666666663  13.050411464988 19.3284848484851  33.0300546448087 25.0303030303028  C 55.7178270166536 31.5049708634797  77 24.6909090909091  77 24.6909090909091  L 76.1885245901639 18.9090909090909  C 76.1885245901639 18.9090909090909  56.2579456671178 23.9418297001482  33.8715846994535 17.8181818181818  Z " fill-rule="nonzero" fill="#06dfff" stroke="none" transform="matrix(1 0 0 1 898 718 )" />
    <path d="M 33.8715846994535 17.8181818181818  C 16.0671054479035 12.9478787878789  4.41803278688531 0.424242424242493  4.41803278688531 0.424242424242493  L 0.210382513661216 4.66666666666663  C 0.210382513661216 4.66666666666663  13.050411464988 19.3284848484851  33.0300546448087 25.0303030303028  C 55.7178270166536 31.5049708634797  77 24.6909090909091  77 24.6909090909091  L 76.1885245901639 18.9090909090909  C 76.1885245901639 18.9090909090909  56.2579456671178 23.9418297001482  33.8715846994535 17.8181818181818  Z " stroke-width="2" stroke="#797979" fill="none" transform="matrix(1 0 0 1 898 718 )" mask="url(#clip566)" />
  </g>
</svg>