<svg t="1601776303782" class="icon" viewBox="0 0 1024 1024" version="1.1" xmlns="http://www.w3.org/2000/svg" p-id="1208" width="200" height="200"><path d="M511.999488 63.224973c-247.52242 0-448.775027 200.544479-448.775026 448.771957 0 247.53163 200.544479 448.777073 448.775026 448.777073 247.529583 0 448.775027-200.548572 448.775027-448.777073-0.001023-247.524466-200.545502-448.771957-448.775027-448.771957z m0 833.440944c-212.43939 0-384.659777-172.220387-384.659776-384.667964 0-212.443483 172.220387-384.661823 384.659776-384.661823 212.449623 0 384.66387 172.21834 384.66387 384.661823 0 212.447577-172.214247 384.667963-384.66387 384.667964z m0-252.136508c-25.237801 0-46.279023 21.738094-46.279022 47.678906 0 26.64894 21.041222 47.682999 46.279022 47.682999 25.945929 0 46.279023-21.035082 46.279023-47.682999 0-26.643823-21.034059-47.678906-46.279023-47.678906z m121.311927-302.925241c-11.217483-17.528212-27.347858-31.555693-47.680952-42.071187-20.338211-10.518564-44.183292-15.425318-70.827116-15.425318-28.749788 0-53.987588 5.607718-75.729775 18.231223-21.039175 11.920494-37.863353 27.345812-49.086975 46.279023-11.217483 18.932188-16.823154 37.162388-16.823154 55.393611 0 8.413624 3.502777 16.827247 10.516518 24.541953 7.013741 7.716752 15.429411 11.223622 25.945929 11.223622 17.530258 0 29.447682-10.520611 35.760458-32.258704 7.013741-21.035082 14.728446-36.461423 24.543999-46.979988 9.8176-10.516518 24.539906-16.126282 44.873-16.126282 17.530258 0 31.55774 5.609765 42.781363 16.126282 11.217483 10.518564 16.822131 23.14207 16.82213 38.566364 0 7.712659-2.100848 14.724353-5.605671 21.734-3.508917 7.013741-7.714705 12.627598-13.326517 18.235317-5.611811 5.609765-14.027481 14.023388-25.945928 24.541952-13.320377 11.920494-24.543999 22.441105-32.251542 31.555694-7.714705 8.413624-14.027481 18.934235-18.938328 30.854728-4.904707 11.918447-7.007601 25.945929-7.007601 42.069141 0 12.623505 3.510964 22.441105 9.8176 28.751834 7.013741 6.310729 14.722306 9.8176 24.543999 9.8176 18.231223 0 29.454846-10.520611 32.952506-30.151717 2.106987-9.114588 4.203742-16.128329 4.910847-19.635199 0.694825-3.50687 2.109034-7.714705 4.203742-11.217483 2.102894-4.209882 4.912893-8.417717 8.41567-12.627598 4.205788-4.203742 9.116635-9.813506 15.429411-15.425318 22.441105-21.037129 37.870516-35.760458 46.977941-44.875047 8.41567-8.417717 16.130376-18.934235 22.443151-31.555693 7.007601-11.920494 9.815553-26.644847 9.114589-42.071188 0-20.336164-5.605671-39.969317-16.829294-57.501622z" p-id="1209" fill="#bfbfbf"></path></svg>