<?xml version="1.0" encoding="utf-8"?>
<svg version="1.1" xmlns:xlink="http://www.w3.org/1999/xlink" width="58px" height="16px" xmlns="http://www.w3.org/2000/svg">
  <defs>
    <linearGradient gradientUnits="userSpaceOnUse" x1="0" y1="8" x2="58" y2="8" id="LinearGradient626">
      <stop id="Stop627" stop-color="#01bbf7" offset="0" />
      <stop id="Stop628" stop-color="#01bbf7" offset="0.01" />
      <stop id="Stop629" stop-color="#017cec" offset="1" />
    </linearGradient>
    <mask fill="white" id="clip630">
      <path d="M 30.1430656934306 5.44000000000017  C 18.8147952995141 6.760123389569  9.31386861313877 3.20000000000005  9.31386861313877 3.20000000000005  L 0.338686131386794 12.3200000000001  C 0.338686131386794 12.3200000000001  13.7587375129042 17.0549211117159  30.1430656934306 15.68  C 45.9916473463325 14.3500370460577  57.9153284671531 7.67999999999995  57.9153284671531 7.67999999999995  L 45.0452554744525 0.159999999999854  C 45.0452554744525 0.159999999999854  38.7434425183992 4.4377676899519  30.1430656934306 5.44000000000017  Z " fill-rule="evenodd" />
    </mask>
  </defs>
  <g transform="matrix(1 0 0 1 -403 -543 )">
    <path d="M 30.1430656934306 5.44000000000017  C 18.8147952995141 6.760123389569  9.31386861313877 3.20000000000005  9.31386861313877 3.20000000000005  L 0.338686131386794 12.3200000000001  C 0.338686131386794 12.3200000000001  13.7587375129042 17.0549211117159  30.1430656934306 15.68  C 45.9916473463325 14.3500370460577  57.9153284671531 7.67999999999995  57.9153284671531 7.67999999999995  L 45.0452554744525 0.159999999999854  C 45.0452554744525 0.159999999999854  38.7434425183992 4.4377676899519  30.1430656934306 5.44000000000017  Z " fill-rule="nonzero" fill="url(#LinearGradient626)" stroke="none" transform="matrix(1 0 0 1 403 543 )" />
    <path d="M 30.1430656934306 5.44000000000017  C 18.8147952995141 6.760123389569  9.31386861313877 3.20000000000005  9.31386861313877 3.20000000000005  L 0.338686131386794 12.3200000000001  C 0.338686131386794 12.3200000000001  13.7587375129042 17.0549211117159  30.1430656934306 15.68  C 45.9916473463325 14.3500370460577  57.9153284671531 7.67999999999995  57.9153284671531 7.67999999999995  L 45.0452554744525 0.159999999999854  C 45.0452554744525 0.159999999999854  38.7434425183992 4.4377676899519  30.1430656934306 5.44000000000017  Z " stroke-width="2" stroke="#018bf0" fill="none" transform="matrix(1 0 0 1 403 543 )" mask="url(#clip630)" />
  </g>
</svg>