<?xml version="1.0" encoding="utf-8"?>
<svg version="1.1" xmlns:xlink="http://www.w3.org/1999/xlink" width="43px" height="31px" xmlns="http://www.w3.org/2000/svg">
  <defs>
    <linearGradient gradientUnits="userSpaceOnUse" x1="21.5" y1="0" x2="21.5" y2="31" id="LinearGradient614">
      <stop id="Stop615" stop-color="#64f3c4" offset="0" />
      <stop id="Stop616" stop-color="#4fee56" offset="1" />
    </linearGradient>
  </defs>
  <g transform="matrix(1 0 0 1 -378 -500 )">
    <path d="M 0 25.7635135135137  C 0 27.5090090090089  0 31  0 31  L 18.7002457002457 30.1564655762929  C 18.7002457002457 30.1564655762929  18.9585518796309 23.6592789458101  21.97542997543 19.9286106888437  C 29.6464596993344 10.4426234595072  43 10.7551738310287  43 10.7551738310287  L 39.1965601965601 0.000109928762753952  C 39.1965601965601 0.000109928762753952  23.1623122283738 -0.151030886616468  9.19164619164621 10.7551738310287  C 3.11284241566318 15.5005938593207  1.05392156862763 21.1554054054055  1.05392156862763 21.1554054054055  C 1.05392156862763 21.1554054054055  0.351307189542467 24.2274774774776  0 25.7635135135137  Z " fill-rule="nonzero" fill="url(#LinearGradient614)" stroke="none" transform="matrix(1 0 0 1 378 500 )" />
  </g>
</svg>