<?xml version="1.0" encoding="utf-8"?>
<svg version="1.1" xmlns:xlink="http://www.w3.org/1999/xlink" width="106px" height="92px" xmlns="http://www.w3.org/2000/svg">
  <defs>
    <mask fill="white" id="clip588">
      <path d="M 0 45.6827586206898  L 26.6586826347304 0.422988505747071  L 78.2834331337326 0.422988505747071  L 105.788423153693 45.6827586206898  L 78.2834331337326 91.7885057471262  L 26.6586826347304 91.7885057471262  L 0 45.6827586206898  Z " fill-rule="evenodd" />
    </mask>
  </defs>
  <g transform="matrix(1 0 0 1 -748 -441 )">
    <path d="M 0 45.6827586206898  L 26.6586826347304 0.422988505747071  L 78.2834331337326 0.422988505747071  L 105.788423153693 45.6827586206898  L 78.2834331337326 91.7885057471262  L 26.6586826347304 91.7885057471262  L 0 45.6827586206898  Z " fill-rule="nonzero" fill="#ffffff" stroke="none" fill-opacity="0" transform="matrix(1 0 0 1 748 441 )" />
    <path d="M 0 45.6827586206898  L 26.6586826347304 0.422988505747071  L 78.2834331337326 0.422988505747071  L 105.788423153693 45.6827586206898  L 78.2834331337326 91.7885057471262  L 26.6586826347304 91.7885057471262  L 0 45.6827586206898  Z " stroke-width="10" stroke="#5ad2f7" fill="none" transform="matrix(1 0 0 1 748 441 )" mask="url(#clip588)" />
  </g>
</svg>