<?xml version="1.0" encoding="utf-8"?>
<svg version="1.1" xmlns:xlink="http://www.w3.org/1999/xlink" width="90px" height="84px" xmlns="http://www.w3.org/2000/svg">
  <g transform="matrix(1 0 0 1 -215 -267 )">
    <path d="M 89.9988103480339 45.5965197980845  C 89.9988103480339 60.7693339211248  82.3523011521053 74.9204437858162  69.6607474932615 83.2354154716981  L 69.6289471698113 83.1754148247978  C 69.3374853475693 83.3214788743387  69.0159672968404 83.3975341249236  68.6899539529526 83.3975341249236  C 67.5324631590151 83.3975341249236  66.5941314731682 82.4592024390767  66.5941314731682 81.3017116451392  C 66.5941314731682 80.4493806945634  67.1103049497479 79.6819434695186  67.8997285714286 79.3605739083558  C 79.1094320525769 71.7673938698942  85.8238624748592 59.1093550231124  85.8238624748592 45.5700110496489  C 85.8238624748592 23.0295925947797  67.5512429782459 4.75697309816639  45.0108245233767 4.75697309816639  C 22.4704060685075 4.75697309816639  4.19778657189424 23.0295925947797  4.19778657189424 45.5700110496489  C 4.19778657189424 57.6575480547995  9.55583613932913 69.1232786863715  18.8282019946092 76.8777472237197  C 19.7882122641509 77.7501566037736  20.8766239892183 78.518164851752  20.9978252830189 79.2015722102426  C 21.1664270619946 80.1549824797844  20.4998199460916 82.5556081940701  18.5977995687331 81.6015979245283  C 17.7277902695418 81.1653932345014  16.8373806469003 80.6901881401617  16.8373806469003 80.6901881401617  C 6.19550131359484 72.1496924237062  0.00384468765656466 59.2416531000141  0.00384468765656466 45.5965197980845  C 0.00384468765656466 20.7450962501983  20.1499039699591 0.599036967895821  45.0013275178453 0.599036967895821  C 69.8527510657314 0.599036967895821  89.9988103480339 20.7450962501983  89.9988103480339 45.5965197980845  Z " fill-rule="nonzero" fill="#36ab60" stroke="none" transform="matrix(1 0 0 1 215 267 )" />
  </g>
</svg>