<?xml version="1.0" encoding="utf-8"?>
<svg version="1.1" xmlns:xlink="http://www.w3.org/1999/xlink" width="47px" height="153px" xmlns="http://www.w3.org/2000/svg">
  <defs>
    <mask fill="white" id="clip706">
      <path d="M 46.7602040816328 0.627049180327873  L 40.045918367347 0.627049180327873  L 15.3469387755101 0.627049180327873  L 0.479591836734698 20.3790983606557  L 0.479591836734698 152.059426229508  L 46.7602040816328 152.059426229508  L 46.7602040816328 0.627049180327873  Z " fill-rule="evenodd" />
    </mask>
  </defs>
  <g transform="matrix(1 0 0 1 -538 -141 )">
    <path d="M 46.7602040816328 0.627049180327873  L 40.045918367347 0.627049180327873  L 15.3469387755101 0.627049180327873  L 0.479591836734698 20.3790983606557  L 0.479591836734698 152.059426229508  L 46.7602040816328 152.059426229508  L 46.7602040816328 0.627049180327873  Z " fill-rule="nonzero" fill="#2a5aaf" stroke="none" transform="matrix(1 0 0 1 538 141 )" />
    <path d="M 46.7602040816328 0.627049180327873  L 40.045918367347 0.627049180327873  L 15.3469387755101 0.627049180327873  L 0.479591836734698 20.3790983606557  L 0.479591836734698 152.059426229508  L 46.7602040816328 152.059426229508  L 46.7602040816328 0.627049180327873  Z " stroke-width="2" stroke="#2a5aaf" fill="none" transform="matrix(1 0 0 1 538 141 )" mask="url(#clip706)" />
  </g>
</svg>