<svg t="1601799406740" class="icon" viewBox="0 0 1024 1024" version="1.1" xmlns="http://www.w3.org/2000/svg" p-id="3415" width="200" height="200"><path d="M25.9456 366.933333l460.8 273.066667c8.533333 8.533333 17.066667 8.533333 25.6 8.533333 8.533333 0 17.066667 0 25.6-8.533333l460.8-273.066667c17.066667-8.533333 25.6-25.6 25.6-42.666666s-8.533333-34.133333-25.6-42.666667L537.9456 8.533333c-17.066667-8.533333-34.133333-8.533333-51.2 0L25.9456 281.6c-17.066667 8.533333-25.6 25.6-25.6 42.666667s8.533333 34.133333 25.6 42.666666" fill="#0066FF" p-id="3416"></path><path d="M956.078933 469.333333L512.3456 733.866667 68.612267 469.333333c-17.066667-8.533333-51.2 0-59.733334 17.066667-17.066667 25.6-8.533333 59.733333 17.066667 68.266667l460.8 273.066666c8.533333 8.533333 17.066667 8.533333 25.6 8.533334 8.533333 0 17.066667 0 25.6-8.533334l460.8-273.066666c25.6-8.533333 34.133333-42.666667 17.066667-68.266667-8.533333-17.066667-42.666667-25.6-59.733334-17.066667" fill="#0066FF" p-id="3417"></path><path d="M956.078933 657.066667L512.3456 921.6 68.612267 657.066667c-17.066667-8.533333-51.2 0-59.733334 17.066666-17.066667 25.6-8.533333 59.733333 17.066667 68.266667l460.8 273.066667c8.533333 8.533333 17.066667 8.533333 25.6 8.533333 8.533333 0 17.066667 0 25.6-8.533333l460.8-273.066667c25.6-17.066667 34.133333-42.666667 17.066667-68.266667-8.533333-17.066667-42.666667-25.6-59.733334-17.066666" fill="#0066FF" p-id="3418"></path></svg>