<?xml version="1.0" encoding="utf-8"?>
<svg version="1.1" xmlns:xlink="http://www.w3.org/1999/xlink" width="34px" height="22px" xmlns="http://www.w3.org/2000/svg">
  <defs>
    <linearGradient gradientUnits="userSpaceOnUse" x1="17" y1="0" x2="17" y2="22" id="LinearGradient617">
      <stop id="Stop618" stop-color="#fc7096" offset="0" />
      <stop id="Stop619" stop-color="#f94a73" offset="1" />
    </linearGradient>
    <mask fill="white" id="clip620">
      <path d="M 10.3291139240507 14.701923076923  C 3.66817298336878 9.17719588379362  0 1.16346153846143  0 1.16346153846143  L 19.6253164556963 0  C 19.6253164556963 0  21.3248760164388 4.56109020213808  25.4784810126582 8.12307692307695  C 29.3000951038639 11.4003598274012  33.7417721518987 12.3538461538461  33.7417721518987 12.3538461538461  L 25.9949367088607 22  C 25.9949367088607 22  17.8559141516109 20.944812522239  10.3291139240507 14.701923076923  Z " fill-rule="evenodd" />
    </mask>
  </defs>
  <g transform="matrix(1 0 0 1 -378 -534 )">
    <path d="M 10.3291139240507 14.701923076923  C 3.66817298336878 9.17719588379362  0 1.16346153846143  0 1.16346153846143  L 19.6253164556963 0  C 19.6253164556963 0  21.3248760164388 4.56109020213808  25.4784810126582 8.12307692307695  C 29.3000951038639 11.4003598274012  33.7417721518987 12.3538461538461  33.7417721518987 12.3538461538461  L 25.9949367088607 22  C 25.9949367088607 22  17.8559141516109 20.944812522239  10.3291139240507 14.701923076923  Z " fill-rule="nonzero" fill="url(#LinearGradient617)" stroke="none" transform="matrix(1 0 0 1 378 534 )" />
    <path d="M 10.3291139240507 14.701923076923  C 3.66817298336878 9.17719588379362  0 1.16346153846143  0 1.16346153846143  L 19.6253164556963 0  C 19.6253164556963 0  21.3248760164388 4.56109020213808  25.4784810126582 8.12307692307695  C 29.3000951038639 11.4003598274012  33.7417721518987 12.3538461538461  33.7417721518987 12.3538461538461  L 25.9949367088607 22  C 25.9949367088607 22  17.8559141516109 20.944812522239  10.3291139240507 14.701923076923  Z " stroke-width="2" stroke="#fa5880" fill="none" transform="matrix(1 0 0 1 378 534 )" mask="url(#clip620)" />
  </g>
</svg>