<?xml version="1.0" encoding="utf-8"?>
<svg version="1.1" xmlns:xlink="http://www.w3.org/1999/xlink" width="47px" height="154px" xmlns="http://www.w3.org/2000/svg">
  <defs>
    <mask fill="white" id="clip707">
      <path d="M 0.239795918367236 0.631147540983619  L 6.95408163265302 0.631147540983619  L 31.6530612244896 0.631147540983619  L 46.5204081632655 20.5122950819672  L 46.5204081632655 153.053278688525  L 0.239795918367236 153.053278688525  L 0.239795918367236 0.631147540983619  Z " fill-rule="evenodd" />
    </mask>
  </defs>
  <g transform="matrix(1 0 0 1 -1315 -140 )">
    <path d="M 0.239795918367236 0.631147540983619  L 6.95408163265302 0.631147540983619  L 31.6530612244896 0.631147540983619  L 46.5204081632655 20.5122950819672  L 46.5204081632655 153.053278688525  L 0.239795918367236 153.053278688525  L 0.239795918367236 0.631147540983619  Z " fill-rule="nonzero" fill="#2a5aaf" stroke="none" transform="matrix(1 0 0 1 1315 140 )" />
    <path d="M 0.239795918367236 0.631147540983619  L 6.95408163265302 0.631147540983619  L 31.6530612244896 0.631147540983619  L 46.5204081632655 20.5122950819672  L 46.5204081632655 153.053278688525  L 0.239795918367236 153.053278688525  L 0.239795918367236 0.631147540983619  Z " stroke-width="2" stroke="#2a5aaf" fill="none" transform="matrix(1 0 0 1 1315 140 )" mask="url(#clip707)" />
  </g>
</svg>