<?xml version="1.0" encoding="utf-8"?>
<svg version="1.1" xmlns:xlink="http://www.w3.org/1999/xlink" width="824px" height="154px" xmlns="http://www.w3.org/2000/svg">
  <defs>
    <mask fill="white" id="clip705">
      <path d="M 0 19.8708404555605  L 15.4021878696215 0  L 810.042056074767 0  L 824 18.6291690838356  L 824 152.758064516129  C 824 153.453548387097  823.576448598131 154  823.03738317757 154  L 0.962616822429936 154  C 0.42355140186919 154  0 153.453548387097  0 152.758064516129  L 0 19.8708404555605  Z " fill-rule="evenodd" />
    </mask>
  </defs>
  <g transform="matrix(1 0 0 1 -538 -140 )">
    <path d="M 0 19.8708404555605  L 15.4021878696215 0  L 810.042056074767 0  L 824 18.6291690838356  L 824 152.758064516129  C 824 153.453548387097  823.576448598131 154  823.03738317757 154  L 0.962616822429936 154  C 0.42355140186919 154  0 153.453548387097  0 152.758064516129  L 0 19.8708404555605  Z " fill-rule="nonzero" fill="#ffffff" stroke="none" fill-opacity="0" transform="matrix(1 0 0 1 538 140 )" />
    <path d="M 0 19.8708404555605  L 15.4021878696215 0  L 810.042056074767 0  L 824 18.6291690838356  L 824 152.758064516129  C 824 153.453548387097  823.576448598131 154  823.03738317757 154  L 0.962616822429936 154  C 0.42355140186919 154  0 153.453548387097  0 152.758064516129  L 0 19.8708404555605  Z " stroke-width="6" stroke="#2a5aaf" fill="none" transform="matrix(1 0 0 1 538 140 )" mask="url(#clip705)" />
  </g>
</svg>