<?xml version="1.0" encoding="utf-8"?>
<svg version="1.1" xmlns:xlink="http://www.w3.org/1999/xlink" width="352px" height="61px" xmlns="http://www.w3.org/2000/svg">
  <g transform="matrix(1 0 0 1 -102 -437 )">
    <path d="M 0.999999965298849 0.5  L 39 0.5  L 87 0  L 123.139332365441 30.7184325106244  L 127 34  L 170 43.5  L 218 43.5  L 261 51  L 303 15.1111111111111  L 342 15.1111111111111  " stroke-width="1" stroke="#797979" fill="none" transform="matrix(1 0 0 1 111 446 )" />
    <path d="M 2.99999999958902 -2.5  C 1.34314575009664 -2.5  0 -1.15685424949238  0 0.5  C 0 2.15685424949238  1.34314575009664 3.5  2.99999999958902 3.5  C 4.6568542490814 3.5  5.99999999958902 2.15685424949238  5.99999999958902 0.5  C 5.99999999958902 -1.15685424949238  4.6568542490814 -2.5  2.99999999958902 -2.5  Z " fill-rule="nonzero" fill="#797979" stroke="none" transform="matrix(1 0 0 1 111 446 )" />
  </g>
</svg>