<?xml version="1.0" encoding="utf-8"?>
<svg version="1.1" xmlns:xlink="http://www.w3.org/1999/xlink" width="9px" height="18px" xmlns="http://www.w3.org/2000/svg">
  <defs>
    <linearGradient gradientUnits="userSpaceOnUse" x1="0" y1="9" x2="9" y2="9" id="LinearGradient650">
      <stop id="Stop651" stop-color="#bd6bf4" offset="0" />
      <stop id="Stop652" stop-color="#955ef9" offset="1" />
    </linearGradient>
    <mask fill="white" id="clip653">
      <path d="M 8.89772727272748 12.1704545454545  C 7.87164041318283 4.89466270564208  0.511363636363512 0.102272727272862  0.511363636363512 0.102272727272862  L 0.102272727272521 10.6363636363637  L 2.96590909090901 12.7840909090909  L 6.23863636363649 16.4659090909091  L 6.9545454545455 17.8977272727271  C 6.9545454545455 17.8977272727271  9.31999991552675 15.1647116301037  8.89772727272748 12.1704545454545  Z " fill-rule="evenodd" />
    </mask>
  </defs>
  <g transform="matrix(1 0 0 1 -447 -516 )">
    <path d="M 8.89772727272748 12.1704545454545  C 7.87164041318283 4.89466270564208  0.511363636363512 0.102272727272862  0.511363636363512 0.102272727272862  L 0.102272727272521 10.6363636363637  L 2.96590909090901 12.7840909090909  L 6.23863636363649 16.4659090909091  L 6.9545454545455 17.8977272727271  C 6.9545454545455 17.8977272727271  9.31999991552675 15.1647116301037  8.89772727272748 12.1704545454545  Z " fill-rule="nonzero" fill="url(#LinearGradient650)" stroke="none" transform="matrix(1 0 0 1 447 516 )" />
    <path d="M 8.89772727272748 12.1704545454545  C 7.87164041318283 4.89466270564208  0.511363636363512 0.102272727272862  0.511363636363512 0.102272727272862  L 0.102272727272521 10.6363636363637  L 2.96590909090901 12.7840909090909  L 6.23863636363649 16.4659090909091  L 6.9545454545455 17.8977272727271  C 6.9545454545455 17.8977272727271  9.31999991552675 15.1647116301037  8.89772727272748 12.1704545454545  Z " stroke-width="2" stroke="#7c00ff" fill="none" transform="matrix(1 0 0 1 447 516 )" mask="url(#clip653)" />
  </g>
</svg>