<svg t="1624086852478" class="icon" viewBox="0 0 1024 1024" version="1.1" xmlns="http://www.w3.org/2000/svg" p-id="4347" width="128" height="128"><path d="M512 512m-296.6 0a296.6 296.6 0 1 0 593.2 0 296.6 296.6 0 1 0-593.2 0Z" fill="#d4237a" p-id="4348"></path><path d="M512 917c-54.7 0-107.7-10.7-157.6-31.8-48.2-20.4-91.5-49.6-128.7-86.8-37.2-37.2-66.4-80.5-86.8-128.7-21.2-50-31.9-103-31.9-157.7s10.7-107.7 31.8-157.6c20.4-48.2 49.6-91.5 86.8-128.7 37.2-37.2 80.5-66.4 128.7-86.8 49.9-21.1 103-31.8 157.6-31.8s107.7 10.7 157.6 31.8c48.2 20.4 91.5 49.6 128.7 86.8 37.2 37.2 66.4 80.5 86.8 128.7 21.1 49.9 31.8 103 31.8 157.6S906.1 619.7 885 669.6c-20.4 48.2-49.6 91.5-86.8 128.7s-80.5 66.4-128.7 86.8C619.7 906.3 566.7 917 512 917z m0-780c-50.6 0-99.7 9.9-146 29.5-44.7 18.9-84.8 45.9-119.2 80.4s-61.5 74.5-80.4 119.2c-19.6 46.2-29.5 95.3-29.5 146 0 50.6 9.9 99.7 29.5 146 18.9 44.7 45.9 84.8 80.4 119.2s74.5 61.5 119.2 80.4c46.2 19.5 95.3 29.5 146 29.5 50.6 0 99.7-9.9 146-29.5 44.7-18.9 84.8-45.9 119.2-80.4s61.5-74.5 80.4-119.2c19.5-46.2 29.5-95.3 29.5-146 0-50.6-9.9-99.7-29.5-146-18.9-44.7-45.9-84.8-80.4-119.2s-74.5-61.5-119.2-80.4c-46.3-19.6-95.4-29.5-146-29.5z" fill="#d4237a" p-id="4349"></path><path d="M512 1019c-68.4 0-134.8-13.4-197.4-39.8-60.4-25.5-114.6-62.1-161.2-108.6C106.8 824 70.3 769.8 44.8 709.4 18.4 646.8 5 580.4 5 512s13.4-134.8 39.8-197.4c25.5-60.4 62.1-114.6 108.6-161.2C200 106.8 254.2 70.3 314.6 44.8 377.2 18.4 443.6 5 512 5s134.8 13.4 197.4 39.8c60.4 25.5 114.6 62.1 161.2 108.6 46.6 46.6 83.1 100.8 108.6 161.2 26.4 62.5 39.8 128.9 39.8 197.4 0 68.4-13.4 134.8-39.8 197.4-25.5 60.4-62.1 114.6-108.6 161.2-46.6 46.6-100.8 83.1-161.2 108.6-62.6 26.4-129 39.8-197.4 39.8z m0-984c-64.4 0-126.9 12.6-185.7 37.5-56.8 24-107.8 58.4-151.6 102.2S96.5 269.5 72.5 326.3C47.6 385.1 35 447.6 35 512s12.6 126.9 37.5 185.7c24 56.8 58.4 107.8 102.2 151.6 43.8 43.8 94.8 78.2 151.6 102.2C385.1 976.4 447.6 989 512 989s126.9-12.6 185.7-37.5c56.8-24 107.8-58.4 151.6-102.2 43.8-43.8 78.2-94.8 102.2-151.6C976.4 638.9 989 576.4 989 512s-12.6-126.9-37.5-185.7c-24-56.8-58.4-107.8-102.2-151.6-43.8-43.8-94.8-78.2-151.6-102.2C638.9 47.6 576.4 35 512 35z" fill="#d4237a" p-id="4350"></path></svg>