<svg t="1601808010909" class="icon" viewBox="0 0 1024 1024" version="1.1" xmlns="http://www.w3.org/2000/svg" p-id="10731" width="200" height="200"><path d="M0 0m512 0l0 0q512 0 512 512l0 0q0 512-512 512l0 0q-512 0-512-512l0 0q0-512 512-512Z" fill="#2878FF" p-id="10732"></path><path d="M511.829333 364.629333c22.208 0 42.688-9.749333 53.632-25.557333 10.944-15.829333 10.624-35.2-0.810666-50.816L511.829333 213.333333l-52.8 74.88c-11.434667 15.573333-11.754667 34.986667-0.810666 50.794667 10.944 15.872 31.402667 25.621333 53.610666 25.621333z m141.546667 251.733334l-33.088-27.093334-33.28 27.093334c-40.170667 32.896-110.378667 32.896-150.570667 0l-33.088-27.093334-33.28 27.093334c-19.754667 16.469333-46.784 25.685333-74.944 25.578666a123.264 123.264 0 0 1-60.352-15.488v116.352c0 13.866667 13.866667 25.194667 30.826667 25.194667h492.757333c16.938667 0 30.805333-11.306667 30.805334-25.173333v-116.330667a122.709333 122.709333 0 0 1-60.330667 15.509333c-28.437333 0.042667-55.573333-9.173333-75.456-25.642666z m43.221333-176.106667h-153.941333v-50.432H481.066667v50.432h-153.984c-50.986667 0-92.416 33.92-92.416 75.626667v38.826666c0 27.264 27.093333 49.429333 60.352 49.429334 16.128 0 31.253333-5.162667 42.624-14.506667l65.92-53.866667 65.749333 53.674667c22.826667 18.645333 62.506667 18.645333 85.333333 0l65.92-53.674667 65.749334 53.674667c11.370667 9.322667 26.474667 14.528 42.624 14.528 33.258667 0 60.394667-22.208 60.394666-49.408V515.84c-0.32-41.664-41.770667-75.584-92.736-75.584z" fill="#FFFFFF" p-id="10733"></path></svg>