<?xml version="1.0" encoding="utf-8"?>
<svg version="1.1" xmlns:xlink="http://www.w3.org/1999/xlink" width="27px" height="40px" xmlns="http://www.w3.org/2000/svg">
  <defs>
    <linearGradient gradientUnits="userSpaceOnUse" x1="0" y1="20" x2="27" y2="20" id="LinearGradient646">
      <stop id="Stop647" stop-color="#bd6bf4" offset="0" />
      <stop id="Stop648" stop-color="#955ef9" offset="1" />
    </linearGradient>
    <mask fill="white" id="clip649">
      <path d="M 8.41153846153838 19.8958333333334  C 8.24139525681016 13.3029367150796  0 7.8125  0 7.8125  L 12.4615384615383 0.3125  C 12.4615384615383 0.3125  25.7223135009933 8.71644248133657  26.7923076923075 17.8125  C 28.2940332116232 30.5787204260754  12.4615384615383 39.8958333333334  12.4615384615383 39.8958333333334  L 0 32.2916666666666  C 0 32.2916666666666  8.59492997291841 27.0020899547716  8.41153846153838 19.8958333333334  Z " fill-rule="evenodd" />
    </mask>
  </defs>
  <g transform="matrix(1 0 0 1 -448 -509 )">
    <path d="M 8.41153846153838 19.8958333333334  C 8.24139525681016 13.3029367150796  0 7.8125  0 7.8125  L 12.4615384615383 0.3125  C 12.4615384615383 0.3125  25.7223135009933 8.71644248133657  26.7923076923075 17.8125  C 28.2940332116232 30.5787204260754  12.4615384615383 39.8958333333334  12.4615384615383 39.8958333333334  L 0 32.2916666666666  C 0 32.2916666666666  8.59492997291841 27.0020899547716  8.41153846153838 19.8958333333334  Z " fill-rule="nonzero" fill="url(#LinearGradient646)" stroke="none" transform="matrix(1 0 0 1 448 509 )" />
    <path d="M 8.41153846153838 19.8958333333334  C 8.24139525681016 13.3029367150796  0 7.8125  0 7.8125  L 12.4615384615383 0.3125  C 12.4615384615383 0.3125  25.7223135009933 8.71644248133657  26.7923076923075 17.8125  C 28.2940332116232 30.5787204260754  12.4615384615383 39.8958333333334  12.4615384615383 39.8958333333334  L 0 32.2916666666666  C 0 32.2916666666666  8.59492997291841 27.0020899547716  8.41153846153838 19.8958333333334  Z " stroke-width="2" stroke="#9c60fa" fill="none" transform="matrix(1 0 0 1 448 509 )" mask="url(#clip649)" />
  </g>
</svg>