<?xml version="1.0" encoding="utf-8"?>
<svg version="1.1" xmlns:xlink="http://www.w3.org/1999/xlink" width="40px" height="24px" xmlns="http://www.w3.org/2000/svg">
  <defs>
    <linearGradient gradientUnits="userSpaceOnUse" x1="0" y1="12" x2="40" y2="12" id="LinearGradient631">
      <stop id="Stop632" stop-color="#00d7e9" offset="0" />
      <stop id="Stop633" stop-color="#00d7e9" offset="0.01" />
      <stop id="Stop634" stop-color="#00d7e3" offset="1" />
    </linearGradient>
    <mask fill="white" id="clip635">
      <path d="M 10.2456140350876 2.32727272727266  C 3.61671039182875 1.54610073110837  0.280701754385973 3.34545454545457  0.280701754385973 3.34545454545457  L 0.280701754385973 17.5636363636364  C 0.280701754385973 17.5636363636364  7.39084386201398 16.9872449020382  14.421052631579 18.2181818181818  C 21.8643904958069 19.5214545454545  26.1052631578948 23.8545454545454  26.1052631578948 23.8545454545454  L 26.6666666666665 12.9454545454545  L 39.719298245614 4.80000000000007  L 39.719298245614 0  L 27.2280701754387 7.12727272727273  C 27.2280701754387 7.12727272727273  18.7440107841867 3.32875199291914  10.2456140350876 2.32727272727266  Z " fill-rule="evenodd" />
    </mask>
  </defs>
  <g transform="matrix(1 0 0 1 -420 -504 )">
    <path d="M 10.2456140350876 2.32727272727266  C 3.61671039182875 1.54610073110837  0.280701754385973 3.34545454545457  0.280701754385973 3.34545454545457  L 0.280701754385973 17.5636363636364  C 0.280701754385973 17.5636363636364  7.39084386201398 16.9872449020382  14.421052631579 18.2181818181818  C 21.8643904958069 19.5214545454545  26.1052631578948 23.8545454545454  26.1052631578948 23.8545454545454  L 26.6666666666665 12.9454545454545  L 39.719298245614 4.80000000000007  L 39.719298245614 0  L 27.2280701754387 7.12727272727273  C 27.2280701754387 7.12727272727273  18.7440107841867 3.32875199291914  10.2456140350876 2.32727272727266  Z " fill-rule="nonzero" fill="url(#LinearGradient631)" stroke="none" transform="matrix(1 0 0 1 420 504 )" />
    <path d="M 10.2456140350876 2.32727272727266  C 3.61671039182875 1.54610073110837  0.280701754385973 3.34545454545457  0.280701754385973 3.34545454545457  L 0.280701754385973 17.5636363636364  C 0.280701754385973 17.5636363636364  7.39084386201398 16.9872449020382  14.421052631579 18.2181818181818  C 21.8643904958069 19.5214545454545  26.1052631578948 23.8545454545454  26.1052631578948 23.8545454545454  L 26.6666666666665 12.9454545454545  L 39.719298245614 4.80000000000007  L 39.719298245614 0  L 27.2280701754387 7.12727272727273  C 27.2280701754387 7.12727272727273  18.7440107841867 3.32875199291914  10.2456140350876 2.32727272727266  Z " stroke-width="2" stroke="#00d7e9" fill="none" transform="matrix(1 0 0 1 420 504 )" mask="url(#clip635)" />
  </g>
</svg>