<svg t="1601798992095" class="icon" viewBox="0 0 1024 1024" version="1.1" xmlns="http://www.w3.org/2000/svg" p-id="27809" width="200" height="200"><path d="M358.5024 409.6a51.0976 51.0976 0 0 0-51.1488 51.2v511.488a51.2 51.2 0 1 0 102.2976 0V460.8a51.0976 51.0976 0 0 0-51.1488-51.2z m-306.944 204.5952a51.1488 51.1488 0 0 0-51.1488 51.2v306.944a51.2 51.2 0 0 0 102.2976 0v-306.944a51.1488 51.1488 0 0 0-51.1488-51.2zM972.3904 0.3584a51.1488 51.1488 0 0 0-51.1488 51.2V972.288a51.2 51.2 0 0 0 102.2976 0V51.5072a51.0976 51.0976 0 0 0-51.1488-51.1488z m-306.944 255.7952a51.0976 51.0976 0 0 0-51.1488 51.1488v665.0368a51.2 51.2 0 1 0 102.2976 0V307.3024a51.1488 51.1488 0 0 0-51.1488-51.2z" fill="#3C4FFF" p-id="27810"></path><path d="M358.5024 409.6a51.0976 51.0976 0 0 0-51.1488 51.2v511.488a51.2 51.2 0 1 0 102.2976 0V460.8a51.0976 51.0976 0 0 0-51.1488-51.2z m-306.944 204.5952a51.1488 51.1488 0 0 0-51.1488 51.2v306.944a51.2 51.2 0 0 0 102.2976 0v-306.944a51.1488 51.1488 0 0 0-51.1488-51.2zM972.3904 0.3584a51.1488 51.1488 0 0 0-51.1488 51.2V972.288a51.2 51.2 0 0 0 102.2976 0V51.5072a51.0976 51.0976 0 0 0-51.1488-51.1488z m-306.944 255.7952a51.0976 51.0976 0 0 0-51.1488 51.1488v665.0368a51.2 51.2 0 1 0 102.2976 0V307.3024a51.1488 51.1488 0 0 0-51.1488-51.2z" fill="#3C4FFF" p-id="27811"></path></svg>