<svg t="1601794051533" class="icon" viewBox="0 0 1821 1024" version="1.1" xmlns="http://www.w3.org/2000/svg" p-id="12343" width="200" height="200"><path d="M918.933333 646.533333c-6 2.8-12.933333 2.8-18.8 0l-322.666666-152.933333v178c0 8.533333 4.666667 16.133333 12.266666 20l309.866667 156c6.266667 3.066667 13.6 3.066667 19.733333 0l309.866667-156c7.466667-3.733333 12.266667-11.466667 12.266667-20V493.733333L918.933333 646.533333" fill="#1296db" p-id="12344"></path><path d="M1431.6 293.6l-514-205.333333c-5.2-2.133333-11.066667-2.133333-16.266667 0l-513.733333 205.333333c-8.533333 3.333333-14.133333 11.6-14.133333 20.666667 0 9.2 5.6 17.333333 14.133333 20.666666l190 75.866667v33.466667l332 157.333333 332-157.333333v-33.466667l88.533333-35.333333v540.666666c0 12.266667 9.866667 22.266667 22.133334 22.266667 12.266667 0 22.133333-10 22.133333-22.266667v-557.333333l-0.133333-0.933333 57.333333-22.933334c8.4-3.333333 14-11.6 14-20.666666 0-9.066667-5.6-17.2-14-20.666667" fill="#1296db" p-id="12345"></path></svg>