<?xml version="1.0" encoding="utf-8"?>
<svg version="1.1" xmlns:xlink="http://www.w3.org/1999/xlink" width="59px" height="16px" xmlns="http://www.w3.org/2000/svg">
  <defs>
    <linearGradient gradientUnits="userSpaceOnUse" x1="0" y1="8" x2="59" y2="8" id="LinearGradient621">
      <stop id="Stop622" stop-color="#007feb" offset="0" />
      <stop id="Stop623" stop-color="#007feb" offset="0.01" />
      <stop id="Stop624" stop-color="#027eee" offset="1" />
    </linearGradient>
    <mask fill="white" id="clip625">
      <path d="M 32.3217391304349 8.32000000000005  C 14.5948957801447 10.1211927309857  0.342028985507113 5.12000000000012  0.342028985507113 5.12000000000012  L 0.342028985507113 12.1599999999999  C 0.342028985507113 12.1599999999999  14.4362991186335 17.16390685779  32.3217391304349 15.68  C 47.1356715479403 14.4509278669873  58.8289855072464 8.32000000000005  58.8289855072464 8.32000000000005  L 58.8289855072464 0.32000000000005  C 58.8289855072464 0.32000000000005  47.2741733028881 6.80071000517273  32.3217391304349 8.32000000000005  Z " fill-rule="evenodd" />
    </mask>
  </defs>
  <g transform="matrix(1 0 0 1 -403 -551 )">
    <path d="M 32.3217391304349 8.32000000000005  C 14.5948957801447 10.1211927309857  0.342028985507113 5.12000000000012  0.342028985507113 5.12000000000012  L 0.342028985507113 12.1599999999999  C 0.342028985507113 12.1599999999999  14.4362991186335 17.16390685779  32.3217391304349 15.68  C 47.1356715479403 14.4509278669873  58.8289855072464 8.32000000000005  58.8289855072464 8.32000000000005  L 58.8289855072464 0.32000000000005  C 58.8289855072464 0.32000000000005  47.2741733028881 6.80071000517273  32.3217391304349 8.32000000000005  Z " fill-rule="nonzero" fill="url(#LinearGradient621)" stroke="none" transform="matrix(1 0 0 1 403 551 )" />
    <path d="M 32.3217391304349 8.32000000000005  C 14.5948957801447 10.1211927309857  0.342028985507113 5.12000000000012  0.342028985507113 5.12000000000012  L 0.342028985507113 12.1599999999999  C 0.342028985507113 12.1599999999999  14.4362991186335 17.16390685779  32.3217391304349 15.68  C 47.1356715479403 14.4509278669873  58.8289855072464 8.32000000000005  58.8289855072464 8.32000000000005  L 58.8289855072464 0.32000000000005  C 58.8289855072464 0.32000000000005  47.2741733028881 6.80071000517273  32.3217391304349 8.32000000000005  Z " stroke-width="2" stroke="#018bf0" fill="none" transform="matrix(1 0 0 1 403 551 )" mask="url(#clip625)" />
  </g>
</svg>