<?xml version="1.0" encoding="utf-8"?>
<svg version="1.1" xmlns:xlink="http://www.w3.org/1999/xlink" width="22px" height="100px" xmlns="http://www.w3.org/2000/svg">
  <defs>
    <mask fill="white" id="clip600">
      <path d="M 11.6470588235295 47.1698113207545  C 11.2692348970634 23.5966854488078  0 5.24109014675082  0 5.24109014675082  L 8.1960784313726 0.419287211740084  C 8.1960784313726 0.419287211740084  21.1889985324394 20.8924880919359  21.5686274509803 47.1698113207545  C 21.9910889449518 76.4119387948068  8.1960784313726 99.5807127882599  8.1960784313726 99.5807127882599  L 0 94.9685534591197  C 0 94.9685534591197  12.0743914095242 73.8318730199089  11.6470588235295 47.1698113207545  Z " fill-rule="evenodd" />
    </mask>
  </defs>
  <g transform="matrix(1 0 0 1 -1037 -618 )">
    <path d="M 11.6470588235295 47.1698113207545  C 11.2692348970634 23.5966854488078  0 5.24109014675082  0 5.24109014675082  L 8.1960784313726 0.419287211740084  C 8.1960784313726 0.419287211740084  21.1889985324394 20.8924880919359  21.5686274509803 47.1698113207545  C 21.9910889449518 76.4119387948068  8.1960784313726 99.5807127882599  8.1960784313726 99.5807127882599  L 0 94.9685534591197  C 0 94.9685534591197  12.0743914095242 73.8318730199089  11.6470588235295 47.1698113207545  Z " fill-rule="nonzero" fill="#c79b0a" stroke="none" transform="matrix(1 0 0 1 1037 618 )" />
    <path d="M 11.6470588235295 47.1698113207545  C 11.2692348970634 23.5966854488078  0 5.24109014675082  0 5.24109014675082  L 8.1960784313726 0.419287211740084  C 8.1960784313726 0.419287211740084  21.1889985324394 20.8924880919359  21.5686274509803 47.1698113207545  C 21.9910889449518 76.4119387948068  8.1960784313726 99.5807127882599  8.1960784313726 99.5807127882599  L 0 94.9685534591197  C 0 94.9685534591197  12.0743914095242 73.8318730199089  11.6470588235295 47.1698113207545  Z " stroke-width="2" stroke="#797979" fill="none" transform="matrix(1 0 0 1 1037 618 )" mask="url(#clip600)" />
  </g>
</svg>