<?xml version="1.0" encoding="utf-8"?>
<svg version="1.1" xmlns:xlink="http://www.w3.org/1999/xlink" width="85px" height="53px" xmlns="http://www.w3.org/2000/svg">
  <defs>
    <mask fill="white" id="clip571">
      <path d="M 49.9533582089554 13.0959302325579  C 26.0005352474757 -0.428314961808383  0.475746268656735 0.154069767442138  0.475746268656735 0.154069767442138  L 0.475746268656735 10.0145348837207  C 0.475746268656735 10.0145348837207  22.4268337834915 10.0123460256667  43.4514925373134 21.7238372093025  C 64.4245993455293 33.4066121049101  76.5422885572139 52.5891472868216  76.5422885572139 52.5891472868216  L 85 47.4534883720931  C 85 47.4534883720931  73.2277764068042 26.2371344643158  49.9533582089554 13.0959302325579  Z " fill-rule="evenodd" />
    </mask>
  </defs>
  <g transform="matrix(1 0 0 1 -957 -564 )">
    <path d="M 49.9533582089554 13.0959302325579  C 26.0005352474757 -0.428314961808383  0.475746268656735 0.154069767442138  0.475746268656735 0.154069767442138  L 0.475746268656735 10.0145348837207  C 0.475746268656735 10.0145348837207  22.4268337834915 10.0123460256667  43.4514925373134 21.7238372093025  C 64.4245993455293 33.4066121049101  76.5422885572139 52.5891472868216  76.5422885572139 52.5891472868216  L 85 47.4534883720931  C 85 47.4534883720931  73.2277764068042 26.2371344643158  49.9533582089554 13.0959302325579  Z " fill-rule="nonzero" fill="#06dfff" stroke="none" transform="matrix(1 0 0 1 957 564 )" />
    <path d="M 49.9533582089554 13.0959302325579  C 26.0005352474757 -0.428314961808383  0.475746268656735 0.154069767442138  0.475746268656735 0.154069767442138  L 0.475746268656735 10.0145348837207  C 0.475746268656735 10.0145348837207  22.4268337834915 10.0123460256667  43.4514925373134 21.7238372093025  C 64.4245993455293 33.4066121049101  76.5422885572139 52.5891472868216  76.5422885572139 52.5891472868216  L 85 47.4534883720931  C 85 47.4534883720931  73.2277764068042 26.2371344643158  49.9533582089554 13.0959302325579  Z " stroke-width="2" stroke="#c79b0a" fill="none" transform="matrix(1 0 0 1 957 564 )" mask="url(#clip571)" />
  </g>
</svg>