<?xml version="1.0" encoding="utf-8"?>
<svg version="1.1" xmlns:xlink="http://www.w3.org/1999/xlink" width="86px" height="54px" xmlns="http://www.w3.org/2000/svg">
  <defs>
    <mask fill="white" id="clip595">
      <path d="M 39.920987654321 30.4137931034481  C 19.2846771038585 18.6880101685297  8.49382716049377 0.413793103448597  8.49382716049377 0.413793103448597  L 0 5.37931034482767  C 0 5.37931034482767  11.5299605928044 25.2375426236714  33.762962962963 38.2758620689652  C 59.0024115453538 53.0772814976787  85.5753086419754 53.7931034482759  85.5753086419754 53.7931034482759  L 85.5753086419754 43.2413793103448  C 85.5753086419754 43.2413793103448  62.2074495709198 43.0772105385727  39.920987654321 30.4137931034481  Z " fill-rule="evenodd" />
    </mask>
  </defs>
  <g transform="matrix(1 0 0 1 -863 -718 )">
    <path d="M 39.920987654321 30.4137931034481  C 19.2846771038585 18.6880101685297  8.49382716049377 0.413793103448597  8.49382716049377 0.413793103448597  L 0 5.37931034482767  C 0 5.37931034482767  11.5299605928044 25.2375426236714  33.762962962963 38.2758620689652  C 59.0024115453538 53.0772814976787  85.5753086419754 53.7931034482759  85.5753086419754 53.7931034482759  L 85.5753086419754 43.2413793103448  C 85.5753086419754 43.2413793103448  62.2074495709198 43.0772105385727  39.920987654321 30.4137931034481  Z " fill-rule="nonzero" fill="#06dfff" stroke="none" transform="matrix(1 0 0 1 863 718 )" />
    <path d="M 39.920987654321 30.4137931034481  C 19.2846771038585 18.6880101685297  8.49382716049377 0.413793103448597  8.49382716049377 0.413793103448597  L 0 5.37931034482767  C 0 5.37931034482767  11.5299605928044 25.2375426236714  33.762962962963 38.2758620689652  C 59.0024115453538 53.0772814976787  85.5753086419754 53.7931034482759  85.5753086419754 53.7931034482759  L 85.5753086419754 43.2413793103448  C 85.5753086419754 43.2413793103448  62.2074495709198 43.0772105385727  39.920987654321 30.4137931034481  Z " stroke-width="2" stroke="#797979" fill="none" transform="matrix(1 0 0 1 863 718 )" mask="url(#clip595)" />
  </g>
</svg>