<?xml version="1.0" encoding="utf-8"?>
<svg version="1.1" xmlns:xlink="http://www.w3.org/1999/xlink" width="23px" height="98px" xmlns="http://www.w3.org/2000/svg">
  <defs>
    <mask fill="white" id="clip603">
      <path d="M 14.457142857143 0.418803418803236  L 23 4.39743589743603  C 23 4.39743589743603  12.4591760021474 24.02830829637  12.4857142857143 49  C 12.5120154807717 73.7485988590619  23 93.1837606837607  23 93.1837606837607  L 14.457142857143 97.7905982905984  C 14.457142857143 97.7905982905984  0.641629210996143 76.3187164404173  0.657142857142844 49  C 0.672594466333749 21.7905273820553  14.457142857143 0.418803418803236  14.457142857143 0.418803418803236  Z " fill-rule="evenodd" />
    </mask>
  </defs>
  <g transform="matrix(1 0 0 1 -846 -619 )">
    <path d="M 14.457142857143 0.418803418803236  L 23 4.39743589743603  C 23 4.39743589743603  12.4591760021474 24.02830829637  12.4857142857143 49  C 12.5120154807717 73.7485988590619  23 93.1837606837607  23 93.1837606837607  L 14.457142857143 97.7905982905984  C 14.457142857143 97.7905982905984  0.641629210996143 76.3187164404173  0.657142857142844 49  C 0.672594466333749 21.7905273820553  14.457142857143 0.418803418803236  14.457142857143 0.418803418803236  Z " fill-rule="nonzero" fill="#c79b0a" stroke="none" transform="matrix(1 0 0 1 846 619 )" />
    <path d="M 14.457142857143 0.418803418803236  L 23 4.39743589743603  C 23 4.39743589743603  12.4591760021474 24.02830829637  12.4857142857143 49  C 12.5120154807717 73.7485988590619  23 93.1837606837607  23 93.1837606837607  L 14.457142857143 97.7905982905984  C 14.457142857143 97.7905982905984  0.641629210996143 76.3187164404173  0.657142857142844 49  C 0.672594466333749 21.7905273820553  14.457142857143 0.418803418803236  14.457142857143 0.418803418803236  Z " stroke-width="2" stroke="#797979" fill="none" transform="matrix(1 0 0 1 846 619 )" mask="url(#clip603)" />
  </g>
</svg>