<?xml version="1.0" encoding="utf-8"?>
<svg version="1.1" xmlns:xlink="http://www.w3.org/1999/xlink" width="86px" height="54px" xmlns="http://www.w3.org/2000/svg">
  <defs>
    <mask fill="white" id="clip598">
      <path d="M 48.2024691358025 28.3448275862067  C 24.7175307896199 42.4080600584365  0.212345679012401 43.8620689655174  0.212345679012401 43.8620689655174  L 0.212345679012401 53.5862068965514  C 0.212345679012401 53.5862068965514  27.4835134493898 52.6274415965305  53.298765432099 37.2413793103449  C 74.7431368356042 24.4603909890444  85.7876543209877 5.17241379310349  85.7876543209877 5.17241379310349  L 77.2938271604939 0.206896551724071  C 77.2938271604939 0.206896551724071  67.2414907982591 16.943895476608  48.2024691358025 28.3448275862067  Z " fill-rule="evenodd" />
    </mask>
  </defs>
  <g transform="matrix(1 0 0 1 -957 -718 )">
    <path d="M 48.2024691358025 28.3448275862067  C 24.7175307896199 42.4080600584365  0.212345679012401 43.8620689655174  0.212345679012401 43.8620689655174  L 0.212345679012401 53.5862068965514  C 0.212345679012401 53.5862068965514  27.4835134493898 52.6274415965305  53.298765432099 37.2413793103449  C 74.7431368356042 24.4603909890444  85.7876543209877 5.17241379310349  85.7876543209877 5.17241379310349  L 77.2938271604939 0.206896551724071  C 77.2938271604939 0.206896551724071  67.2414907982591 16.943895476608  48.2024691358025 28.3448275862067  Z " fill-rule="nonzero" fill="#c79b0a" stroke="none" transform="matrix(1 0 0 1 957 718 )" />
    <path d="M 48.2024691358025 28.3448275862067  C 24.7175307896199 42.4080600584365  0.212345679012401 43.8620689655174  0.212345679012401 43.8620689655174  L 0.212345679012401 53.5862068965514  C 0.212345679012401 53.5862068965514  27.4835134493898 52.6274415965305  53.298765432099 37.2413793103449  C 74.7431368356042 24.4603909890444  85.7876543209877 5.17241379310349  85.7876543209877 5.17241379310349  L 77.2938271604939 0.206896551724071  C 77.2938271604939 0.206896551724071  67.2414907982591 16.943895476608  48.2024691358025 28.3448275862067  Z " stroke-width="2" stroke="#797979" fill="none" transform="matrix(1 0 0 1 957 718 )" mask="url(#clip598)" />
  </g>
</svg>