<?xml version="1.0" encoding="utf-8"?>
<svg version="1.1" xmlns:xlink="http://www.w3.org/1999/xlink" width="87px" height="54px" xmlns="http://www.w3.org/2000/svg">
  <defs>
    <mask fill="white" id="clip568">
      <path d="M 86.5237226277371 0.465517241379302  L 86.5237226277371 9.46551724137919  C 86.5237226277371 9.46551724137919  62.4146970660022 10.1520939250187  39.6897810218977 23.7413793103449  C 19.7203632838399 35.6829027067168  9.52554744525537 53.8448275862071  9.52554744525537 53.8448275862071  L 0.476277372262643 48.5689655172416  C 0.476277372262643 48.5689655172416  12.2167919750926 27.60980488981  35.2445255474453 14.4310344827586  C 60.1181871070695 0.195839610148369  86.5237226277371 0.465517241379302  86.5237226277371 0.465517241379302  Z " fill-rule="evenodd" />
    </mask>
  </defs>
  <g transform="matrix(1 0 0 1 -863 -564 )">
    <path d="M 86.5237226277371 0.465517241379302  L 86.5237226277371 9.46551724137919  C 86.5237226277371 9.46551724137919  62.4146970660022 10.1520939250187  39.6897810218977 23.7413793103449  C 19.7203632838399 35.6829027067168  9.52554744525537 53.8448275862071  9.52554744525537 53.8448275862071  L 0.476277372262643 48.5689655172416  C 0.476277372262643 48.5689655172416  12.2167919750926 27.60980488981  35.2445255474453 14.4310344827586  C 60.1181871070695 0.195839610148369  86.5237226277371 0.465517241379302  86.5237226277371 0.465517241379302  Z " fill-rule="nonzero" fill="#06dfff" stroke="none" transform="matrix(1 0 0 1 863 564 )" />
    <path d="M 86.5237226277371 0.465517241379302  L 86.5237226277371 9.46551724137919  C 86.5237226277371 9.46551724137919  62.4146970660022 10.1520939250187  39.6897810218977 23.7413793103449  C 19.7203632838399 35.6829027067168  9.52554744525537 53.8448275862071  9.52554744525537 53.8448275862071  L 0.476277372262643 48.5689655172416  C 0.476277372262643 48.5689655172416  12.2167919750926 27.60980488981  35.2445255474453 14.4310344827586  C 60.1181871070695 0.195839610148369  86.5237226277371 0.465517241379302  86.5237226277371 0.465517241379302  Z " stroke-width="2" stroke="#797979" fill="none" transform="matrix(1 0 0 1 863 564 )" mask="url(#clip568)" />
  </g>
</svg>