<?xml version="1.0" encoding="utf-8"?>
<svg version="1.1" xmlns:xlink="http://www.w3.org/1999/xlink" width="12px" height="12px" viewBox="201 433  12 12" xmlns="http://www.w3.org/2000/svg">
  <path d="M 207 433  C 210.36 433  213 435.64  213 439  C 213 442.36  210.36 445  207 445  C 203.64 445  201 442.36  201 439  C 201 435.64  203.64 433  207 433  Z " fill-rule="nonzero" fill="#ffffff" stroke="none" />
  <path d="M 207 433.5  C 210.08 433.5  212.5 435.92  212.5 439  C 212.5 442.08  210.08 444.5  207 444.5  C 203.92 444.5  201.5 442.08  201.5 439  C 201.5 435.92  203.92 433.5  207 433.5  Z " stroke-width="1" stroke="#797979" fill="none" />
  <path d="M 207 442  C 205.32 442  204 440.68  204 439  C 204 437.32  205.32 436  207 436  C 208.68 436  210 437.32  210 439  C 210 440.68  208.68 442  207 442  " fill-rule="nonzero" fill="#797979" stroke="none" />
</svg>