<?xml version="1.0" encoding="utf-8"?>
<svg version="1.1" xmlns:xlink="http://www.w3.org/1999/xlink" width="12px" height="12px" viewBox="201 147  12 12" xmlns="http://www.w3.org/2000/svg">
  <path d="M 207 147  C 210.36 147  213 149.64  213 153  C 213 156.36  210.36 159  207 159  C 203.64 159  201 156.36  201 153  C 201 149.64  203.64 147  207 147  Z " fill-rule="nonzero" fill="#f0f0f0" stroke="none" />
  <path d="M 207 147.5  C 210.08 147.5  212.5 149.92  212.5 153  C 212.5 156.08  210.08 158.5  207 158.5  C 203.92 158.5  201.5 156.08  201.5 153  C 201.5 149.92  203.92 147.5  207 147.5  Z " stroke-width="1" stroke="#797979" fill="none" />
  <path d="M 207 156  C 205.32 156  204 154.68  204 153  C 204 151.32  205.32 150  207 150  C 208.68 150  210 151.32  210 153  C 210 154.68  208.68 156  207 156  " fill-rule="nonzero" fill="#797979" stroke="none" />
</svg>