<?xml version="1.0" encoding="utf-8"?>
<svg version="1.1" xmlns:xlink="http://www.w3.org/1999/xlink" width="12px" height="12px" viewBox="201 406  12 12" xmlns="http://www.w3.org/2000/svg">
  <path d="M 207 406  C 210.36 406  213 408.64  213 412  C 213 415.36  210.36 418  207 418  C 203.64 418  201 415.36  201 412  C 201 408.64  203.64 406  207 406  Z " fill-rule="nonzero" fill="#ffffff" stroke="none" />
  <path d="M 207 406.5  C 210.08 406.5  212.5 408.92  212.5 412  C 212.5 415.08  210.08 417.5  207 417.5  C 203.92 417.5  201.5 415.08  201.5 412  C 201.5 408.92  203.92 406.5  207 406.5  Z " stroke-width="1" stroke="#797979" fill="none" />
  <path d="M 207 415  C 205.32 415  204 413.68  204 412  C 204 410.32  205.32 409  207 409  C 208.68 409  210 410.32  210 412  C 210 413.68  208.68 415  207 415  " fill-rule="nonzero" fill="#797979" stroke="none" />
</svg>