<?xml version="1.0" encoding="utf-8"?>
<svg version="1.1" xmlns:xlink="http://www.w3.org/1999/xlink" width="12px" height="12px" viewBox="201 200  12 12" xmlns="http://www.w3.org/2000/svg">
  <path d="M 207 200  C 210.36 200  213 202.64  213 206  C 213 209.36  210.36 212  207 212  C 203.64 212  201 209.36  201 206  C 201 202.64  203.64 200  207 200  Z " fill-rule="nonzero" fill="#f0f0f0" stroke="none" />
  <path d="M 207 200.5  C 210.08 200.5  212.5 202.92  212.5 206  C 212.5 209.08  210.08 211.5  207 211.5  C 203.92 211.5  201.5 209.08  201.5 206  C 201.5 202.92  203.92 200.5  207 200.5  Z " stroke-width="1" stroke="#797979" fill="none" />
  <path d="M 207 209  C 205.32 209  204 207.68  204 206  C 204 204.32  205.32 203  207 203  C 208.68 203  210 204.32  210 206  C 210 207.68  208.68 209  207 209  " fill-rule="nonzero" fill="#797979" stroke="none" />
</svg>