<?xml version="1.0" encoding="utf-8"?>
<svg version="1.1" xmlns:xlink="http://www.w3.org/1999/xlink" width="12px" height="12px" viewBox="201 354  12 12" xmlns="http://www.w3.org/2000/svg">
  <path d="M 207 354  C 210.36 354  213 356.64  213 360  C 213 363.36  210.36 366  207 366  C 203.64 366  201 363.36  201 360  C 201 356.64  203.64 354  207 354  Z " fill-rule="nonzero" fill="#f0f0f0" stroke="none" />
  <path d="M 207 354.5  C 210.08 354.5  212.5 356.92  212.5 360  C 212.5 363.08  210.08 365.5  207 365.5  C 203.92 365.5  201.5 363.08  201.5 360  C 201.5 356.92  203.92 354.5  207 354.5  Z " stroke-width="1" stroke="#797979" fill="none" />
  <path d="M 207 363  C 205.32 363  204 361.68  204 360  C 204 358.32  205.32 357  207 357  C 208.68 357  210 358.32  210 360  C 210 361.68  208.68 363  207 363  " fill-rule="nonzero" fill="#797979" stroke="none" />
</svg>