<svg t="1609292799909" class="icon" viewBox="0 0 1024 1024" version="1.1" xmlns="http://www.w3.org/2000/svg" p-id="3562" width="200" height="200"><path d="M928.427 354.987l-715.094 332.8L102.4 450.56l679.253-315.733c20.48-10.24 44.374 0 52.907 18.773l93.867 201.387z" fill="#9FD8F4" p-id="3563"></path><path d="M459.093 262.827l-6.826-51.2c-1.707-15.36-13.654-25.6-29.014-25.6H114.347c-15.36 0-29.014 13.653-29.014 29.013v658.773c0 15.36 13.654 29.014 29.014 29.014h795.306c15.36 0 29.014-13.654 29.014-29.014V317.44c0-15.36-13.654-29.013-29.014-29.013H488.107c-15.36 0-27.307-10.24-29.014-25.6z" fill="#05A7F9" p-id="3564"></path></svg>