<svg t="1609294159627" class="icon" viewBox="0 0 1024 1024" version="1.1" xmlns="http://www.w3.org/2000/svg" p-id="6701" width="200" height="200"><path d="M944.245562 451.606515l-372.442524 0L571.803038 79.163991c0-6.753821-5.525853-12.279674-12.279674-12.279674l-96.228645 0c-6.753821 0-12.279674 5.525853-12.279674 12.279674l0 372.442524L78.57252 451.606515c-6.753821 0-12.279674 5.525853-12.279674 12.279674l0 96.228645c0 6.753821 5.525853 12.279674 12.279674 12.279674l372.442524 0 0 372.442524c0 6.753821 5.525853 12.279674 12.279674 12.279674l96.228645 0c6.753821 0 12.279674-5.525853 12.279674-12.279674l0-372.442524 372.442524 0c6.753821 0 12.279674-5.525853 12.279674-12.279674l0-96.228645C956.525236 457.132368 950.999382 451.606515 944.245562 451.606515z" fill="#000000" p-id="6702"></path></svg>