<?xml version="1.0" encoding="utf-8"?>
<svg version="1.1" xmlns:xlink="http://www.w3.org/1999/xlink" width="12px" height="12px" viewBox="201 227  12 12" xmlns="http://www.w3.org/2000/svg">
  <path d="M 207 227  C 210.36 227  213 229.64  213 233  C 213 236.36  210.36 239  207 239  C 203.64 239  201 236.36  201 233  C 201 229.64  203.64 227  207 227  Z " fill-rule="nonzero" fill="#ffffff" stroke="none" />
  <path d="M 207 227.5  C 210.08 227.5  212.5 229.92  212.5 233  C 212.5 236.08  210.08 238.5  207 238.5  C 203.92 238.5  201.5 236.08  201.5 233  C 201.5 229.92  203.92 227.5  207 227.5  Z " stroke-width="1" stroke="#797979" fill="none" />
  <path d="M 207 236  C 205.32 236  204 234.68  204 233  C 204 231.32  205.32 230  207 230  C 208.68 230  210 231.32  210 233  C 210 234.68  208.68 236  207 236  " fill-rule="nonzero" fill="#797979" stroke="none" />
</svg>