<?xml version="1.0" encoding="utf-8"?>
<svg version="1.1" xmlns:xlink="http://www.w3.org/1999/xlink" width="12px" height="12px" viewBox="201 304  12 12" xmlns="http://www.w3.org/2000/svg">
  <path d="M 207 304  C 210.36 304  213 306.64  213 310  C 213 313.36  210.36 316  207 316  C 203.64 316  201 313.36  201 310  C 201 306.64  203.64 304  207 304  Z " fill-rule="nonzero" fill="#f0f0f0" stroke="none" />
  <path d="M 207 304.5  C 210.08 304.5  212.5 306.92  212.5 310  C 212.5 313.08  210.08 315.5  207 315.5  C 203.92 315.5  201.5 313.08  201.5 310  C 201.5 306.92  203.92 304.5  207 304.5  Z " stroke-width="1" stroke="#797979" fill="none" />
  <path d="M 207 313  C 205.32 313  204 311.68  204 310  C 204 308.32  205.32 307  207 307  C 208.68 307  210 308.32  210 310  C 210 311.68  208.68 313  207 313  " fill-rule="nonzero" fill="#797979" stroke="none" />
</svg>