<?xml version="1.0" encoding="utf-8"?>
<svg version="1.1" xmlns:xlink="http://www.w3.org/1999/xlink" width="12px" height="12px" viewBox="201 174  12 12" xmlns="http://www.w3.org/2000/svg">
  <path d="M 207 174  C 210.36 174  213 176.64  213 180  C 213 183.36  210.36 186  207 186  C 203.64 186  201 183.36  201 180  C 201 176.64  203.64 174  207 174  Z " fill-rule="nonzero" fill="#f0f0f0" stroke="none" />
  <path d="M 207 174.5  C 210.08 174.5  212.5 176.92  212.5 180  C 212.5 183.08  210.08 185.5  207 185.5  C 203.92 185.5  201.5 183.08  201.5 180  C 201.5 176.92  203.92 174.5  207 174.5  Z " stroke-width="1" stroke="#797979" fill="none" />
  <path d="M 207 183  C 205.32 183  204 181.68  204 180  C 204 178.32  205.32 177  207 177  C 208.68 177  210 178.32  210 180  C 210 181.68  208.68 183  207 183  " fill-rule="nonzero" fill="#797979" stroke="none" />
</svg>