<?xml version="1.0" encoding="utf-8"?>
<svg version="1.1" xmlns:xlink="http://www.w3.org/1999/xlink" width="12px" height="12px" viewBox="201 280  12 12" xmlns="http://www.w3.org/2000/svg">
  <path d="M 207 280  C 210.36 280  213 282.64  213 286  C 213 289.36  210.36 292  207 292  C 203.64 292  201 289.36  201 286  C 201 282.64  203.64 280  207 280  Z " fill-rule="nonzero" fill="#ffffff" stroke="none" />
  <path d="M 207 280.5  C 210.08 280.5  212.5 282.92  212.5 286  C 212.5 289.08  210.08 291.5  207 291.5  C 203.92 291.5  201.5 289.08  201.5 286  C 201.5 282.92  203.92 280.5  207 280.5  Z " stroke-width="1" stroke="#797979" fill="none" />
  <path d="M 207 289  C 205.32 289  204 287.68  204 286  C 204 284.32  205.32 283  207 283  C 208.68 283  210 284.32  210 286  C 210 287.68  208.68 289  207 289  " fill-rule="nonzero" fill="#797979" stroke="none" />
</svg>