<svg t="1609292695567" class="icon" viewBox="0 0 1024 1024" version="1.1" xmlns="http://www.w3.org/2000/svg" p-id="2594" width="200" height="200"><path d="M466.57 840.43c-51.1 0-100.68-10.01-147.38-29.77-45.09-19.07-85.57-46.37-120.34-81.13-34.76-34.76-62.06-75.25-81.13-120.34-19.75-46.7-29.77-96.28-29.77-147.38s10.01-100.68 29.77-147.38c19.07-45.09 46.37-85.57 81.13-120.34 34.76-34.76 75.25-62.06 120.34-81.13 46.7-19.75 96.28-29.77 147.38-29.77s100.68 10.01 147.38 29.77c45.09 19.07 85.58 46.37 120.34 81.13 34.76 34.76 62.06 75.25 81.13 120.34 19.75 46.7 29.77 96.28 29.77 147.38s-10.01 100.68-29.77 147.38c-19.07 45.09-46.37 85.58-81.13 120.34-34.76 34.76-75.25 62.06-120.34 81.13-46.7 19.76-96.28 29.77-147.38 29.77z m0-696.85c-175.48 0-318.24 142.76-318.24 318.24s142.76 318.24 318.24 318.24S784.81 637.3 784.81 461.82 642.05 143.58 466.57 143.58z" fill="#0084FF" p-id="2595"></path><path d="M860.2 904.89L696.62 741.31c-12.48-12.48-12.48-32.72 0-45.2 12.48-12.48 32.72-12.48 45.2 0L905.4 859.69c12.48 12.48 12.48 32.72 0 45.2-12.48 12.48-32.72 12.48-45.2 0z" fill="#0084FF" p-id="2596"></path></svg>