<?xml version="1.0" encoding="utf-8"?>
<svg version="1.1" xmlns:xlink="http://www.w3.org/1999/xlink" width="12px" height="12px" viewBox="259 1212  12 12" xmlns="http://www.w3.org/2000/svg">
  <path d="M 265 1212  C 268.36 1212  271 1214.64  271 1218  C 271 1221.36  268.36 1224  265 1224  C 261.64 1224  259 1221.36  259 1218  C 259 1214.64  261.64 1212  265 1212  Z " fill-rule="nonzero" fill="#ffffff" stroke="none" />
  <path d="M 265 1212.5  C 268.08 1212.5  270.5 1214.92  270.5 1218  C 270.5 1221.08  268.08 1223.5  265 1223.5  C 261.92 1223.5  259.5 1221.08  259.5 1218  C 259.5 1214.92  261.92 1212.5  265 1212.5  Z " stroke-width="1" stroke="#797979" fill="none" />
  <path d="M 265 1221  C 263.32 1221  262 1219.68  262 1218  C 262 1216.32  263.32 1215  265 1215  C 266.68 1215  268 1216.32  268 1218  C 268 1219.68  266.68 1221  265 1221  " fill-rule="nonzero" fill="#797979" stroke="none" />
</svg>