<?xml version="1.0" encoding="utf-8"?>
<svg version="1.1" xmlns:xlink="http://www.w3.org/1999/xlink" width="12px" height="12px" viewBox="179 604  12 12" xmlns="http://www.w3.org/2000/svg">
  <path d="M 185 604  C 188.36 604  191 606.64  191 610  C 191 613.36  188.36 616  185 616  C 181.64 616  179 613.36  179 610  C 179 606.64  181.64 604  185 604  Z " fill-rule="nonzero" fill="#ffffff" stroke="none" />
  <path d="M 185 604.5  C 188.08 604.5  190.5 606.92  190.5 610  C 190.5 613.08  188.08 615.5  185 615.5  C 181.92 615.5  179.5 613.08  179.5 610  C 179.5 606.92  181.92 604.5  185 604.5  Z " stroke-width="1" stroke="#797979" fill="none" />
  <path d="M 185 613  C 183.32 613  182 611.68  182 610  C 182 608.32  183.32 607  185 607  C 186.68 607  188 608.32  188 610  C 188 611.68  186.68 613  185 613  " fill-rule="nonzero" fill="#797979" stroke="none" />
</svg>