<?xml version="1.0" encoding="utf-8"?>
<svg version="1.1" xmlns:xlink="http://www.w3.org/1999/xlink" width="12px" height="12px" viewBox="368 604  12 12" xmlns="http://www.w3.org/2000/svg">
  <path d="M 374 604  C 377.36 604  380 606.64  380 610  C 380 613.36  377.36 616  374 616  C 370.64 616  368 613.36  368 610  C 368 606.64  370.64 604  374 604  Z " fill-rule="nonzero" fill="#ffffff" stroke="none" />
  <path d="M 374 604.5  C 377.08 604.5  379.5 606.92  379.5 610  C 379.5 613.08  377.08 615.5  374 615.5  C 370.92 615.5  368.5 613.08  368.5 610  C 368.5 606.92  370.92 604.5  374 604.5  Z " stroke-width="1" stroke="#797979" fill="none" />
  <path d="M 374 613  C 372.32 613  371 611.68  371 610  C 371 608.32  372.32 607  374 607  C 375.68 607  377 608.32  377 610  C 377 611.68  375.68 613  374 613  " fill-rule="nonzero" fill="#797979" stroke="none" />
</svg>