<?xml version="1.0" encoding="utf-8"?>
<svg version="1.1" xmlns:xlink="http://www.w3.org/1999/xlink" width="14px" height="10px" xmlns="http://www.w3.org/2000/svg">
  <g transform="matrix(1 0 0 1 -489 -479 )">
    <path d="M 13.7470967741936 1.38047138047136  C 13.9156989247312 1.5375982042649  14 1.72839506172841  14 1.95286195286195  C 14 2.1773288439955  13.9156989247312 2.36812570145901  13.7470967741936 2.52525252525254  L 7.20774193548385 8.61952861952864  L 5.9793548387097 9.76430976430976  C 5.81075268817204 9.92143658810323  5.60602150537636 10  5.36516129032259 10  C 5.12430107526882 10  4.91956989247313 9.92143658810323  4.75096774193548 9.76430976430976  L 3.52258064516127 8.61952861952864  L 0.252903225806449 5.57239057239059  C 0.0843010752687974 5.41526374859706  0 5.22446689113355  0 5  C 0 4.77553310886645  0.0843010752687974 4.58473625140294  0.252903225806449 4.42760942760941  L 1.48129032258066 3.28282828282829  C 1.64989247311826 3.12570145903481  1.854623655914 3.04713804713805  2.09548387096777 3.04713804713805  C 2.33634408602148 3.04713804713805  2.54107526881722 3.12570145903481  2.70967741935482 3.28282828282829  L 5.36516129032259 5.76599326599325  L 11.2903225806452 0.235690235690242  C 11.4589247311828 0.0785634118967664  11.6636559139785 0  11.9045161290322 0  C 12.145376344086 0  12.3501075268817 0.0785634118967664  12.5187096774193 0.235690235690242  L 13.7470967741936 1.38047138047136  Z " fill-rule="nonzero" fill="#2ecc71" stroke="none" transform="matrix(1 0 0 1 489 479 )" />
  </g>
</svg>