<?xml version="1.0" encoding="utf-8"?>
<svg version="1.1" xmlns:xlink="http://www.w3.org/1999/xlink" width="10px" height="10px" xmlns="http://www.w3.org/2000/svg">
  <g transform="matrix(1 0 0 1 -513 -479 )">
    <path d="M 9.7643097643097 7.47474747474752  C 9.92143658810323 7.63187429854094  10 7.8226711560045  10 8.04713804713805  C 10 8.27160493827159  9.92143658810323 8.4624017957351  9.7643097643097 8.61952861952864  L 8.61952861952864 9.76430976430976  C 8.4624017957351 9.92143658810323  8.27160493827159 10  8.04713804713799 10  C 7.8226711560045 10  7.63187429854099 9.92143658810323  7.47474747474746 9.76430976430976  L 5 7.28956228956224  L 2.52525252525254 9.76430976430976  C 2.36812570145901 9.92143658810323  2.1773288439955 10  1.95286195286201 10  C 1.72839506172841 10  1.5375982042649 9.92143658810323  1.38047138047136 9.76430976430976  L 0.235690235690299 8.61952861952864  C 0.0785634118967664 8.4624017957351  0 8.27160493827159  0 8.04713804713805  C 0 7.8226711560045  0.0785634118967664 7.63187429854094  0.235690235690299 7.47474747474752  L 2.71043771043776 5  L 0.235690235690299 2.52525252525248  C 0.0785634118967664 2.36812570145906  0 2.1773288439955  0 1.95286195286195  C 0 1.72839506172841  0.0785634118967664 1.5375982042649  0.235690235690299 1.38047138047136  L 1.38047138047136 0.235690235690242  C 1.5375982042649 0.0785634118967664  1.72839506172841 0  1.95286195286201 0  C 2.1773288439955 0  2.36812570145901 0.0785634118967664  2.52525252525254 0.235690235690242  L 5 2.71043771043776  L 7.47474747474746 0.235690235690242  C 7.63187429854099 0.0785634118967664  7.8226711560045 0  8.04713804713799 0  C 8.27160493827159 0  8.4624017957351 0.0785634118967664  8.61952861952864 0.235690235690242  L 9.7643097643097 1.38047138047136  C 9.92143658810323 1.5375982042649  10 1.72839506172841  10 1.95286195286195  C 10 2.1773288439955  9.92143658810323 2.36812570145906  9.7643097643097 2.52525252525248  L 7.28956228956224 5  L 9.7643097643097 7.47474747474752  Z " fill-rule="nonzero" fill="#e74c3c" stroke="none" transform="matrix(1 0 0 1 513 479 )" />
  </g>
</svg>