<?xml version="1.0" encoding="utf-8"?>
<svg version="1.1" xmlns:xlink="http://www.w3.org/1999/xlink" width="12px" height="12px" viewBox="133 148  12 12" xmlns="http://www.w3.org/2000/svg">
  <path d="M 139 148  C 142.36 148  145 150.64  145 154  C 145 157.36  142.36 160  139 160  C 135.64 160  133 157.36  133 154  C 133 150.64  135.64 148  139 148  Z " fill-rule="nonzero" fill="#f0f0f0" stroke="none" />
  <path d="M 139 148.5  C 142.08 148.5  144.5 150.92  144.5 154  C 144.5 157.08  142.08 159.5  139 159.5  C 135.92 159.5  133.5 157.08  133.5 154  C 133.5 150.92  135.92 148.5  139 148.5  Z " stroke-width="1" stroke="#797979" fill="none" />
  <path d="M 139 157  C 137.32 157  136 155.68  136 154  C 136 152.32  137.32 151  139 151  C 140.68 151  142 152.32  142 154  C 142 155.68  140.68 157  139 157  " fill-rule="nonzero" fill="#797979" stroke="none" />
</svg>