<?xml version="1.0" encoding="utf-8"?>
<svg version="1.1" xmlns:xlink="http://www.w3.org/1999/xlink" width="12px" height="12px" viewBox="143 259  12 12" xmlns="http://www.w3.org/2000/svg">
  <path d="M 149 259  C 152.36 259  155 261.64  155 265  C 155 268.36  152.36 271  149 271  C 145.64 271  143 268.36  143 265  C 143 261.64  145.64 259  149 259  Z " fill-rule="nonzero" fill="#ffffff" stroke="none" />
  <path d="M 149 259.5  C 152.08 259.5  154.5 261.92  154.5 265  C 154.5 268.08  152.08 270.5  149 270.5  C 145.92 270.5  143.5 268.08  143.5 265  C 143.5 261.92  145.92 259.5  149 259.5  Z " stroke-width="1" stroke="#797979" fill="none" />
  <path d="M 149 268  C 147.32 268  146 266.68  146 265  C 146 263.32  147.32 262  149 262  C 150.68 262  152 263.32  152 265  C 152 266.68  150.68 268  149 268  " fill-rule="nonzero" fill="#797979" stroke="none" />
</svg>