<?xml version="1.0" encoding="utf-8"?>
<svg version="1.1" xmlns:xlink="http://www.w3.org/1999/xlink" width="12px" height="12px" viewBox="253 259  12 12" xmlns="http://www.w3.org/2000/svg">
  <path d="M 259 259  C 262.36 259  265 261.64  265 265  C 265 268.36  262.36 271  259 271  C 255.64 271  253 268.36  253 265  C 253 261.64  255.64 259  259 259  Z " fill-rule="nonzero" fill="#ffffff" stroke="none" />
  <path d="M 259 259.5  C 262.08 259.5  264.5 261.92  264.5 265  C 264.5 268.08  262.08 270.5  259 270.5  C 255.92 270.5  253.5 268.08  253.5 265  C 253.5 261.92  255.92 259.5  259 259.5  Z " stroke-width="1" stroke="#797979" fill="none" />
  <path d="M 259 268  C 257.32 268  256 266.68  256 265  C 256 263.32  257.32 262  259 262  C 260.68 262  262 263.32  262 265  C 262 266.68  260.68 268  259 268  " fill-rule="nonzero" fill="#797979" stroke="none" />
</svg>