<?xml version="1.0" encoding="utf-8"?>
<svg version="1.1" xmlns:xlink="http://www.w3.org/1999/xlink" width="12px" height="12px" viewBox="45 299  12 12" xmlns="http://www.w3.org/2000/svg">
  <path d="M 51 299  C 54.36 299  57 301.64  57 305  C 57 308.36  54.36 311  51 311  C 47.64 311  45 308.36  45 305  C 45 301.64  47.64 299  51 299  Z " fill-rule="nonzero" fill="#f0f0f0" stroke="none" />
  <path d="M 51 299.5  C 54.08 299.5  56.5 301.92  56.5 305  C 56.5 308.08  54.08 310.5  51 310.5  C 47.92 310.5  45.5 308.08  45.5 305  C 45.5 301.92  47.92 299.5  51 299.5  Z " stroke-width="1" stroke="#797979" fill="none" />
  <path d="M 51 308  C 49.32 308  48 306.68  48 305  C 48 303.32  49.32 302  51 302  C 52.68 302  54 303.32  54 305  C 54 306.68  52.68 308  51 308  " fill-rule="nonzero" fill="#797979" stroke="none" />
</svg>