<?xml version="1.0" encoding="utf-8"?>
<svg version="1.1" xmlns:xlink="http://www.w3.org/1999/xlink" width="12px" height="12px" viewBox="45 271  12 12" xmlns="http://www.w3.org/2000/svg">
  <path d="M 51 271  C 54.36 271  57 273.64  57 277  C 57 280.36  54.36 283  51 283  C 47.64 283  45 280.36  45 277  C 45 273.64  47.64 271  51 271  Z " fill-rule="nonzero" fill="#ffffff" stroke="none" />
  <path d="M 51 271.5  C 54.08 271.5  56.5 273.92  56.5 277  C 56.5 280.08  54.08 282.5  51 282.5  C 47.92 282.5  45.5 280.08  45.5 277  C 45.5 273.92  47.92 271.5  51 271.5  Z " stroke-width="1" stroke="#797979" fill="none" />
  <path d="M 51 280  C 49.32 280  48 278.68  48 277  C 48 275.32  49.32 274  51 274  C 52.68 274  54 275.32  54 277  C 54 278.68  52.68 280  51 280  " fill-rule="nonzero" fill="#797979" stroke="none" />
</svg>