<?xml version="1.0" encoding="utf-8"?>
<svg version="1.1" xmlns:xlink="http://www.w3.org/1999/xlink" width="12px" height="12px" viewBox="364 445  12 12" xmlns="http://www.w3.org/2000/svg">
  <path d="M 370 445  C 373.36 445  376 447.64  376 451  C 376 454.36  373.36 457  370 457  C 366.64 457  364 454.36  364 451  C 364 447.64  366.64 445  370 445  Z " fill-rule="nonzero" fill="#f0f0f0" stroke="none" />
  <path d="M 370 445.5  C 373.08 445.5  375.5 447.92  375.5 451  C 375.5 454.08  373.08 456.5  370 456.5  C 366.92 456.5  364.5 454.08  364.5 451  C 364.5 447.92  366.92 445.5  370 445.5  Z " stroke-width="1" stroke="#797979" fill="none" />
  <path d="M 370 454  C 368.32 454  367 452.68  367 451  C 367 449.32  368.32 448  370 448  C 371.68 448  373 449.32  373 451  C 373 452.68  371.68 454  370 454  " fill-rule="nonzero" fill="#797979" stroke="none" />
</svg>