<?xml version="1.0" encoding="utf-8"?>
<svg version="1.1" xmlns:xlink="http://www.w3.org/1999/xlink" width="12px" height="12px" viewBox="469 445  12 12" xmlns="http://www.w3.org/2000/svg">
  <path d="M 475 445  C 478.36 445  481 447.64  481 451  C 481 454.36  478.36 457  475 457  C 471.64 457  469 454.36  469 451  C 469 447.64  471.64 445  475 445  Z " fill-rule="nonzero" fill="#ffffff" stroke="none" />
  <path d="M 475 445.5  C 478.08 445.5  480.5 447.92  480.5 451  C 480.5 454.08  478.08 456.5  475 456.5  C 471.92 456.5  469.5 454.08  469.5 451  C 469.5 447.92  471.92 445.5  475 445.5  Z " stroke-width="1" stroke="#797979" fill="none" />
  <path d="M 475 454  C 473.32 454  472 452.68  472 451  C 472 449.32  473.32 448  475 448  C 476.68 448  478 449.32  478 451  C 478 452.68  476.68 454  475 454  " fill-rule="nonzero" fill="#797979" stroke="none" />
</svg>