<?xml version="1.0" encoding="utf-8"?>
<svg version="1.1" xmlns:xlink="http://www.w3.org/1999/xlink" width="722px" height="88px" xmlns="http://www.w3.org/2000/svg">
  <g transform="matrix(1 0 0 1 -196 -453 )">
    <path d="M 196 453  L 918 453  L 918 541  L 196 541  L 196 453  " fill-rule="nonzero" fill="#cccccc" stroke="none" />
    <path d="M 202 459  L 912 459  L 912 535  L 202 535  L 202 459  " fill-rule="nonzero" fill="#ffffff" stroke="none" />
    <path d="M 578.04 479.4  C 574.344 479.4  571.44 476.496  571.44 472.8  C 571.44 469.104  574.344 466.2  578.04 466.2  C 581.736 466.2  584.64 469.104  584.64 472.8  C 584.64 476.496  581.736 479.4  578.04 479.4  " fill-rule="nonzero" fill="#cccccc" stroke="none" />
    <path d="M 204 533  L 204 493.4  L 380.5 475.4  L 627.6 527.734626038781  L 768.8 486.2  L 910 527.734626038781  L 910 533  L 204 533  " fill-rule="nonzero" fill="#169bd5" stroke="none" />
  </g>
</svg>