<?xml version="1.0" encoding="utf-8"?>
<svg version="1.1" xmlns:xlink="http://www.w3.org/1999/xlink" width="12px" height="12px" viewBox="469 226  12 12" xmlns="http://www.w3.org/2000/svg">
  <path d="M 475 226  C 478.36 226  481 228.64  481 232  C 481 235.36  478.36 238  475 238  C 471.64 238  469 235.36  469 232  C 469 228.64  471.64 226  475 226  Z " fill-rule="nonzero" fill="#f0f0f0" stroke="none" />
  <path d="M 475 226.5  C 478.08 226.5  480.5 228.92  480.5 232  C 480.5 235.08  478.08 237.5  475 237.5  C 471.92 237.5  469.5 235.08  469.5 232  C 469.5 228.92  471.92 226.5  475 226.5  Z " stroke-width="1" stroke="#797979" fill="none" />
  <path d="M 475 235  C 473.32 235  472 233.68  472 232  C 472 230.32  473.32 229  475 229  C 476.68 229  478 230.32  478 232  C 478 233.68  476.68 235  475 235  " fill-rule="nonzero" fill="#797979" stroke="none" />
</svg>