<?xml version="1.0" encoding="utf-8"?>
<svg version="1.1" xmlns:xlink="http://www.w3.org/1999/xlink" width="12px" height="12px" viewBox="1096 161  12 12" xmlns="http://www.w3.org/2000/svg">
  <path d="M 1102 161  C 1105.36 161  1108 163.64  1108 167  C 1108 170.36  1105.36 173  1102 173  C 1098.64 173  1096 170.36  1096 167  C 1096 163.64  1098.64 161  1102 161  Z " fill-rule="nonzero" fill="#f0f0f0" stroke="none" />
  <path d="M 1102 161.5  C 1105.08 161.5  1107.5 163.92  1107.5 167  C 1107.5 170.08  1105.08 172.5  1102 172.5  C 1098.92 172.5  1096.5 170.08  1096.5 167  C 1096.5 163.92  1098.92 161.5  1102 161.5  Z " stroke-width="1" stroke="#797979" fill="none" />
  <path d="M 1102 170  C 1100.32 170  1099 168.68  1099 167  C 1099 165.32  1100.32 164  1102 164  C 1103.68 164  1105 165.32  1105 167  C 1105 168.68  1103.68 170  1102 170  " fill-rule="nonzero" fill="#797979" stroke="none" />
</svg>