<?xml version="1.0" encoding="utf-8"?>
<svg version="1.1" xmlns:xlink="http://www.w3.org/1999/xlink" width="12px" height="12px" viewBox="1012 161  12 12" xmlns="http://www.w3.org/2000/svg">
  <path d="M 1018 161  C 1021.36 161  1024 163.64  1024 167  C 1024 170.36  1021.36 173  1018 173  C 1014.64 173  1012 170.36  1012 167  C 1012 163.64  1014.64 161  1018 161  Z " fill-rule="nonzero" fill="#f0f0f0" stroke="none" />
  <path d="M 1018 161.5  C 1021.08 161.5  1023.5 163.92  1023.5 167  C 1023.5 170.08  1021.08 172.5  1018 172.5  C 1014.92 172.5  1012.5 170.08  1012.5 167  C 1012.5 163.92  1014.92 161.5  1018 161.5  Z " stroke-width="1" stroke="#797979" fill="none" />
  <path d="M 1018 170  C 1016.32 170  1015 168.68  1015 167  C 1015 165.32  1016.32 164  1018 164  C 1019.68 164  1021 165.32  1021 167  C 1021 168.68  1019.68 170  1018 170  " fill-rule="nonzero" fill="#797979" stroke="none" />
</svg>