<?xml version="1.0" encoding="utf-8"?>
<svg version="1.1" xmlns:xlink="http://www.w3.org/1999/xlink" width="12px" height="12px" viewBox="968 129  12 12" xmlns="http://www.w3.org/2000/svg">
  <path d="M 974 129  C 977.36 129  980 131.64  980 135  C 980 138.36  977.36 141  974 141  C 970.64 141  968 138.36  968 135  C 968 131.64  970.64 129  974 129  Z " fill-rule="nonzero" fill="#f0f0f0" stroke="none" />
  <path d="M 974 129.5  C 977.08 129.5  979.5 131.92  979.5 135  C 979.5 138.08  977.08 140.5  974 140.5  C 970.92 140.5  968.5 138.08  968.5 135  C 968.5 131.92  970.92 129.5  974 129.5  Z " stroke-width="1" stroke="#797979" fill="none" />
  <path d="M 974 138  C 972.32 138  971 136.68  971 135  C 971 133.32  972.32 132  974 132  C 975.68 132  977 133.32  977 135  C 977 136.68  975.68 138  974 138  " fill-rule="nonzero" fill="#797979" stroke="none" />
</svg>