<?xml version="1.0" encoding="utf-8"?>
<svg version="1.1" xmlns:xlink="http://www.w3.org/1999/xlink" width="12px" height="12px" viewBox="365 355  12 12" xmlns="http://www.w3.org/2000/svg">
  <path d="M 371 355  C 374.36 355  377 357.64  377 361  C 377 364.36  374.36 367  371 367  C 367.64 367  365 364.36  365 361  C 365 357.64  367.64 355  371 355  Z " fill-rule="nonzero" fill="#f0f0f0" stroke="none" />
  <path d="M 371 355.5  C 374.08 355.5  376.5 357.92  376.5 361  C 376.5 364.08  374.08 366.5  371 366.5  C 367.92 366.5  365.5 364.08  365.5 361  C 365.5 357.92  367.92 355.5  371 355.5  Z " stroke-width="1" stroke="#797979" fill="none" />
  <path d="M 371 364  C 369.32 364  368 362.68  368 361  C 368 359.32  369.32 358  371 358  C 372.68 358  374 359.32  374 361  C 374 362.68  372.68 364  371 364  " fill-rule="nonzero" fill="#797979" stroke="none" />
</svg>