<?xml version="1.0" encoding="utf-8"?>
<svg version="1.1" xmlns:xlink="http://www.w3.org/1999/xlink" width="12px" height="12px" viewBox="934 161  12 12" xmlns="http://www.w3.org/2000/svg">
  <path d="M 940 161  C 943.36 161  946 163.64  946 167  C 946 170.36  943.36 173  940 173  C 936.64 173  934 170.36  934 167  C 934 163.64  936.64 161  940 161  Z " fill-rule="nonzero" fill="#ffffff" stroke="none" />
  <path d="M 940 161.5  C 943.08 161.5  945.5 163.92  945.5 167  C 945.5 170.08  943.08 172.5  940 172.5  C 936.92 172.5  934.5 170.08  934.5 167  C 934.5 163.92  936.92 161.5  940 161.5  Z " stroke-width="1" stroke="#797979" fill="none" />
  <path d="M 940 170  C 938.32 170  937 168.68  937 167  C 937 165.32  938.32 164  940 164  C 941.68 164  943 165.32  943 167  C 943 168.68  941.68 170  940 170  " fill-rule="nonzero" fill="#797979" stroke="none" />
</svg>