<?xml version="1.0" encoding="utf-8"?>
<svg version="1.1" xmlns:xlink="http://www.w3.org/1999/xlink" width="12px" height="12px" viewBox="863 129  12 12" xmlns="http://www.w3.org/2000/svg">
  <path d="M 869 129  C 872.36 129  875 131.64  875 135  C 875 138.36  872.36 141  869 141  C 865.64 141  863 138.36  863 135  C 863 131.64  865.64 129  869 129  Z " fill-rule="nonzero" fill="#ffffff" stroke="none" />
  <path d="M 869 129.5  C 872.08 129.5  874.5 131.92  874.5 135  C 874.5 138.08  872.08 140.5  869 140.5  C 865.92 140.5  863.5 138.08  863.5 135  C 863.5 131.92  865.92 129.5  869 129.5  Z " stroke-width="1" stroke="#797979" fill="none" />
  <path d="M 869 138  C 867.32 138  866 136.68  866 135  C 866 133.32  867.32 132  869 132  C 870.68 132  872 133.32  872 135  C 872 136.68  870.68 138  869 138  " fill-rule="nonzero" fill="#797979" stroke="none" />
</svg>