<?xml version="1.0" encoding="utf-8"?>
<svg version="1.1" xmlns:xlink="http://www.w3.org/1999/xlink" width="12px" height="12px" viewBox="218 227  12 12" xmlns="http://www.w3.org/2000/svg">
  <path d="M 224 227  C 227.36 227  230 229.64  230 233  C 230 236.36  227.36 239  224 239  C 220.64 239  218 236.36  218 233  C 218 229.64  220.64 227  224 227  Z " fill-rule="nonzero" fill="#f0f0f0" stroke="none" />
  <path d="M 224 227.5  C 227.08 227.5  229.5 229.92  229.5 233  C 229.5 236.08  227.08 238.5  224 238.5  C 220.92 238.5  218.5 236.08  218.5 233  C 218.5 229.92  220.92 227.5  224 227.5  Z " stroke-width="1" stroke="#797979" fill="none" />
  <path d="M 224 236  C 222.32 236  221 234.68  221 233  C 221 231.32  222.32 230  224 230  C 225.68 230  227 231.32  227 233  C 227 234.68  225.68 236  224 236  " fill-rule="nonzero" fill="#797979" stroke="none" />
</svg>