<?xml version="1.0" encoding="utf-8"?>
<svg version="1.1" xmlns:xlink="http://www.w3.org/1999/xlink" width="12px" height="12px" viewBox="318 233  12 12" xmlns="http://www.w3.org/2000/svg">
  <path d="M 324 233  C 327.36 233  330 235.64  330 239  C 330 242.36  327.36 245  324 245  C 320.64 245  318 242.36  318 239  C 318 235.64  320.64 233  324 233  Z " fill-rule="nonzero" fill="#ffffff" stroke="none" />
  <path d="M 324 233.5  C 327.08 233.5  329.5 235.92  329.5 239  C 329.5 242.08  327.08 244.5  324 244.5  C 320.92 244.5  318.5 242.08  318.5 239  C 318.5 235.92  320.92 233.5  324 233.5  Z " stroke-width="1" stroke="#797979" fill="none" />
  <path d="M 324 242  C 322.32 242  321 240.68  321 239  C 321 237.32  322.32 236  324 236  C 325.68 236  327 237.32  327 239  C 327 240.68  325.68 242  324 242  " fill-rule="nonzero" fill="#797979" stroke="none" />
</svg>