<?xml version="1.0" encoding="utf-8"?>
<svg version="1.1" xmlns:xlink="http://www.w3.org/1999/xlink" width="12px" height="12px" viewBox="218 233  12 12" xmlns="http://www.w3.org/2000/svg">
  <path d="M 224 233  C 227.36 233  230 235.64  230 239  C 230 242.36  227.36 245  224 245  C 220.64 245  218 242.36  218 239  C 218 235.64  220.64 233  224 233  Z " fill-rule="nonzero" fill="#f0f0f0" stroke="none" />
  <path d="M 224 233.5  C 227.08 233.5  229.5 235.92  229.5 239  C 229.5 242.08  227.08 244.5  224 244.5  C 220.92 244.5  218.5 242.08  218.5 239  C 218.5 235.92  220.92 233.5  224 233.5  Z " stroke-width="1" stroke="#797979" fill="none" />
  <path d="M 224 242  C 222.32 242  221 240.68  221 239  C 221 237.32  222.32 236  224 236  C 225.68 236  227 237.32  227 239  C 227 240.68  225.68 242  224 242  " fill-rule="nonzero" fill="#797979" stroke="none" />
</svg>