<?xml version="1.0" encoding="utf-8"?>
<svg version="1.1" xmlns:xlink="http://www.w3.org/1999/xlink" width="12px" height="12px" viewBox="166 1303  12 12" xmlns="http://www.w3.org/2000/svg">
  <path d="M 172 1303  C 175.36 1303  178 1305.64  178 1309  C 178 1312.36  175.36 1315  172 1315  C 168.64 1315  166 1312.36  166 1309  C 166 1305.64  168.64 1303  172 1303  Z " fill-rule="nonzero" fill="#f0f0f0" stroke="none" />
  <path d="M 172 1303.5  C 175.08 1303.5  177.5 1305.92  177.5 1309  C 177.5 1312.08  175.08 1314.5  172 1314.5  C 168.92 1314.5  166.5 1312.08  166.5 1309  C 166.5 1305.92  168.92 1303.5  172 1303.5  Z " stroke-width="1" stroke="#797979" fill="none" />
  <path d="M 172 1312  C 170.32 1312  169 1310.68  169 1309  C 169 1307.32  170.32 1306  172 1306  C 173.68 1306  175 1307.32  175 1309  C 175 1310.68  173.68 1312  172 1312  " fill-rule="nonzero" fill="#797979" stroke="none" />
</svg>