<?xml version="1.0" encoding="utf-8"?>
<svg version="1.1" xmlns:xlink="http://www.w3.org/1999/xlink" width="12px" height="12px" viewBox="245 1303  12 12" xmlns="http://www.w3.org/2000/svg">
  <path d="M 251 1303  C 254.36 1303  257 1305.64  257 1309  C 257 1312.36  254.36 1315  251 1315  C 247.64 1315  245 1312.36  245 1309  C 245 1305.64  247.64 1303  251 1303  Z " fill-rule="nonzero" fill="#ffffff" stroke="none" />
  <path d="M 251 1303.5  C 254.08 1303.5  256.5 1305.92  256.5 1309  C 256.5 1312.08  254.08 1314.5  251 1314.5  C 247.92 1314.5  245.5 1312.08  245.5 1309  C 245.5 1305.92  247.92 1303.5  251 1303.5  Z " stroke-width="1" stroke="#797979" fill="none" />
  <path d="M 251 1312  C 249.32 1312  248 1310.68  248 1309  C 248 1307.32  249.32 1306  251 1306  C 252.68 1306  254 1307.32  254 1309  C 254 1310.68  252.68 1312  251 1312  " fill-rule="nonzero" fill="#797979" stroke="none" />
</svg>