<?xml version="1.0" encoding="utf-8"?>
<svg version="1.1" xmlns:xlink="http://www.w3.org/1999/xlink" width="12px" height="12px" viewBox="469 379  12 12" xmlns="http://www.w3.org/2000/svg">
  <path d="M 475 379  C 478.36 379  481 381.64  481 385  C 481 388.36  478.36 391  475 391  C 471.64 391  469 388.36  469 385  C 469 381.64  471.64 379  475 379  Z " fill-rule="nonzero" fill="#f0f0f0" stroke="none" />
  <path d="M 475 379.5  C 478.08 379.5  480.5 381.92  480.5 385  C 480.5 388.08  478.08 390.5  475 390.5  C 471.92 390.5  469.5 388.08  469.5 385  C 469.5 381.92  471.92 379.5  475 379.5  Z " stroke-width="1" stroke="#797979" fill="none" />
  <path d="M 475 388  C 473.32 388  472 386.68  472 385  C 472 383.32  473.32 382  475 382  C 476.68 382  478 383.32  478 385  C 478 386.68  476.68 388  475 388  " fill-rule="nonzero" fill="#797979" stroke="none" />
</svg>