<?xml version="1.0" encoding="utf-8"?>
<svg version="1.1" xmlns:xlink="http://www.w3.org/1999/xlink" width="12px" height="12px" viewBox="364 379  12 12" xmlns="http://www.w3.org/2000/svg">
  <path d="M 370 379  C 373.36 379  376 381.64  376 385  C 376 388.36  373.36 391  370 391  C 366.64 391  364 388.36  364 385  C 364 381.64  366.64 379  370 379  Z " fill-rule="nonzero" fill="#ffffff" stroke="none" />
  <path d="M 370 379.5  C 373.08 379.5  375.5 381.92  375.5 385  C 375.5 388.08  373.08 390.5  370 390.5  C 366.92 390.5  364.5 388.08  364.5 385  C 364.5 381.92  366.92 379.5  370 379.5  Z " stroke-width="1" stroke="#797979" fill="none" />
  <path d="M 370 388  C 368.32 388  367 386.68  367 385  C 367 383.32  368.32 382  370 382  C 371.68 382  373 383.32  373 385  C 373 386.68  371.68 388  370 388  " fill-rule="nonzero" fill="#797979" stroke="none" />
</svg>