<?xml version="1.0" encoding="utf-8"?>
<svg version="1.1" xmlns:xlink="http://www.w3.org/1999/xlink" width="12px" height="12px" viewBox="252 892  12 12" xmlns="http://www.w3.org/2000/svg">
  <path d="M 258 892  C 261.36 892  264 894.64  264 898  C 264 901.36  261.36 904  258 904  C 254.64 904  252 901.36  252 898  C 252 894.64  254.64 892  258 892  Z " fill-rule="nonzero" fill="#f0f0f0" stroke="none" />
  <path d="M 258 892.5  C 261.08 892.5  263.5 894.92  263.5 898  C 263.5 901.08  261.08 903.5  258 903.5  C 254.92 903.5  252.5 901.08  252.5 898  C 252.5 894.92  254.92 892.5  258 892.5  Z " stroke-width="1" stroke="#797979" fill="none" />
  <path d="M 258 901  C 256.32 901  255 899.68  255 898  C 255 896.32  256.32 895  258 895  C 259.68 895  261 896.32  261 898  C 261 899.68  259.68 901  258 901  " fill-rule="nonzero" fill="#797979" stroke="none" />
</svg>