<?xml version="1.0" encoding="utf-8"?>
<svg version="1.1" xmlns:xlink="http://www.w3.org/1999/xlink" width="12px" height="12px" viewBox="352 892  12 12" xmlns="http://www.w3.org/2000/svg">
  <path d="M 358 892  C 361.36 892  364 894.64  364 898  C 364 901.36  361.36 904  358 904  C 354.64 904  352 901.36  352 898  C 352 894.64  354.64 892  358 892  Z " fill-rule="nonzero" fill="#f0f0f0" stroke="none" />
  <path d="M 358 892.5  C 361.08 892.5  363.5 894.92  363.5 898  C 363.5 901.08  361.08 903.5  358 903.5  C 354.92 903.5  352.5 901.08  352.5 898  C 352.5 894.92  354.92 892.5  358 892.5  Z " stroke-width="1" stroke="#797979" fill="none" />
  <path d="M 358 901  C 356.32 901  355 899.68  355 898  C 355 896.32  356.32 895  358 895  C 359.68 895  361 896.32  361 898  C 361 899.68  359.68 901  358 901  " fill-rule="nonzero" fill="#797979" stroke="none" />
</svg>