<?xml version="1.0" encoding="utf-8"?>
<svg version="1.1" xmlns:xlink="http://www.w3.org/1999/xlink" width="12px" height="12px" viewBox="154 178  12 12" xmlns="http://www.w3.org/2000/svg">
  <path d="M 160 178  C 163.36 178  166 180.64  166 184  C 166 187.36  163.36 190  160 190  C 156.64 190  154 187.36  154 184  C 154 180.64  156.64 178  160 178  Z " fill-rule="nonzero" fill="#f0f0f0" stroke="none" />
  <path d="M 160 178.5  C 163.08 178.5  165.5 180.92  165.5 184  C 165.5 187.08  163.08 189.5  160 189.5  C 156.92 189.5  154.5 187.08  154.5 184  C 154.5 180.92  156.92 178.5  160 178.5  Z " stroke-width="1" stroke="#797979" fill="none" />
  <path d="M 160 187  C 158.32 187  157 185.68  157 184  C 157 182.32  158.32 181  160 181  C 161.68 181  163 182.32  163 184  C 163 185.68  161.68 187  160 187  " fill-rule="nonzero" fill="#797979" stroke="none" />
</svg>