<?xml version="1.0" encoding="utf-8"?>
<svg version="1.1" xmlns:xlink="http://www.w3.org/1999/xlink" width="12px" height="12px" viewBox="235 178  12 12" xmlns="http://www.w3.org/2000/svg">
  <path d="M 241 178  C 244.36 178  247 180.64  247 184  C 247 187.36  244.36 190  241 190  C 237.64 190  235 187.36  235 184  C 235 180.64  237.64 178  241 178  Z " fill-rule="nonzero" fill="#ffffff" stroke="none" />
  <path d="M 241 178.5  C 244.08 178.5  246.5 180.92  246.5 184  C 246.5 187.08  244.08 189.5  241 189.5  C 237.92 189.5  235.5 187.08  235.5 184  C 235.5 180.92  237.92 178.5  241 178.5  Z " stroke-width="1" stroke="#797979" fill="none" />
  <path d="M 241 187  C 239.32 187  238 185.68  238 184  C 238 182.32  239.32 181  241 181  C 242.68 181  244 182.32  244 184  C 244 185.68  242.68 187  241 187  " fill-rule="nonzero" fill="#797979" stroke="none" />
</svg>