<?xml version="1.0" encoding="utf-8"?>
<svg version="1.1" xmlns:xlink="http://www.w3.org/1999/xlink" width="12px" height="12px" viewBox="45 293  12 12" xmlns="http://www.w3.org/2000/svg">
  <path d="M 51 293  C 54.36 293  57 295.64  57 299  C 57 302.36  54.36 305  51 305  C 47.64 305  45 302.36  45 299  C 45 295.64  47.64 293  51 293  Z " fill-rule="nonzero" fill="#f0f0f0" stroke="none" />
  <path d="M 51 293.5  C 54.08 293.5  56.5 295.92  56.5 299  C 56.5 302.08  54.08 304.5  51 304.5  C 47.92 304.5  45.5 302.08  45.5 299  C 45.5 295.92  47.92 293.5  51 293.5  Z " stroke-width="1" stroke="#797979" fill="none" />
  <path d="M 51 302  C 49.32 302  48 300.68  48 299  C 48 297.32  49.32 296  51 296  C 52.68 296  54 297.32  54 299  C 54 300.68  52.68 302  51 302  " fill-rule="nonzero" fill="#797979" stroke="none" />
</svg>