<svg t="1610356051300" class="icon" viewBox="0 0 1024 1024" version="1.1" xmlns="http://www.w3.org/2000/svg" p-id="5430" width="200" height="200"><path d="M952.246857 698.953143a477.257143 477.257143 0 0 1-102.4 151.990857 475.794286 475.794286 0 0 1-337.481143 139.922286 474.697143 474.697143 0 0 1-337.627428-139.922286A476.452571 476.452571 0 0 1 35.108571 512.877714a476.452571 476.452571 0 0 1 139.702858-338.066285A475.794286 475.794286 0 0 1 512.365714 34.889143 474.697143 474.697143 0 0 1 849.92 174.811429a476.525714 476.525714 0 0 1 139.776 338.066285c0 64.365714-12.653714 127.049143-37.449143 186.075429z" fill="#FF7C10" p-id="5431"></path><path d="M518.948571 677.595429a71.314286 71.314286 0 0 0-50.468571 21.577142c-13.165714 13.604571-20.918857 32.841143-20.918857 52.004572 0 19.236571 7.753143 38.4 20.918857 52.004571 13.165714 13.604571 31.890286 21.577143 50.468571 21.577143 18.797714 0 37.302857-7.972571 50.468572-21.577143 13.165714-13.604571 20.992-32.768 20.992-51.931428 0-19.236571-7.753143-38.473143-20.918857-52.077715a70.948571 70.948571 0 0 0-50.468572-21.577142z m-7.606857-478.354286c-50.688 0-91.574857 15.652571-122.733714 47.177143a174.226286 174.226286 0 0 0-50.322286 114.688c-1.024 39.862857 81.993143 31.670857 85.065143 11.922285 3.291429-20.918857 16.822857-54.637714 32.694857-69.924571 15.872-15.286857 35.693714-22.966857 59.245715-22.966857 24.502857 0 44.032 7.314286 58.368 21.942857 14.409143 14.628571 21.650286 32.256 21.650285 52.955429a72.704 72.704 0 0 1-12.141714 40.740571c-5.339429 7.826286-21.577143 24.283429-48.566857 49.371429-26.916571 25.234286-45.056 47.835429-54.052572 68.022857-8.996571 20.041143-13.531429 45.641143-13.531428 76.873143 0 3.072 0.073143 11.556571 0.365714 25.234285H551.497143c-0.512-29.110857 1.755429-49.371429 6.436571-60.708571 4.754286-11.410286 16.896-26.331429 36.425143-44.836572 37.814857-35.986286 62.537143-64.438857 74.093714-85.211428 11.556571-20.918857 17.261714-43.008 17.261715-66.413714 0-42.203429-15.725714-79.286857-47.177143-111.030858-31.597714-31.890286-73.947429-47.835429-127.268572-47.835428z" fill="#FFFFFF" p-id="5432"></path></svg>