<?xml version="1.0" encoding="utf-8"?>
<svg version="1.1" xmlns:xlink="http://www.w3.org/1999/xlink" width="12px" height="12px" viewBox="870 153  12 12" xmlns="http://www.w3.org/2000/svg">
  <path d="M 876 153  C 879.36 153  882 155.64  882 159  C 882 162.36  879.36 165  876 165  C 872.64 165  870 162.36  870 159  C 870 155.64  872.64 153  876 153  Z " fill-rule="nonzero" fill="#f0f0f0" stroke="none" />
  <path d="M 876 153.5  C 879.08 153.5  881.5 155.92  881.5 159  C 881.5 162.08  879.08 164.5  876 164.5  C 872.92 164.5  870.5 162.08  870.5 159  C 870.5 155.92  872.92 153.5  876 153.5  Z " stroke-width="1" stroke="#797979" fill="none" />
  <path d="M 876 162  C 874.32 162  873 160.68  873 159  C 873 157.32  874.32 156  876 156  C 877.68 156  879 157.32  879 159  C 879 160.68  877.68 162  876 162  " fill-rule="nonzero" fill="#797979" stroke="none" />
</svg>