<?xml version="1.0" encoding="utf-8"?>
<svg version="1.1" xmlns:xlink="http://www.w3.org/1999/xlink" width="12px" height="12px" viewBox="949 153  12 12" xmlns="http://www.w3.org/2000/svg">
  <path d="M 955 153  C 958.36 153  961 155.64  961 159  C 961 162.36  958.36 165  955 165  C 951.64 165  949 162.36  949 159  C 949 155.64  951.64 153  955 153  Z " fill-rule="nonzero" fill="#f0f0f0" stroke="none" />
  <path d="M 955 153.5  C 958.08 153.5  960.5 155.92  960.5 159  C 960.5 162.08  958.08 164.5  955 164.5  C 951.92 164.5  949.5 162.08  949.5 159  C 949.5 155.92  951.92 153.5  955 153.5  Z " stroke-width="1" stroke="#797979" fill="none" />
  <path d="M 955 162  C 953.32 162  952 160.68  952 159  C 952 157.32  953.32 156  955 156  C 956.68 156  958 157.32  958 159  C 958 160.68  956.68 162  955 162  " fill-rule="nonzero" fill="#797979" stroke="none" />
</svg>