<svg t="1611729439240" class="icon" viewBox="0 0 1024 1024" version="1.1" xmlns="http://www.w3.org/2000/svg" p-id="3933" width="200" height="200"><path d="M18.919619 512c0 271.652571 220.208762 491.861333 491.861333 491.861333S1002.642286 783.652571 1002.642286 512 782.433524 20.138667 510.780952 20.138667 18.919619 240.347429 18.919619 512z" fill="#FE5269" p-id="3934"></path><path d="M528.774095 612.205714c3.291429-40.643048 8.484571-75.702857 15.60381-105.155047l20.187428-83.041524c12.702476-52.833524 19.065905-88.892952 19.065905-108.202667 0-18.529524-6.046476-33.840762-18.115048-45.909333-12.04419-12.04419-27.233524-18.090667-45.519238-18.090667-18.773333 0-34.03581 5.973333-45.714285 17.92-11.678476 11.946667-17.529905 27.672381-17.529905 47.225905 0 21.577143 5.973333 57.270857 17.92 107.032381l19.797333 83.065905c9.923048 41.130667 15.750095 76.190476 17.529905 105.130666h16.774095z m-8.021333 178.273524c17.017905 0 31.573333-6.046476 43.641905-18.090667a59.440762 59.440762 0 0 0 18.090666-43.641904c0-17.261714-6.046476-31.939048-18.115047-43.983238a59.440762 59.440762 0 0 0-43.617524-18.090667c-17.261714 0-31.865905 6.095238-43.812572 18.285714s-17.895619 26.794667-17.895619 43.812572 6.046476 31.548952 18.090667 43.617523a59.440762 59.440762 0 0 0 43.641905 18.090667z" fill="#FFFFFF" p-id="3935"></path></svg>