<svg t="1612161836854" class="icon" viewBox="0 0 1024 1024" version="1.1" xmlns="http://www.w3.org/2000/svg" p-id="3955" width="16" height="16"><path d="M1024 682.666667a113.777778 113.777778 0 0 1-113.777778 113.777777L113.777778 796.444444a113.777778 113.777778 0 0 1-113.777778-113.777777l0-455.111111 1024 0L1024 682.666667z m-265.443556-277.959111a41.130667 41.130667 0 0 0 5.688889-41.642667 33.792 33.792 0 0 0-32.426666-21.617778 32.768 32.768 0 0 0-23.60888901 12.288L497.379556 588.629333l-210.83022299-234.894222a32.824889 32.824889 0 0 0-23.55200001-12.344889 32.085333 32.085333 0 0 0-24.519111 9.841778 39.537778 39.537778 0 0 0-11.09333301 26.168889 40.277333 40.277333 0 0 0 8.81777801 27.306667l236.145777 265.671111a32.654222 32.654222 0 0 0 23.438223 12.174222 31.914667 31.914667 0 0 0 24.462222-9.841778l1.137778-1.137778 0.170666-0.170666 0.853334-1.024 0.113777 0 0.113778-0.284445 0.170667-0.113778z" fill="#ADB9C8" p-id="3956"></path></svg>