<?xml version="1.0" encoding="utf-8"?>
<svg version="1.1" xmlns:xlink="http://www.w3.org/1999/xlink" width="12px" height="12px" viewBox="691 127  12 12" xmlns="http://www.w3.org/2000/svg">
  <path d="M 697 127  C 700.36 127  703 129.64  703 133  C 703 136.36  700.36 139  697 139  C 693.64 139  691 136.36  691 133  C 691 129.64  693.64 127  697 127  Z " fill-rule="nonzero" fill="#f0f0f0" stroke="none" />
  <path d="M 697 127.5  C 700.08 127.5  702.5 129.92  702.5 133  C 702.5 136.08  700.08 138.5  697 138.5  C 693.92 138.5  691.5 136.08  691.5 133  C 691.5 129.92  693.92 127.5  697 127.5  Z " stroke-width="1" stroke="#797979" fill="none" />
  <path d="M 697 136  C 695.32 136  694 134.68  694 133  C 694 131.32  695.32 130  697 130  C 698.68 130  700 131.32  700 133  C 700 134.68  698.68 136  697 136  " fill-rule="nonzero" fill="#797979" stroke="none" />
</svg>