<?xml version="1.0" encoding="utf-8"?>
<svg version="1.1" xmlns:xlink="http://www.w3.org/1999/xlink" width="12px" height="12px" viewBox="490 127  12 12" xmlns="http://www.w3.org/2000/svg">
  <path d="M 496 127  C 499.36 127  502 129.64  502 133  C 502 136.36  499.36 139  496 139  C 492.64 139  490 136.36  490 133  C 490 129.64  492.64 127  496 127  Z " fill-rule="nonzero" fill="#ffffff" stroke="none" />
  <path d="M 496 127.5  C 499.08 127.5  501.5 129.92  501.5 133  C 501.5 136.08  499.08 138.5  496 138.5  C 492.92 138.5  490.5 136.08  490.5 133  C 490.5 129.92  492.92 127.5  496 127.5  Z " stroke-width="1" stroke="#797979" fill="none" />
  <path d="M 496 136  C 494.32 136  493 134.68  493 133  C 493 131.32  494.32 130  496 130  C 497.68 130  499 131.32  499 133  C 499 134.68  497.68 136  496 136  " fill-rule="nonzero" fill="#797979" stroke="none" />
</svg>