<?xml version="1.0" encoding="utf-8"?>
<svg version="1.1" xmlns:xlink="http://www.w3.org/1999/xlink" width="12px" height="12px" viewBox="469 347  12 12" xmlns="http://www.w3.org/2000/svg">
  <path d="M 475 347  C 478.36 347  481 349.64  481 353  C 481 356.36  478.36 359  475 359  C 471.64 359  469 356.36  469 353  C 469 349.64  471.64 347  475 347  Z " fill-rule="nonzero" fill="#ffffff" stroke="none" />
  <path d="M 475 347.5  C 478.08 347.5  480.5 349.92  480.5 353  C 480.5 356.08  478.08 358.5  475 358.5  C 471.92 358.5  469.5 356.08  469.5 353  C 469.5 349.92  471.92 347.5  475 347.5  Z " stroke-width="1" stroke="#797979" fill="none" />
  <path d="M 475 356  C 473.32 356  472 354.68  472 353  C 472 351.32  473.32 350  475 350  C 476.68 350  478 351.32  478 353  C 478 354.68  476.68 356  475 356  " fill-rule="nonzero" fill="#797979" stroke="none" />
</svg>