<?xml version="1.0" encoding="utf-8"?>
<svg version="1.1" xmlns:xlink="http://www.w3.org/1999/xlink" width="12px" height="12px" viewBox="774 113  12 12" xmlns="http://www.w3.org/2000/svg">
  <path d="M 780 113  C 783.36 113  786 115.64  786 119  C 786 122.36  783.36 125  780 125  C 776.64 125  774 122.36  774 119  C 774 115.64  776.64 113  780 113  Z " fill-rule="nonzero" fill="#f0f0f0" stroke="none" />
  <path d="M 780 113.5  C 783.08 113.5  785.5 115.92  785.5 119  C 785.5 122.08  783.08 124.5  780 124.5  C 776.92 124.5  774.5 122.08  774.5 119  C 774.5 115.92  776.92 113.5  780 113.5  Z " stroke-width="1" stroke="#797979" fill="none" />
  <path d="M 780 122  C 778.32 122  777 120.68  777 119  C 777 117.32  778.32 116  780 116  C 781.68 116  783 117.32  783 119  C 783 120.68  781.68 122  780 122  " fill-rule="nonzero" fill="#797979" stroke="none" />
</svg>