<?xml version="1.0" encoding="utf-8"?>
<svg version="1.1" xmlns:xlink="http://www.w3.org/1999/xlink" width="12px" height="12px" viewBox="874 73  12 12" xmlns="http://www.w3.org/2000/svg">
  <path d="M 880 73  C 883.36 73  886 75.64  886 79  C 886 82.36  883.36 85  880 85  C 876.64 85  874 82.36  874 79  C 874 75.64  876.64 73  880 73  Z " fill-rule="nonzero" fill="#f0f0f0" stroke="none" />
  <path d="M 880 73.5  C 883.08 73.5  885.5 75.92  885.5 79  C 885.5 82.08  883.08 84.5  880 84.5  C 876.92 84.5  874.5 82.08  874.5 79  C 874.5 75.92  876.92 73.5  880 73.5  Z " stroke-width="1" stroke="#797979" fill="none" />
  <path d="M 880 82  C 878.32 82  877 80.68  877 79  C 877 77.32  878.32 76  880 76  C 881.68 76  883 77.32  883 79  C 883 80.68  881.68 82  880 82  " fill-rule="nonzero" fill="#797979" stroke="none" />
</svg>