<?xml version="1.0" encoding="utf-8"?>
<svg version="1.1" xmlns:xlink="http://www.w3.org/1999/xlink" width="12px" height="12px" viewBox="44 278  12 12" xmlns="http://www.w3.org/2000/svg">
  <path d="M 50 278  C 53.36 278  56 280.64  56 284  C 56 287.36  53.36 290  50 290  C 46.64 290  44 287.36  44 284  C 44 280.64  46.64 278  50 278  Z " fill-rule="nonzero" fill="#f0f0f0" stroke="none" />
  <path d="M 50 278.5  C 53.08 278.5  55.5 280.92  55.5 284  C 55.5 287.08  53.08 289.5  50 289.5  C 46.92 289.5  44.5 287.08  44.5 284  C 44.5 280.92  46.92 278.5  50 278.5  Z " stroke-width="1" stroke="#797979" fill="none" />
  <path d="M 50 287  C 48.32 287  47 285.68  47 284  C 47 282.32  48.32 281  50 281  C 51.68 281  53 282.32  53 284  C 53 285.68  51.68 287  50 287  " fill-rule="nonzero" fill="#797979" stroke="none" />
</svg>