<?xml version="1.0" encoding="utf-8"?>
<svg version="1.1" xmlns:xlink="http://www.w3.org/1999/xlink" width="12px" height="12px" viewBox="44 306  12 12" xmlns="http://www.w3.org/2000/svg">
  <path d="M 50 306  C 53.36 306  56 308.64  56 312  C 56 315.36  53.36 318  50 318  C 46.64 318  44 315.36  44 312  C 44 308.64  46.64 306  50 306  Z " fill-rule="nonzero" fill="#ffffff" stroke="none" />
  <path d="M 50 306.5  C 53.08 306.5  55.5 308.92  55.5 312  C 55.5 315.08  53.08 317.5  50 317.5  C 46.92 317.5  44.5 315.08  44.5 312  C 44.5 308.92  46.92 306.5  50 306.5  Z " stroke-width="1" stroke="#797979" fill="none" />
  <path d="M 50 315  C 48.32 315  47 313.68  47 312  C 47 310.32  48.32 309  50 309  C 51.68 309  53 310.32  53 312  C 53 313.68  51.68 315  50 315  " fill-rule="nonzero" fill="#797979" stroke="none" />
</svg>