<svg t="1598923015248" class="icon" viewBox="0 0 1024 1024" version="1.1" xmlns="http://www.w3.org/2000/svg" p-id="3193" width="200" height="200"><path d="M512 0C229.668571 0 0 229.668571 0 512s229.668571 512 512 512 512-229.668571 512-512-229.668571-512-512-512z m0 950.857143c-241.956571 0-438.857143-196.900571-438.857143-438.857143s196.900571-438.857143 438.857143-438.857143 438.857143 196.900571 438.857143 438.857143-196.900571 438.857143-438.857143 438.857143z m-36.571429-256h73.142858v73.142857h-73.142858v-73.142857z m36.571429-438.857143c-62.902857 0-108.251429 26.843429-134.144 72.557714-17.261714 30.427429-24.064 64.438857-24.356571 97.718857l73.142857 0.804572C427.373714 368.786286 449.828571 329.142857 512 329.142857c54.418286 0 85.357714 27.209143 85.357714 73.142857 0 22.381714-8.338286 36.205714-34.962285 61.805715l-14.628572 13.897142c-49.444571 47.542857-72.192 88.064-72.192 155.940572h73.142857c0-44.470857 13.165714-68.096 49.737143-103.131429l14.628572-13.897143c39.716571-38.034286 57.563429-67.657143 57.563428-114.468571C670.500571 313.709714 604.891429 256 512 256z" p-id="3194" fill="#8a8a8a"></path></svg>