<?xml version="1.0" encoding="utf-8"?>
<svg version="1.1" xmlns:xlink="http://www.w3.org/1999/xlink" width="24px" height="24px" xmlns="http://www.w3.org/2000/svg">
  <g transform="matrix(1 0 0 1 -526 -313 )">
    <path d="M 538 313  C 544.72 313  550 318.28  550 325  C 550 331.72  544.72 337  538 337  C 531.28 337  526 331.72  526 325  C 526 318.28  531.28 313  538 313  Z " fill-rule="nonzero" fill="#ffffff" stroke="none" />
    <path d="M 538 313.5  C 544.44 313.5  549.5 318.56  549.5 325  C 549.5 331.44  544.44 336.5  538 336.5  C 531.56 336.5  526.5 331.44  526.5 325  C 526.5 318.56  531.56 313.5  538 313.5  Z " stroke-width="1" stroke="#797979" fill="none" />
  </g>
</svg>