<?xml version="1.0" encoding="utf-8"?>
<svg version="1.1" xmlns:xlink="http://www.w3.org/1999/xlink" width="22px" height="24px" xmlns="http://www.w3.org/2000/svg">
  <g transform="matrix(1 0 0 1 -915 -305 )">
    <path d="M 926 305  C 932.16 305  937 310.28  937 317  C 937 323.72  932.16 329  926 329  C 919.84 329  915 323.72  915 317  C 915 310.28  919.84 305  926 305  Z " fill-rule="nonzero" fill="#ffffff" stroke="none" />
    <path d="M 926 305.5  C 931.88 305.5  936.5 310.56  936.5 317  C 936.5 323.44  931.88 328.5  926 328.5  C 920.12 328.5  915.5 323.44  915.5 317  C 915.5 310.56  920.12 305.5  926 305.5  Z " stroke-width="1" stroke="#797979" fill="none" />
  </g>
</svg>