<?xml version="1.0" encoding="utf-8"?>
<svg version="1.1" xmlns:xlink="http://www.w3.org/1999/xlink" width="64px" height="26px" xmlns="http://www.w3.org/2000/svg">
  <g transform="matrix(1 0 0 1 -1496 -185 )">
    <path d="M 1497 187  A 1 1 0 0 1 1498 186 L 1558 186  A 1 1 0 0 1 1559 187 L 1559 209  A 1 1 0 0 1 1558 210 L 1498 210  A 1 1 0 0 1 1497 209 L 1497 187  Z " fill-rule="nonzero" fill="#33ab9f" stroke="none" fill-opacity="0.8" />
    <path d="M 1496.5 187  A 1.5 1.5 0 0 1 1498 185.5 L 1558 185.5  A 1.5 1.5 0 0 1 1559.5 187 L 1559.5 209  A 1.5 1.5 0 0 1 1558 210.5 L 1498 210.5  A 1.5 1.5 0 0 1 1496.5 209 L 1496.5 187  Z " stroke-width="1" stroke="#33ab9f" fill="none" stroke-opacity="0.8" />
  </g>
</svg>