<?xml version="1.0" encoding="utf-8"?>
<svg version="1.1" xmlns:xlink="http://www.w3.org/1999/xlink" width="12px" height="12px" viewBox="240 943  12 12" xmlns="http://www.w3.org/2000/svg">
  <path d="M 246 943  C 249.36 943  252 945.64  252 949  C 252 952.36  249.36 955  246 955  C 242.64 955  240 952.36  240 949  C 240 945.64  242.64 943  246 943  Z " fill-rule="nonzero" fill="#ffffff" stroke="none" />
  <path d="M 246 943.5  C 249.08 943.5  251.5 945.92  251.5 949  C 251.5 952.08  249.08 954.5  246 954.5  C 242.92 954.5  240.5 952.08  240.5 949  C 240.5 945.92  242.92 943.5  246 943.5  Z " stroke-width="1" stroke="#797979" fill="none" />
  <path d="M 246 952  C 244.32 952  243 950.68  243 949  C 243 947.32  244.32 946  246 946  C 247.68 946  249 947.32  249 949  C 249 950.68  247.68 952  246 952  " fill-rule="nonzero" fill="#797979" stroke="none" />
</svg>