<?xml version="1.0" encoding="utf-8"?>
<svg version="1.1" xmlns:xlink="http://www.w3.org/1999/xlink" width="12px" height="12px" viewBox="370 1352  12 12" xmlns="http://www.w3.org/2000/svg">
  <path d="M 376 1352  C 379.36 1352  382 1354.64  382 1358  C 382 1361.36  379.36 1364  376 1364  C 372.64 1364  370 1361.36  370 1358  C 370 1354.64  372.64 1352  376 1352  Z " fill-rule="nonzero" fill="#f0f0f0" stroke="none" />
  <path d="M 376 1352.5  C 379.08 1352.5  381.5 1354.92  381.5 1358  C 381.5 1361.08  379.08 1363.5  376 1363.5  C 372.92 1363.5  370.5 1361.08  370.5 1358  C 370.5 1354.92  372.92 1352.5  376 1352.5  Z " stroke-width="1" stroke="#797979" fill="none" />
  <path d="M 376 1361  C 374.32 1361  373 1359.68  373 1358  C 373 1356.32  374.32 1355  376 1355  C 377.68 1355  379 1356.32  379 1358  C 379 1359.68  377.68 1361  376 1361  " fill-rule="nonzero" fill="#797979" stroke="none" />
</svg>