<?xml version="1.0" encoding="utf-8"?>
<svg version="1.1" xmlns:xlink="http://www.w3.org/1999/xlink" width="12px" height="12px" viewBox="270 1352  12 12" xmlns="http://www.w3.org/2000/svg">
  <path d="M 276 1352  C 279.36 1352  282 1354.64  282 1358  C 282 1361.36  279.36 1364  276 1364  C 272.64 1364  270 1361.36  270 1358  C 270 1354.64  272.64 1352  276 1352  Z " fill-rule="nonzero" fill="#f0f0f0" stroke="none" />
  <path d="M 276 1352.5  C 279.08 1352.5  281.5 1354.92  281.5 1358  C 281.5 1361.08  279.08 1363.5  276 1363.5  C 272.92 1363.5  270.5 1361.08  270.5 1358  C 270.5 1354.92  272.92 1352.5  276 1352.5  Z " stroke-width="1" stroke="#797979" fill="none" />
  <path d="M 276 1361  C 274.32 1361  273 1359.68  273 1358  C 273 1356.32  274.32 1355  276 1355  C 277.68 1355  279 1356.32  279 1358  C 279 1359.68  277.68 1361  276 1361  " fill-rule="nonzero" fill="#797979" stroke="none" />
</svg>