<?xml version="1.0" encoding="utf-8"?>
<svg version="1.1" xmlns:xlink="http://www.w3.org/1999/xlink" width="12px" height="12px" viewBox="388 259  12 12" xmlns="http://www.w3.org/2000/svg">
  <path d="M 394 259  C 397.36 259  400 261.64  400 265  C 400 268.36  397.36 271  394 271  C 390.64 271  388 268.36  388 265  C 388 261.64  390.64 259  394 259  Z " fill-rule="nonzero" fill="#f0f0f0" stroke="none" />
  <path d="M 394 259.5  C 397.08 259.5  399.5 261.92  399.5 265  C 399.5 268.08  397.08 270.5  394 270.5  C 390.92 270.5  388.5 268.08  388.5 265  C 388.5 261.92  390.92 259.5  394 259.5  Z " stroke-width="1" stroke="#797979" fill="none" />
  <path d="M 394 268  C 392.32 268  391 266.68  391 265  C 391 263.32  392.32 262  394 262  C 395.68 262  397 263.32  397 265  C 397 266.68  395.68 268  394 268  " fill-rule="nonzero" fill="#797979" stroke="none" />
</svg>