<?xml version="1.0" encoding="utf-8"?>
<svg version="1.1" xmlns:xlink="http://www.w3.org/1999/xlink" width="29px" height="29px" xmlns="http://www.w3.org/2000/svg">
  <g transform="matrix(1 0 0 1 -521 -614 )">
    <path d="M 535.5 614  C 543.62 614  550 620.38  550 628.5  C 550 636.62  543.62 643  535.5 643  C 527.38 643  521 636.62  521 628.5  C 521 620.38  527.38 614  535.5 614  Z " fill-rule="nonzero" fill="#ffffff" stroke="none" />
    <path d="M 535.5 614.5  C 543.34 614.5  549.5 620.66  549.5 628.5  C 549.5 636.34  543.34 642.5  535.5 642.5  C 527.66 642.5  521.5 636.34  521.5 628.5  C 521.5 620.66  527.66 614.5  535.5 614.5  Z " stroke-width="1" stroke="#797979" fill="none" />
  </g>
</svg>