<?xml version="1.0" encoding="utf-8"?>
<svg version="1.1" xmlns:xlink="http://www.w3.org/1999/xlink" width="105px" height="32px" xmlns="http://www.w3.org/2000/svg">
  <g transform="matrix(1 0 0 1 -41 -167 )">
    <path d="M 42 172  A 4 4 0 0 1 46 168 L 141 168  A 4 4 0 0 1 145 172 L 145 194  A 4 4 0 0 1 141 198 L 46 198  A 4 4 0 0 1 42 194 L 42 172  Z " fill-rule="nonzero" fill="#ffffff" stroke="none" />
    <path d="M 41.5 172  A 4.5 4.5 0 0 1 46 167.5 L 141 167.5  A 4.5 4.5 0 0 1 145.5 172 L 145.5 194  A 4.5 4.5 0 0 1 141 198.5 L 46 198.5  A 4.5 4.5 0 0 1 41.5 194 L 41.5 172  Z " stroke-width="1" stroke-dasharray="3,1" stroke="#797979" fill="none" stroke-dashoffset="0.5" />
  </g>
</svg>