<?xml version="1.0" encoding="utf-8"?>
<svg version="1.1" xmlns:xlink="http://www.w3.org/1999/xlink" width="12px" height="12px" viewBox="347 145  12 12" xmlns="http://www.w3.org/2000/svg">
  <path d="M 353 145  C 356.36 145  359 147.64  359 151  C 359 154.36  356.36 157  353 157  C 349.64 157  347 154.36  347 151  C 347 147.64  349.64 145  353 145  Z " fill-rule="nonzero" fill="#f0f0f0" stroke="none" />
  <path d="M 353 145.5  C 356.08 145.5  358.5 147.92  358.5 151  C 358.5 154.08  356.08 156.5  353 156.5  C 349.92 156.5  347.5 154.08  347.5 151  C 347.5 147.92  349.92 145.5  353 145.5  Z " stroke-width="1" stroke="#797979" fill="none" />
  <path d="M 353 154  C 351.32 154  350 152.68  350 151  C 350 149.32  351.32 148  353 148  C 354.68 148  356 149.32  356 151  C 356 152.68  354.68 154  353 154  " fill-rule="nonzero" fill="#797979" stroke="none" />
</svg>