<?xml version="1.0" encoding="utf-8"?>
<svg version="1.1" xmlns:xlink="http://www.w3.org/1999/xlink" width="12px" height="12px" viewBox="578 259  12 12" xmlns="http://www.w3.org/2000/svg">
  <path d="M 584 259  C 587.36 259  590 261.64  590 265  C 590 268.36  587.36 271  584 271  C 580.64 271  578 268.36  578 265  C 578 261.64  580.64 259  584 259  Z " fill-rule="nonzero" fill="#ffffff" stroke="none" />
  <path d="M 584 259.5  C 587.08 259.5  589.5 261.92  589.5 265  C 589.5 268.08  587.08 270.5  584 270.5  C 580.92 270.5  578.5 268.08  578.5 265  C 578.5 261.92  580.92 259.5  584 259.5  Z " stroke-width="1" stroke="#797979" fill="none" />
  <path d="M 584 268  C 582.32 268  581 266.68  581 265  C 581 263.32  582.32 262  584 262  C 585.68 262  587 263.32  587 265  C 587 266.68  585.68 268  584 268  " fill-rule="nonzero" fill="#797979" stroke="none" />
</svg>