<?xml version="1.0" encoding="utf-8"?>
<svg version="1.1" xmlns:xlink="http://www.w3.org/1999/xlink" width="12px" height="12px" viewBox="60 141  12 12" xmlns="http://www.w3.org/2000/svg">
  <path d="M 66 141  C 69.36 141  72 143.64  72 147  C 72 150.36  69.36 153  66 153  C 62.64 153  60 150.36  60 147  C 60 143.64  62.64 141  66 141  Z " fill-rule="nonzero" fill="#ffffff" stroke="none" />
  <path d="M 66 141.5  C 69.08 141.5  71.5 143.92  71.5 147  C 71.5 150.08  69.08 152.5  66 152.5  C 62.92 152.5  60.5 150.08  60.5 147  C 60.5 143.92  62.92 141.5  66 141.5  Z " stroke-width="1" stroke="#797979" fill="none" />
  <path d="M 66 150  C 64.32 150  63 148.68  63 147  C 63 145.32  64.32 144  66 144  C 67.68 144  69 145.32  69 147  C 69 148.68  67.68 150  66 150  " fill-rule="nonzero" fill="#797979" stroke="none" />
</svg>