<svg t="1609203606080" class="icon" viewBox="0 0 1024 1024" version="1.1" xmlns="http://www.w3.org/2000/svg" p-id="3311" width="200" height="200"><path d="M511.895532 511.895532H0A511.895532 511.895532 0 1 0 511.895532 0 511.895532 511.895532 0 0 0 0 511.895532z" fill="#FF7400" p-id="3312"></path><path d="M715.661294 261.118955h-407.427056a47.010814 47.010814 0 0 0-47.010814 47.010814v407.427056a47.010814 47.010814 0 0 0 47.010814 47.010814h407.427056a47.010814 47.010814 0 0 0 47.010814-47.010814v-407.427056a47.010814 47.010814 0 0 0-47.010814-47.010814z m-49.935932 239.076107l-167.149561 139.778821a18.334218 18.334218 0 0 1-25.594777-1.984901l-81.328708-92.454601a18.49092 18.49092 0 1 1 27.579677-24.445624l69.523771 78.925934 153.150786-127.973883a18.49092 18.49092 0 0 1 23.609875 28.46766zM297.78739 391.129973v-36.563966h427.537238v36.563966z" fill="#FFFFFF" p-id="3313"></path></svg>