<svg t="1609203891366" class="icon" viewBox="0 0 1024 1024" version="1.1" xmlns="http://www.w3.org/2000/svg" p-id="5613" width="200" height="200"><path d="M417.173024 702.794572a284.429083 284.429083 0 1 0 284.429082-284.429082 284.429083 284.429083 0 0 0-284.429082 284.429082z" fill="#D3F0FF" p-id="5614"></path><path d="M764.40532 620.428002l-76.456086 44.207656a7.154796 7.154796 0 0 1-8.295416-0.829542l-65.188146-58.413555a7.223925 7.223925 0 0 0-11.855532 6.912846l18.007966 85.684737a6.912847 6.912847 0 0 1-3.456424 7.569567l-76.456086 44.207656a7.120232 7.120232 0 0 0 2.730575 13.272665l87.585769 8.779316a6.912847 6.912847 0 0 1 6.290691 5.564842l18.007966 85.684736a7.154796 7.154796 0 0 0 13.514615 1.417134L704.989401 784.262472a7.258489 7.258489 0 0 1 7.223925-4.147708l87.585769 8.779316a7.189361 7.189361 0 0 0 5.564842-12.443125l-65.188145-58.413555a7.120232 7.120232 0 0 1-1.659084-8.191724l36.188753-80.223587a7.293053 7.293053 0 0 0-10.300141-9.194087z" fill="#00A992" p-id="5615"></path><path d="M907.812327 0H113.733612A76.041315 76.041315 0 0 0 37.899683 75.83393v872.297576a76.041315 76.041315 0 0 0 75.868494 75.83393h637.606426a232.962938 232.962938 0 0 0 232.306218-232.306218V75.83393A76.041315 76.041315 0 0 0 907.812327 0z m-18.975765 791.693782a137.980423 137.980423 0 0 1-137.496523 137.496524h-580.679133a38.020658 38.020658 0 0 1-38.020658-38.020658V132.726659a38.020658 38.020658 0 0 1 38.020658-38.020658h680.293256a38.020658 38.020658 0 0 1 38.020657 38.020658z" fill="#00A992" p-id="5616"></path><path d="M651.829609 417.155742H272.590832a47.422129 47.422129 0 0 0 0 94.809694h379.238777a47.422129 47.422129 0 0 0 0-94.809694z m-260.752582 197.914804H272.556268a47.422129 47.422129 0 1 0 0 94.809694h118.520759a47.422129 47.422129 0 1 0 0-94.809694zM521.453318 218.065753h-248.862486a47.422129 47.422129 0 1 0 0 94.809694h248.862486a47.422129 47.422129 0 1 0 0-94.809694z" fill="#00A992" p-id="5617"></path></svg>