<svg t="1609204850147" class="icon" viewBox="0 0 1024 1024" version="1.1" xmlns="http://www.w3.org/2000/svg" p-id="5753" width="200" height="200"><path d="M0.066065 512.13675V106.013627a102.073726 102.073726 0 0 1 24.903093-68.628292A93.965742 93.965742 0 0 1 93.59745 2.05769C125.739815 0.465051 157.88218 0.465051 190.024545 0.465051h62.402519a28.957085 28.957085 0 0 1 25.62702 13.030688 25.047879 25.047879 0 0 1 0 26.061377 23.889595 23.889595 0 0 1-22.296955 13.320259H105.469855a51.833183 51.833183 0 0 0-51.109255 38.94728 48.068762 48.068762 0 0 0-1.882211 13.32026v814.128456A49.806187 49.806187 0 0 0 96.78273 970.527412a110.18171 110.18171 0 0 0 12.161976 1.158283h758.675637a25.627021 25.627021 0 0 1 23.74481 13.60983 24.468737 24.468737 0 0 1-1.88221 27.509231 30.115369 30.115369 0 0 1-24.034381 11.148478H105.759426a101.349799 101.349799 0 0 1-79.631985-34.893288 89.477394 89.477394 0 0 1-24.613522-57.91417C0.066065 871.783751 0.066065 812.421725 0.066065 753.349271V512.426321z m0 0" fill="#005AAB" p-id="5754"></path><path d="M633.212737 818.213143l14.478543-5.357061a24.034381 24.034381 0 0 1 30.260154 14.478542 27.943587 27.943587 0 0 1-14.478543 37.644211A209.504513 209.504513 0 0 1 615.404129 883.656156a43.435628 43.435628 0 0 1-29.681012-4.343563 28.957085 28.957085 0 0 1-11.438049-19.401247 56.03196 56.03196 0 0 1 1.59264-34.458932 42.132559 42.132559 0 0 0-1.303069-30.839296 190.248051 190.248051 0 0 0-22.15217 24.034381A153.327767 153.327767 0 0 1 513.185618 854.69907c-9.555838 7.239271-18.532535 15.636826-27.943588 23.020883a53.715393 53.715393 0 0 1-32.866292 13.175474 34.458932 34.458932 0 0 1-33.735004-21.717814 172.005087 172.005087 0 0 1-7.963198-39.381636c-2.171781-26.640519-2.750923-53.570608-4.053992-80.500698-4.488348 5.357061-9.845409 10.569336-14.478543 16.650324-18.966891 26.206162-38.512924 52.122754-56.466317 79.052844-13.030688 19.546033-23.889595 40.684705-35.617215 61.244235a25.047879 25.047879 0 0 1-24.034381 15.781612c-8.831911 0-11.872405-7.528842-15.49204-12.741118a33.87979 33.87979 0 0 1 0-38.078567c13.030688-22.296956 25.916591-44.738697 39.671207-66.601297s27.074875-41.119061 41.698203-60.954664a291.018708 291.018708 0 0 1 30.549725-35.47243 84.265119 84.265119 0 0 1 40.82949-25.916591c27.074875-5.646632 43.435628 3.909207 49.806187 30.260154a458.825018 458.825018 0 0 1 7.818413 53.281037c2.171781 16.79511 4.053992 33.590219 6.225774 51.543612 10.569336-11.582834 21.138672-22.441741 31.273652-33.87979a186.194059 186.194059 0 0 1 48.937474-43.435628 44.883482 44.883482 0 0 1 51.543612 3.185279 52.55711 52.55711 0 0 1 14.478543 25.482235 198.21125 198.21125 0 0 1 7.239271 23.889596 194.446828 194.446828 0 0 1 2.461352 26.495733zM955.649883 460.882709a56.900673 56.900673 0 0 1 43.435628 17.519036 69.931361 69.931361 0 0 1 20.849101 28.957086 42.566916 42.566916 0 0 1-10.13498 41.842988l-53.136251 55.597604-46.910479 49.516616-50.530114 52.991466c-13.175474 14.478543-26.350948 27.943587-39.526421 41.987774-4.198777 4.488348-8.397555 8.976696-12.451547 14.478543a46.041766 46.041766 0 0 1-25.916591 12.596332c-15.781612 4.198777-31.852794 8.252769-47.779191 12.017191A19.256462 19.256462 0 0 1 709.514657 762.760324c5.357061-17.953393 10.424551-35.906786 14.478543-54.294535a64.5743 64.5743 0 0 1 19.546032-31.852794c14.478543-14.478543 28.957085-28.957085 43.435628-44.159555s32.431936-34.169361 48.792689-51.254041l47.344835-49.950973 48.358332-50.819685a71.524001 71.524001 0 0 0 7.528843-8.976696A18.67732 18.67732 0 0 1 955.649883 460.882709zM512.027334 256.445686h331.848199a25.916591 25.916591 0 0 1 25.771806 22.586526A25.192664 25.192664 0 0 1 854.300084 306.396658a28.957085 28.957085 0 0 1-11.148478 2.316567H180.323921a26.061377 26.061377 0 0 1-26.785304-25.916592 27.21966 27.21966 0 0 1 27.074875-26.495733h331.413842zM970.128425 207.797782V105.579271a51.977968 51.977968 0 0 0-53.715393-52.412325h-149.12899a24.903093 24.903093 0 0 1-25.916591-22.876097 24.613523 24.613523 0 0 1 22.296956-28.957086 127.121605 127.121605 0 0 1 14.478542-1.303068h136.532658a109.168212 109.168212 0 0 1 65.587798 19.980388 98.16452 98.16452 0 0 1 40.250349 62.981661 169.978091 169.978091 0 0 1 2.606138 33.300648v188.221056a27.21966 27.21966 0 0 1-18.67732 28.957085A25.916591 25.916591 0 0 1 970.128425 308.134083v-100.336301zM409.374467 538.342912H180.468707a26.350948 26.350948 0 1 1 0-52.701895h457.232378a24.903093 24.903093 0 0 1 24.903094 14.478542 26.061377 26.061377 0 0 1-3.619636 28.957086 25.627021 25.627021 0 0 1-20.26996 8.687125z m101.349799-485.320751H356.817357A25.916591 25.916591 0 0 1 332.203834 29.422136 24.758308 24.758308 0 0 1 353.197721 2.05769a90.635677 90.635677 0 0 1 14.478543-1.303068h293.914417a27.074875 27.074875 0 0 1 28.957085 21.862599 25.627021 25.627021 0 0 1-23.310454 30.549725z m0 0" fill="#1296db" p-id="5755"></path></svg>