<svg t="1609204652971" class="icon" viewBox="0 0 1024 1024" version="1.1" xmlns="http://www.w3.org/2000/svg" p-id="4183" width="200" height="200"><path d="M0 512a512 512 0 1 0 1024 0A512 512 0 1 0 0 512z" fill="#3F96D1" p-id="4184"></path><path d="M224 275.2h268.8c-6.4-12.8-19.2-32-32-51.2l44.8-25.6c19.2 19.2 32 44.8 44.8 64l-32 12.8h275.2v115.2h-51.2V320H275.2v70.4H224V275.2z m57.6 128h204.8v-64h51.2v64h204.8v307.2h-44.8v-32H531.2v134.4h-44.8V678.4h-160v32h-44.8V403.2z m44.8 121.6h160V448h-160v76.8z m0 115.2h160v-76.8h-160V640z m364.8-192h-160v70.4h160V448z m-160 192h160v-76.8h-160V640z" fill="#FFFFFF" p-id="4185"></path></svg>