<svg t="1609205158232" class="icon" viewBox="0 0 1024 1024" version="1.1" xmlns="http://www.w3.org/2000/svg" p-id="7832" width="200" height="200"><path d="M628.366222 542.936178l48.247467 89.406578 48.253155-89.406578h41.659734l-58.493156 102.934755h65.012622v21.816889h-77.232355v42.757689h77.232355v21.816889h-77.232355v68.5056h-38.4v-68.5056h-76.788622v-21.816889h76.794311v-42.757689h-76.8v-21.816889h64.580266l-58.493155-102.934755z" p-id="7833" fill="#2424b6"></path><path d="M199.111111 102.223644a32.887467 32.887467 0 0 0-32.887467 32.887467v749.869511a32.887467 32.887467 0 0 0 32.887467 32.881778h631.466667a32.887467 32.887467 0 0 0 32.887466-32.881778V135.111111A32.887467 32.887467 0 0 0 830.577778 102.223644H199.111111z m0-39.469511h631.466667c39.958756 0 72.356978 32.398222 72.356978 72.356978v749.869511c0 39.958756-32.398222 72.351289-72.356978 72.351289H199.111111c-39.958756 0-72.356978-32.392533-72.356978-72.356978V135.111111c0-39.958756 32.398222-72.356978 72.356978-72.356978z" p-id="7834" fill="#2424b6"></path><path d="M285.684622 279.825067a19.734756 19.734756 0 0 1 0-39.469511h447.288889a19.734756 19.734756 0 1 1 0 39.469511H285.684622zM282.077867 450.844444a19.734756 19.734756 0 1 1 0-39.469511h447.288889a19.734756 19.734756 0 1 1 0 39.469511H282.077867zM282.077867 700.802844a19.734756 19.734756 0 1 1 0-39.469511h210.488889a19.734756 19.734756 0 1 1 0 39.469511h-210.488889z" p-id="7835" fill="#2424b6"></path></svg>