<?xml version="1.0" encoding="utf-8"?>
<svg version="1.1" xmlns:xlink="http://www.w3.org/1999/xlink" width="12px" height="12px" viewBox="184 417  12 12" xmlns="http://www.w3.org/2000/svg">
  <path d="M 190 417  C 193.36 417  196 419.64  196 423  C 196 426.36  193.36 429  190 429  C 186.64 429  184 426.36  184 423  C 184 419.64  186.64 417  190 417  Z " fill-rule="nonzero" fill="#f0f0f0" stroke="none" />
  <path d="M 190 417.5  C 193.08 417.5  195.5 419.92  195.5 423  C 195.5 426.08  193.08 428.5  190 428.5  C 186.92 428.5  184.5 426.08  184.5 423  C 184.5 419.92  186.92 417.5  190 417.5  Z " stroke-width="1" stroke="#797979" fill="none" />
  <path d="M 190 426  C 188.32 426  187 424.68  187 423  C 187 421.32  188.32 420  190 420  C 191.68 420  193 421.32  193 423  C 193 424.68  191.68 426  190 426  " fill-rule="nonzero" fill="#797979" stroke="none" />
</svg>