<?xml version="1.0" encoding="utf-8"?>
<svg version="1.1" xmlns:xlink="http://www.w3.org/1999/xlink" width="12px" height="12px" viewBox="645 417  12 12" xmlns="http://www.w3.org/2000/svg">
  <path d="M 651 417  C 654.36 417  657 419.64  657 423  C 657 426.36  654.36 429  651 429  C 647.64 429  645 426.36  645 423  C 645 419.64  647.64 417  651 417  Z " fill-rule="nonzero" fill="#ffffff" stroke="none" />
  <path d="M 651 417.5  C 654.08 417.5  656.5 419.92  656.5 423  C 656.5 426.08  654.08 428.5  651 428.5  C 647.92 428.5  645.5 426.08  645.5 423  C 645.5 419.92  647.92 417.5  651 417.5  Z " stroke-width="1" stroke="#797979" fill="none" />
  <path d="M 651 426  C 649.32 426  648 424.68  648 423  C 648 421.32  649.32 420  651 420  C 652.68 420  654 421.32  654 423  C 654 424.68  652.68 426  651 426  " fill-rule="nonzero" fill="#797979" stroke="none" />
</svg>