<?xml version="1.0" encoding="utf-8"?>
<svg version="1.1" xmlns:xlink="http://www.w3.org/1999/xlink" width="12px" height="12px" viewBox="481 417  12 12" xmlns="http://www.w3.org/2000/svg">
  <path d="M 487 417  C 490.36 417  493 419.64  493 423  C 493 426.36  490.36 429  487 429  C 483.64 429  481 426.36  481 423  C 481 419.64  483.64 417  487 417  Z " fill-rule="nonzero" fill="#f0f0f0" stroke="none" />
  <path d="M 487 417.5  C 490.08 417.5  492.5 419.92  492.5 423  C 492.5 426.08  490.08 428.5  487 428.5  C 483.92 428.5  481.5 426.08  481.5 423  C 481.5 419.92  483.92 417.5  487 417.5  Z " stroke-width="1" stroke="#797979" fill="none" />
  <path d="M 487 426  C 485.32 426  484 424.68  484 423  C 484 421.32  485.32 420  487 420  C 488.68 420  490 421.32  490 423  C 490 424.68  488.68 426  487 426  " fill-rule="nonzero" fill="#797979" stroke="none" />
</svg>