<?xml version="1.0" encoding="utf-8"?>
<svg version="1.1" xmlns:xlink="http://www.w3.org/1999/xlink" width="12px" height="12px" viewBox="968 170  12 12" xmlns="http://www.w3.org/2000/svg">
  <path d="M 974 170  C 977.36 170  980 172.64  980 176  C 980 179.36  977.36 182  974 182  C 970.64 182  968 179.36  968 176  C 968 172.64  970.64 170  974 170  Z " fill-rule="nonzero" fill="#ffffff" stroke="none" />
  <path d="M 974 170.5  C 977.08 170.5  979.5 172.92  979.5 176  C 979.5 179.08  977.08 181.5  974 181.5  C 970.92 181.5  968.5 179.08  968.5 176  C 968.5 172.92  970.92 170.5  974 170.5  Z " stroke-width="1" stroke="#797979" fill="none" />
  <path d="M 974 179  C 972.32 179  971 177.68  971 176  C 971 174.32  972.32 173  974 173  C 975.68 173  977 174.32  977 176  C 977 177.68  975.68 179  974 179  " fill-rule="nonzero" fill="#797979" stroke="none" />
</svg>