<?xml version="1.0" encoding="utf-8"?>
<svg version="1.1" xmlns:xlink="http://www.w3.org/1999/xlink" width="12px" height="12px" viewBox="1093 170  12 12" xmlns="http://www.w3.org/2000/svg">
  <path d="M 1099 170  C 1102.36 170  1105 172.64  1105 176  C 1105 179.36  1102.36 182  1099 182  C 1095.64 182  1093 179.36  1093 176  C 1093 172.64  1095.64 170  1099 170  Z " fill-rule="nonzero" fill="#ffffff" stroke="none" />
  <path d="M 1099 170.5  C 1102.08 170.5  1104.5 172.92  1104.5 176  C 1104.5 179.08  1102.08 181.5  1099 181.5  C 1095.92 181.5  1093.5 179.08  1093.5 176  C 1093.5 172.92  1095.92 170.5  1099 170.5  Z " stroke-width="1" stroke="#797979" fill="none" />
  <path d="M 1099 179  C 1097.32 179  1096 177.68  1096 176  C 1096 174.32  1097.32 173  1099 173  C 1100.68 173  1102 174.32  1102 176  C 1102 177.68  1100.68 179  1099 179  " fill-rule="nonzero" fill="#797979" stroke="none" />
</svg>