<?xml version="1.0" encoding="utf-8"?>
<svg version="1.1" xmlns:xlink="http://www.w3.org/1999/xlink" width="12px" height="12px" viewBox="520 164  12 12" xmlns="http://www.w3.org/2000/svg">
  <path d="M 526 164  C 529.36 164  532 166.64  532 170  C 532 173.36  529.36 176  526 176  C 522.64 176  520 173.36  520 170  C 520 166.64  522.64 164  526 164  Z " fill-rule="nonzero" fill="#f0f0f0" stroke="none" />
  <path d="M 526 164.5  C 529.08 164.5  531.5 166.92  531.5 170  C 531.5 173.08  529.08 175.5  526 175.5  C 522.92 175.5  520.5 173.08  520.5 170  C 520.5 166.92  522.92 164.5  526 164.5  Z " stroke-width="1" stroke="#797979" fill="none" />
  <path d="M 526 173  C 524.32 173  523 171.68  523 170  C 523 168.32  524.32 167  526 167  C 527.68 167  529 168.32  529 170  C 529 171.68  527.68 173  526 173  " fill-rule="nonzero" fill="#797979" stroke="none" />
</svg>