<?xml version="1.0" encoding="utf-8"?>
<svg version="1.1" xmlns:xlink="http://www.w3.org/1999/xlink" width="12px" height="12px" viewBox="620 164  12 12" xmlns="http://www.w3.org/2000/svg">
  <path d="M 626 164  C 629.36 164  632 166.64  632 170  C 632 173.36  629.36 176  626 176  C 622.64 176  620 173.36  620 170  C 620 166.64  622.64 164  626 164  Z " fill-rule="nonzero" fill="#ffffff" stroke="none" />
  <path d="M 626 164.5  C 629.08 164.5  631.5 166.92  631.5 170  C 631.5 173.08  629.08 175.5  626 175.5  C 622.92 175.5  620.5 173.08  620.5 170  C 620.5 166.92  622.92 164.5  626 164.5  Z " stroke-width="1" stroke="#797979" fill="none" />
  <path d="M 626 173  C 624.32 173  623 171.68  623 170  C 623 168.32  624.32 167  626 167  C 627.68 167  629 168.32  629 170  C 629 171.68  627.68 173  626 173  " fill-rule="nonzero" fill="#797979" stroke="none" />
</svg>