<?xml version="1.0" encoding="utf-8"?>
<svg version="1.1" xmlns:xlink="http://www.w3.org/1999/xlink" width="22px" height="20px" xmlns="http://www.w3.org/2000/svg">
  <g transform="matrix(1 0 0 1 -1762 -887 )">
    <path d="M 16.4741847826085 18.0859375  C 16.6396669453734 17.9210069444443  16.7224080267558 17.7256944444443  16.7224080267558 17.5  C 16.7224080267558 17.2743055555557  16.6396669453734 17.0789930555557  16.4741847826085 16.9140625  C 16.3087026198439 16.7491319444443  16.1127369007804 16.6666666666667  15.8862876254179 16.6666666666667  C 15.6598383500557 16.6666666666667  15.4638726309922 16.7491319444443  15.2983904682274 16.9140625  C 15.1329083054625 17.0789930555557  15.0501672240803 17.2743055555557  15.0501672240803 17.5  C 15.0501672240803 17.7256944444443  15.1329083054625 17.9210069444443  15.2983904682274 18.0859375  C 15.4638726309922 18.2508680555557  15.6598383500557 18.3333333333333  15.8862876254179 18.3333333333333  C 16.1127369007804 18.3333333333333  16.3087026198439 18.2508680555557  16.4741847826085 18.0859375  Z M 19.8186663879599 18.0859375  C 19.9841485507245 17.9210069444443  20.066889632107 17.7256944444443  20.066889632107 17.5  C 20.066889632107 17.2743055555557  19.9841485507245 17.0789930555557  19.8186663879599 16.9140625  C 19.653184225195 16.7491319444443  19.4572185061315 16.6666666666667  19.2307692307691 16.6666666666667  C 19.0043199554068 16.6666666666667  18.8083542363433 16.7491319444443  18.6428720735785 16.9140625  C 18.4773899108138 17.0789930555557  18.3946488294314 17.2743055555557  18.3946488294314 17.5  C 18.3946488294314 17.7256944444443  18.4773899108138 17.9210069444443  18.6428720735785 18.0859375  C 18.8083542363433 18.2508680555557  19.0043199554068 18.3333333333333  19.2307692307691 18.3333333333333  C 19.4572185061315 18.3333333333333  19.653184225195 18.2508680555557  19.8186663879599 18.0859375  Z M 21.3733277591973 13.6979166666667  C 21.6171962095875 13.9409722222222  21.7391304347825 14.2361111111111  21.7391304347825 14.5833333333333  L 21.7391304347825 18.75  C 21.7391304347825 19.0972222222222  21.6171962095875 19.3923611111111  21.3733277591973 19.6354166666667  C 21.1294593088071 19.8784722222222  20.8333333333333 20  20.4849498327758 20  L 1.25418060200673 20  C 0.905797101449252 20  0.60967112597541 19.8784722222222  0.365802675585201 19.6354166666667  C 0.121934225194991 19.3923611111111  0 19.0972222222222  0 18.75  L 0 14.5833333333333  C 0 14.2361111111111  0.121934225194991 13.9409722222222  0.365802675585201 13.6979166666667  C 0.60967112597541 13.4548611111111  0.905797101449252 13.3333333333333  1.25418060200673 13.3333333333333  L 7.32911789297646 13.3333333333333  L 9.09280936454843 15.1041666666667  C 9.5979654403568 15.5902777777778  10.1902173913043 15.8333333333333  10.8695652173913 15.8333333333333  C 11.5489130434783 15.8333333333333  12.1411649944257 15.5902777777778  12.6463210702341 15.1041666666667  L 14.4230769230769 13.3333333333333  L 20.4849498327758 13.3333333333333  C 20.8333333333333 13.3333333333333  21.1294593088071 13.4548611111111  21.3733277591973 13.6979166666667  Z M 16.7224080267558 6.66666666666674  C 17.088210702341 6.66666666666674  17.3451435340021 6.8359375  17.493206521739 7.17447916666674  C 17.6412695094759 7.53038194444434  17.5803023968783 7.83420138888891  17.3103051839464 8.0859375  L 11.4574623745818 13.9192708333333  C 11.3006897993309 14.0842013888889  11.1047240802675 14.1666666666667  10.8695652173913 14.1666666666667  C 10.634406354515 14.1666666666667  10.4384406354516 14.0842013888889  10.2816680602007 13.9192708333333  L 4.4288252508361 8.0859375  C 4.15882803790419 7.83420138888891  4.09786092530658 7.53038194444434  4.2459239130435 7.17447916666674  C 4.39398690078042 6.8359375  4.65091973244148 6.66666666666674  5.01672240802668 6.66666666666674  L 8.3612040133778 6.66666666666674  L 8.3612040133778 0.833333333333258  C 8.3612040133778 0.607638888888914  8.44394509476024 0.412326388888914  8.60942725752511 0.247395833333258  C 8.77490942028976 0.0824652777778283  8.97087513935344 0  9.19732441471569 0  L 12.5418060200668 0  C 12.7682552954291 0  12.9642210144928 0.0824652777778283  13.1297031772574 0.247395833333258  C 13.2951853400223 0.412326388888914  13.3779264214047 0.607638888888914  13.3779264214047 0.833333333333258  L 13.3779264214047 6.66666666666674  L 16.7224080267558 6.66666666666674  Z " fill-rule="nonzero" fill="#000000" stroke="none" transform="matrix(1 0 0 1 1762 887 )" />
  </g>
</svg>