<?xml version="1.0" encoding="utf-8"?>
<svg version="1.1" xmlns:xlink="http://www.w3.org/1999/xlink" width="12px" height="12px" viewBox="267 280  12 12" xmlns="http://www.w3.org/2000/svg">
  <path d="M 273 280  C 276.36 280  279 282.64  279 286  C 279 289.36  276.36 292  273 292  C 269.64 292  267 289.36  267 286  C 267 282.64  269.64 280  273 280  Z " fill-rule="nonzero" fill="#ffffff" stroke="none" />
  <path d="M 273 280.5  C 276.08 280.5  278.5 282.92  278.5 286  C 278.5 289.08  276.08 291.5  273 291.5  C 269.92 291.5  267.5 289.08  267.5 286  C 267.5 282.92  269.92 280.5  273 280.5  Z " stroke-width="1" stroke="#797979" fill="none" />
  <path d="M 273 289  C 271.32 289  270 287.68  270 286  C 270 284.32  271.32 283  273 283  C 274.68 283  276 284.32  276 286  C 276 287.68  274.68 289  273 289  " fill-rule="nonzero" fill="#797979" stroke="none" />
</svg>