<?xml version="1.0" encoding="utf-8"?>
<svg version="1.1" xmlns:xlink="http://www.w3.org/1999/xlink" width="12px" height="12px" viewBox="394 710  12 12" xmlns="http://www.w3.org/2000/svg">
  <path d="M 400 710  C 403.36 710  406 712.64  406 716  C 406 719.36  403.36 722  400 722  C 396.64 722  394 719.36  394 716  C 394 712.64  396.64 710  400 710  Z " fill-rule="nonzero" fill="#f0f0f0" stroke="none" />
  <path d="M 400 710.5  C 403.08 710.5  405.5 712.92  405.5 716  C 405.5 719.08  403.08 721.5  400 721.5  C 396.92 721.5  394.5 719.08  394.5 716  C 394.5 712.92  396.92 710.5  400 710.5  Z " stroke-width="1" stroke="#797979" fill="none" />
  <path d="M 400 719  C 398.32 719  397 717.68  397 716  C 397 714.32  398.32 713  400 713  C 401.68 713  403 714.32  403 716  C 403 717.68  401.68 719  400 719  " fill-rule="nonzero" fill="#797979" stroke="none" />
</svg>