<?xml version="1.0" encoding="utf-8"?>
<svg version="1.1" xmlns:xlink="http://www.w3.org/1999/xlink" width="12px" height="12px" viewBox="934 620  12 12" xmlns="http://www.w3.org/2000/svg">
  <path d="M 940 620  C 943.36 620  946 622.64  946 626  C 946 629.36  943.36 632  940 632  C 936.64 632  934 629.36  934 626  C 934 622.64  936.64 620  940 620  Z " fill-rule="nonzero" fill="#ffffff" stroke="none" />
  <path d="M 940 620.5  C 943.08 620.5  945.5 622.92  945.5 626  C 945.5 629.08  943.08 631.5  940 631.5  C 936.92 631.5  934.5 629.08  934.5 626  C 934.5 622.92  936.92 620.5  940 620.5  Z " stroke-width="1" stroke="#797979" fill="none" />
  <path d="M 940 629  C 938.32 629  937 627.68  937 626  C 937 624.32  938.32 623  940 623  C 941.68 623  943 624.32  943 626  C 943 627.68  941.68 629  940 629  " fill-rule="nonzero" fill="#797979" stroke="none" />
</svg>