<?xml version="1.0" encoding="utf-8"?>
<svg version="1.1" xmlns:xlink="http://www.w3.org/1999/xlink" width="12px" height="12px" viewBox="171 383  12 12" xmlns="http://www.w3.org/2000/svg">
  <path d="M 177 383  C 180.36 383  183 385.64  183 389  C 183 392.36  180.36 395  177 395  C 173.64 395  171 392.36  171 389  C 171 385.64  173.64 383  177 383  Z " fill-rule="nonzero" fill="#f0f0f0" stroke="none" />
  <path d="M 177 383.5  C 180.08 383.5  182.5 385.92  182.5 389  C 182.5 392.08  180.08 394.5  177 394.5  C 173.92 394.5  171.5 392.08  171.5 389  C 171.5 385.92  173.92 383.5  177 383.5  Z " stroke-width="1" stroke="#797979" fill="none" />
  <path d="M 177 392  C 175.32 392  174 390.68  174 389  C 174 387.32  175.32 386  177 386  C 178.68 386  180 387.32  180 389  C 180 390.68  178.68 392  177 392  " fill-rule="nonzero" fill="#797979" stroke="none" />
</svg>