<?xml version="1.0" encoding="utf-8"?>
<svg version="1.1" xmlns:xlink="http://www.w3.org/1999/xlink" width="12px" height="12px" viewBox="1129 622  12 12" xmlns="http://www.w3.org/2000/svg">
  <path d="M 1135 622  C 1138.36 622  1141 624.64  1141 628  C 1141 631.36  1138.36 634  1135 634  C 1131.64 634  1129 631.36  1129 628  C 1129 624.64  1131.64 622  1135 622  Z " fill-rule="nonzero" fill="#ffffff" stroke="none" />
  <path d="M 1135 622.5  C 1138.08 622.5  1140.5 624.92  1140.5 628  C 1140.5 631.08  1138.08 633.5  1135 633.5  C 1131.92 633.5  1129.5 631.08  1129.5 628  C 1129.5 624.92  1131.92 622.5  1135 622.5  Z " stroke-width="1" stroke="#797979" fill="none" />
  <path d="M 1135 631  C 1133.32 631  1132 629.68  1132 628  C 1132 626.32  1133.32 625  1135 625  C 1136.68 625  1138 626.32  1138 628  C 1138 629.68  1136.68 631  1135 631  " fill-rule="nonzero" fill="#797979" stroke="none" />
</svg>