<svg t="1611368895866" class="icon" viewBox="0 0 1024 1024" version="1.1" xmlns="http://www.w3.org/2000/svg" p-id="4523" width="200" height="200"><path d="M707 992H317c-51.3 0-93.5-40.2-95.9-91.4l-29.1-611c-0.8-17.7 12.8-32.7 30.4-33.5 17.5-1.1 32.7 12.8 33.5 30.4l29.1 611c0.8 17.1 14.8 30.5 32 30.5h390c17.1 0 31.2-13.4 32-30.5l29.1-611c0.8-17.7 16.4-31.2 33.5-30.4 17.7 0.8 31.3 15.8 30.4 33.5l-29.1 611c-2.5 51.2-44.6 91.4-95.9 91.4z m157-800H160c-17.7 0-32-14.3-32-32s14.3-32 32-32h704c17.7 0 32 14.3 32 32s-14.3 32-32 32zM576 96H448c-17.7 0-32-14.3-32-32s14.3-32 32-32h128c17.7 0 32 14.3 32 32s-14.3 32-32 32z" p-id="4524" fill="#8a8a8a"></path><path d="M448 768c-17.7 0-32-14.3-32-32V384c0-17.7 14.3-32 32-32s32 14.3 32 32v352c0 17.7-14.3 32-32 32z m128 0c-17.7 0-32-14.3-32-32V384c0-17.7 14.3-32 32-32s32 14.3 32 32v352c0 17.7-14.3 32-32 32z" p-id="4525" fill="#8a8a8a"></path></svg>