<svg t="1611368856512" class="icon" viewBox="0 0 1024 1024" version="1.1" xmlns="http://www.w3.org/2000/svg" p-id="3132" width="200" height="200"><path d="M641.648 168.592 855.36 382.32 385.2 852.528 171.456 638.784 641.648 168.592z" p-id="3133" fill="#bfbfbf"></path><path d="M727.136 83.136l213.744 213.728-64.128 64.08L663.008 147.216 727.136 83.136z" p-id="3134" fill="#bfbfbf"></path><path d="M150.096 660.176l213.728 213.712L64.608 959.392 150.096 660.176z" p-id="3135" fill="#bfbfbf"></path><path d="M809.984 80.432l133.584 133.6c22.112 22.096 20.928 59.216-2.672 82.832-23.648 23.6-60.704 24.784-82.832 2.64l-133.616-133.552c-22.112-22.16-20.928-59.216 2.688-82.816C750.768 59.52 787.824 58.336 809.984 80.432z" p-id="3136" fill="#bfbfbf"></path></svg>