<?xml version="1.0" encoding="utf-8"?>
<svg version="1.1" xmlns:xlink="http://www.w3.org/1999/xlink" width="12px" height="12px" viewBox="402 763  12 12" xmlns="http://www.w3.org/2000/svg">
  <path d="M 408 763  C 411.36 763  414 765.64  414 769  C 414 772.36  411.36 775  408 775  C 404.64 775  402 772.36  402 769  C 402 765.64  404.64 763  408 763  Z " fill-rule="nonzero" fill="#ffffff" stroke="none" />
  <path d="M 408 763.5  C 411.08 763.5  413.5 765.92  413.5 769  C 413.5 772.08  411.08 774.5  408 774.5  C 404.92 774.5  402.5 772.08  402.5 769  C 402.5 765.92  404.92 763.5  408 763.5  Z " stroke-width="1" stroke="#797979" fill="none" />
  <path d="M 408 772  C 406.32 772  405 770.68  405 769  C 405 767.32  406.32 766  408 766  C 409.68 766  411 767.32  411 769  C 411 770.68  409.68 772  408 772  " fill-rule="nonzero" fill="#797979" stroke="none" />
</svg>