<?xml version="1.0" encoding="utf-8"?>
<svg version="1.1" xmlns:xlink="http://www.w3.org/1999/xlink" width="12px" height="12px" viewBox="302 763  12 12" xmlns="http://www.w3.org/2000/svg">
  <path d="M 308 763  C 311.36 763  314 765.64  314 769  C 314 772.36  311.36 775  308 775  C 304.64 775  302 772.36  302 769  C 302 765.64  304.64 763  308 763  Z " fill-rule="nonzero" fill="#f0f0f0" stroke="none" />
  <path d="M 308 763.5  C 311.08 763.5  313.5 765.92  313.5 769  C 313.5 772.08  311.08 774.5  308 774.5  C 304.92 774.5  302.5 772.08  302.5 769  C 302.5 765.92  304.92 763.5  308 763.5  Z " stroke-width="1" stroke="#797979" fill="none" />
  <path d="M 308 772  C 306.32 772  305 770.68  305 769  C 305 767.32  306.32 766  308 766  C 309.68 766  311 767.32  311 769  C 311 770.68  309.68 772  308 772  " fill-rule="nonzero" fill="#797979" stroke="none" />
</svg>