<?xml version="1.0" encoding="utf-8"?>
<svg version="1.1" xmlns:xlink="http://www.w3.org/1999/xlink" width="12px" height="12px" viewBox="82 609  12 12" xmlns="http://www.w3.org/2000/svg">
  <path d="M 88 609  C 91.36 609  94 611.64  94 615  C 94 618.36  91.36 621  88 621  C 84.64 621  82 618.36  82 615  C 82 611.64  84.64 609  88 609  Z " fill-rule="nonzero" fill="#ffffff" stroke="none" />
  <path d="M 88 609.5  C 91.08 609.5  93.5 611.92  93.5 615  C 93.5 618.08  91.08 620.5  88 620.5  C 84.92 620.5  82.5 618.08  82.5 615  C 82.5 611.92  84.92 609.5  88 609.5  Z " stroke-width="1" stroke="#797979" fill="none" />
  <path d="M 88 618  C 86.32 618  85 616.68  85 615  C 85 613.32  86.32 612  88 612  C 89.68 612  91 613.32  91 615  C 91 616.68  89.68 618  88 618  " fill-rule="nonzero" fill="#797979" stroke="none" />
</svg>