<svg t="1610944630363" class="icon" viewBox="0 0 1024 1024" version="1.1" xmlns="http://www.w3.org/2000/svg" p-id="3256" width="200" height="200"><path d="M774.144 354.304H249.856c-19.456 0-34.816-15.36-34.816-34.816V105.472c0-19.456 15.36-34.816 34.816-34.816h523.264c19.456 0 34.816 15.36 34.816 34.816v212.992c1.024 19.456-14.336 35.84-33.792 35.84z m-489.472-70.656h453.632v-143.36H284.672v143.36zM774.144 953.344H249.856c-19.456 0-34.816-15.36-34.816-34.816V599.04c0-19.456 15.36-34.816 34.816-34.816h523.264c19.456 0 34.816 15.36 34.816 34.816v319.488c1.024 19.456-14.336 34.816-33.792 34.816z m-489.472-69.632h453.632V633.856H284.672v249.856zM490.496 494.592H277.504c-19.456 0-34.816-15.36-34.816-34.816s15.36-34.816 34.816-34.816h212.992c19.456 0 34.816 15.36 34.816 34.816s-15.36 34.816-34.816 34.816z" p-id="3257" fill="#bfbfbf"></path><path d="M910.336 740.352H774.144c-19.456 0-34.816-15.36-34.816-34.816s15.36-34.816 34.816-34.816h101.376V411.648c0-31.744-25.6-58.368-58.368-58.368H206.848c-31.744 0-58.368 25.6-58.368 58.368v258.048h101.376c19.456 0 34.816 15.36 34.816 34.816s-15.36 34.816-34.816 34.816H113.664c-19.456 0-34.816-15.36-34.816-34.816V411.648c0-70.656 57.344-128 128-128h609.28c70.656 0 128 57.344 128 128v292.864c1.024 19.456-15.36 35.84-33.792 35.84z" p-id="3258" fill="#bfbfbf"></path></svg>