<?xml version="1.0" encoding="utf-8"?>
<svg version="1.1" xmlns:xlink="http://www.w3.org/1999/xlink" width="192px" height="200px" xmlns="http://www.w3.org/2000/svg">
  <g transform="matrix(1 0 0 1 -1258 -77 )">
    <path d="M 1258 77  L 1450 77  L 1450 277  L 1258 277  L 1258 77  " fill-rule="nonzero" fill="#cccccc" stroke="none" />
    <path d="M 1271 90  L 1437 90  L 1437 264  L 1271 264  L 1271 90  " fill-rule="nonzero" fill="#ffffff" stroke="none" />
    <path d="M 1372.24 135.8  C 1364.176 135.8  1357.84 129.464  1357.84 121.4  C 1357.84 113.336  1364.176 107  1372.24 107  C 1380.304 107  1386.64 113.336  1386.64 121.4  C 1386.64 129.464  1380.304 135.8  1372.24 135.8  " fill-rule="nonzero" fill="#cccccc" stroke="none" />
    <path d="M 1276 259  L 1276 168.8  L 1315 127.8  L 1369.6 160.6  L 1400.8 152.4  L 1432 160.6  L 1432 259  L 1276 259  " fill-rule="nonzero" fill="#169bd5" stroke="none" />
  </g>
</svg>