<?xml version="1.0" encoding="utf-8"?>
<svg version="1.1" xmlns:xlink="http://www.w3.org/1999/xlink" width="12px" height="12px" viewBox="215 595  12 12" xmlns="http://www.w3.org/2000/svg">
  <path d="M 221 595  C 224.36 595  227 597.64  227 601  C 227 604.36  224.36 607  221 607  C 217.64 607  215 604.36  215 601  C 215 597.64  217.64 595  221 595  Z " fill-rule="nonzero" fill="#ffffff" stroke="none" />
  <path d="M 221 595.5  C 224.08 595.5  226.5 597.92  226.5 601  C 226.5 604.08  224.08 606.5  221 606.5  C 217.92 606.5  215.5 604.08  215.5 601  C 215.5 597.92  217.92 595.5  221 595.5  Z " stroke-width="1" stroke="#797979" fill="none" />
  <path d="M 221 604  C 219.32 604  218 602.68  218 601  C 218 599.32  219.32 598  221 598  C 222.68 598  224 599.32  224 601  C 224 602.68  222.68 604  221 604  " fill-rule="nonzero" fill="#797979" stroke="none" />
</svg>