<?xml version="1.0" encoding="utf-8"?>
<svg version="1.1" xmlns:xlink="http://www.w3.org/1999/xlink" width="12px" height="12px" viewBox="216 531  12 12" xmlns="http://www.w3.org/2000/svg">
  <path d="M 222 531  C 225.36 531  228 533.64  228 537  C 228 540.36  225.36 543  222 543  C 218.64 543  216 540.36  216 537  C 216 533.64  218.64 531  222 531  Z " fill-rule="nonzero" fill="#ffffff" stroke="none" />
  <path d="M 222 531.5  C 225.08 531.5  227.5 533.92  227.5 537  C 227.5 540.08  225.08 542.5  222 542.5  C 218.92 542.5  216.5 540.08  216.5 537  C 216.5 533.92  218.92 531.5  222 531.5  Z " stroke-width="1" stroke="#797979" fill="none" />
  <path d="M 222 540  C 220.32 540  219 538.68  219 537  C 219 535.32  220.32 534  222 534  C 223.68 534  225 535.32  225 537  C 225 538.68  223.68 540  222 540  " fill-rule="nonzero" fill="#797979" stroke="none" />
</svg>