<?xml version="1.0" encoding="utf-8"?>
<svg version="1.1" xmlns:xlink="http://www.w3.org/1999/xlink" width="12px" height="12px" viewBox="215 568  12 12" xmlns="http://www.w3.org/2000/svg">
  <path d="M 221 568  C 224.36 568  227 570.64  227 574  C 227 577.36  224.36 580  221 580  C 217.64 580  215 577.36  215 574  C 215 570.64  217.64 568  221 568  Z " fill-rule="nonzero" fill="#ffffff" stroke="none" />
  <path d="M 221 568.5  C 224.08 568.5  226.5 570.92  226.5 574  C 226.5 577.08  224.08 579.5  221 579.5  C 217.92 579.5  215.5 577.08  215.5 574  C 215.5 570.92  217.92 568.5  221 568.5  Z " stroke-width="1" stroke="#797979" fill="none" />
  <path d="M 221 577  C 219.32 577  218 575.68  218 574  C 218 572.32  219.32 571  221 571  C 222.68 571  224 572.32  224 574  C 224 575.68  222.68 577  221 577  " fill-rule="nonzero" fill="#797979" stroke="none" />
</svg>