<?xml version="1.0" encoding="utf-8"?>
<svg version="1.1" xmlns:xlink="http://www.w3.org/1999/xlink" width="12px" height="12px" viewBox="930 265  12 12" xmlns="http://www.w3.org/2000/svg">
  <path d="M 936 265  C 939.36 265  942 267.64  942 271  C 942 274.36  939.36 277  936 277  C 932.64 277  930 274.36  930 271  C 930 267.64  932.64 265  936 265  Z " fill-rule="nonzero" fill="#ffffff" stroke="none" />
  <path d="M 936 265.5  C 939.08 265.5  941.5 267.92  941.5 271  C 941.5 274.08  939.08 276.5  936 276.5  C 932.92 276.5  930.5 274.08  930.5 271  C 930.5 267.92  932.92 265.5  936 265.5  Z " stroke-width="1" stroke="#797979" fill="none" />
  <path d="M 936 274  C 934.32 274  933 272.68  933 271  C 933 269.32  934.32 268  936 268  C 937.68 268  939 269.32  939 271  C 939 272.68  937.68 274  936 274  " fill-rule="nonzero" fill="#797979" stroke="none" />
</svg>