<?xml version="1.0" encoding="utf-8"?>
<svg version="1.1" xmlns:xlink="http://www.w3.org/1999/xlink" width="12px" height="12px" viewBox="215 622  12 12" xmlns="http://www.w3.org/2000/svg">
  <path d="M 221 622  C 224.36 622  227 624.64  227 628  C 227 631.36  224.36 634  221 634  C 217.64 634  215 631.36  215 628  C 215 624.64  217.64 622  221 622  Z " fill-rule="nonzero" fill="#ffffff" stroke="none" />
  <path d="M 221 622.5  C 224.08 622.5  226.5 624.92  226.5 628  C 226.5 631.08  224.08 633.5  221 633.5  C 217.92 633.5  215.5 631.08  215.5 628  C 215.5 624.92  217.92 622.5  221 622.5  Z " stroke-width="1" stroke="#797979" fill="none" />
  <path d="M 221 631  C 219.32 631  218 629.68  218 628  C 218 626.32  219.32 625  221 625  C 222.68 625  224 626.32  224 628  C 224 629.68  222.68 631  221 631  " fill-rule="nonzero" fill="#797979" stroke="none" />
</svg>