<?xml version="1.0" encoding="utf-8"?>
<svg version="1.1" xmlns:xlink="http://www.w3.org/1999/xlink" width="12px" height="12px" viewBox="863 265  12 12" xmlns="http://www.w3.org/2000/svg">
  <path d="M 869 265  C 872.36 265  875 267.64  875 271  C 875 274.36  872.36 277  869 277  C 865.64 277  863 274.36  863 271  C 863 267.64  865.64 265  869 265  Z " fill-rule="nonzero" fill="#ffffff" stroke="none" />
  <path d="M 869 265.5  C 872.08 265.5  874.5 267.92  874.5 271  C 874.5 274.08  872.08 276.5  869 276.5  C 865.92 276.5  863.5 274.08  863.5 271  C 863.5 267.92  865.92 265.5  869 265.5  Z " stroke-width="1" stroke="#797979" fill="none" />
  <path d="M 869 274  C 867.32 274  866 272.68  866 271  C 866 269.32  867.32 268  869 268  C 870.68 268  872 269.32  872 271  C 872 272.68  870.68 274  869 274  " fill-rule="nonzero" fill="#797979" stroke="none" />
</svg>