<?xml version="1.0" encoding="utf-8"?>
<svg version="1.1" xmlns:xlink="http://www.w3.org/1999/xlink" width="12px" height="12px" viewBox="158 339  12 12" xmlns="http://www.w3.org/2000/svg">
  <path d="M 164 339  C 167.36 339  170 341.64  170 345  C 170 348.36  167.36 351  164 351  C 160.64 351  158 348.36  158 345  C 158 341.64  160.64 339  164 339  Z " fill-rule="nonzero" fill="#f0f0f0" stroke="none" />
  <path d="M 164 339.5  C 167.08 339.5  169.5 341.92  169.5 345  C 169.5 348.08  167.08 350.5  164 350.5  C 160.92 350.5  158.5 348.08  158.5 345  C 158.5 341.92  160.92 339.5  164 339.5  Z " stroke-width="1" stroke="#797979" fill="none" />
  <path d="M 164 348  C 162.32 348  161 346.68  161 345  C 161 343.32  162.32 342  164 342  C 165.68 342  167 343.32  167 345  C 167 346.68  165.68 348  164 348  " fill-rule="nonzero" fill="#797979" stroke="none" />
</svg>