<?xml version="1.0" encoding="utf-8"?>
<svg version="1.1" xmlns:xlink="http://www.w3.org/1999/xlink" width="12px" height="12px" viewBox="158 376  12 12" xmlns="http://www.w3.org/2000/svg">
  <path d="M 164 376  C 167.36 376  170 378.64  170 382  C 170 385.36  167.36 388  164 388  C 160.64 388  158 385.36  158 382  C 158 378.64  160.64 376  164 376  Z " fill-rule="nonzero" fill="#ffffff" stroke="none" />
  <path d="M 164 376.5  C 167.08 376.5  169.5 378.92  169.5 382  C 169.5 385.08  167.08 387.5  164 387.5  C 160.92 387.5  158.5 385.08  158.5 382  C 158.5 378.92  160.92 376.5  164 376.5  Z " stroke-width="1" stroke="#797979" fill="none" />
  <path d="M 164 385  C 162.32 385  161 383.68  161 382  C 161 380.32  162.32 379  164 379  C 165.68 379  167 380.32  167 382  C 167 383.68  165.68 385  164 385  " fill-rule="nonzero" fill="#797979" stroke="none" />
</svg>