<?xml version="1.0" encoding="utf-8"?>
<svg version="1.1" xmlns:xlink="http://www.w3.org/1999/xlink" width="12px" height="12px" viewBox="158 277  12 12" xmlns="http://www.w3.org/2000/svg">
  <path d="M 164 277  C 167.36 277  170 279.64  170 283  C 170 286.36  167.36 289  164 289  C 160.64 289  158 286.36  158 283  C 158 279.64  160.64 277  164 277  Z " fill-rule="nonzero" fill="#f0f0f0" stroke="none" />
  <path d="M 164 277.5  C 167.08 277.5  169.5 279.92  169.5 283  C 169.5 286.08  167.08 288.5  164 288.5  C 160.92 288.5  158.5 286.08  158.5 283  C 158.5 279.92  160.92 277.5  164 277.5  Z " stroke-width="1" stroke="#797979" fill="none" />
  <path d="M 164 286  C 162.32 286  161 284.68  161 283  C 161 281.32  162.32 280  164 280  C 165.68 280  167 281.32  167 283  C 167 284.68  165.68 286  164 286  " fill-rule="nonzero" fill="#797979" stroke="none" />
</svg>