<?xml version="1.0" encoding="utf-8"?>
<svg version="1.1" xmlns:xlink="http://www.w3.org/1999/xlink" width="12px" height="12px" viewBox="158 307  12 12" xmlns="http://www.w3.org/2000/svg">
  <path d="M 164 307  C 167.36 307  170 309.64  170 313  C 170 316.36  167.36 319  164 319  C 160.64 319  158 316.36  158 313  C 158 309.64  160.64 307  164 307  Z " fill-rule="nonzero" fill="#ffffff" stroke="none" />
  <path d="M 164 307.5  C 167.08 307.5  169.5 309.92  169.5 313  C 169.5 316.08  167.08 318.5  164 318.5  C 160.92 318.5  158.5 316.08  158.5 313  C 158.5 309.92  160.92 307.5  164 307.5  Z " stroke-width="1" stroke="#797979" fill="none" />
  <path d="M 164 316  C 162.32 316  161 314.68  161 313  C 161 311.32  162.32 310  164 310  C 165.68 310  167 311.32  167 313  C 167 314.68  165.68 316  164 316  " fill-rule="nonzero" fill="#797979" stroke="none" />
</svg>