<?xml version="1.0" encoding="utf-8"?>
<svg version="1.1" xmlns:xlink="http://www.w3.org/1999/xlink" width="12px" height="12px" viewBox="1451 196  12 12" xmlns="http://www.w3.org/2000/svg">
  <path d="M 1457 196  C 1460.36 196  1463 198.64  1463 202  C 1463 205.36  1460.36 208  1457 208  C 1453.64 208  1451 205.36  1451 202  C 1451 198.64  1453.64 196  1457 196  Z " fill-rule="nonzero" fill="#f0f0f0" stroke="none" />
  <path d="M 1457 196.5  C 1460.08 196.5  1462.5 198.92  1462.5 202  C 1462.5 205.08  1460.08 207.5  1457 207.5  C 1453.92 207.5  1451.5 205.08  1451.5 202  C 1451.5 198.92  1453.92 196.5  1457 196.5  Z " stroke-width="1" stroke="#797979" fill="none" />
  <path d="M 1457 205  C 1455.32 205  1454 203.68  1454 202  C 1454 200.32  1455.32 199  1457 199  C 1458.68 199  1460 200.32  1460 202  C 1460 203.68  1458.68 205  1457 205  " fill-rule="nonzero" fill="#797979" stroke="none" />
</svg>