<?xml version="1.0" encoding="utf-8"?>
<svg version="1.1" xmlns:xlink="http://www.w3.org/1999/xlink" width="12px" height="12px" viewBox="1451 223  12 12" xmlns="http://www.w3.org/2000/svg">
  <path d="M 1457 223  C 1460.36 223  1463 225.64  1463 229  C 1463 232.36  1460.36 235  1457 235  C 1453.64 235  1451 232.36  1451 229  C 1451 225.64  1453.64 223  1457 223  Z " fill-rule="nonzero" fill="#f0f0f0" stroke="none" />
  <path d="M 1457 223.5  C 1460.08 223.5  1462.5 225.92  1462.5 229  C 1462.5 232.08  1460.08 234.5  1457 234.5  C 1453.92 234.5  1451.5 232.08  1451.5 229  C 1451.5 225.92  1453.92 223.5  1457 223.5  Z " stroke-width="1" stroke="#797979" fill="none" />
  <path d="M 1457 232  C 1455.32 232  1454 230.68  1454 229  C 1454 227.32  1455.32 226  1457 226  C 1458.68 226  1460 227.32  1460 229  C 1460 230.68  1458.68 232  1457 232  " fill-rule="nonzero" fill="#797979" stroke="none" />
</svg>