<?xml version="1.0" encoding="utf-8"?>
<svg version="1.1" xmlns:xlink="http://www.w3.org/1999/xlink" width="1454px" height="55px" xmlns="http://www.w3.org/2000/svg">
  <g transform="matrix(1 0 0 1 -100 -321 )">
    <path d="M 100 321  L 1554 321  L 1554 376  L 100 376  L 100 321  " fill-rule="nonzero" fill="#cccccc" stroke="none" />
    <path d="M 104 325  L 1550 325  L 1550 372  L 104 372  L 104 325  " fill-rule="nonzero" fill="#ffffff" stroke="none" />
    <path d="M 860.205 337.5  C 857.895 337.5  856.08 335.685  856.08 333.375  C 856.08 331.065  857.895 329.25  860.205 329.25  C 862.515 329.25  864.33 331.065  864.33 333.375  C 864.33 335.685  862.515 337.5  860.205 337.5  " fill-rule="nonzero" fill="#cccccc" stroke="none" />
    <path d="M 106 371  L 106 346.8  L 466.75 335.8  L 971.8 370.001375515818  L 1260.4 342.4  L 1549 370.001375515818  L 1549 371  L 106 371  " fill-rule="nonzero" fill="#169bd5" stroke="none" />
  </g>
</svg>