<?xml version="1.0" encoding="utf-8"?>
<svg version="1.1" xmlns:xlink="http://www.w3.org/1999/xlink" width="496px" height="23px" xmlns="http://www.w3.org/2000/svg">
  <defs>
    <mask fill="white" id="clip45">
      <path d="M 22.3460945265106 7.23387096774194  L 22.3460945265106 0  L 496 0  L 496 23  L 22.3460945265106 23  L 20.7672481749323 14.6532258064516  L 0.346368715083713 15.5806451612903  L 22.3460945265106 7.23387096774194  Z " fill-rule="evenodd" />
    </mask>
  </defs>
  <g transform="matrix(1 0 0 1 -192 -60 )">
    <path d="M 22.3460945265106 7.23387096774194  L 22.3460945265106 0  L 496 0  L 496 23  L 22.3460945265106 23  L 20.7672481749323 14.6532258064516  L 0.346368715083713 15.5806451612903  L 22.3460945265106 7.23387096774194  Z " fill-rule="nonzero" fill="#ffffff" stroke="none" transform="matrix(1 0 0 1 192 60 )" />
    <path d="M 22.3460945265106 7.23387096774194  L 22.3460945265106 0  L 496 0  L 496 23  L 22.3460945265106 23  L 20.7672481749323 14.6532258064516  L 0.346368715083713 15.5806451612903  L 22.3460945265106 7.23387096774194  Z " stroke-width="2" stroke="#ffa87d" fill="none" transform="matrix(1 0 0 1 192 60 )" mask="url(#clip45)" />
  </g>
</svg>