<svg t="1615369678706" class="icon" viewBox="0 0 1024 1024" version="1.1" xmlns="http://www.w3.org/2000/svg" p-id="6505" width="200" height="200"><path d="M571.757714 302.957714a56.905143 56.905143 0 1 1 0-113.956571c31.451429 0 56.905143 25.453714 56.905143 57.051428a56.173714 56.173714 0 0 1-56.905143 56.905143m32.036572 115.565715l-64.731429 353.426285a20.48 20.48 0 0 0 5.558857 18.285715 27.648 27.648 0 0 0 19.382857 7.68c8.777143 0 16.603429 6.582857 16.603429 14.409142 0 7.753143-7.241143 14.336-16.603429 14.336H490.422857a68.022857 68.022857 0 0 1-49.737143-20.48 54.418286 54.418286 0 0 1-14.994285-46.445714l64.731428-352.841143a20.48 20.48 0 0 0-5.485714-18.285714 27.648 27.648 0 0 0-19.382857-7.68c-8.850286 0-16.603429-6.582857-16.603429-14.409143 0-7.68 7.168-14.336 16.603429-14.336H539.062857a68.022857 68.022857 0 0 1 49.810286 20.48c12.141714 12.653714 17.700571 29.257143 14.921143 45.860572" fill="#FFA87D" p-id="6506"></path><path d="M512 1023.561143A512.146286 512.146286 0 0 1 0.438857 512 512.146286 512.146286 0 0 1 512 0.438857 512.146286 512.146286 0 0 1 1023.561143 512 512.146286 512.146286 0 0 1 512 1023.561143zM512 55.734857A456.704 456.704 0 0 0 55.734857 512 456.704 456.704 0 0 0 512 968.265143 456.704 456.704 0 0 0 968.265143 512 456.704 456.704 0 0 0 512 55.734857z" fill="#FFA87D" p-id="6507"></path></svg>