<svg t="1597393597943" class="icon" viewBox="0 0 1024 1024" version="1.1" xmlns="http://www.w3.org/2000/svg" p-id="5776" width="200" height="200"><path d="M884.363636 1024H139.636364a139.636364 139.636364 0 0 1-139.636364-139.636364v-279.272727h93.090909v232.727273a93.090909 93.090909 0 0 0 93.090909 93.090909h651.636364a93.090909 93.090909 0 0 0 93.090909-93.090909v-232.727273h93.090909v279.272727a139.636364 139.636364 0 0 1-139.636364 139.636364zM558.545455 162.769455V744.727273h-93.09091V162.769455L163.141818 465.082182 93.463273 395.403636 488.494545 0.372364 512 23.877818l23.505455-23.505454 395.031272 395.031272-69.678545 69.678546L558.545455 162.769455z" fill="#1BB6EA" p-id="5777"></path></svg>