<svg t="1597393181187" class="icon" viewBox="0 0 1024 1024" version="1.1" xmlns="http://www.w3.org/2000/svg" p-id="2684" width="200" height="200"><path d="M490.666667 691.2c8.533333 12.8 29.866667 12.8 38.4 0l166.4-174.933333c4.266667-4.266667 8.533333-12.8 8.533333-21.333334s-4.266667-12.8-8.533333-21.333333c-12.8-12.8-29.866667-8.533333-38.4 0l-115.2 123.733333v-401.066666c0-17.066667-12.8-29.866667-29.866667-29.866667-17.066667 0-29.866667 12.8-29.866667 29.866667v401.066666l-115.2-123.733333c-4.266667-4.266667-12.8-8.533333-21.333333-8.533333s-12.8 4.266667-21.333333 8.533333c-4.266667 4.266667-8.533333 12.8-8.533334 21.333333s4.266667 17.066667 8.533334 21.333334l166.4 174.933333z" fill="#2674FA" p-id="2685"></path><path d="M823.466667 563.2c-17.066667 0-29.866667 12.8-29.866667 29.866667v200.533333h-571.733333v-200.533333c0-17.066667-12.8-29.866667-29.866667-29.866667-17.066667 0-29.866667 12.8-29.866667 29.866667v230.4c0 17.066667 12.8 29.866667 29.866667 29.866666h627.2c17.066667 0 29.866667-12.8 29.866667-29.866666v-230.4c4.266667-17.066667-8.533333-29.866667-25.6-29.866667z" fill="#2674FA" p-id="2686"></path></svg>