<?xml version="1.0" encoding="utf-8"?>
<svg version="1.1" xmlns:xlink="http://www.w3.org/1999/xlink" width="54px" height="54px" xmlns="http://www.w3.org/2000/svg">
  <g transform="matrix(1 0 0 1 -256 -318 )">
    <path d="M 283 318  C 298.12 318  310 329.88  310 345  C 310 360.12  298.12 372  283 372  C 267.88 372  256 360.12  256 345  C 256 329.88  267.88 318  283 318  Z " fill-rule="nonzero" fill="#f2f2f2" stroke="none" />
    <path d="M 283 318.5  C 297.84 318.5  309.5 330.16  309.5 345  C 309.5 359.84  297.84 371.5  283 371.5  C 268.16 371.5  256.5 359.84  256.5 345  C 256.5 330.16  268.16 318.5  283 318.5  Z " stroke-width="1" stroke="#797979" fill="none" />
  </g>
</svg>