<svg t="1586226031662" class="icon" viewBox="0 0 1024 1024" version="1.1" xmlns="http://www.w3.org/2000/svg" p-id="5433" width="200" height="200"><path d="M887.011 354.107c-20.511-48.423-49.759-91.872-87.139-129.251s-80.828-66.628-129.251-87.139c-50.123-21.238-103.402-31.918-158.257-31.918s-108.134 10.801-158.257 31.918c-48.423 20.511-91.872 49.759-129.251 87.139-37.379 37.379-66.628 80.828-87.139 129.251-21.238 50.123-31.918 103.402-31.918 158.257s10.801 108.134 31.918 158.257c20.511 48.423 49.759 91.872 87.139 129.251 37.379 37.379 80.828 66.628 129.251 87.139 50.123 21.238 103.402 31.918 158.257 31.918s108.134-10.801 158.257-31.918c48.423-20.511 91.872-49.759 129.251-87.139 37.379-37.379 66.628-80.828 87.139-129.251 21.238-50.123 31.918-103.402 31.918-158.257s-10.681-108.134-31.918-158.257zM512.364 860.675c-192.117 0-348.311-156.194-348.311-348.311s156.194-348.311 348.311-348.311 348.311 156.194 348.311 348.311c0 191.997-156.194 348.311-348.311 348.311z" fill="" p-id="5434"></path></svg>