<?xml version="1.0" encoding="utf-8"?>
<svg version="1.1" xmlns:xlink="http://www.w3.org/1999/xlink" width="12px" height="12px" viewBox="461 271  12 12" xmlns="http://www.w3.org/2000/svg">
  <path d="M 467 271  C 470.36 271  473 273.64  473 277  C 473 280.36  470.36 283  467 283  C 463.64 283  461 280.36  461 277  C 461 273.64  463.64 271  467 271  Z " fill-rule="nonzero" fill="#f0f0f0" stroke="none" />
  <path d="M 467 271.5  C 470.08 271.5  472.5 273.92  472.5 277  C 472.5 280.08  470.08 282.5  467 282.5  C 463.92 282.5  461.5 280.08  461.5 277  C 461.5 273.92  463.92 271.5  467 271.5  Z " stroke-width="1" stroke="#797979" fill="none" />
  <path d="M 467 280  C 465.32 280  464 278.68  464 277  C 464 275.32  465.32 274  467 274  C 468.68 274  470 275.32  470 277  C 470 278.68  468.68 280  467 280  " fill-rule="nonzero" fill="#797979" stroke="none" />
</svg>