<?xml version="1.0" encoding="utf-8"?>
<svg version="1.1" xmlns:xlink="http://www.w3.org/1999/xlink" width="12px" height="12px" viewBox="561 271  12 12" xmlns="http://www.w3.org/2000/svg">
  <path d="M 567 271  C 570.36 271  573 273.64  573 277  C 573 280.36  570.36 283  567 283  C 563.64 283  561 280.36  561 277  C 561 273.64  563.64 271  567 271  Z " fill-rule="nonzero" fill="#f0f0f0" stroke="none" />
  <path d="M 567 271.5  C 570.08 271.5  572.5 273.92  572.5 277  C 572.5 280.08  570.08 282.5  567 282.5  C 563.92 282.5  561.5 280.08  561.5 277  C 561.5 273.92  563.92 271.5  567 271.5  Z " stroke-width="1" stroke="#797979" fill="none" />
  <path d="M 567 280  C 565.32 280  564 278.68  564 277  C 564 275.32  565.32 274  567 274  C 568.68 274  570 275.32  570 277  C 570 278.68  568.68 280  567 280  " fill-rule="nonzero" fill="#797979" stroke="none" />
</svg>