<svg t="1611387749099" class="icon" viewBox="0 0 1024 1024" version="1.1" xmlns="http://www.w3.org/2000/svg" p-id="11446" width="200" height="200"><path d="M512 512m-11.36515253 0a11.36515253 11.36515253 0 1 0 22.73030506 0 11.36515253 11.36515253 0 1 0-22.73030506 0Z" fill="#0f66ff" p-id="11447"></path><path d="M512 256c23.552 0 42.666667 16.384 42.666667 36.565333V469.333333h176.768c18.773333 0 34.218667 16.469333 36.309333 37.674667L768 512c0 23.552-16.384 42.666667-36.565333 42.666667H554.666667v176.768c0 18.773333-16.469333 34.218667-37.674667 36.309333L512 768c-23.552 0-42.666667-16.384-42.666667-36.565333V554.666667H292.565333c-18.773333 0-34.218667-16.469333-36.309333-37.674667L256 512c0-23.552 16.384-42.666667 36.565333-42.666667H469.333333V292.565333c0-18.773333 16.469333-34.218667 37.674667-36.309333z" fill="#0f66ff" p-id="11448"></path></svg>