<?xml version="1.0" encoding="utf-8"?>
<svg version="1.1" xmlns:xlink="http://www.w3.org/1999/xlink" width="12px" height="12px" viewBox="306 339  12 12" xmlns="http://www.w3.org/2000/svg">
  <path d="M 312 339  C 315.36 339  318 341.64  318 345  C 318 348.36  315.36 351  312 351  C 308.64 351  306 348.36  306 345  C 306 341.64  308.64 339  312 339  Z " fill-rule="nonzero" fill="#ffffff" stroke="none" />
  <path d="M 312 339.5  C 315.08 339.5  317.5 341.92  317.5 345  C 317.5 348.08  315.08 350.5  312 350.5  C 308.92 350.5  306.5 348.08  306.5 345  C 306.5 341.92  308.92 339.5  312 339.5  Z " stroke-width="1" stroke="#797979" fill="none" />
  <path d="M 312 348  C 310.32 348  309 346.68  309 345  C 309 343.32  310.32 342  312 342  C 313.68 342  315 343.32  315 345  C 315 346.68  313.68 348  312 348  " fill-rule="nonzero" fill="#797979" stroke="none" />
</svg>