<?xml version="1.0" encoding="utf-8"?>
<svg version="1.1" xmlns:xlink="http://www.w3.org/1999/xlink" width="12px" height="12px" viewBox="218 339  12 12" xmlns="http://www.w3.org/2000/svg">
  <path d="M 224 339  C 227.36 339  230 341.64  230 345  C 230 348.36  227.36 351  224 351  C 220.64 351  218 348.36  218 345  C 218 341.64  220.64 339  224 339  Z " fill-rule="nonzero" fill="#f0f0f0" stroke="none" />
  <path d="M 224 339.5  C 227.08 339.5  229.5 341.92  229.5 345  C 229.5 348.08  227.08 350.5  224 350.5  C 220.92 350.5  218.5 348.08  218.5 345  C 218.5 341.92  220.92 339.5  224 339.5  Z " stroke-width="1" stroke="#797979" fill="none" />
  <path d="M 224 348  C 222.32 348  221 346.68  221 345  C 221 343.32  222.32 342  224 342  C 225.68 342  227 343.32  227 345  C 227 346.68  225.68 348  224 348  " fill-rule="nonzero" fill="#797979" stroke="none" />
</svg>