<?xml version="1.0" encoding="utf-8"?>
<svg version="1.1" xmlns:xlink="http://www.w3.org/1999/xlink" width="12px" height="12px" viewBox="397 575  12 12" xmlns="http://www.w3.org/2000/svg">
  <path d="M 403 575  C 406.36 575  409 577.64  409 581  C 409 584.36  406.36 587  403 587  C 399.64 587  397 584.36  397 581  C 397 577.64  399.64 575  403 575  Z " fill-rule="nonzero" fill="#f0f0f0" stroke="none" />
  <path d="M 403 575.5  C 406.08 575.5  408.5 577.92  408.5 581  C 408.5 584.08  406.08 586.5  403 586.5  C 399.92 586.5  397.5 584.08  397.5 581  C 397.5 577.92  399.92 575.5  403 575.5  Z " stroke-width="1" stroke="#797979" fill="none" />
  <path d="M 403 584  C 401.32 584  400 582.68  400 581  C 400 579.32  401.32 578  403 578  C 404.68 578  406 579.32  406 581  C 406 582.68  404.68 584  403 584  " fill-rule="nonzero" fill="#797979" stroke="none" />
</svg>