<?xml version="1.0" encoding="utf-8"?>
<svg version="1.1" xmlns:xlink="http://www.w3.org/1999/xlink" width="12px" height="12px" viewBox="376 223  12 12" xmlns="http://www.w3.org/2000/svg">
  <path d="M 382 223  C 385.36 223  388 225.64  388 229  C 388 232.36  385.36 235  382 235  C 378.64 235  376 232.36  376 229  C 376 225.64  378.64 223  382 223  Z " fill-rule="nonzero" fill="#f0f0f0" stroke="none" />
  <path d="M 382 223.5  C 385.08 223.5  387.5 225.92  387.5 229  C 387.5 232.08  385.08 234.5  382 234.5  C 378.92 234.5  376.5 232.08  376.5 229  C 376.5 225.92  378.92 223.5  382 223.5  Z " stroke-width="1" stroke="#797979" fill="none" />
  <path d="M 382 232  C 380.32 232  379 230.68  379 229  C 379 227.32  380.32 226  382 226  C 383.68 226  385 227.32  385 229  C 385 230.68  383.68 232  382 232  " fill-rule="nonzero" fill="#797979" stroke="none" />
</svg>