<?xml version="1.0" encoding="utf-8"?>
<svg version="1.1" xmlns:xlink="http://www.w3.org/1999/xlink" width="12px" height="12px" viewBox="611 223  12 12" xmlns="http://www.w3.org/2000/svg">
  <path d="M 617 223  C 620.36 223  623 225.64  623 229  C 623 232.36  620.36 235  617 235  C 613.64 235  611 232.36  611 229  C 611 225.64  613.64 223  617 223  Z " fill-rule="nonzero" fill="#ffffff" stroke="none" />
  <path d="M 617 223.5  C 620.08 223.5  622.5 225.92  622.5 229  C 622.5 232.08  620.08 234.5  617 234.5  C 613.92 234.5  611.5 232.08  611.5 229  C 611.5 225.92  613.92 223.5  617 223.5  Z " stroke-width="1" stroke="#797979" fill="none" />
  <path d="M 617 232  C 615.32 232  614 230.68  614 229  C 614 227.32  615.32 226  617 226  C 618.68 226  620 227.32  620 229  C 620 230.68  618.68 232  617 232  " fill-rule="nonzero" fill="#797979" stroke="none" />
</svg>