<?xml version="1.0" encoding="utf-8"?>
<svg version="1.1" xmlns:xlink="http://www.w3.org/1999/xlink" width="12px" height="12px" viewBox="847 193  12 12" xmlns="http://www.w3.org/2000/svg">
  <path d="M 853 193  C 856.36 193  859 195.64  859 199  C 859 202.36  856.36 205  853 205  C 849.64 205  847 202.36  847 199  C 847 195.64  849.64 193  853 193  Z " fill-rule="nonzero" fill="#f0f0f0" stroke="none" />
  <path d="M 853 193.5  C 856.08 193.5  858.5 195.92  858.5 199  C 858.5 202.08  856.08 204.5  853 204.5  C 849.92 204.5  847.5 202.08  847.5 199  C 847.5 195.92  849.92 193.5  853 193.5  Z " stroke-width="1" stroke="#797979" fill="none" />
  <path d="M 853 202  C 851.32 202  850 200.68  850 199  C 850 197.32  851.32 196  853 196  C 854.68 196  856 197.32  856 199  C 856 200.68  854.68 202  853 202  " fill-rule="nonzero" fill="#797979" stroke="none" />
</svg>