<?xml version="1.0" encoding="utf-8"?>
<svg version="1.1" xmlns:xlink="http://www.w3.org/1999/xlink" width="12px" height="12px" viewBox="847 153  12 12" xmlns="http://www.w3.org/2000/svg">
  <path d="M 853 153  C 856.36 153  859 155.64  859 159  C 859 162.36  856.36 165  853 165  C 849.64 165  847 162.36  847 159  C 847 155.64  849.64 153  853 153  Z " fill-rule="nonzero" fill="#f0f0f0" stroke="none" />
  <path d="M 853 153.5  C 856.08 153.5  858.5 155.92  858.5 159  C 858.5 162.08  856.08 164.5  853 164.5  C 849.92 164.5  847.5 162.08  847.5 159  C 847.5 155.92  849.92 153.5  853 153.5  Z " stroke-width="1" stroke="#797979" fill="none" />
  <path d="M 853 162  C 851.32 162  850 160.68  850 159  C 850 157.32  851.32 156  853 156  C 854.68 156  856 157.32  856 159  C 856 160.68  854.68 162  853 162  " fill-rule="nonzero" fill="#797979" stroke="none" />
</svg>