<?xml version="1.0" encoding="utf-8"?>
<svg version="1.1" xmlns:xlink="http://www.w3.org/1999/xlink" width="12px" height="12px" viewBox="947 193  12 12" xmlns="http://www.w3.org/2000/svg">
  <path d="M 953 193  C 956.36 193  959 195.64  959 199  C 959 202.36  956.36 205  953 205  C 949.64 205  947 202.36  947 199  C 947 195.64  949.64 193  953 193  Z " fill-rule="nonzero" fill="#ffffff" stroke="none" />
  <path d="M 953 193.5  C 956.08 193.5  958.5 195.92  958.5 199  C 958.5 202.08  956.08 204.5  953 204.5  C 949.92 204.5  947.5 202.08  947.5 199  C 947.5 195.92  949.92 193.5  953 193.5  Z " stroke-width="1" stroke="#797979" fill="none" />
  <path d="M 953 202  C 951.32 202  950 200.68  950 199  C 950 197.32  951.32 196  953 196  C 954.68 196  956 197.32  956 199  C 956 200.68  954.68 202  953 202  " fill-rule="nonzero" fill="#797979" stroke="none" />
</svg>