<?xml version="1.0" encoding="utf-8"?>
<svg version="1.1" xmlns:xlink="http://www.w3.org/1999/xlink" width="12px" height="12px" viewBox="1103 153  12 12" xmlns="http://www.w3.org/2000/svg">
  <path d="M 1109 153  C 1112.36 153  1115 155.64  1115 159  C 1115 162.36  1112.36 165  1109 165  C 1105.64 165  1103 162.36  1103 159  C 1103 155.64  1105.64 153  1109 153  Z " fill-rule="nonzero" fill="#ffffff" stroke="none" />
  <path d="M 1109 153.5  C 1112.08 153.5  1114.5 155.92  1114.5 159  C 1114.5 162.08  1112.08 164.5  1109 164.5  C 1105.92 164.5  1103.5 162.08  1103.5 159  C 1103.5 155.92  1105.92 153.5  1109 153.5  Z " stroke-width="1" stroke="#797979" fill="none" />
  <path d="M 1109 162  C 1107.32 162  1106 160.68  1106 159  C 1106 157.32  1107.32 156  1109 156  C 1110.68 156  1112 157.32  1112 159  C 1112 160.68  1110.68 162  1109 162  " fill-rule="nonzero" fill="#797979" stroke="none" />
</svg>