<?xml version="1.0" encoding="utf-8"?>
<svg version="1.1" xmlns:xlink="http://www.w3.org/1999/xlink" width="12px" height="12px" viewBox="1026 153  12 12" xmlns="http://www.w3.org/2000/svg">
  <path d="M 1032 153  C 1035.36 153  1038 155.64  1038 159  C 1038 162.36  1035.36 165  1032 165  C 1028.64 165  1026 162.36  1026 159  C 1026 155.64  1028.64 153  1032 153  Z " fill-rule="nonzero" fill="#ffffff" stroke="none" />
  <path d="M 1032 153.5  C 1035.08 153.5  1037.5 155.92  1037.5 159  C 1037.5 162.08  1035.08 164.5  1032 164.5  C 1028.92 164.5  1026.5 162.08  1026.5 159  C 1026.5 155.92  1028.92 153.5  1032 153.5  Z " stroke-width="1" stroke="#797979" fill="none" />
  <path d="M 1032 162  C 1030.32 162  1029 160.68  1029 159  C 1029 157.32  1030.32 156  1032 156  C 1033.68 156  1035 157.32  1035 159  C 1035 160.68  1033.68 162  1032 162  " fill-rule="nonzero" fill="#797979" stroke="none" />
</svg>