<svg t="1608860839862" class="icon" viewBox="0 0 1024 1024" version="1.1" xmlns="http://www.w3.org/2000/svg" p-id="11570" width="200" height="200"><path d="M511.573689 0.852623C229.014488 0.852623 0 229.867111 0 512.426311s229.014488 511.573689 511.573689 511.573689 511.573689-229.014488 511.573688-511.573689S794.132889 0.852623 511.573689 0.852623z" fill="#EA3A3A" p-id="11571"></path><path d="M571.257286 800.612823c0 28.307077-22.850291 51.157369-51.157369 51.157369s-51.157369-22.850291-51.157369-51.157369 22.850291-51.157369 51.157369-51.157369 51.157369 22.850291 51.157369 51.157369zM556.336386 672.293089c0 17.649292-17.137719 31.973356-38.368026 31.973356s-38.368027-14.324063-38.368027-31.973356v-447.626977c0-17.649292 17.137719-31.973356 38.368027-31.973356s38.368027 14.324063 38.368026 31.973356v447.626977z" fill="#FFFFFF" p-id="11572"></path></svg>