<svg t="1611384996081" class="icon" viewBox="0 0 1024 1024" version="1.1" xmlns="http://www.w3.org/2000/svg" p-id="8580" width="200" height="200"><path d="M512 141.21142578C307.21347046 141.21142578 141.21142578 307.21347046 141.21142578 512s166.00204468 370.78857422 370.78857422 370.78857422 370.78857422-166.00204468 370.78857422-370.78857422c0.18539429-204.60113526-165.52001953-370.60317993-370.12115479-370.78857422H512z" fill="#8a8a8a" p-id="8581"></path><path d="M667.73120117 667.73120117a26.62261963 26.62261963 0 0 1-37.07885742 0L512 549.07885742l-118.65234375 118.65234375a26.25183106 26.25183106 0 1 1-37.07885742-37.07885742L474.92114258 512 356.26879883 393.34765625a26.25183106 26.25183106 0 0 1 37.07885742-37.07885742L512 474.92114258l118.65234375-118.65234375a26.25183106 26.25183106 0 0 1 37.07885742 37.07885742L549.07885742 512l118.65234375 118.65234375a23.35968018 23.35968018 0 0 1 0 37.07885742z" fill="#FFFFFF" p-id="8582"></path></svg>