<?xml version="1.0" encoding="utf-8"?>
<svg version="1.1" xmlns:xlink="http://www.w3.org/1999/xlink" width="12px" height="12px" viewBox="339 669  12 12" xmlns="http://www.w3.org/2000/svg">
  <path d="M 345 669  C 348.36 669  351 671.64  351 675  C 351 678.36  348.36 681  345 681  C 341.64 681  339 678.36  339 675  C 339 671.64  341.64 669  345 669  Z " fill-rule="nonzero" fill="#ffffff" stroke="none" />
  <path d="M 345 669.5  C 348.08 669.5  350.5 671.92  350.5 675  C 350.5 678.08  348.08 680.5  345 680.5  C 341.92 680.5  339.5 678.08  339.5 675  C 339.5 671.92  341.92 669.5  345 669.5  Z " stroke-width="1" stroke="#797979" fill="none" />
  <path d="M 345 678  C 343.32 678  342 676.68  342 675  C 342 673.32  343.32 672  345 672  C 346.68 672  348 673.32  348 675  C 348 676.68  346.68 678  345 678  " fill-rule="nonzero" fill="#797979" stroke="none" />
</svg>