<?xml version="1.0" encoding="utf-8"?>
<svg version="1.1" xmlns:xlink="http://www.w3.org/1999/xlink" width="12px" height="12px" viewBox="239 669  12 12" xmlns="http://www.w3.org/2000/svg">
  <path d="M 245 669  C 248.36 669  251 671.64  251 675  C 251 678.36  248.36 681  245 681  C 241.64 681  239 678.36  239 675  C 239 671.64  241.64 669  245 669  Z " fill-rule="nonzero" fill="#ffffff" stroke="none" />
  <path d="M 245 669.5  C 248.08 669.5  250.5 671.92  250.5 675  C 250.5 678.08  248.08 680.5  245 680.5  C 241.92 680.5  239.5 678.08  239.5 675  C 239.5 671.92  241.92 669.5  245 669.5  Z " stroke-width="1" stroke="#797979" fill="none" />
  <path d="M 245 678  C 243.32 678  242 676.68  242 675  C 242 673.32  243.32 672  245 672  C 246.68 672  248 673.32  248 675  C 248 676.68  246.68 678  245 678  " fill-rule="nonzero" fill="#797979" stroke="none" />
</svg>