<?xml version="1.0" encoding="utf-8"?>
<svg version="1.1" xmlns:xlink="http://www.w3.org/1999/xlink" width="12px" height="12px" viewBox="968 160  12 12" xmlns="http://www.w3.org/2000/svg">
  <path d="M 974 160  C 977.36 160  980 162.64  980 166  C 980 169.36  977.36 172  974 172  C 970.64 172  968 169.36  968 166  C 968 162.64  970.64 160  974 160  Z " fill-rule="nonzero" fill="#ffffff" stroke="none" />
  <path d="M 974 160.5  C 977.08 160.5  979.5 162.92  979.5 166  C 979.5 169.08  977.08 171.5  974 171.5  C 970.92 171.5  968.5 169.08  968.5 166  C 968.5 162.92  970.92 160.5  974 160.5  Z " stroke-width="1" stroke="#797979" fill="none" />
  <path d="M 974 169  C 972.32 169  971 167.68  971 166  C 971 164.32  972.32 163  974 163  C 975.68 163  977 164.32  977 166  C 977 167.68  975.68 169  974 169  " fill-rule="nonzero" fill="#797979" stroke="none" />
</svg>