<?xml version="1.0" encoding="utf-8"?>
<svg version="1.1" xmlns:xlink="http://www.w3.org/1999/xlink" width="12px" height="12px" viewBox="364 256  12 12" xmlns="http://www.w3.org/2000/svg">
  <path d="M 370 256  C 373.36 256  376 258.64  376 262  C 376 265.36  373.36 268  370 268  C 366.64 268  364 265.36  364 262  C 364 258.64  366.64 256  370 256  Z " fill-rule="nonzero" fill="#f0f0f0" stroke="none" />
  <path d="M 370 256.5  C 373.08 256.5  375.5 258.92  375.5 262  C 375.5 265.08  373.08 267.5  370 267.5  C 366.92 267.5  364.5 265.08  364.5 262  C 364.5 258.92  366.92 256.5  370 256.5  Z " stroke-width="1" stroke="#797979" fill="none" />
  <path d="M 370 265  C 368.32 265  367 263.68  367 262  C 367 260.32  368.32 259  370 259  C 371.68 259  373 260.32  373 262  C 373 263.68  371.68 265  370 265  " fill-rule="nonzero" fill="#797979" stroke="none" />
</svg>