<?xml version="1.0" encoding="utf-8"?>
<svg version="1.1" xmlns:xlink="http://www.w3.org/1999/xlink" width="12px" height="12px" viewBox="400 687  12 12" xmlns="http://www.w3.org/2000/svg">
  <path d="M 406 687  C 409.36 687  412 689.64  412 693  C 412 696.36  409.36 699  406 699  C 402.64 699  400 696.36  400 693  C 400 689.64  402.64 687  406 687  Z " fill-rule="nonzero" fill="#f0f0f0" stroke="none" />
  <path d="M 406 687.5  C 409.08 687.5  411.5 689.92  411.5 693  C 411.5 696.08  409.08 698.5  406 698.5  C 402.92 698.5  400.5 696.08  400.5 693  C 400.5 689.92  402.92 687.5  406 687.5  Z " stroke-width="1" stroke="#797979" fill="none" />
  <path d="M 406 696  C 404.32 696  403 694.68  403 693  C 403 691.32  404.32 690  406 690  C 407.68 690  409 691.32  409 693  C 409 694.68  407.68 696  406 696  " fill-rule="nonzero" fill="#797979" stroke="none" />
</svg>