<?xml version="1.0" encoding="utf-8"?>
<svg version="1.1" xmlns:xlink="http://www.w3.org/1999/xlink" width="12px" height="12px" viewBox="469 256  12 12" xmlns="http://www.w3.org/2000/svg">
  <path d="M 475 256  C 478.36 256  481 258.64  481 262  C 481 265.36  478.36 268  475 268  C 471.64 268  469 265.36  469 262  C 469 258.64  471.64 256  475 256  Z " fill-rule="nonzero" fill="#f0f0f0" stroke="none" />
  <path d="M 475 256.5  C 478.08 256.5  480.5 258.92  480.5 262  C 480.5 265.08  478.08 267.5  475 267.5  C 471.92 267.5  469.5 265.08  469.5 262  C 469.5 258.92  471.92 256.5  475 256.5  Z " stroke-width="1" stroke="#797979" fill="none" />
  <path d="M 475 265  C 473.32 265  472 263.68  472 262  C 472 260.32  473.32 259  475 259  C 476.68 259  478 260.32  478 262  C 478 263.68  476.68 265  475 265  " fill-rule="nonzero" fill="#797979" stroke="none" />
</svg>