<?xml version="1.0" encoding="utf-8"?>
<svg version="1.1" xmlns:xlink="http://www.w3.org/1999/xlink" width="12px" height="12px" viewBox="863 160  12 12" xmlns="http://www.w3.org/2000/svg">
  <path d="M 869 160  C 872.36 160  875 162.64  875 166  C 875 169.36  872.36 172  869 172  C 865.64 172  863 169.36  863 166  C 863 162.64  865.64 160  869 160  Z " fill-rule="nonzero" fill="#f0f0f0" stroke="none" />
  <path d="M 869 160.5  C 872.08 160.5  874.5 162.92  874.5 166  C 874.5 169.08  872.08 171.5  869 171.5  C 865.92 171.5  863.5 169.08  863.5 166  C 863.5 162.92  865.92 160.5  869 160.5  Z " stroke-width="1" stroke="#797979" fill="none" />
  <path d="M 869 169  C 867.32 169  866 167.68  866 166  C 866 164.32  867.32 163  869 163  C 870.68 163  872 164.32  872 166  C 872 167.68  870.68 169  869 169  " fill-rule="nonzero" fill="#797979" stroke="none" />
</svg>