<?xml version="1.0" encoding="utf-8"?>
<svg version="1.1" xmlns:xlink="http://www.w3.org/1999/xlink" width="12px" height="12px" viewBox="302 749  12 12" xmlns="http://www.w3.org/2000/svg">
  <path d="M 308 749  C 311.36 749  314 751.64  314 755  C 314 758.36  311.36 761  308 761  C 304.64 761  302 758.36  302 755  C 302 751.64  304.64 749  308 749  Z " fill-rule="nonzero" fill="#ffffff" stroke="none" />
  <path d="M 308 749.5  C 311.08 749.5  313.5 751.92  313.5 755  C 313.5 758.08  311.08 760.5  308 760.5  C 304.92 760.5  302.5 758.08  302.5 755  C 302.5 751.92  304.92 749.5  308 749.5  Z " stroke-width="1" stroke="#797979" fill="none" />
  <path d="M 308 758  C 306.32 758  305 756.68  305 755  C 305 753.32  306.32 752  308 752  C 309.68 752  311 753.32  311 755  C 311 756.68  309.68 758  308 758  " fill-rule="nonzero" fill="#797979" stroke="none" />
</svg>