<?xml version="1.0" encoding="utf-8"?>
<svg version="1.1" xmlns:xlink="http://www.w3.org/1999/xlink" width="12px" height="12px" viewBox="402 749  12 12" xmlns="http://www.w3.org/2000/svg">
  <path d="M 408 749  C 411.36 749  414 751.64  414 755  C 414 758.36  411.36 761  408 761  C 404.64 761  402 758.36  402 755  C 402 751.64  404.64 749  408 749  Z " fill-rule="nonzero" fill="#f0f0f0" stroke="none" />
  <path d="M 408 749.5  C 411.08 749.5  413.5 751.92  413.5 755  C 413.5 758.08  411.08 760.5  408 760.5  C 404.92 760.5  402.5 758.08  402.5 755  C 402.5 751.92  404.92 749.5  408 749.5  Z " stroke-width="1" stroke="#797979" fill="none" />
  <path d="M 408 758  C 406.32 758  405 756.68  405 755  C 405 753.32  406.32 752  408 752  C 409.68 752  411 753.32  411 755  C 411 756.68  409.68 758  408 758  " fill-rule="nonzero" fill="#797979" stroke="none" />
</svg>