<?xml version="1.0" encoding="utf-8"?>
<svg version="1.1" xmlns:xlink="http://www.w3.org/1999/xlink" width="12px" height="12px" viewBox="167 1068  12 12" xmlns="http://www.w3.org/2000/svg">
  <path d="M 173 1068  C 176.36 1068  179 1070.64  179 1074  C 179 1077.36  176.36 1080  173 1080  C 169.64 1080  167 1077.36  167 1074  C 167 1070.64  169.64 1068  173 1068  Z " fill-rule="nonzero" fill="#ffffff" stroke="none" />
  <path d="M 173 1068.5  C 176.08 1068.5  178.5 1070.92  178.5 1074  C 178.5 1077.08  176.08 1079.5  173 1079.5  C 169.92 1079.5  167.5 1077.08  167.5 1074  C 167.5 1070.92  169.92 1068.5  173 1068.5  Z " stroke-width="1" stroke="#797979" fill="none" />
  <path d="M 173 1077  C 171.32 1077  170 1075.68  170 1074  C 170 1072.32  171.32 1071  173 1071  C 174.68 1071  176 1072.32  176 1074  C 176 1075.68  174.68 1077  173 1077  " fill-rule="nonzero" fill="#797979" stroke="none" />
</svg>