<?xml version="1.0" encoding="utf-8"?>
<svg version="1.1" xmlns:xlink="http://www.w3.org/1999/xlink" width="21px" height="14px" xmlns="http://www.w3.org/2000/svg">
  <g transform="matrix(1 0 0 1 -1104 -2258 )">
    <path d="M 20.7895791583166 1.44329896907216  C 20.9298597194389 1.60366552119129  21 1.78808705612829  21 1.99656357388316  C 21 2.20504009163803  20.9298597194389 2.38946162657503  20.7895791583166 2.54982817869416  L 10.9839679358717 13.7594501718213  C 10.8436873747495 13.9198167239404  10.6823647294589 14  10.5 14  C 10.3176352705411 14  10.1563126252505 13.9198167239404  10.0160320641283 13.7594501718213  L 0.210420841683367 2.54982817869416  C 0.0701402805611225 2.38946162657503  0 2.20504009163803  0 1.99656357388316  C 0 1.78808705612829  0.0701402805611225 1.60366552119129  0.210420841683367 1.44329896907216  L 1.2625250501002 0.240549828178695  C 1.40280561122245 0.0801832760595629  1.56412825651303 0  1.74649298597194 0  C 1.92885771543086 0  2.09018036072144 0.0801832760595629  2.23046092184369 0.240549828178695  L 10.5 9.69415807560137  L 18.7695390781563 0.240549828178695  C 18.9098196392786 0.0801832760595629  19.0711422845691 0  19.2535070140281 0  C 19.435871743487 0  19.5971943887776 0.0801832760595629  19.7374749498998 0.240549828178695  L 20.7895791583166 1.44329896907216  Z " fill-rule="nonzero" fill="#333333" stroke="none" transform="matrix(1 0 0 1 1104 2258 )" />
  </g>
</svg>