<?xml version="1.0" encoding="utf-8"?>
<svg version="1.1" xmlns:xlink="http://www.w3.org/1999/xlink" width="25px" height="24px" xmlns="http://www.w3.org/2000/svg">
  <g transform="matrix(1 0 0 1 -1123 -2204 )">
    <path d="M 8.93110795454546 9.140625  C 9.03764204545455 9.234375  9.09090909090909 9.35416666666667  9.09090909090909 9.5  L 9.09090909090909 18.5  C 9.09090909090909 18.6458333333333  9.03764204545455 18.765625  8.93110795454546 18.859375  C 8.82457386363636 18.953125  8.68844696969697 19  8.52272727272727 19  L 7.38636363636364 19  C 7.22064393939394 19  7.08451704545455 18.953125  6.97798295454545 18.859375  C 6.87144886363636 18.765625  6.81818181818182 18.6458333333333  6.81818181818182 18.5  L 6.81818181818182 9.5  C 6.81818181818182 9.35416666666667  6.87144886363636 9.234375  6.97798295454545 9.140625  C 7.08451704545455 9.046875  7.22064393939394 9  7.38636363636364 9  L 8.52272727272727 9  C 8.68844696969697 9  8.82457386363636 9.046875  8.93110795454546 9.140625  Z M 13.4765625 9.140625  C 13.5830965909091 9.234375  13.6363636363636 9.35416666666667  13.6363636363636 9.5  L 13.6363636363636 18.5  C 13.6363636363636 18.6458333333333  13.5830965909091 18.765625  13.4765625 18.859375  C 13.3700284090909 18.953125  13.2339015151515 19  13.0681818181818 19  L 11.9318181818182 19  C 11.7660984848485 19  11.6299715909091 18.953125  11.5234375 18.859375  C 11.4169034090909 18.765625  11.3636363636364 18.6458333333333  11.3636363636364 18.5  L 11.3636363636364 9.5  C 11.3636363636364 9.35416666666667  11.4169034090909 9.234375  11.5234375 9.140625  C 11.6299715909091 9.046875  11.7660984848485 9  11.9318181818182 9  L 13.0681818181818 9  C 13.2339015151515 9  13.3700284090909 9.046875  13.4765625 9.140625  Z M 18.0220170454545 9.140625  C 18.1285511363636 9.234375  18.1818181818182 9.35416666666667  18.1818181818182 9.5  L 18.1818181818182 18.5  C 18.1818181818182 18.6458333333333  18.1285511363636 18.765625  18.0220170454545 18.859375  C 17.9154829545455 18.953125  17.7793560606061 19  17.6136363636364 19  L 16.4772727272727 19  C 16.311553030303 19  16.1754261363636 18.953125  16.0688920454545 18.859375  C 15.9623579545455 18.765625  15.9090909090909 18.6458333333333  15.9090909090909 18.5  L 15.9090909090909 9.5  C 15.9090909090909 9.35416666666667  15.9623579545455 9.234375  16.0688920454545 9.140625  C 16.1754261363636 9.046875  16.311553030303 9  16.4772727272727 9  L 17.6136363636364 9  C 17.7793560606061 9  17.9154829545455 9.046875  18.0220170454545 9.140625  Z M 20.3302556818182 21.4453125  C 20.413115530303 21.2526041666667  20.4545454545455 21.0416666666667  20 20.8125  L 20 6  L 5 6  L 5 20.8125  C 4.54545454545455 21.0416666666667  4.58688446969697 21.2526041666667  4.66974431818182 21.4453125  C 4.75260416666667 21.6380208333333  4.83842329545455 21.7786458333333  4.92720170454545 21.8671875  C 5.01598011363636 21.9557291666667  5.078125 22  5.11363636363636 22  L 19.8863636363636 22  C 19.921875 22  19.9840198863636 21.9557291666667  20.0727982954545 21.8671875  C 20.1615767045455 21.7786458333333  20.2473958333333 21.6380208333333  20.3302556818182 21.4453125  Z M 9.39275568181818 2.171875  L 8.52272727272727 4  L 16.4772727272727 4  L 15.625 2.171875  C 15.5421401515152 2.078125  15.4415246212121 2.02083333333333  15.3231534090909 2  L 9.69460227272727 2  C 9.57623106060606 2.02083333333333  9.47561553030303 2.078125  9.39275568181818 2.171875  Z M 24.8401988636364 4.140625  C 24.9467329545455 4.234375  25 4.35416666666667  25 4.5  L 25 5.5  C 25 5.64583333333333  24.9467329545455 5.765625  24.8401988636364 5.859375  C 24.7336647727273 5.953125  24.5975378787879 6  24.4318181818182 6  L 22.7272727272727 6  L 22.7272727272727 20.8125  C 22.7272727272727 21.6770833333333  22.4491003787879 22.4244791666667  21.8927556818182 23.0546875  C 21.3364109848485 23.6848958333333  20.6676136363636 24  19.8863636363636 24  L 5.11363636363636 24  C 4.33238636363636 24  3.66358901515152 23.6953125  3.10724431818182 23.0859375  C 2.55089962121212 22.4765625  2.27272727272727 21.7395833333333  2.27272727272727 20.875  L 2.27272727272727 6  L 0.568181818181818 6  C 0.402462121212121 6  0.266335227272727 5.953125  0.159801136363636 5.859375  C 0.0532670454545454 5.765625  0 5.64583333333333  0 5.5  L 0 4.5  C 0 4.35416666666667  0.0532670454545454 4.234375  0.159801136363636 4.140625  C 0.266335227272727 4.046875  0.402462121212121 4  0.568181818181818 4  L 6.0546875 4  L 7.29758522727273 1.390625  C 7.47514204545455 1.00520833333333  7.79474431818182 0.677083333333331  8.25639204545455 0.406250000000001  C 8.71803977272727 0.135416666666665  9.18560606060606 0  9.65909090909091 0  L 15.3409090909091 0  C 15.8143939393939 0  16.2819602272727 0.135416666666665  16.7436079545455 0.406250000000001  C 17.2052556818182 0.677083333333331  17.5248579545455 1.00520833333333  17.7024147727273 1.390625  L 18.9453125 4  L 24.4318181818182 4  C 24.5975378787879 4  24.7336647727273 4.046875  24.8401988636364 4.140625  Z " fill-rule="nonzero" fill="#333333" stroke="none" transform="matrix(1 0 0 1 1123 2204 )" />
  </g>
</svg>