<?xml version="1.0" encoding="utf-8"?>
<svg version="1.1" xmlns:xlink="http://www.w3.org/1999/xlink" width="21px" height="24px" xmlns="http://www.w3.org/2000/svg">
  <g transform="matrix(1 0 0 1 -1092 -2204 )">
    <path d="M 15 5.14285714285714  L 19.875 5.14285714285714  C 20.1875 5.14285714285714  20.453125 5.26785714285714  20.671875 5.51785714285714  C 20.890625 5.76785714285714  21 6.07142857142857  21 6.42857142857143  L 21 22.7142857142857  C 21 23.0714285714286  20.890625 23.375  20.671875 23.625  C 20.453125 23.875  20.1875 24  19.875 24  L 8.625 24  C 8.3125 24  8.046875 23.875  7.828125 23.625  C 7.609375 23.375  7.5 23.0714285714286  7.5 22.7142857142857  L 7.5 18.8571428571429  L 1.125 18.8571428571429  C 0.8125 18.8571428571429  0.546875 18.7321428571429  0.328125 18.4821428571429  C 0.109375 18.2321428571429  0 17.9285714285714  0 17.5714285714286  L 0 8.57142857142857  C 0 8.21428571428572  0.078125 7.82142857142857  0.234375 7.39285714285714  C 0.390625 6.96428571428571  0.578125 6.625  0.796875 6.375  L 5.578125 0.910714285714286  C 5.796875 0.660714285714285  6.09375 0.446428571428571  6.46875 0.267857142857143  C 6.84375 0.0892857142857153  7.1875 0  7.5 0  L 12.375 0  C 12.6875 0  12.953125 0.125000000000001  13.171875 0.375  C 13.390625 0.624999999999999  13.5 0.928571428571428  13.5 1.28571428571429  L 13.5 5.67857142857143  C 14.03125 5.32142857142857  14.53125 5.14285714285714  15 5.14285714285714  Z M 13.5 12  L 13.5 7.99553571428571  L 9.99609375 12  L 13.5 12  Z M 6 6.85714285714286  L 6 2.85267857142857  L 2.49609375 6.85714285714286  L 6 6.85714285714286  Z M 7.734375 12.5357142857143  C 7.890625 12.1071428571429  8.078125 11.7678571428571  8.296875 11.5178571428571  L 12 7.28571428571429  L 12 1.71428571428571  L 7.5 1.71428571428571  L 7.5 7.28571428571429  C 7.5 7.64285714285714  7.390625 7.94642857142857  7.171875 8.19642857142857  C 6.953125 8.44642857142857  6.6875 8.57142857142857  6.375 8.57142857142857  L 1.5 8.57142857142857  L 1.5 17.1428571428571  L 7.5 17.1428571428571  L 7.5 13.7142857142857  C 7.5 13.3571428571429  7.578125 12.9642857142857  7.734375 12.5357142857143  Z M 9 22  L 19.5 22  L 19.5 6.85714285714286  L 15 6.85714285714286  L 15 12.4285714285714  C 15 12.7857142857143  14.890625 13.0892857142857  14.671875 13.3392857142857  C 14.453125 13.5892857142857  14.1875 13.7142857142857  13.875 13.7142857142857  L 9 13.7142857142857  L 9 22  Z " fill-rule="nonzero" fill="#333333" stroke="none" transform="matrix(1 0 0 1 1092 2204 )" />
  </g>
</svg>