<?xml version="1.0" encoding="utf-8"?>
<svg version="1.1" xmlns:xlink="http://www.w3.org/1999/xlink" width="12px" height="12px" viewBox="1026 849  12 12" xmlns="http://www.w3.org/2000/svg">
  <path d="M 1032 849  C 1035.36 849  1038 851.64  1038 855  C 1038 858.36  1035.36 861  1032 861  C 1028.64 861  1026 858.36  1026 855  C 1026 851.64  1028.64 849  1032 849  Z " fill-rule="nonzero" fill="#ffffff" stroke="none" />
  <path d="M 1032 849.5  C 1035.08 849.5  1037.5 851.92  1037.5 855  C 1037.5 858.08  1035.08 860.5  1032 860.5  C 1028.92 860.5  1026.5 858.08  1026.5 855  C 1026.5 851.92  1028.92 849.5  1032 849.5  Z " stroke-width="1" stroke="#797979" fill="none" />
  <path d="M 1032 858  C 1030.32 858  1029 856.68  1029 855  C 1029 853.32  1030.32 852  1032 852  C 1033.68 852  1035 853.32  1035 855  C 1035 856.68  1033.68 858  1032 858  " fill-rule="nonzero" fill="#797979" stroke="none" />
</svg>