<?xml version="1.0" encoding="utf-8"?>
<svg version="1.1" xmlns:xlink="http://www.w3.org/1999/xlink" width="12px" height="12px" viewBox="918 1108  12 12" xmlns="http://www.w3.org/2000/svg">
  <path d="M 924 1108  C 927.36 1108  930 1110.64  930 1114  C 930 1117.36  927.36 1120  924 1120  C 920.64 1120  918 1117.36  918 1114  C 918 1110.64  920.64 1108  924 1108  Z " fill-rule="nonzero" fill="#ffffff" stroke="none" />
  <path d="M 924 1108.5  C 927.08 1108.5  929.5 1110.92  929.5 1114  C 929.5 1117.08  927.08 1119.5  924 1119.5  C 920.92 1119.5  918.5 1117.08  918.5 1114  C 918.5 1110.92  920.92 1108.5  924 1108.5  Z " stroke-width="1" stroke="#797979" fill="none" />
  <path d="M 924 1117  C 922.32 1117  921 1115.68  921 1114  C 921 1112.32  922.32 1111  924 1111  C 925.68 1111  927 1112.32  927 1114  C 927 1115.68  925.68 1117  924 1117  " fill-rule="nonzero" fill="#797979" stroke="none" />
</svg>