<?xml version="1.0" encoding="utf-8"?>
<svg version="1.1" xmlns:xlink="http://www.w3.org/1999/xlink" width="12px" height="12px" viewBox="926 849  12 12" xmlns="http://www.w3.org/2000/svg">
  <path d="M 932 849  C 935.36 849  938 851.64  938 855  C 938 858.36  935.36 861  932 861  C 928.64 861  926 858.36  926 855  C 926 851.64  928.64 849  932 849  Z " fill-rule="nonzero" fill="#ffffff" stroke="none" />
  <path d="M 932 849.5  C 935.08 849.5  937.5 851.92  937.5 855  C 937.5 858.08  935.08 860.5  932 860.5  C 928.92 860.5  926.5 858.08  926.5 855  C 926.5 851.92  928.92 849.5  932 849.5  Z " stroke-width="1" stroke="#797979" fill="none" />
  <path d="M 932 858  C 930.32 858  929 856.68  929 855  C 929 853.32  930.32 852  932 852  C 933.68 852  935 853.32  935 855  C 935 856.68  933.68 858  932 858  " fill-rule="nonzero" fill="#797979" stroke="none" />
</svg>