<?xml version="1.0" encoding="utf-8"?>
<svg version="1.1" xmlns:xlink="http://www.w3.org/1999/xlink" width="12px" height="12px" viewBox="228 1108  12 12" xmlns="http://www.w3.org/2000/svg">
  <path d="M 234 1108  C 237.36 1108  240 1110.64  240 1114  C 240 1117.36  237.36 1120  234 1120  C 230.64 1120  228 1117.36  228 1114  C 228 1110.64  230.64 1108  234 1108  Z " fill-rule="nonzero" fill="#ffffff" stroke="none" />
  <path d="M 234 1108.5  C 237.08 1108.5  239.5 1110.92  239.5 1114  C 239.5 1117.08  237.08 1119.5  234 1119.5  C 230.92 1119.5  228.5 1117.08  228.5 1114  C 228.5 1110.92  230.92 1108.5  234 1108.5  Z " stroke-width="1" stroke="#797979" fill="none" />
  <path d="M 234 1117  C 232.32 1117  231 1115.68  231 1114  C 231 1112.32  232.32 1111  234 1111  C 235.68 1111  237 1112.32  237 1114  C 237 1115.68  235.68 1117  234 1117  " fill-rule="nonzero" fill="#797979" stroke="none" />
</svg>