<?xml version="1.0" encoding="utf-8"?>
<svg version="1.1" xmlns:xlink="http://www.w3.org/1999/xlink" width="12px" height="12px" viewBox="236 849  12 12" xmlns="http://www.w3.org/2000/svg">
  <path d="M 242 849  C 245.36 849  248 851.64  248 855  C 248 858.36  245.36 861  242 861  C 238.64 861  236 858.36  236 855  C 236 851.64  238.64 849  242 849  Z " fill-rule="nonzero" fill="#f0f0f0" stroke="none" />
  <path d="M 242 849.5  C 245.08 849.5  247.5 851.92  247.5 855  C 247.5 858.08  245.08 860.5  242 860.5  C 238.92 860.5  236.5 858.08  236.5 855  C 236.5 851.92  238.92 849.5  242 849.5  Z " stroke-width="1" stroke="#797979" fill="none" />
  <path d="M 242 858  C 240.32 858  239 856.68  239 855  C 239 853.32  240.32 852  242 852  C 243.68 852  245 853.32  245 855  C 245 856.68  243.68 858  242 858  " fill-rule="nonzero" fill="#797979" stroke="none" />
</svg>