<?xml version="1.0" encoding="utf-8"?>
<svg version="1.1" xmlns:xlink="http://www.w3.org/1999/xlink" width="12px" height="12px" viewBox="1018 1098  12 12" xmlns="http://www.w3.org/2000/svg">
  <path d="M 1024 1098  C 1027.36 1098  1030 1100.64  1030 1104  C 1030 1107.36  1027.36 1110  1024 1110  C 1020.64 1110  1018 1107.36  1018 1104  C 1018 1100.64  1020.64 1098  1024 1098  Z " fill-rule="nonzero" fill="#f0f0f0" stroke="none" />
  <path d="M 1024 1098.5  C 1027.08 1098.5  1029.5 1100.92  1029.5 1104  C 1029.5 1107.08  1027.08 1109.5  1024 1109.5  C 1020.92 1109.5  1018.5 1107.08  1018.5 1104  C 1018.5 1100.92  1020.92 1098.5  1024 1098.5  Z " stroke-width="1" stroke="#797979" fill="none" />
  <path d="M 1024 1107  C 1022.32 1107  1021 1105.68  1021 1104  C 1021 1102.32  1022.32 1101  1024 1101  C 1025.68 1101  1027 1102.32  1027 1104  C 1027 1105.68  1025.68 1107  1024 1107  " fill-rule="nonzero" fill="#797979" stroke="none" />
</svg>