<?xml version="1.0" encoding="utf-8"?>
<svg version="1.1" xmlns:xlink="http://www.w3.org/1999/xlink" width="12px" height="12px" viewBox="228 1098  12 12" xmlns="http://www.w3.org/2000/svg">
  <path d="M 234 1098  C 237.36 1098  240 1100.64  240 1104  C 240 1107.36  237.36 1110  234 1110  C 230.64 1110  228 1107.36  228 1104  C 228 1100.64  230.64 1098  234 1098  Z " fill-rule="nonzero" fill="#f0f0f0" stroke="none" />
  <path d="M 234 1098.5  C 237.08 1098.5  239.5 1100.92  239.5 1104  C 239.5 1107.08  237.08 1109.5  234 1109.5  C 230.92 1109.5  228.5 1107.08  228.5 1104  C 228.5 1100.92  230.92 1098.5  234 1098.5  Z " stroke-width="1" stroke="#797979" fill="none" />
  <path d="M 234 1107  C 232.32 1107  231 1105.68  231 1104  C 231 1102.32  232.32 1101  234 1101  C 235.68 1101  237 1102.32  237 1104  C 237 1105.68  235.68 1107  234 1107  " fill-rule="nonzero" fill="#797979" stroke="none" />
</svg>