<?xml version="1.0" encoding="utf-8"?>
<svg version="1.1" xmlns:xlink="http://www.w3.org/1999/xlink" width="12px" height="12px" viewBox="918 864  12 12" xmlns="http://www.w3.org/2000/svg">
  <path d="M 924 864  C 927.36 864  930 866.64  930 870  C 930 873.36  927.36 876  924 876  C 920.64 876  918 873.36  918 870  C 918 866.64  920.64 864  924 864  Z " fill-rule="nonzero" fill="#ffffff" stroke="none" />
  <path d="M 924 864.5  C 927.08 864.5  929.5 866.92  929.5 870  C 929.5 873.08  927.08 875.5  924 875.5  C 920.92 875.5  918.5 873.08  918.5 870  C 918.5 866.92  920.92 864.5  924 864.5  Z " stroke-width="1" stroke="#797979" fill="none" />
  <path d="M 924 873  C 922.32 873  921 871.68  921 870  C 921 868.32  922.32 867  924 867  C 925.68 867  927 868.32  927 870  C 927 871.68  925.68 873  924 873  " fill-rule="nonzero" fill="#797979" stroke="none" />
</svg>