<?xml version="1.0" encoding="utf-8"?>
<svg version="1.1" xmlns:xlink="http://www.w3.org/1999/xlink" width="12px" height="12px" viewBox="228 864  12 12" xmlns="http://www.w3.org/2000/svg">
  <path d="M 234 864  C 237.36 864  240 866.64  240 870  C 240 873.36  237.36 876  234 876  C 230.64 876  228 873.36  228 870  C 228 866.64  230.64 864  234 864  Z " fill-rule="nonzero" fill="#ffffff" stroke="none" />
  <path d="M 234 864.5  C 237.08 864.5  239.5 866.92  239.5 870  C 239.5 873.08  237.08 875.5  234 875.5  C 230.92 875.5  228.5 873.08  228.5 870  C 228.5 866.92  230.92 864.5  234 864.5  Z " stroke-width="1" stroke="#797979" fill="none" />
  <path d="M 234 873  C 232.32 873  231 871.68  231 870  C 231 868.32  232.32 867  234 867  C 235.68 867  237 868.32  237 870  C 237 871.68  235.68 873  234 873  " fill-rule="nonzero" fill="#797979" stroke="none" />
</svg>