<?xml version="1.0" encoding="utf-8"?>
<svg version="1.1" xmlns:xlink="http://www.w3.org/1999/xlink" width="12px" height="12px" viewBox="128 1098  12 12" xmlns="http://www.w3.org/2000/svg">
  <path d="M 134 1098  C 137.36 1098  140 1100.64  140 1104  C 140 1107.36  137.36 1110  134 1110  C 130.64 1110  128 1107.36  128 1104  C 128 1100.64  130.64 1098  134 1098  Z " fill-rule="nonzero" fill="#ffffff" stroke="none" />
  <path d="M 134 1098.5  C 137.08 1098.5  139.5 1100.92  139.5 1104  C 139.5 1107.08  137.08 1109.5  134 1109.5  C 130.92 1109.5  128.5 1107.08  128.5 1104  C 128.5 1100.92  130.92 1098.5  134 1098.5  Z " stroke-width="1" stroke="#797979" fill="none" />
  <path d="M 134 1107  C 132.32 1107  131 1105.68  131 1104  C 131 1102.32  132.32 1101  134 1101  C 135.68 1101  137 1102.32  137 1104  C 137 1105.68  135.68 1107  134 1107  " fill-rule="nonzero" fill="#797979" stroke="none" />
</svg>