<?xml version="1.0" encoding="utf-8"?>
<svg version="1.1" xmlns:xlink="http://www.w3.org/1999/xlink" width="12px" height="12px" viewBox="918 1098  12 12" xmlns="http://www.w3.org/2000/svg">
  <path d="M 924 1098  C 927.36 1098  930 1100.64  930 1104  C 930 1107.36  927.36 1110  924 1110  C 920.64 1110  918 1107.36  918 1104  C 918 1100.64  920.64 1098  924 1098  Z " fill-rule="nonzero" fill="#ffffff" stroke="none" />
  <path d="M 924 1098.5  C 927.08 1098.5  929.5 1100.92  929.5 1104  C 929.5 1107.08  927.08 1109.5  924 1109.5  C 920.92 1109.5  918.5 1107.08  918.5 1104  C 918.5 1100.92  920.92 1098.5  924 1098.5  Z " stroke-width="1" stroke="#797979" fill="none" />
  <path d="M 924 1107  C 922.32 1107  921 1105.68  921 1104  C 921 1102.32  922.32 1101  924 1101  C 925.68 1101  927 1102.32  927 1104  C 927 1105.68  925.68 1107  924 1107  " fill-rule="nonzero" fill="#797979" stroke="none" />
</svg>