<?xml version="1.0" encoding="utf-8"?>
<svg version="1.1" xmlns:xlink="http://www.w3.org/1999/xlink" width="12px" height="12px" viewBox="918 874  12 12" xmlns="http://www.w3.org/2000/svg">
  <path d="M 924 874  C 927.36 874  930 876.64  930 880  C 930 883.36  927.36 886  924 886  C 920.64 886  918 883.36  918 880  C 918 876.64  920.64 874  924 874  Z " fill-rule="nonzero" fill="#f0f0f0" stroke="none" />
  <path d="M 924 874.5  C 927.08 874.5  929.5 876.92  929.5 880  C 929.5 883.08  927.08 885.5  924 885.5  C 920.92 885.5  918.5 883.08  918.5 880  C 918.5 876.92  920.92 874.5  924 874.5  Z " stroke-width="1" stroke="#797979" fill="none" />
  <path d="M 924 883  C 922.32 883  921 881.68  921 880  C 921 878.32  922.32 877  924 877  C 925.68 877  927 878.32  927 880  C 927 881.68  925.68 883  924 883  " fill-rule="nonzero" fill="#797979" stroke="none" />
</svg>