<?xml version="1.0" encoding="utf-8"?>
<svg version="1.1" xmlns:xlink="http://www.w3.org/1999/xlink" width="12px" height="12px" viewBox="1018 864  12 12" xmlns="http://www.w3.org/2000/svg">
  <path d="M 1024 864  C 1027.36 864  1030 866.64  1030 870  C 1030 873.36  1027.36 876  1024 876  C 1020.64 876  1018 873.36  1018 870  C 1018 866.64  1020.64 864  1024 864  Z " fill-rule="nonzero" fill="#f0f0f0" stroke="none" />
  <path d="M 1024 864.5  C 1027.08 864.5  1029.5 866.92  1029.5 870  C 1029.5 873.08  1027.08 875.5  1024 875.5  C 1020.92 875.5  1018.5 873.08  1018.5 870  C 1018.5 866.92  1020.92 864.5  1024 864.5  Z " stroke-width="1" stroke="#797979" fill="none" />
  <path d="M 1024 873  C 1022.32 873  1021 871.68  1021 870  C 1021 868.32  1022.32 867  1024 867  C 1025.68 867  1027 868.32  1027 870  C 1027 871.68  1025.68 873  1024 873  " fill-rule="nonzero" fill="#797979" stroke="none" />
</svg>