<?xml version="1.0" encoding="utf-8"?>
<svg version="1.1" xmlns:xlink="http://www.w3.org/1999/xlink" width="12px" height="12px" viewBox="228 872  12 12" xmlns="http://www.w3.org/2000/svg">
  <path d="M 234 872  C 237.36 872  240 874.64  240 878  C 240 881.36  237.36 884  234 884  C 230.64 884  228 881.36  228 878  C 228 874.64  230.64 872  234 872  Z " fill-rule="nonzero" fill="#f0f0f0" stroke="none" />
  <path d="M 234 872.5  C 237.08 872.5  239.5 874.92  239.5 878  C 239.5 881.08  237.08 883.5  234 883.5  C 230.92 883.5  228.5 881.08  228.5 878  C 228.5 874.92  230.92 872.5  234 872.5  Z " stroke-width="1" stroke="#797979" fill="none" />
  <path d="M 234 881  C 232.32 881  231 879.68  231 878  C 231 876.32  232.32 875  234 875  C 235.68 875  237 876.32  237 878  C 237 879.68  235.68 881  234 881  " fill-rule="nonzero" fill="#797979" stroke="none" />
</svg>