<?xml version="1.0" encoding="utf-8"?>
<svg version="1.1" xmlns:xlink="http://www.w3.org/1999/xlink" width="12px" height="12px" viewBox="128 872  12 12" xmlns="http://www.w3.org/2000/svg">
  <path d="M 134 872  C 137.36 872  140 874.64  140 878  C 140 881.36  137.36 884  134 884  C 130.64 884  128 881.36  128 878  C 128 874.64  130.64 872  134 872  Z " fill-rule="nonzero" fill="#ffffff" stroke="none" />
  <path d="M 134 872.5  C 137.08 872.5  139.5 874.92  139.5 878  C 139.5 881.08  137.08 883.5  134 883.5  C 130.92 883.5  128.5 881.08  128.5 878  C 128.5 874.92  130.92 872.5  134 872.5  Z " stroke-width="1" stroke="#797979" fill="none" />
  <path d="M 134 881  C 132.32 881  131 879.68  131 878  C 131 876.32  132.32 875  134 875  C 135.68 875  137 876.32  137 878  C 137 879.68  135.68 881  134 881  " fill-rule="nonzero" fill="#797979" stroke="none" />
</svg>