<?xml version="1.0" encoding="utf-8"?>
<svg version="1.1" xmlns:xlink="http://www.w3.org/1999/xlink" width="12px" height="12px" viewBox="1018 872  12 12" xmlns="http://www.w3.org/2000/svg">
  <path d="M 1024 872  C 1027.36 872  1030 874.64  1030 878  C 1030 881.36  1027.36 884  1024 884  C 1020.64 884  1018 881.36  1018 878  C 1018 874.64  1020.64 872  1024 872  Z " fill-rule="nonzero" fill="#ffffff" stroke="none" />
  <path d="M 1024 872.5  C 1027.08 872.5  1029.5 874.92  1029.5 878  C 1029.5 881.08  1027.08 883.5  1024 883.5  C 1020.92 883.5  1018.5 881.08  1018.5 878  C 1018.5 874.92  1020.92 872.5  1024 872.5  Z " stroke-width="1" stroke="#797979" fill="none" />
  <path d="M 1024 881  C 1022.32 881  1021 879.68  1021 878  C 1021 876.32  1022.32 875  1024 875  C 1025.68 875  1027 876.32  1027 878  C 1027 879.68  1025.68 881  1024 881  " fill-rule="nonzero" fill="#797979" stroke="none" />
</svg>