<?xml version="1.0" encoding="utf-8"?>
<svg version="1.1" xmlns:xlink="http://www.w3.org/1999/xlink" width="12px" height="12px" viewBox="128 874  12 12" xmlns="http://www.w3.org/2000/svg">
  <path d="M 134 874  C 137.36 874  140 876.64  140 880  C 140 883.36  137.36 886  134 886  C 130.64 886  128 883.36  128 880  C 128 876.64  130.64 874  134 874  Z " fill-rule="nonzero" fill="#f0f0f0" stroke="none" />
  <path d="M 134 874.5  C 137.08 874.5  139.5 876.92  139.5 880  C 139.5 883.08  137.08 885.5  134 885.5  C 130.92 885.5  128.5 883.08  128.5 880  C 128.5 876.92  130.92 874.5  134 874.5  Z " stroke-width="1" stroke="#797979" fill="none" />
  <path d="M 134 883  C 132.32 883  131 881.68  131 880  C 131 878.32  132.32 877  134 877  C 135.68 877  137 878.32  137 880  C 137 881.68  135.68 883  134 883  " fill-rule="nonzero" fill="#797979" stroke="none" />
</svg>