<?xml version="1.0" encoding="utf-8"?>
<svg version="1.1" xmlns:xlink="http://www.w3.org/1999/xlink" width="12px" height="12px" viewBox="228 874  12 12" xmlns="http://www.w3.org/2000/svg">
  <path d="M 234 874  C 237.36 874  240 876.64  240 880  C 240 883.36  237.36 886  234 886  C 230.64 886  228 883.36  228 880  C 228 876.64  230.64 874  234 874  Z " fill-rule="nonzero" fill="#f0f0f0" stroke="none" />
  <path d="M 234 874.5  C 237.08 874.5  239.5 876.92  239.5 880  C 239.5 883.08  237.08 885.5  234 885.5  C 230.92 885.5  228.5 883.08  228.5 880  C 228.5 876.92  230.92 874.5  234 874.5  Z " stroke-width="1" stroke="#797979" fill="none" />
  <path d="M 234 883  C 232.32 883  231 881.68  231 880  C 231 878.32  232.32 877  234 877  C 235.68 877  237 878.32  237 880  C 237 881.68  235.68 883  234 883  " fill-rule="nonzero" fill="#797979" stroke="none" />
</svg>