<?xml version="1.0" encoding="utf-8"?>
<svg version="1.1" xmlns:xlink="http://www.w3.org/1999/xlink" width="12px" height="12px" viewBox="228 1104  12 12" xmlns="http://www.w3.org/2000/svg">
  <path d="M 234 1104  C 237.36 1104  240 1106.64  240 1110  C 240 1113.36  237.36 1116  234 1116  C 230.64 1116  228 1113.36  228 1110  C 228 1106.64  230.64 1104  234 1104  Z " fill-rule="nonzero" fill="#f0f0f0" stroke="none" />
  <path d="M 234 1104.5  C 237.08 1104.5  239.5 1106.92  239.5 1110  C 239.5 1113.08  237.08 1115.5  234 1115.5  C 230.92 1115.5  228.5 1113.08  228.5 1110  C 228.5 1106.92  230.92 1104.5  234 1104.5  Z " stroke-width="1" stroke="#797979" fill="none" />
  <path d="M 234 1113  C 232.32 1113  231 1111.68  231 1110  C 231 1108.32  232.32 1107  234 1107  C 235.68 1107  237 1108.32  237 1110  C 237 1111.68  235.68 1113  234 1113  " fill-rule="nonzero" fill="#797979" stroke="none" />
</svg>