<?xml version="1.0" encoding="utf-8"?>
<svg version="1.1" xmlns:xlink="http://www.w3.org/1999/xlink" width="12px" height="12px" viewBox="238 246  12 12" xmlns="http://www.w3.org/2000/svg">
  <path d="M 244 246  C 247.36 246  250 248.64  250 252  C 250 255.36  247.36 258  244 258  C 240.64 258  238 255.36  238 252  C 238 248.64  240.64 246  244 246  Z " fill-rule="nonzero" fill="#f0f0f0" stroke="none" />
  <path d="M 244 246.5  C 247.08 246.5  249.5 248.92  249.5 252  C 249.5 255.08  247.08 257.5  244 257.5  C 240.92 257.5  238.5 255.08  238.5 252  C 238.5 248.92  240.92 246.5  244 246.5  Z " stroke-width="1" stroke="#797979" fill="none" />
  <path d="M 244 255  C 242.32 255  241 253.68  241 252  C 241 250.32  242.32 249  244 249  C 245.68 249  247 250.32  247 252  C 247 253.68  245.68 255  244 255  " fill-rule="nonzero" fill="#797979" stroke="none" />
</svg>