<?xml version="1.0" encoding="utf-8"?>
<svg version="1.1" xmlns:xlink="http://www.w3.org/1999/xlink" width="12px" height="12px" viewBox="1016 873  12 12" xmlns="http://www.w3.org/2000/svg">
  <path d="M 1022 873  C 1025.36 873  1028 875.64  1028 879  C 1028 882.36  1025.36 885  1022 885  C 1018.64 885  1016 882.36  1016 879  C 1016 875.64  1018.64 873  1022 873  Z " fill-rule="nonzero" fill="#f0f0f0" stroke="none" />
  <path d="M 1022 873.5  C 1025.08 873.5  1027.5 875.92  1027.5 879  C 1027.5 882.08  1025.08 884.5  1022 884.5  C 1018.92 884.5  1016.5 882.08  1016.5 879  C 1016.5 875.92  1018.92 873.5  1022 873.5  Z " stroke-width="1" stroke="#797979" fill="none" />
  <path d="M 1022 882  C 1020.32 882  1019 880.68  1019 879  C 1019 877.32  1020.32 876  1022 876  C 1023.68 876  1025 877.32  1025 879  C 1025 880.68  1023.68 882  1022 882  " fill-rule="nonzero" fill="#797979" stroke="none" />
</svg>