<?xml version="1.0" encoding="utf-8"?>
<svg version="1.1" xmlns:xlink="http://www.w3.org/1999/xlink" width="12px" height="12px" viewBox="1028 246  12 12" xmlns="http://www.w3.org/2000/svg">
  <path d="M 1034 246  C 1037.36 246  1040 248.64  1040 252  C 1040 255.36  1037.36 258  1034 258  C 1030.64 258  1028 255.36  1028 252  C 1028 248.64  1030.64 246  1034 246  Z " fill-rule="nonzero" fill="#f0f0f0" stroke="none" />
  <path d="M 1034 246.5  C 1037.08 246.5  1039.5 248.92  1039.5 252  C 1039.5 255.08  1037.08 257.5  1034 257.5  C 1030.92 257.5  1028.5 255.08  1028.5 252  C 1028.5 248.92  1030.92 246.5  1034 246.5  Z " stroke-width="1" stroke="#797979" fill="none" />
  <path d="M 1034 255  C 1032.32 255  1031 253.68  1031 252  C 1031 250.32  1032.32 249  1034 249  C 1035.68 249  1037 250.32  1037 252  C 1037 253.68  1035.68 255  1034 255  " fill-rule="nonzero" fill="#797979" stroke="none" />
</svg>