<?xml version="1.0" encoding="utf-8"?>
<svg version="1.1" xmlns:xlink="http://www.w3.org/1999/xlink" width="12px" height="12px" viewBox="245 703  12 12" xmlns="http://www.w3.org/2000/svg">
  <path d="M 251 703  C 254.36 703  257 705.64  257 709  C 257 712.36  254.36 715  251 715  C 247.64 715  245 712.36  245 709  C 245 705.64  247.64 703  251 703  Z " fill-rule="nonzero" fill="#ffffff" stroke="none" />
  <path d="M 251 703.5  C 254.08 703.5  256.5 705.92  256.5 709  C 256.5 712.08  254.08 714.5  251 714.5  C 247.92 714.5  245.5 712.08  245.5 709  C 245.5 705.92  247.92 703.5  251 703.5  Z " stroke-width="1" stroke="#797979" fill="none" />
  <path d="M 251 712  C 249.32 712  248 710.68  248 709  C 248 707.32  249.32 706  251 706  C 252.68 706  254 707.32  254 709  C 254 710.68  252.68 712  251 712  " fill-rule="nonzero" fill="#797979" stroke="none" />
</svg>