<?xml version="1.0" encoding="utf-8"?>
<svg version="1.1" xmlns:xlink="http://www.w3.org/1999/xlink" width="12px" height="12px" viewBox="355 703  12 12" xmlns="http://www.w3.org/2000/svg">
  <path d="M 361 703  C 364.36 703  367 705.64  367 709  C 367 712.36  364.36 715  361 715  C 357.64 715  355 712.36  355 709  C 355 705.64  357.64 703  361 703  Z " fill-rule="nonzero" fill="#ffffff" stroke="none" />
  <path d="M 361 703.5  C 364.08 703.5  366.5 705.92  366.5 709  C 366.5 712.08  364.08 714.5  361 714.5  C 357.92 714.5  355.5 712.08  355.5 709  C 355.5 705.92  357.92 703.5  361 703.5  Z " stroke-width="1" stroke="#797979" fill="none" />
  <path d="M 361 712  C 359.32 712  358 710.68  358 709  C 358 707.32  359.32 706  361 706  C 362.68 706  364 707.32  364 709  C 364 710.68  362.68 712  361 712  " fill-rule="nonzero" fill="#797979" stroke="none" />
</svg>