<?xml version="1.0" encoding="utf-8"?>
<svg version="1.1" xmlns:xlink="http://www.w3.org/1999/xlink" width="12px" height="12px" viewBox="1018 1104  12 12" xmlns="http://www.w3.org/2000/svg">
  <path d="M 1024 1104  C 1027.36 1104  1030 1106.64  1030 1110  C 1030 1113.36  1027.36 1116  1024 1116  C 1020.64 1116  1018 1113.36  1018 1110  C 1018 1106.64  1020.64 1104  1024 1104  Z " fill-rule="nonzero" fill="#f0f0f0" stroke="none" />
  <path d="M 1024 1104.5  C 1027.08 1104.5  1029.5 1106.92  1029.5 1110  C 1029.5 1113.08  1027.08 1115.5  1024 1115.5  C 1020.92 1115.5  1018.5 1113.08  1018.5 1110  C 1018.5 1106.92  1020.92 1104.5  1024 1104.5  Z " stroke-width="1" stroke="#797979" fill="none" />
  <path d="M 1024 1113  C 1022.32 1113  1021 1111.68  1021 1110  C 1021 1108.32  1022.32 1107  1024 1107  C 1025.68 1107  1027 1108.32  1027 1110  C 1027 1111.68  1025.68 1113  1024 1113  " fill-rule="nonzero" fill="#797979" stroke="none" />
</svg>