<?xml version="1.0" encoding="utf-8"?>
<svg version="1.1" xmlns:xlink="http://www.w3.org/1999/xlink" width="12px" height="12px" viewBox="365 690  12 12" xmlns="http://www.w3.org/2000/svg">
  <path d="M 371 690  C 374.36 690  377 692.64  377 696  C 377 699.36  374.36 702  371 702  C 367.64 702  365 699.36  365 696  C 365 692.64  367.64 690  371 690  Z " fill-rule="nonzero" fill="#ffffff" stroke="none" />
  <path d="M 371 690.5  C 374.08 690.5  376.5 692.92  376.5 696  C 376.5 699.08  374.08 701.5  371 701.5  C 367.92 701.5  365.5 699.08  365.5 696  C 365.5 692.92  367.92 690.5  371 690.5  Z " stroke-width="1" stroke="#797979" fill="none" />
  <path d="M 371 699  C 369.32 699  368 697.68  368 696  C 368 694.32  369.32 693  371 693  C 372.68 693  374 694.32  374 696  C 374 697.68  372.68 699  371 699  " fill-rule="nonzero" fill="#797979" stroke="none" />
</svg>