<?xml version="1.0" encoding="utf-8"?>
<svg version="1.1" xmlns:xlink="http://www.w3.org/1999/xlink" width="12px" height="12px" viewBox="255 690  12 12" xmlns="http://www.w3.org/2000/svg">
  <path d="M 261 690  C 264.36 690  267 692.64  267 696  C 267 699.36  264.36 702  261 702  C 257.64 702  255 699.36  255 696  C 255 692.64  257.64 690  261 690  Z " fill-rule="nonzero" fill="#ffffff" stroke="none" />
  <path d="M 261 690.5  C 264.08 690.5  266.5 692.92  266.5 696  C 266.5 699.08  264.08 701.5  261 701.5  C 257.92 701.5  255.5 699.08  255.5 696  C 255.5 692.92  257.92 690.5  261 690.5  Z " stroke-width="1" stroke="#797979" fill="none" />
  <path d="M 261 699  C 259.32 699  258 697.68  258 696  C 258 694.32  259.32 693  261 693  C 262.68 693  264 694.32  264 696  C 264 697.68  262.68 699  261 699  " fill-rule="nonzero" fill="#797979" stroke="none" />
</svg>