<?xml version="1.0" encoding="utf-8"?>
<svg version="1.1" xmlns:xlink="http://www.w3.org/1999/xlink" width="12px" height="12px" viewBox="928 246  12 12" xmlns="http://www.w3.org/2000/svg">
  <path d="M 934 246  C 937.36 246  940 248.64  940 252  C 940 255.36  937.36 258  934 258  C 930.64 258  928 255.36  928 252  C 928 248.64  930.64 246  934 246  Z " fill-rule="nonzero" fill="#ffffff" stroke="none" />
  <path d="M 934 246.5  C 937.08 246.5  939.5 248.92  939.5 252  C 939.5 255.08  937.08 257.5  934 257.5  C 930.92 257.5  928.5 255.08  928.5 252  C 928.5 248.92  930.92 246.5  934 246.5  Z " stroke-width="1" stroke="#797979" fill="none" />
  <path d="M 934 255  C 932.32 255  931 253.68  931 252  C 931 250.32  932.32 249  934 249  C 935.68 249  937 250.32  937 252  C 937 253.68  935.68 255  934 255  " fill-rule="nonzero" fill="#797979" stroke="none" />
</svg>