<?xml version="1.0" encoding="utf-8"?>
<svg version="1.1" xmlns:xlink="http://www.w3.org/1999/xlink" width="438px" height="192px" xmlns="http://www.w3.org/2000/svg">
  <g transform="matrix(1 0 0 1 -49 -1116 )">
    <path d="M 50 1122  A 5 5 0 0 1 55 1117 L 481 1117  A 5 5 0 0 1 486 1122 L 486 1302  A 5 5 0 0 1 481 1307 L 55 1307  A 5 5 0 0 1 50 1302 L 50 1122  Z " fill-rule="nonzero" fill="#000000" stroke="none" fill-opacity="0.0196078431372549" />
    <path d="M 49.5 1122  A 5.5 5.5 0 0 1 55 1116.5 L 481 1116.5  A 5.5 5.5 0 0 1 486.5 1122 L 486.5 1302  A 5.5 5.5 0 0 1 481 1307.5 L 55 1307.5  A 5.5 5.5 0 0 1 49.5 1302 L 49.5 1122  Z " stroke-width="1" stroke-dasharray="9,4" stroke="#108ee9" fill="none" stroke-dashoffset="0.5" />
  </g>
</svg>