<?xml version="1.0" encoding="utf-8"?>
<svg version="1.1" xmlns:xlink="http://www.w3.org/1999/xlink" width="10px" height="10px" xmlns="http://www.w3.org/2000/svg">
  <g transform="matrix(1 0 0 1 -325 -55 )">
    <path d="M 330 55  C 332.8 55  335 57.2  335 60  C 335 62.8  332.8 65  330 65  C 327.2 65  325 62.8  325 60  C 325 57.2  327.2 55  330 55  Z " fill-rule="nonzero" fill="#ffcccc" stroke="none" />
    <path d="M 330 55.5  C 332.52 55.5  334.5 57.48  334.5 60  C 334.5 62.52  332.52 64.5  330 64.5  C 327.48 64.5  325.5 62.52  325.5 60  C 325.5 57.48  327.48 55.5  330 55.5  Z " stroke-width="1" stroke="#ffcccc" fill="none" />
  </g>
</svg>