<?xml version="1.0" encoding="utf-8"?>
<svg version="1.1" xmlns:xlink="http://www.w3.org/1999/xlink" width="12px" height="12px" viewBox="1057 195  12 12" xmlns="http://www.w3.org/2000/svg">
  <path d="M 1063 195  C 1066.36 195  1069 197.64  1069 201  C 1069 204.36  1066.36 207  1063 207  C 1059.64 207  1057 204.36  1057 201  C 1057 197.64  1059.64 195  1063 195  Z " fill-rule="nonzero" fill="#f0f0f0" stroke="none" />
  <path d="M 1063 195.5  C 1066.08 195.5  1068.5 197.92  1068.5 201  C 1068.5 204.08  1066.08 206.5  1063 206.5  C 1059.92 206.5  1057.5 204.08  1057.5 201  C 1057.5 197.92  1059.92 195.5  1063 195.5  Z " stroke-width="1" stroke="#797979" fill="none" />
  <path d="M 1063 204  C 1061.32 204  1060 202.68  1060 201  C 1060 199.32  1061.32 198  1063 198  C 1064.68 198  1066 199.32  1066 201  C 1066 202.68  1064.68 204  1063 204  " fill-rule="nonzero" fill="#797979" stroke="none" />
</svg>