<?xml version="1.0" encoding="utf-8"?>
<svg version="1.1" xmlns:xlink="http://www.w3.org/1999/xlink" width="12px" height="12px" viewBox="189 235  12 12" xmlns="http://www.w3.org/2000/svg">
  <path d="M 195 235  C 198.36 235  201 237.64  201 241  C 201 244.36  198.36 247  195 247  C 191.64 247  189 244.36  189 241  C 189 237.64  191.64 235  195 235  Z " fill-rule="nonzero" fill="#f0f0f0" stroke="none" />
  <path d="M 195 235.5  C 198.08 235.5  200.5 237.92  200.5 241  C 200.5 244.08  198.08 246.5  195 246.5  C 191.92 246.5  189.5 244.08  189.5 241  C 189.5 237.92  191.92 235.5  195 235.5  Z " stroke-width="1" stroke="#797979" fill="none" />
  <path d="M 195 244  C 193.32 244  192 242.68  192 241  C 192 239.32  193.32 238  195 238  C 196.68 238  198 239.32  198 241  C 198 242.68  196.68 244  195 244  " fill-rule="nonzero" fill="#797979" stroke="none" />
</svg>