<?xml version="1.0" encoding="utf-8"?>
<svg version="1.1" xmlns:xlink="http://www.w3.org/1999/xlink" width="12px" height="12px" viewBox="903 150  12 12" xmlns="http://www.w3.org/2000/svg">
  <path d="M 909 150  C 912.36 150  915 152.64  915 156  C 915 159.36  912.36 162  909 162  C 905.64 162  903 159.36  903 156  C 903 152.64  905.64 150  909 150  Z " fill-rule="nonzero" fill="#f0f0f0" stroke="none" />
  <path d="M 909 150.5  C 912.08 150.5  914.5 152.92  914.5 156  C 914.5 159.08  912.08 161.5  909 161.5  C 905.92 161.5  903.5 159.08  903.5 156  C 903.5 152.92  905.92 150.5  909 150.5  Z " stroke-width="1" stroke="#797979" fill="none" />
  <path d="M 909 159  C 907.32 159  906 157.68  906 156  C 906 154.32  907.32 153  909 153  C 910.68 153  912 154.32  912 156  C 912 157.68  910.68 159  909 159  " fill-rule="nonzero" fill="#797979" stroke="none" />
</svg>