<?xml version="1.0" encoding="utf-8"?>
<svg version="1.1" xmlns:xlink="http://www.w3.org/1999/xlink" width="12px" height="12px" viewBox="806 195  12 12" xmlns="http://www.w3.org/2000/svg">
  <path d="M 812 195  C 815.36 195  818 197.64  818 201  C 818 204.36  815.36 207  812 207  C 808.64 207  806 204.36  806 201  C 806 197.64  808.64 195  812 195  Z " fill-rule="nonzero" fill="#ffffff" stroke="none" />
  <path d="M 812 195.5  C 815.08 195.5  817.5 197.92  817.5 201  C 817.5 204.08  815.08 206.5  812 206.5  C 808.92 206.5  806.5 204.08  806.5 201  C 806.5 197.92  808.92 195.5  812 195.5  Z " stroke-width="1" stroke="#797979" fill="none" />
  <path d="M 812 204  C 810.32 204  809 202.68  809 201  C 809 199.32  810.32 198  812 198  C 813.68 198  815 199.32  815 201  C 815 202.68  813.68 204  812 204  " fill-rule="nonzero" fill="#797979" stroke="none" />
</svg>