<?xml version="1.0" encoding="utf-8"?>
<svg version="1.1" xmlns:xlink="http://www.w3.org/1999/xlink" width="12px" height="12px" viewBox="289 195  12 12" xmlns="http://www.w3.org/2000/svg">
  <path d="M 295 195  C 298.36 195  301 197.64  301 201  C 301 204.36  298.36 207  295 207  C 291.64 207  289 204.36  289 201  C 289 197.64  291.64 195  295 195  Z " fill-rule="nonzero" fill="#ffffff" stroke="none" />
  <path d="M 295 195.5  C 298.08 195.5  300.5 197.92  300.5 201  C 300.5 204.08  298.08 206.5  295 206.5  C 291.92 206.5  289.5 204.08  289.5 201  C 289.5 197.92  291.92 195.5  295 195.5  Z " stroke-width="1" stroke="#797979" fill="none" />
  <path d="M 295 204  C 293.32 204  292 202.68  292 201  C 292 199.32  293.32 198  295 198  C 296.68 198  298 199.32  298 201  C 298 202.68  296.68 204  295 204  " fill-rule="nonzero" fill="#797979" stroke="none" />
</svg>