<svg t="1608806126613" class="icon" viewBox="0 0 1024 1024" version="1.1" xmlns="http://www.w3.org/2000/svg" p-id="4867" width="200" height="200"><path d="M512 539.151515m-445.99596 0a445.99596 445.99596 0 1 0 891.99192 0 445.99596 445.99596 0 1 0-891.99192 0Z" fill="#00BF00" p-id="4868"></path><path d="M759.003798 405.970747l-19.479273-19.225858c-1.740283-1.718303-4.710141-1.837253-6.617212-0.249535L445.018505 626.191515c-3.811556 3.174141-10.042182 3.27499-13.966222 0.268929l-116.465778-89.213414c-1.925172-1.473939-4.724364-1.083475-6.19701 0.91798l-20.478707 27.848404c-1.488162 2.024727-1.265778 5.070869 0.45899 6.855111l143.596606 148.529132c3.399111 3.515475 9.015596 3.609859 12.510384 0.171959l314.485656-309.320404c1.76097-1.733818 1.789414-4.553697 0.041374-6.278465z" fill="#FFFFFF" p-id="4869"></path></svg>