<svg t="1585557627889" class="icon" viewBox="0 0 1024 1024" version="1.1" xmlns="http://www.w3.org/2000/svg" p-id="9022" width="200" height="200"><path d="M0.4335 1.257151h1021.478473v1021.492923H0.4335z" fill="#769AFF" p-id="9023"></path><path d="M0.4335 1.257151l1021.471248 1021.485698M0.4335 1022.742849L1021.904748 1.257151" fill="#769AFF" p-id="9024"></path><path d="M881.848021 439.453722H577.624723V135.237649a65.025048 65.025048 0 0 0-65.025048-65.025048 65.025048 65.025048 0 0 0-65.025047 65.025048v304.216073H143.358555a65.025048 65.025048 0 0 0-65.025048 65.025047 65.025048 65.025048 0 0 0 65.025048 65.025048h304.216073v304.223298a65.025048 65.025048 0 0 0 65.025047 65.025048 65.025048 65.025048 0 0 0 65.025048-65.025048V569.503817h304.223298a65.025048 65.025048 0 0 0 0-130.050095z" fill="#FFFFFF" p-id="9025"></path></svg>