<?xml version="1.0" encoding="utf-8"?>
<svg version="1.1" xmlns:xlink="http://www.w3.org/1999/xlink" width="12px" height="12px" viewBox="603 312  12 12" xmlns="http://www.w3.org/2000/svg">
  <path d="M 609 312  C 612.36 312  615 314.64  615 318  C 615 321.36  612.36 324  609 324  C 605.64 324  603 321.36  603 318  C 603 314.64  605.64 312  609 312  Z " fill-rule="nonzero" fill="#ffffff" stroke="none" />
  <path d="M 609 312.5  C 612.08 312.5  614.5 314.92  614.5 318  C 614.5 321.08  612.08 323.5  609 323.5  C 605.92 323.5  603.5 321.08  603.5 318  C 603.5 314.92  605.92 312.5  609 312.5  Z " stroke-width="1" stroke="#797979" fill="none" />
  <path d="M 609 321  C 607.32 321  606 319.68  606 318  C 606 316.32  607.32 315  609 315  C 610.68 315  612 316.32  612 318  C 612 319.68  610.68 321  609 321  " fill-rule="nonzero" fill="#797979" stroke="none" />
</svg>