<?xml version="1.0" encoding="utf-8"?>
<svg version="1.1" xmlns:xlink="http://www.w3.org/1999/xlink" width="12px" height="12px" viewBox="603 399  12 12" xmlns="http://www.w3.org/2000/svg">
  <path d="M 609 399  C 612.36 399  615 401.64  615 405  C 615 408.36  612.36 411  609 411  C 605.64 411  603 408.36  603 405  C 603 401.64  605.64 399  609 399  Z " fill-rule="nonzero" fill="#f0f0f0" stroke="none" />
  <path d="M 609 399.5  C 612.08 399.5  614.5 401.92  614.5 405  C 614.5 408.08  612.08 410.5  609 410.5  C 605.92 410.5  603.5 408.08  603.5 405  C 603.5 401.92  605.92 399.5  609 399.5  Z " stroke-width="1" stroke="#797979" fill="none" />
  <path d="M 609 408  C 607.32 408  606 406.68  606 405  C 606 403.32  607.32 402  609 402  C 610.68 402  612 403.32  612 405  C 612 406.68  610.68 408  609 408  " fill-rule="nonzero" fill="#797979" stroke="none" />
</svg>