<?xml version="1.0" encoding="utf-8"?>
<svg version="1.1" xmlns:xlink="http://www.w3.org/1999/xlink" width="12px" height="12px" viewBox="503 399  12 12" xmlns="http://www.w3.org/2000/svg">
  <path d="M 509 399  C 512.36 399  515 401.64  515 405  C 515 408.36  512.36 411  509 411  C 505.64 411  503 408.36  503 405  C 503 401.64  505.64 399  509 399  Z " fill-rule="nonzero" fill="#f0f0f0" stroke="none" />
  <path d="M 509 399.5  C 512.08 399.5  514.5 401.92  514.5 405  C 514.5 408.08  512.08 410.5  509 410.5  C 505.92 410.5  503.5 408.08  503.5 405  C 503.5 401.92  505.92 399.5  509 399.5  Z " stroke-width="1" stroke="#797979" fill="none" />
  <path d="M 509 408  C 507.32 408  506 406.68  506 405  C 506 403.32  507.32 402  509 402  C 510.68 402  512 403.32  512 405  C 512 406.68  510.68 408  509 408  " fill-rule="nonzero" fill="#797979" stroke="none" />
</svg>