<?xml version="1.0" encoding="utf-8"?>
<svg version="1.1" xmlns:xlink="http://www.w3.org/1999/xlink" width="12px" height="12px" viewBox="706 676  12 12" xmlns="http://www.w3.org/2000/svg">
  <path d="M 712 676  C 715.36 676  718 678.64  718 682  C 718 685.36  715.36 688  712 688  C 708.64 688  706 685.36  706 682  C 706 678.64  708.64 676  712 676  Z " fill-rule="nonzero" fill="#f0f0f0" stroke="none" />
  <path d="M 712 676.5  C 715.08 676.5  717.5 678.92  717.5 682  C 717.5 685.08  715.08 687.5  712 687.5  C 708.92 687.5  706.5 685.08  706.5 682  C 706.5 678.92  708.92 676.5  712 676.5  Z " stroke-width="1" stroke="#797979" fill="none" />
  <path d="M 712 685  C 710.32 685  709 683.68  709 682  C 709 680.32  710.32 679  712 679  C 713.68 679  715 680.32  715 682  C 715 683.68  713.68 685  712 685  " fill-rule="nonzero" fill="#797979" stroke="none" />
</svg>