<?xml version="1.0" encoding="utf-8"?>
<svg version="1.1" xmlns:xlink="http://www.w3.org/1999/xlink" width="12px" height="12px" viewBox="806 676  12 12" xmlns="http://www.w3.org/2000/svg">
  <path d="M 812 676  C 815.36 676  818 678.64  818 682  C 818 685.36  815.36 688  812 688  C 808.64 688  806 685.36  806 682  C 806 678.64  808.64 676  812 676  Z " fill-rule="nonzero" fill="#f0f0f0" stroke="none" />
  <path d="M 812 676.5  C 815.08 676.5  817.5 678.92  817.5 682  C 817.5 685.08  815.08 687.5  812 687.5  C 808.92 687.5  806.5 685.08  806.5 682  C 806.5 678.92  808.92 676.5  812 676.5  Z " stroke-width="1" stroke="#797979" fill="none" />
  <path d="M 812 685  C 810.32 685  809 683.68  809 682  C 809 680.32  810.32 679  812 679  C 813.68 679  815 680.32  815 682  C 815 683.68  813.68 685  812 685  " fill-rule="nonzero" fill="#797979" stroke="none" />
</svg>