<svg t="1611642076777" class="icon" viewBox="0 0 1024 1024" version="1.1" xmlns="http://www.w3.org/2000/svg" p-id="12725" width="200" height="200"><path d="M512 1024C230.4 1024 0 793.6 0 512S230.4 0 512 0s512 230.4 512 512-230.4 512-512 512z m0-956.8C268.8 67.2 70.4 268.8 70.4 512c0 243.2 198.4 444.8 444.8 444.8C758.4 956.8 960 758.4 960 512c-3.2-243.2-204.8-444.8-448-444.8z" fill="#F78D3F" p-id="12726"></path><path d="M448 195.2c19.2-16 41.6-25.6 64-25.6 25.6 0 48 9.6 64 25.6s25.6 41.6 25.6 64-9.6 44.8-25.6 57.6c-19.2 12.8-41.6 19.2-64 19.2-22.4 3.2-48-3.2-64-19.2-16-19.2-25.6-41.6-25.6-64s9.6-44.8 25.6-57.6zM652.8 828.8c-22.4 6.4-48 12.8-70.4 19.2-22.4 6.4-41.6 6.4-64 6.4-32 3.2-60.8-6.4-83.2-25.6-19.2-16-32-38.4-32-64 0 0 0-54.4 6.4-70.4l38.4-131.2c12.8-32 19.2-80 0-89.6-19.2-3.2-70.4 0-89.6 12.8l12.8-38.4c25.6-6.4 44.8-19.2 70.4-25.6 22.4-6.4 41.6-12.8 64-12.8 32-3.2 60.8 6.4 83.2 25.6 19.2 16 32 38.4 32 64v32c0 12.8-3.2 25.6-6.4 38.4L576 700.8c-6.4 12.8-12.8 54.4-12.8 64 0 12.8 3.2 25.6 12.8 32 6.4 6.4 19.2 6.4 38.4 6.4 9.6 0 22.4-3.2 32-6.4 19.2-6.4 19.2-6.4 25.6-6.4l-19.2 38.4z" fill="#F78D3F" p-id="12727"></path></svg>