<?xml version="1.0" encoding="utf-8"?>
<svg version="1.1" xmlns:xlink="http://www.w3.org/1999/xlink" width="12px" height="12px" viewBox="163 443  12 12" xmlns="http://www.w3.org/2000/svg">
  <path d="M 169 443  C 172.36 443  175 445.64  175 449  C 175 452.36  172.36 455  169 455  C 165.64 455  163 452.36  163 449  C 163 445.64  165.64 443  169 443  Z " fill-rule="nonzero" fill="#f0f0f0" stroke="none" />
  <path d="M 169 443.5  C 172.08 443.5  174.5 445.92  174.5 449  C 174.5 452.08  172.08 454.5  169 454.5  C 165.92 454.5  163.5 452.08  163.5 449  C 163.5 445.92  165.92 443.5  169 443.5  Z " stroke-width="1" stroke="#797979" fill="none" />
  <path d="M 169 452  C 167.32 452  166 450.68  166 449  C 166 447.32  167.32 446  169 446  C 170.68 446  172 447.32  172 449  C 172 450.68  170.68 452  169 452  " fill-rule="nonzero" fill="#797979" stroke="none" />
</svg>