<?xml version="1.0" encoding="utf-8"?>
<svg version="1.1" xmlns:xlink="http://www.w3.org/1999/xlink" width="12px" height="12px" viewBox="263 443  12 12" xmlns="http://www.w3.org/2000/svg">
  <path d="M 269 443  C 272.36 443  275 445.64  275 449  C 275 452.36  272.36 455  269 455  C 265.64 455  263 452.36  263 449  C 263 445.64  265.64 443  269 443  Z " fill-rule="nonzero" fill="#ffffff" stroke="none" />
  <path d="M 269 443.5  C 272.08 443.5  274.5 445.92  274.5 449  C 274.5 452.08  272.08 454.5  269 454.5  C 265.92 454.5  263.5 452.08  263.5 449  C 263.5 445.92  265.92 443.5  269 443.5  Z " stroke-width="1" stroke="#797979" fill="none" />
  <path d="M 269 452  C 267.32 452  266 450.68  266 449  C 266 447.32  267.32 446  269 446  C 270.68 446  272 447.32  272 449  C 272 450.68  270.68 452  269 452  " fill-rule="nonzero" fill="#797979" stroke="none" />
</svg>