<?xml version="1.0" encoding="utf-8"?>
<svg version="1.1" xmlns:xlink="http://www.w3.org/1999/xlink" width="12px" height="12px" viewBox="249 418  12 12" xmlns="http://www.w3.org/2000/svg">
  <path d="M 255 418  C 258.36 418  261 420.64  261 424  C 261 427.36  258.36 430  255 430  C 251.64 430  249 427.36  249 424  C 249 420.64  251.64 418  255 418  Z " fill-rule="nonzero" fill="#ffffff" stroke="none" />
  <path d="M 255 418.5  C 258.08 418.5  260.5 420.92  260.5 424  C 260.5 427.08  258.08 429.5  255 429.5  C 251.92 429.5  249.5 427.08  249.5 424  C 249.5 420.92  251.92 418.5  255 418.5  Z " stroke-width="1" stroke="#797979" fill="none" />
  <path d="M 255 427  C 253.32 427  252 425.68  252 424  C 252 422.32  253.32 421  255 421  C 256.68 421  258 422.32  258 424  C 258 425.68  256.68 427  255 427  " fill-rule="nonzero" fill="#797979" stroke="none" />
</svg>