<?xml version="1.0" encoding="utf-8"?>
<svg version="1.1" xmlns:xlink="http://www.w3.org/1999/xlink" width="12px" height="12px" viewBox="882 221  12 12" xmlns="http://www.w3.org/2000/svg">
  <path d="M 888 221  C 891.36 221  894 223.64  894 227  C 894 230.36  891.36 233  888 233  C 884.64 233  882 230.36  882 227  C 882 223.64  884.64 221  888 221  Z " fill-rule="nonzero" fill="#f0f0f0" stroke="none" />
  <path d="M 888 221.5  C 891.08 221.5  893.5 223.92  893.5 227  C 893.5 230.08  891.08 232.5  888 232.5  C 884.92 232.5  882.5 230.08  882.5 227  C 882.5 223.92  884.92 221.5  888 221.5  Z " stroke-width="1" stroke="#797979" fill="none" />
  <path d="M 888 230  C 886.32 230  885 228.68  885 227  C 885 225.32  886.32 224  888 224  C 889.68 224  891 225.32  891 227  C 891 228.68  889.68 230  888 230  " fill-rule="nonzero" fill="#797979" stroke="none" />
</svg>