<?xml version="1.0" encoding="utf-8"?>
<svg version="1.1" xmlns:xlink="http://www.w3.org/1999/xlink" width="12px" height="12px" viewBox="355 147  12 12" xmlns="http://www.w3.org/2000/svg">
  <path d="M 361 147  C 364.36 147  367 149.64  367 153  C 367 156.36  364.36 159  361 159  C 357.64 159  355 156.36  355 153  C 355 149.64  357.64 147  361 147  Z " fill-rule="nonzero" fill="#f0f0f0" stroke="none" />
  <path d="M 361 147.5  C 364.08 147.5  366.5 149.92  366.5 153  C 366.5 156.08  364.08 158.5  361 158.5  C 357.92 158.5  355.5 156.08  355.5 153  C 355.5 149.92  357.92 147.5  361 147.5  Z " stroke-width="1" stroke="#797979" fill="none" />
  <path d="M 361 156  C 359.32 156  358 154.68  358 153  C 358 151.32  359.32 150  361 150  C 362.68 150  364 151.32  364 153  C 364 154.68  362.68 156  361 156  " fill-rule="nonzero" fill="#797979" stroke="none" />
</svg>