<?xml version="1.0" encoding="utf-8"?>
<svg version="1.1" xmlns:xlink="http://www.w3.org/1999/xlink" width="12px" height="12px" viewBox="162 418  12 12" xmlns="http://www.w3.org/2000/svg">
  <path d="M 168 418  C 171.36 418  174 420.64  174 424  C 174 427.36  171.36 430  168 430  C 164.64 430  162 427.36  162 424  C 162 420.64  164.64 418  168 418  Z " fill-rule="nonzero" fill="#f0f0f0" stroke="none" />
  <path d="M 168 418.5  C 171.08 418.5  173.5 420.92  173.5 424  C 173.5 427.08  171.08 429.5  168 429.5  C 164.92 429.5  162.5 427.08  162.5 424  C 162.5 420.92  164.92 418.5  168 418.5  Z " stroke-width="1" stroke="#797979" fill="none" />
  <path d="M 168 427  C 166.32 427  165 425.68  165 424  C 165 422.32  166.32 421  168 421  C 169.68 421  171 422.32  171 424  C 171 425.68  169.68 427  168 427  " fill-rule="nonzero" fill="#797979" stroke="none" />
</svg>