<?xml version="1.0" encoding="utf-8"?>
<svg version="1.1" xmlns:xlink="http://www.w3.org/1999/xlink" width="12px" height="12px" viewBox="255 147  12 12" xmlns="http://www.w3.org/2000/svg">
  <path d="M 261 147  C 264.36 147  267 149.64  267 153  C 267 156.36  264.36 159  261 159  C 257.64 159  255 156.36  255 153  C 255 149.64  257.64 147  261 147  Z " fill-rule="nonzero" fill="#f0f0f0" stroke="none" />
  <path d="M 261 147.5  C 264.08 147.5  266.5 149.92  266.5 153  C 266.5 156.08  264.08 158.5  261 158.5  C 257.92 158.5  255.5 156.08  255.5 153  C 255.5 149.92  257.92 147.5  261 147.5  Z " stroke-width="1" stroke="#797979" fill="none" />
  <path d="M 261 156  C 259.32 156  258 154.68  258 153  C 258 151.32  259.32 150  261 150  C 262.68 150  264 151.32  264 153  C 264 154.68  262.68 156  261 156  " fill-rule="nonzero" fill="#797979" stroke="none" />
</svg>