<?xml version="1.0" encoding="utf-8"?>
<svg version="1.1" xmlns:xlink="http://www.w3.org/1999/xlink" width="12px" height="12px" viewBox="849 441  12 12" xmlns="http://www.w3.org/2000/svg">
  <path d="M 855 441  C 858.36 441  861 443.64  861 447  C 861 450.36  858.36 453  855 453  C 851.64 453  849 450.36  849 447  C 849 443.64  851.64 441  855 441  Z " fill-rule="nonzero" fill="#f0f0f0" stroke="none" />
  <path d="M 855 441.5  C 858.08 441.5  860.5 443.92  860.5 447  C 860.5 450.08  858.08 452.5  855 452.5  C 851.92 452.5  849.5 450.08  849.5 447  C 849.5 443.92  851.92 441.5  855 441.5  Z " stroke-width="1" stroke="#797979" fill="none" />
  <path d="M 855 450  C 853.32 450  852 448.68  852 447  C 852 445.32  853.32 444  855 444  C 856.68 444  858 445.32  858 447  C 858 448.68  856.68 450  855 450  " fill-rule="nonzero" fill="#797979" stroke="none" />
</svg>