<?xml version="1.0" encoding="utf-8"?>
<svg version="1.1" xmlns:xlink="http://www.w3.org/1999/xlink" width="1252px" height="32px" xmlns="http://www.w3.org/2000/svg">
  <g transform="matrix(1 0 0 1 -95 -340 )">
    <path d="M 96 344  A 3 3 0 0 1 99 341 L 1343 341  A 3 3 0 0 1 1346 344 L 1346 368  A 3 3 0 0 1 1343 371 L 99 371  A 3 3 0 0 1 96 368 L 96 344  Z " fill-rule="nonzero" fill="#ffffff" stroke="none" />
    <path d="M 95.5 344  A 3.5 3.5 0 0 1 99 340.5 L 1343 340.5  A 3.5 3.5 0 0 1 1346.5 344 L 1346.5 368  A 3.5 3.5 0 0 1 1343 371.5 L 99 371.5  A 3.5 3.5 0 0 1 95.5 368 L 95.5 344  Z " stroke-width="1" stroke-dasharray="9,4" stroke="#d9d9d9" fill="none" stroke-dashoffset="0.5" />
  </g>
</svg>