<?xml version="1.0" encoding="utf-8"?>
<svg version="1.1" xmlns:xlink="http://www.w3.org/1999/xlink" width="12px" height="12px" viewBox="1049 163  12 12" xmlns="http://www.w3.org/2000/svg">
  <path d="M 1055 163  C 1058.36 163  1061 165.64  1061 169  C 1061 172.36  1058.36 175  1055 175  C 1051.64 175  1049 172.36  1049 169  C 1049 165.64  1051.64 163  1055 163  Z " fill-rule="nonzero" fill="#ffffff" stroke="none" />
  <path d="M 1055 163.5  C 1058.08 163.5  1060.5 165.92  1060.5 169  C 1060.5 172.08  1058.08 174.5  1055 174.5  C 1051.92 174.5  1049.5 172.08  1049.5 169  C 1049.5 165.92  1051.92 163.5  1055 163.5  Z " stroke-width="1" stroke="#797979" fill="none" />
  <path d="M 1055 172  C 1053.32 172  1052 170.68  1052 169  C 1052 167.32  1053.32 166  1055 166  C 1056.68 166  1058 167.32  1058 169  C 1058 170.68  1056.68 172  1055 172  " fill-rule="nonzero" fill="#797979" stroke="none" />
</svg>