<?xml version="1.0" encoding="utf-8"?>
<svg version="1.1" xmlns:xlink="http://www.w3.org/1999/xlink" width="12px" height="12px" viewBox="869 163  12 12" xmlns="http://www.w3.org/2000/svg">
  <path d="M 875 163  C 878.36 163  881 165.64  881 169  C 881 172.36  878.36 175  875 175  C 871.64 175  869 172.36  869 169  C 869 165.64  871.64 163  875 163  Z " fill-rule="nonzero" fill="#f0f0f0" stroke="none" />
  <path d="M 875 163.5  C 878.08 163.5  880.5 165.92  880.5 169  C 880.5 172.08  878.08 174.5  875 174.5  C 871.92 174.5  869.5 172.08  869.5 169  C 869.5 165.92  871.92 163.5  875 163.5  Z " stroke-width="1" stroke="#797979" fill="none" />
  <path d="M 875 172  C 873.32 172  872 170.68  872 169  C 872 167.32  873.32 166  875 166  C 876.68 166  878 167.32  878 169  C 878 170.68  876.68 172  875 172  " fill-rule="nonzero" fill="#797979" stroke="none" />
</svg>