<?xml version="1.0" encoding="utf-8"?>
<svg version="1.1" xmlns:xlink="http://www.w3.org/1999/xlink" width="12px" height="12px" viewBox="961 163  12 12" xmlns="http://www.w3.org/2000/svg">
  <path d="M 967 163  C 970.36 163  973 165.64  973 169  C 973 172.36  970.36 175  967 175  C 963.64 175  961 172.36  961 169  C 961 165.64  963.64 163  967 163  Z " fill-rule="nonzero" fill="#ffffff" stroke="none" />
  <path d="M 967 163.5  C 970.08 163.5  972.5 165.92  972.5 169  C 972.5 172.08  970.08 174.5  967 174.5  C 963.92 174.5  961.5 172.08  961.5 169  C 961.5 165.92  963.92 163.5  967 163.5  Z " stroke-width="1" stroke="#797979" fill="none" />
  <path d="M 967 172  C 965.32 172  964 170.68  964 169  C 964 167.32  965.32 166  967 166  C 968.68 166  970 167.32  970 169  C 970 170.68  968.68 172  967 172  " fill-rule="nonzero" fill="#797979" stroke="none" />
</svg>