<?xml version="1.0" encoding="utf-8"?>
<svg version="1.1" xmlns:xlink="http://www.w3.org/1999/xlink" width="106px" height="46px" xmlns="http://www.w3.org/2000/svg">
  <defs>
    <filter x="362px" y="516px" width="106px" height="46px" filterUnits="userSpaceOnUse" id="filter6">
      <feOffset dx="0" dy="0" in="SourceAlpha" result="shadowOffsetInner" />
      <feGaussianBlur stdDeviation="1.5" in="shadowOffsetInner" result="shadowGaussian" />
      <feComposite in2="shadowGaussian" operator="atop" in="SourceAlpha" result="shadowComposite" />
      <feColorMatrix type="matrix" values="0 0 0 0 0  0 0 0 0 0.6  0 0 0 0 1  0 0 0 1 0  " in="shadowComposite" />
    </filter>
    <g id="widget7">
      <path d="M 415 520  C 442.44 520  464 528.36  464 539  C 464 549.64  442.44 558  415 558  C 387.56 558  366 549.64  366 539  C 366 528.36  387.56 520  415 520  Z " fill-rule="nonzero" fill="#0099ff" stroke="none" fill-opacity="0.0980392156862745" />
      <path d="M 415 520  C 442.44 520  464 528.36  464 539  C 464 549.64  442.44 558  415 558  C 387.56 558  366 549.64  366 539  C 366 528.36  387.56 520  415 520  Z " stroke-width="2" stroke="#0099ff" fill="none" />
    </g>
  </defs>
  <g transform="matrix(1 0 0 1 -362 -516 )">
    <use xlink:href="#widget7" filter="url(#filter6)" />
    <use xlink:href="#widget7" />
  </g>
</svg>