<?xml version="1.0" encoding="utf-8"?>
<svg version="1.1" xmlns:xlink="http://www.w3.org/1999/xlink" width="204px" height="89px" xmlns="http://www.w3.org/2000/svg">
  <defs>
    <mask fill="white" id="clip1">
      <path d="M 0 89  L 0 8  L 93.639344262295 8  L 101.76112412178 0  L 110.360655737705 8  L 204 8  L 204 89  L 0 89  Z " fill-rule="evenodd" />
    </mask>
  </defs>
  <g transform="matrix(1 0 0 1 -1483 -65 )">
    <path d="M 0 89  L 0 8  L 93.639344262295 8  L 101.76112412178 0  L 110.360655737705 8  L 204 8  L 204 89  L 0 89  Z " fill-rule="nonzero" fill="#ffffff" stroke="none" transform="matrix(1 0 0 1 1483 65 )" />
    <path d="M 0 89  L 0 8  L 93.639344262295 8  L 101.76112412178 0  L 110.360655737705 8  L 204 8  L 204 89  L 0 89  Z " stroke-width="2" stroke-dasharray="3,1" stroke="#a1a1a1" fill="none" transform="matrix(1 0 0 1 1483 65 )" mask="url(#clip1)" />
  </g>
</svg>