<svg t="1596730910247" class="icon" viewBox="0 0 1024 1024" version="1.1" xmlns="http://www.w3.org/2000/svg" p-id="744" width="200" height="200"><path d="M65.42336 223.13472h699.9808c19.91168 0 36.20864-16.43008 36.20864-36.51072-0.00512-20.08064-16.30208-36.51072-36.20864-36.51072H65.42336c-19.91168 0-36.20352 16.43008-36.20352 36.51072s16.29696 36.51072 36.20352 36.51072z m0 219.06944h579.29728c19.9168 0 36.20352-16.43008 36.20352-36.51072s-16.29184-36.51072-36.20352-36.51072H65.42336c-19.91168 0-36.20352 16.43008-36.20352 36.51072s16.29696 36.51072 36.20352 36.51072z m458.60864 146.04288H65.42336c-19.91168 0-36.20352 16.43008-36.20352 36.51072 0 20.08576 16.29696 36.51072 36.20352 36.51072h458.60352c19.9168 0 36.20864-16.42496 36.20864-36.51072 0.00512-20.08064-16.29184-36.51072-36.20352-36.51072z m-96.54784 219.06944H65.42336c-19.91168 0-36.20352 16.43008-36.20352 36.51072 0 20.08576 16.29696 36.51072 36.20352 36.51072h362.05568c19.91168 0 36.20352-16.42496 36.20352-36.51072 0.00512-20.08064-16.28672-36.51072-36.1984-36.51072zM964.91008 229.65248c-28.73344-17.01888-65.72032-7.3216-82.59072 21.66272l-18.33472 31.48288 104.07424 61.62944 18.3296-31.48288c16.8704-28.98432 7.26016-66.27328-21.4784-83.29216z m-333.13792 451.95264l104.06912 61.62944 219.99616-377.82016-104.07424-61.62432-219.99104 377.81504z m-45.7472 198.72768l137.59488-116.11136-104.06912-61.62944-33.52576 177.7408z" fill="#1296db" p-id="745"></path></svg>