<svg t="1596731381011" class="icon" viewBox="0 0 1024 1024" version="1.1" xmlns="http://www.w3.org/2000/svg" p-id="1804" width="200" height="200"><path d="M95.6 691.2h312.1c-21.6-17.8-41.2-37.9-58.5-60H162.5c-22 0-44-0.4-66 0h-1c-15.7 0-30.7 13.8-30 30 0.8 16.3 13.3 30 30.1 30zM162.6 388.6c-22 0-44-0.4-66 0h-1c-15.7 0-30.7 13.8-30 30 0.7 16.3 13.2 30 30 30h176.8c-2.2-16.7-3.4-33.7-3.4-51 0-3 0-6 0.1-9H162.6zM94.6 197.6h231.2c13.4-21.5 28.8-41.6 46-60H161.5c-22 0-44-0.4-66 0h-1c-15.7 0-30.7 13.8-30 30 0.8 16.3 13.3 30 30.1 30zM670.5 893.6c-0.7-16.3-13.2-30-30-30H164.1c-22 0-44-0.4-66 0h-1c-15.7 0-30.7 13.8-30 30 0.7 16.3 13.2 30 30 30h476.4c22 0 44 0.4 66 0h1c15.7 0 30.7-13.8 30-30z" fill="#007FCB" p-id="1805"></path><path d="M960 394.8c-0.2-59.8-18.4-120-53.2-168.7-35.7-49.9-84.5-87.5-142.2-108.6-56.8-20.9-121.1-22.6-179.2-6.2-56.2 15.9-108.3 49.1-145.4 94.2-39.7 48.2-63.4 106.1-68.3 168.4-4.7 60 10.3 121.9 41.5 173.3 30.2 49.7 75.5 91.1 128.6 115 29.7 13.4 59.9 21.6 92.3 25.4 30.5 3.6 61.6 1.6 91.6-4.4 57.5-11.5 111.6-41.9 152.1-84.3 40.7-42.5 69.2-97.6 78.1-155.9 2.4-16 4.1-32 4.1-48.2 0-15.7-13.8-30.7-30-30-16.3 0.7-30 13.2-30 30 0 12.1-0.8 24.1-2.4 36.1 0.4-2.7 0.7-5.3 1.1-8-3.2 22.8-9.2 45-18.1 66.2l3-7.2c-5.2 12.2-11.2 24-18.1 35.3-3.4 5.6-7.1 11.1-10.9 16.4-0.9 1.2-1.8 2.5-2.7 3.7-0.5 0.7-1.1 1.4-1.6 2.1-1.8 2.4 2.9-4.1 2.7-3.5-1 2.7-4.7 5.9-6.6 8.1-8.5 10-17.7 19.4-27.5 28.1-2.3 2-4.6 4-7 5.9-1.4 1.1-2.7 2.2-4.1 3.3-0.9 0.7-3 2.3 1-0.7 4.3-3.3 0.9-0.7-0.1 0-5.3 3.9-10.7 7.7-16.2 11.2-12.6 8.1-26 15-39.8 20.9l7.2-3c-21.2 8.9-43.5 14.9-66.2 18.1 2.7-0.4 5.3-0.7 8-1.1-24 3.2-48.3 3.2-72.3 0 2.7 0.4 5.3 0.7 8 1.1-22.8-3.2-45-9.2-66.2-18.1l7.2 3c-12.2-5.2-24-11.2-35.3-18.1-5.6-3.4-11.1-7.1-16.4-10.9-1.2-0.9-2.5-1.8-3.7-2.7-0.7-0.5-1.4-1.1-2.1-1.6-2.4-1.8 4.1 2.9 3.5 2.7-2.7-1-5.9-4.7-8.1-6.6-10-8.5-19.4-17.7-28.1-27.5-2-2.3-4-4.6-5.9-7-1.1-1.4-2.2-2.7-3.3-4.1-0.7-0.9-2.3-3 0.7 1 3.3 4.3 0.7 0.9 0-0.1-3.9-5.3-7.7-10.7-11.2-16.2-8.1-12.6-15-26-20.9-39.8l3 7.2c-8.9-21.2-14.9-43.5-18.1-66.2 0.4 2.7 0.7 5.3 1.1 8-3.2-24-3.2-48.3 0-72.3-0.4 2.7-0.7 5.3-1.1 8 3.2-22.8 9.2-45 18.1-66.2l-3 7.2c5.2-12.2 11.2-24 18.1-35.3 3.4-5.6 7.1-11.1 10.9-16.4 0.9-1.2 1.8-2.5 2.7-3.7 0.5-0.7 1.1-1.4 1.6-2.1 1.8-2.4-2.9 4.1-2.7 3.5 1-2.7 4.7-5.9 6.6-8.1 8.5-10 17.7-19.4 27.5-28.1 2.3-2 4.6-4 7-5.9 1.4-1.1 2.7-2.2 4.1-3.3 0.9-0.7 3-2.3-1 0.7-4.3 3.3-0.9 0.7 0.1 0 5.3-3.9 10.7-7.7 16.2-11.2 12.6-8.1 26-15 39.8-20.9l-7.2 3c21.2-8.9 43.5-14.9 66.2-18.1-2.7 0.4-5.3 0.7-8 1.1 24-3.2 48.3-3.2 72.3 0-2.7-0.4-5.3-0.7-8-1.1 22.8 3.2 45 9.2 66.2 18.1l-7.2-3c12.2 5.2 24 11.2 35.3 18.1 5.6 3.4 11.1 7.1 16.4 10.9 1.2 0.9 2.5 1.8 3.7 2.7 0.7 0.5 1.4 1.1 2.1 1.6 2.4 1.8-4.1-2.9-3.5-2.7 2.7 1 5.9 4.7 8.1 6.6 10 8.5 19.4 17.7 28.1 27.5 2 2.3 4 4.6 5.9 7 1.1 1.4 2.2 2.7 3.3 4.1 0.7 0.9 2.3 3-0.7-1-3.3-4.3-0.7-0.9 0 0.1 3.9 5.3 7.7 10.7 11.2 16.2 8.1 12.6 15 26 20.9 39.8l-3-7.2c8.9 21.2 14.9 43.5 18.1 66.2-0.4-2.7-0.7-5.3-1.1-8 1.6 12 2.4 24 2.4 36.1 0 15.7 13.8 30.7 30 30 16.2-0.6 30-13.1 30-29.9zM803.2 717.9c11.4 17 22.8 33.9 34.2 50.9 18.2 27 36.3 54 54.5 81.1 4.2 6.2 8.3 12.4 12.5 18.6 3.9 5.8 13.6 9.7 20.2 10.2 7.4 0.6 16.7-2 22.2-7.3 5.5-5.2 9.9-12.3 10.2-20.2 0.3-8.6-2.5-15.1-7.3-22.2-11.4-17-22.8-33.9-34.2-50.9-18.2-27-36.3-54-54.5-81.1-4.2-6.2-8.3-12.4-12.5-18.6-3.9-5.8-13.6-9.7-20.2-10.2-7.4-0.6-16.7 2-22.2 7.3-5.5 5.2-9.9 12.3-10.2 20.2-0.2 8.6 2.6 15.1 7.3 22.2z" fill="#FF6800" p-id="1806"></path><path d="M591.2 568.6c69.6 29 152.1 12.3 205.2-40.9 50.1-50.2 68.4-127 45.1-194.2-13.8-40-40.7-74.1-76-97.4-5.4-3.6-13.3-1.1-16.4 4.3-3.4 5.9-1.1 12.8 4.3 16.4 27.1 17.9 49 43.8 61.7 74.1 6 14.4 10.4 31.5 11.8 47.1 1.5 16.2 0.7 32.8-2.2 47.6-11.5 58.3-54.2 106.9-110.2 125.1-17.1 5.6-32.5 8-50.1 8.2-23.1 0.2-45.6-4.6-66.9-13.4-6-2.5-13.2 2.7-14.8 8.4-1.8 6.9 2.5 12.2 8.5 14.7zM700.5 208l-1.5-0.3c-1.6-0.5-3.2-0.6-4.8-0.2-1.6 0.1-3.1 0.5-4.5 1.4-1.4 0.8-2.5 1.8-3.4 3.1-1.1 1.2-1.8 2.5-2.1 4.1-0.1 1.1-0.3 2.1-0.4 3.2 0 2.2 0.6 4.2 1.6 6.1 0.6 0.8 1.3 1.6 1.9 2.4 1.5 1.5 3.3 2.5 5.3 3.1l1.5 0.3c1.6 0.5 3.2 0.6 4.8 0.2 1.6-0.1 3.1-0.5 4.5-1.4 1.4-0.8 2.5-1.8 3.4-3.1 1.1-1.2 1.8-2.5 2.1-4.1 0.1-1.1 0.3-2.1 0.4-3.2 0-2.2-0.6-4.2-1.6-6.1-0.6-0.8-1.3-1.6-1.9-2.4-1.5-1.5-3.2-2.5-5.3-3.1z" fill="#FF6800" p-id="1807"></path></svg>