<svg t="1596731534923" class="icon" viewBox="0 0 1404 1024" version="1.1" xmlns="http://www.w3.org/2000/svg" p-id="3036" width="200" height="200"><path d="M1089.161387 866.261333a13.525333 13.525333 0 0 1-19.541334 0l-4.352-4.522666h-0.042666l-4.608-4.736-20.352-21.077334c-0.128-0.085333-0.042667-0.213333-0.128-0.256l-93.312-97.109333a14.634667 14.634667 0 0 1 0-20.224l29.354666-30.336a13.525333 13.525333 0 0 1 19.541334 0l83.797333 87.168 176-181.888a13.525333 13.525333 0 0 1 19.584 0l29.354667 30.293333a14.72 14.72 0 0 1 0 20.224L1089.161387 866.261333z m36.48-378.88c-134.698667 0-243.797333 108.544-243.797334 242.389334 0 133.888 109.098667 242.432 243.797334 242.432 134.613333 0 243.797333-108.544 243.797333-242.432 0-133.845333-109.184-242.432-243.797333-242.432zM77.833387 375.466667l488.96 275.029333a52.608 52.608 0 0 0 51.882666 0l488.96-274.986667a52.266667 52.266667 0 0 0 0-91.221333L618.633387 9.301333a52.906667 52.906667 0 0 0-51.882667 0L77.833387 284.288a52.266667 52.266667 0 1 0 0 91.221333" fill="#4BA732" p-id="3037"></path><path d="M128.09472 470.528a49.578667 49.578667 0 0 0-67.285333 18.56 48.853333 48.853333 0 0 0 18.688 66.858667l488.96 275.029333c7.466667 4.266667 15.872 6.314667 24.277333 6.314667 8.362667 0 16.810667-2.048 24.32-6.314667l217.088-122.112a287.573333 287.573333 0 0 1 47.530667-139.52l-288.938667 162.517333-464.64-261.333333z" fill="#4BA732" p-id="3038"></path><path d="M592.73472 915.2l-464.64-261.376a49.578667 49.578667 0 0 0-67.285333 18.517333 48.896 48.896 0 0 0 18.688 66.944l488.917333 274.986667c7.552 4.309333 15.914667 6.4 24.32 6.4 8.405333 0 16.768-2.090667 24.32-6.4l253.312-142.506667a286.933333 286.933333 0 0 1-32.981333-94.208l-244.650667 137.6zM980.617387 698.709333c1.152-1.408 2.645333-2.56 3.882666-3.882666l-3.84 2.133333c0.042667 0.554667-0.085333 1.194667-0.042666 1.706667" fill="#4BA732" p-id="3039"></path></svg>