<svg t="1606814862315" class="icon" viewBox="0 0 1024 1024" version="1.1" xmlns="http://www.w3.org/2000/svg" p-id="18609" width="200" height="200"><path d="M941.89899 114.294949c-20.29899-14.092929-46.286869-17.325253-69.559596-8.791919h-0.129293L328.662626 319.353535H162.262626c-62.189899 0-112.743434 50.553535-112.743434 112.743435v144.290909c0 62.189899 50.553535 112.743434 112.743434 112.743434h99.426263l45.511111 188.379798c6.723232 28.056566 31.676768 47.579798 60.379798 47.579798h95.159596c19.135354 0 36.977778-8.662626 48.872727-23.660606 11.894949-15.127273 16.032323-34.391919 11.636364-53.010101l-22.109091-91.280808 371.070707 145.842424 0.258586 0.129293c8.40404 3.10303 17.325253 4.783838 26.375757 4.783838 15.385859 0 30.513131-4.654545 43.183839-13.446464 20.29899-14.092929 32.452525-37.365657 32.452525-62.060606v-655.515152c-0.129293-25.212121-12.282828-48.355556-32.581818-62.577778z" fill="#FBB942" p-id="18610"></path><path d="M497.907071 854.238384c2.585859 10.860606 0.129293 21.979798-6.723233 30.771717-6.852525 8.791919-17.19596 13.705051-28.315151 13.705051H367.579798c-16.678788 0-31.159596-11.377778-35.038384-27.539394l-44.088889-182.173738h40.080808l115.458586 45.381818 27.539394 10.860606 26.375758 108.99394z" fill="#FBB942" p-id="18611"></path><path d="M948.234343 832c0 16.420202-7.757576 31.288889-21.20404 40.59798-13.446465 9.309091-29.99596 11.507071-45.381818 5.818182L778.472727 837.818182V490.537374c0-7.240404-5.818182-13.058586-13.058586-13.058586s-13.058586 5.818182-13.058585 13.058586V827.474747l-258.715152-101.624242-62.707071-24.694949-97.486868-38.270708H162.262626c-47.709091 0-86.626263-38.787879-86.626262-86.626262V432.09697c0-47.709091 38.787879-86.626263 86.626262-86.626263h171.313132l548.072727-215.40202c15.385859-5.688889 31.935354-3.620202 45.381818 5.818182 13.446465 9.438384 21.20404 24.177778 21.20404 40.597979v655.515152z" fill="#FBB942" p-id="18612"></path><path d="M778.472727 220.185859v177.519192c0 7.240404-5.818182 13.058586-13.058586 13.058585s-13.058586-5.818182-13.058585-13.058585V220.185859c0-7.240404 5.818182-13.058586 13.058585-13.058586s13.058586 5.818182 13.058586 13.058586z" fill="#FBB942" p-id="18613"></path></svg>