<svg t="1606814621800" class="icon" viewBox="0 0 1024 1024" version="1.1" xmlns="http://www.w3.org/2000/svg" p-id="7608" width="200" height="200"><path d="M784.8 226.6c-5.7-2.8-12.1-4.5-18.8-4.5-22.6 0-40.9 18.3-40.9 40.9 0 14.8 7.8 27.7 19.6 34.9v0.1c0.5 0.2 1 0.5 1.4 0.7 0.8 0.5 1.6 0.9 2.5 1.3 77.9 41.2 131 123 131 217.3 0 88.8-58.1 170.5-128.7 213.7-15.1 6-25.8 20.8-25.8 38 0 22.6 18.3 40.9 40.9 40.9 7.1 0 13.7-1.8 19.5-4.9 0 0.1 0.1 0.1 0.1 0.2 98.6-58.5 177.1-164.7 177.1-287.9 0-126.8-72.8-235.9-177.9-290.7z" fill="#0091FF" p-id="7609"></path><path d="M796.6 519.8c0-57.4-29.4-109.3-71.7-141.5l-0.1 0.1c-6.5-4.3-14.3-6.8-22.6-6.8-22.6 0-40.9 18.3-40.9 40.9 0 14.2 7.2 26.7 18.2 34 21.4 17.3 35 43.7 35 73.3 0 29.9-13.9 56.5-35.6 73.8l0.2 0.4c-10.7 7.4-17.8 19.7-17.8 33.8 0 22.6 18.3 40.9 40.9 40.9 10.1 0 19.3-3.7 26.5-9.7 41.3-32.3 67.9-82.6 67.9-139.2z m-231.8-463c-2.5 0-5 0.2-7.3 0.7-9 0.2-18 3.4-25.4 9.7L272.3 287.6h-91.6v0.1h-54.5c-37.6 0-68.1 30.5-68.1 68.1v0.5H58v54.1h-0.1v276.2c2 34 28.8 61.3 62.6 63.9h2.7c1.2 0.1 2.5 0.2 3.8 0.2h152.9l258.2 219.1c7.2 6.1 15.8 9.3 24.6 9.7h3.4c22-0.7 39.6-18.8 39.6-40.9V97.8c0-22.6-18.3-41-40.9-41z" fill="#0091FF" p-id="7610"></path></svg>