<svg t="1606814708381" class="icon" viewBox="0 0 1088 1024" version="1.1" xmlns="http://www.w3.org/2000/svg" p-id="11558" width="200" height="200"><path d="M146.688 911.552L145.856 424.32a393.216 393.216 0 0 1 115.52-278.016A393.216 393.216 0 0 1 539.264 30.784c52.928 0 102.912 10.496 151.424 31.104 46.72 19.84 88.832 48.256 124.992 84.48a393.216 393.216 0 0 1 115.52 277.76v487.168l-784.512 0.256z" fill="#FF686E" p-id="11559"></path><path d="M1013.888 992.768H72.704a41.6 41.6 0 0 1-41.6-41.6c0-22.848 18.688-41.472 40.128-41.472h941.184c24.384 0 43.008 18.56 43.008 41.536a41.6 41.6 0 0 1-41.6 41.536z" fill="#FF686E" p-id="11560"></path><path d="M669.76 513.024h-105.6V283.52L414.08 565.312h109.312v219.072z" fill="#FFFFFF" p-id="11561"></path></svg>