<svg t="1606816476124" class="icon" viewBox="0 0 1024 1024" version="1.1" xmlns="http://www.w3.org/2000/svg" p-id="22730" width="200" height="200"><path d="M1002.496 288.256c-12.288-13.824-29.184-22.016-49.152-22.016H384c-15.872 0-26.624 0-44.544 12.288v0.512c-4.608 3.072-7.168 6.656-9.216 9.216l-1.024 1.024c-11.776 13.824-10.752 34.304 3.072 46.08l277.504 243.712 1.536 1.536h0.512c2.048 1.536 4.608 3.072 7.68 4.096 1.024 0.512 1.536 0.512 2.56 1.024 2.56 1.024 5.12 1.536 7.168 1.536h4.608c2.048 0 4.608-0.512 6.656-1.024 0.512 0 1.536-0.512 2.048-0.512 2.56-1.024 5.12-2.048 6.656-3.072l299.008-215.04-49.664 359.424c-1.024 6.656-9.216 13.824-15.872 13.824H294.4c-18.432 0-32.256 14.848-32.256 32.256 0 18.432 14.848 32.256 32.256 32.256h587.776c38.912 0 74.752-31.232 80.384-69.632l54.784-394.752c2.56-20.48-2.56-38.4-14.848-52.736z m-118.784 43.52l-250.88 180.736-205.824-180.736h456.704z m0 0" fill="#FD996B" p-id="22731"></path><path d="M512 651.264c0-18.432-14.848-32.256-32.256-32.256H187.392c-18.432 0-32.256 14.848-32.256 32.256 0 18.432 14.848 32.256 32.256 32.256h291.84c17.92 0.512 32.768-13.824 32.768-32.256z m-64.512-103.936c0-18.432-14.848-32.256-32.256-32.256H37.376c-18.432 0-32.256 14.848-32.256 32.256 0 18.432 14.848 32.256 32.256 32.256h377.856c17.92 1.024 32.256-13.824 32.256-32.256zM150.016 476.672h171.008c18.432 0 32.256-14.848 32.256-32.256 0-18.432-14.848-32.256-32.256-32.256H150.016c-18.432 0-32.256 14.848-32.256 32.256s14.336 32.256 32.256 32.256z m0 0" fill="#FD996B" p-id="22732"></path></svg>