<?xml version="1.0" encoding="utf-8"?>
<svg version="1.1" xmlns:xlink="http://www.w3.org/1999/xlink" width="16px" height="16px" xmlns="http://www.w3.org/2000/svg">
  <g>
    <path d="M 8 15.2857142857143  C 8.1025641025641 15.2857142857143  8.15384615384616 15.2380952380952  8.15384615384615 15.1428571428571  C 8.15384615384616 15.047619047619  8.1025641025641 15  8 15  C 7.62179487179487 15  7.29647435897436 14.8735119047619  7.02403846153846 14.6205357142857  C 6.75160256410256 14.3675595238095  6.61538461538462 14.0654761904762  6.61538461538462 13.7142857142857  C 6.61538461538462 13.6190476190476  6.56410256410256 13.5714285714286  6.46153846153846 13.5714285714286  C 6.35897435897436 13.5714285714286  6.30769230769231 13.6190476190476  6.30769230769231 13.7142857142857  C 6.30769230769231 14.1488095238095  6.47275641025641 14.5193452380952  6.80288461538462 14.8258928571429  C 7.13301282051282 15.1324404761905  7.53205128205128 15.2857142857143  8 15.2857142857143  Z M 4.30769230769231 5.14285714285714  C 4.30769230769231 8.30952380952381  3.45512820512821 10.7857142857143  1.75 12.5714285714286  L 14.25 12.5714285714286  C 12.5448717948718 10.7857142857143  11.6923076923077 8.30952380952381  11.6923076923077 5.14285714285714  C 11.6923076923077 4.83928571428571  11.6153846153846 4.52678571428571  11.4615384615385 4.20535714285714  C 11.3076923076923 3.88392857142857  11.0865384615385 3.57738095238095  10.7980769230769 3.28571428571429  C 10.5096153846154 2.99404761904762  10.1201923076923 2.75446428571429  9.62980769230769 2.56696428571429  C 9.13942307692308 2.37946428571429  8.59615384615385 2.28571428571429  8 2.28571428571429  C 7.40384615384615 2.28571428571429  6.86057692307692 2.37946428571429  6.37019230769231 2.56696428571429  C 5.87980769230769 2.75446428571429  5.49038461538462 2.99404761904762  5.20192307692308 3.28571428571429  C 4.91346153846154 3.57738095238095  4.69230769230769 3.88392857142857  4.53846153846154 4.20535714285714  C 4.38461538461539 4.52678571428571  4.30769230769231 4.83928571428571  4.30769230769231 5.14285714285714  Z M 15.125 11.7857142857143  C 15.3878205128205 12.0595238095238  15.6794871794872 12.3214285714286  16 12.5714285714286  C 16 12.8809523809524  15.8782051282051 13.1488095238095  15.6346153846154 13.375  C 15.3910256410256 13.6011904761905  15.1025641025641 13.7142857142857  14.7692307692308 13.7142857142857  L 10.4615384615385 13.7142857142857  C 10.4615384615385 14.3452380952381  10.2211538461538 14.8839285714286  9.74038461538462 15.3303571428571  C 9.25961538461539 15.7767857142857  8.67948717948718 16  8 16  C 7.32051282051282 16  6.74038461538462 15.7767857142857  6.25961538461539 15.3303571428571  C 5.77884615384615 14.8839285714286  5.53846153846154 14.3452380952381  5.53846153846154 13.7142857142857  L 1.23076923076923 13.7142857142857  C 0.897435897435898 13.7142857142857  0.608974358974359 13.6011904761905  0.365384615384615 13.375  C 0.121794871794872 13.1488095238095  0 12.8809523809524  0 12.5714285714286  C 0.320512820512821 12.3214285714286  0.612179487179487 12.0595238095238  0.875 11.7857142857143  C 1.13782051282051 11.5119047619048  1.41025641025641 11.15625  1.69230769230769 10.71875  C 1.97435897435897 10.28125  2.21314102564103 9.80952380952381  2.40865384615385 9.30357142857143  C 2.60416666666667 8.79761904761905  2.76442307692308 8.18452380952381  2.88942307692308 7.46428571428571  C 3.01442307692308 6.74404761904762  3.07692307692308 5.97023809523809  3.07692307692308 5.14285714285714  C 3.07692307692308 4.23809523809524  3.45192307692308 3.39732142857143  4.20192307692308 2.62053571428571  C 4.95192307692308 1.84375  5.93589743589744 1.37202380952381  7.15384615384615 1.20535714285714  C 7.1025641025641 1.0922619047619  7.07692307692308 0.976190476190476  7.07692307692308 0.857142857142858  C 7.07692307692308 0.619047619047619  7.16666666666667 0.416666666666666  7.34615384615385 0.25  C 7.52564102564103 0.0833333333333339  7.74358974358974 0  8 0  C 8.25641025641026 0  8.47435897435898 0.0833333333333339  8.65384615384615 0.25  C 8.83333333333333 0.416666666666666  8.92307692307692 0.619047619047619  8.92307692307692 0.857142857142858  C 8.92307692307692 0.976190476190476  8.8974358974359 1.0922619047619  8.84615384615385 1.20535714285714  C 10.0641025641026 1.37202380952381  11.0480769230769 1.84375  11.7980769230769 2.62053571428571  C 12.5480769230769 3.39732142857143  12.9230769230769 4.23809523809524  12.9230769230769 5.14285714285714  C 12.9230769230769 5.97023809523809  12.9855769230769 6.74404761904762  13.1105769230769 7.46428571428571  C 13.2355769230769 8.18452380952381  13.3958333333333 8.79761904761905  13.5913461538462 9.30357142857143  C 13.786858974359 9.80952380952381  14.025641025641 10.28125  14.3076923076923 10.71875  C 14.5897435897436 11.15625  14.8621794871795 11.5119047619048  15.125 11.7857142857143  Z " fill-rule="nonzero" fill="#0091ff" stroke="none" />
  </g>
</svg>