<?xml version="1.0" encoding="utf-8"?>
<svg version="1.1" xmlns:xlink="http://www.w3.org/1999/xlink" width="16px" height="16px" xmlns="http://www.w3.org/2000/svg">
  <g>
    <path d="M 8 15.2857142857143  C 8.08448844884489 15.2857142857143  8.12673267326733 15.2380952380952  8.12673267326733 15.1428571428571  C 8.12673267326733 15.047619047619  8.08448844884489 15  8 15  C 7.68844884488449 15  7.42046204620462 14.8735119047619  7.1960396039604 14.6205357142857  C 6.97161716171617 14.3675595238095  6.85940594059406 14.0654761904762  6.85940594059406 13.7142857142857  C 6.85940594059406 13.6190476190476  6.81716171617162 13.5714285714286  6.73267326732673 13.5714285714286  C 6.64818481848185 13.5714285714286  6.60594059405941 13.6190476190476  6.60594059405941 13.7142857142857  C 6.60594059405941 14.1488095238095  6.74191419141914 14.5193452380952  7.01386138613861 14.8258928571429  C 7.28580858085809 15.1324404761905  7.61452145214522 15.2857142857143  8 15.2857142857143  Z M 4.95841584158416 5.14285714285714  C 4.95841584158416 7.42857142857143  4.596699669967 9.34821428571428  3.87326732673267 10.9017857142857  L 10.819801980198 4.11607142857143  C 10.5980198019802 3.5922619047619  10.2481848184818 3.15625  9.77029702970297 2.80803571428571  C 9.29240924092409 2.45982142857143  8.7023102310231 2.28571428571429  8 2.28571428571429  C 7.50891089108911 2.28571428571429  7.06138613861386 2.37946428571429  6.65742574257426 2.56696428571429  C 6.25346534653465 2.75446428571429  5.93267326732673 2.99404761904762  5.69504950495049 3.28571428571429  C 5.45742574257426 3.57738095238095  5.27524752475248 3.88392857142857  5.14851485148515 4.20535714285714  C 5.02178217821782 4.52678571428571  4.95841584158416 4.83928571428571  4.95841584158416 5.14285714285714  Z M 12.229702970297 7.60714285714286  C 12.5518151815182 9.72619047619047  13.3386138613861 11.3809523809524  14.590099009901 12.5714285714286  C 14.590099009901 12.8809523809524  14.4897689768977 13.1488095238095  14.2891089108911 13.375  C 14.0884488448845 13.6011904761905  13.8508250825083 13.7142857142857  13.5762376237624 13.7142857142857  L 10.0277227722772 13.7142857142857  C 10.0277227722772 14.3452380952381  9.82970297029703 14.8839285714286  9.43366336633663 15.3303571428571  C 9.03762376237624 15.7767857142857  8.55973597359736 16  8 16  C 7.44026402640264 16  6.96369636963696 15.7782738095238  6.57029702970297 15.3348214285714  C 6.17689768976898 14.891369047619  5.97755775577558 14.3541666666667  5.97227722772277 13.7232142857143  L 7.15247524752475 12.5714285714286  L 13.1485148514851 12.5714285714286  C 12.2719471947195 11.4583333333333  11.6726072607261 10.0922619047619  11.3504950495049 8.47321428571428  L 12.229702970297 7.60714285714286  Z M 15.1009900990099 0.0446428571428577  C 15.1722772277228 0.0505952380952372  15.2290429042904 0.0833333333333321  15.2712871287129 0.142857142857142  L 15.9366336633663 1  C 15.9788778877888 1.05952380952381  15.9986798679868 1.12946428571429  15.9960396039604 1.20982142857143  C 15.993399339934 1.29017857142857  15.9656765676568 1.35714285714286  15.9128712871287 1.41071428571429  L 1.08514851485149 15.8928571428571  C 1.03234323432343 15.9404761904762  0.97029702970297 15.9613095238095  0.899009900990099 15.9553571428571  C 0.827722772277228 15.9494047619048  0.770957095709571 15.9166666666667  0.728712871287129 15.8571428571429  L 0.0633663366336634 15  C 0.0211221122112211 14.9404761904762  0.00132013201320133 14.8705357142857  0.00396039603960396 14.7901785714286  C 0.00660066006600662 14.7098214285714  0.0343234323432343 14.6458333333333  0.0871287128712871 14.5982142857143  L 1.56039603960396 13.1607142857143  C 1.46006600660066 12.9702380952381  1.40990099009901 12.7738095238095  1.40990099009901 12.5714285714286  C 1.67392739273927 12.3214285714286  1.91419141914191 12.0595238095238  2.13069306930693 11.7857142857143  C 2.34719471947195 11.5119047619048  2.57161716171617 11.15625  2.8039603960396 10.71875  C 3.03630363036304 10.28125  3.23300330033003 9.80952380952381  3.39405940594059 9.30357142857143  C 3.55511551155116 8.79761904761905  3.68712871287129 8.18452380952381  3.79009900990099 7.46428571428571  C 3.89306930693069 6.74404761904762  3.94455445544554 5.97023809523809  3.94455445544554 5.14285714285714  C 3.94455445544554 4.23809523809524  4.25346534653465 3.39732142857143  4.87128712871287 2.62053571428571  C 5.48910891089109 1.84375  6.2996699669967 1.37202380952381  7.3029702970297 1.20535714285714  C 7.26072607260726 1.0922619047619  7.23960396039604 0.976190476190476  7.23960396039604 0.857142857142858  C 7.23960396039604 0.619047619047619  7.31353135313531 0.416666666666666  7.46138613861386 0.25  C 7.60924092409241 0.0833333333333339  7.78877887788779 0  8 0  C 8.21122112211221 0  8.39075907590759 0.0833333333333339  8.53861386138614 0.25  C 8.68646864686469 0.416666666666666  8.76039603960396 0.619047619047619  8.76039603960396 0.857142857142858  C 8.76039603960396 0.976190476190476  8.73927392739274 1.0922619047619  8.6970297029703 1.20535714285714  C 9.35181518151815 1.3125  9.93003300330033 1.55803571428571  10.4316831683168 1.94196428571429  C 10.9333333333333 2.32589285714286  11.3240924092409 2.79464285714286  11.6039603960396 3.34821428571429  L 14.9148514851485 0.107142857142858  C 14.9676567656766 0.0595238095238084  15.029702970297 0.0386904761904763  15.1009900990099 0.0446428571428577  Z " fill-rule="nonzero" fill="#0091ff" stroke="none" />
  </g>
</svg>