<?xml version="1.0" encoding="utf-8"?>
<svg version="1.1" xmlns:xlink="http://www.w3.org/1999/xlink" width="12px" height="12px" viewBox="364 414  12 12" xmlns="http://www.w3.org/2000/svg">
  <path d="M 370 414  C 373.36 414  376 416.64  376 420  C 376 423.36  373.36 426  370 426  C 366.64 426  364 423.36  364 420  C 364 416.64  366.64 414  370 414  Z " fill-rule="nonzero" fill="#ffffff" stroke="none" />
  <path d="M 370 414.5  C 373.08 414.5  375.5 416.92  375.5 420  C 375.5 423.08  373.08 425.5  370 425.5  C 366.92 425.5  364.5 423.08  364.5 420  C 364.5 416.92  366.92 414.5  370 414.5  Z " stroke-width="1" stroke="#797979" fill="none" />
  <path d="M 370 423  C 368.32 423  367 421.68  367 420  C 367 418.32  368.32 417  370 417  C 371.68 417  373 418.32  373 420  C 373 421.68  371.68 423  370 423  " fill-rule="nonzero" fill="#797979" stroke="none" />
</svg>