<?xml version="1.0" encoding="utf-8"?>
<svg version="1.1" xmlns:xlink="http://www.w3.org/1999/xlink" width="12px" height="12px" viewBox="469 414  12 12" xmlns="http://www.w3.org/2000/svg">
  <path d="M 475 414  C 478.36 414  481 416.64  481 420  C 481 423.36  478.36 426  475 426  C 471.64 426  469 423.36  469 420  C 469 416.64  471.64 414  475 414  Z " fill-rule="nonzero" fill="#ffffff" stroke="none" />
  <path d="M 475 414.5  C 478.08 414.5  480.5 416.92  480.5 420  C 480.5 423.08  478.08 425.5  475 425.5  C 471.92 425.5  469.5 423.08  469.5 420  C 469.5 416.92  471.92 414.5  475 414.5  Z " stroke-width="1" stroke="#797979" fill="none" />
  <path d="M 475 423  C 473.32 423  472 421.68  472 420  C 472 418.32  473.32 417  475 417  C 476.68 417  478 418.32  478 420  C 478 421.68  476.68 423  475 423  " fill-rule="nonzero" fill="#797979" stroke="none" />
</svg>