<?xml version="1.0" encoding="utf-8"?>
<svg version="1.1" xmlns:xlink="http://www.w3.org/1999/xlink" width="12px" height="12px" viewBox="710 137  12 12" xmlns="http://www.w3.org/2000/svg">
  <path d="M 716 137  C 719.36 137  722 139.64  722 143  C 722 146.36  719.36 149  716 149  C 712.64 149  710 146.36  710 143  C 710 139.64  712.64 137  716 137  Z " fill-rule="nonzero" fill="#ffffff" stroke="none" />
  <path d="M 716 137.5  C 719.08 137.5  721.5 139.92  721.5 143  C 721.5 146.08  719.08 148.5  716 148.5  C 712.92 148.5  710.5 146.08  710.5 143  C 710.5 139.92  712.92 137.5  716 137.5  Z " stroke-width="1" stroke="#797979" fill="none" />
  <path d="M 716 146  C 714.32 146  713 144.68  713 143  C 713 141.32  714.32 140  716 140  C 717.68 140  719 141.32  719 143  C 719 144.68  717.68 146  716 146  " fill-rule="nonzero" fill="#797979" stroke="none" />
</svg>