<?xml version="1.0" encoding="utf-8"?>
<svg version="1.1" xmlns:xlink="http://www.w3.org/1999/xlink" width="12px" height="12px" viewBox="509 137  12 12" xmlns="http://www.w3.org/2000/svg">
  <path d="M 515 137  C 518.36 137  521 139.64  521 143  C 521 146.36  518.36 149  515 149  C 511.64 149  509 146.36  509 143  C 509 139.64  511.64 137  515 137  Z " fill-rule="nonzero" fill="#ffffff" stroke="none" />
  <path d="M 515 137.5  C 518.08 137.5  520.5 139.92  520.5 143  C 520.5 146.08  518.08 148.5  515 148.5  C 511.92 148.5  509.5 146.08  509.5 143  C 509.5 139.92  511.92 137.5  515 137.5  Z " stroke-width="1" stroke="#797979" fill="none" />
  <path d="M 515 146  C 513.32 146  512 144.68  512 143  C 512 141.32  513.32 140  515 140  C 516.68 140  518 141.32  518 143  C 518 144.68  516.68 146  515 146  " fill-rule="nonzero" fill="#797979" stroke="none" />
</svg>