<?xml version="1.0" encoding="utf-8"?>
<svg version="1.1" xmlns:xlink="http://www.w3.org/1999/xlink" width="12px" height="12px" viewBox="606 651  12 12" xmlns="http://www.w3.org/2000/svg">
  <path d="M 612 651  C 615.36 651  618 653.64  618 657  C 618 660.36  615.36 663  612 663  C 608.64 663  606 660.36  606 657  C 606 653.64  608.64 651  612 651  Z " fill-rule="nonzero" fill="#ffffff" stroke="none" />
  <path d="M 612 651.5  C 615.08 651.5  617.5 653.92  617.5 657  C 617.5 660.08  615.08 662.5  612 662.5  C 608.92 662.5  606.5 660.08  606.5 657  C 606.5 653.92  608.92 651.5  612 651.5  Z " stroke-width="1" stroke="#797979" fill="none" />
  <path d="M 612 660  C 610.32 660  609 658.68  609 657  C 609 655.32  610.32 654  612 654  C 613.68 654  615 655.32  615 657  C 615 658.68  613.68 660  612 660  " fill-rule="nonzero" fill="#797979" stroke="none" />
</svg>