<?xml version="1.0" encoding="utf-8"?>
<svg version="1.1" xmlns:xlink="http://www.w3.org/1999/xlink" width="12px" height="12px" viewBox="890 732  12 12" xmlns="http://www.w3.org/2000/svg">
  <path d="M 896 732  C 899.36 732  902 734.64  902 738  C 902 741.36  899.36 744  896 744  C 892.64 744  890 741.36  890 738  C 890 734.64  892.64 732  896 732  Z " fill-rule="nonzero" fill="#f0f0f0" stroke="none" />
  <path d="M 896 732.5  C 899.08 732.5  901.5 734.92  901.5 738  C 901.5 741.08  899.08 743.5  896 743.5  C 892.92 743.5  890.5 741.08  890.5 738  C 890.5 734.92  892.92 732.5  896 732.5  Z " stroke-width="1" stroke="#797979" fill="none" />
  <path d="M 896 741  C 894.32 741  893 739.68  893 738  C 893 736.32  894.32 735  896 735  C 897.68 735  899 736.32  899 738  C 899 739.68  897.68 741  896 741  " fill-rule="nonzero" fill="#797979" stroke="none" />
</svg>