<?xml version="1.0" encoding="utf-8"?>
<svg version="1.1" xmlns:xlink="http://www.w3.org/1999/xlink" width="12px" height="12px" viewBox="364 369  12 12" xmlns="http://www.w3.org/2000/svg">
  <path d="M 370 369  C 373.36 369  376 371.64  376 375  C 376 378.36  373.36 381  370 381  C 366.64 381  364 378.36  364 375  C 364 371.64  366.64 369  370 369  Z " fill-rule="nonzero" fill="#ffffff" stroke="none" />
  <path d="M 370 369.5  C 373.08 369.5  375.5 371.92  375.5 375  C 375.5 378.08  373.08 380.5  370 380.5  C 366.92 380.5  364.5 378.08  364.5 375  C 364.5 371.92  366.92 369.5  370 369.5  Z " stroke-width="1" stroke="#797979" fill="none" />
  <path d="M 370 378  C 368.32 378  367 376.68  367 375  C 367 373.32  368.32 372  370 372  C 371.68 372  373 373.32  373 375  C 373 376.68  371.68 378  370 378  " fill-rule="nonzero" fill="#797979" stroke="none" />
</svg>