<?xml version="1.0" encoding="utf-8"?>
<svg version="1.1" xmlns:xlink="http://www.w3.org/1999/xlink" width="12px" height="12px" viewBox="469 1179  12 12" xmlns="http://www.w3.org/2000/svg">
  <path d="M 475 1179  C 478.36 1179  481 1181.64  481 1185  C 481 1188.36  478.36 1191  475 1191  C 471.64 1191  469 1188.36  469 1185  C 469 1181.64  471.64 1179  475 1179  Z " fill-rule="nonzero" fill="#f0f0f0" stroke="none" />
  <path d="M 475 1179.5  C 478.08 1179.5  480.5 1181.92  480.5 1185  C 480.5 1188.08  478.08 1190.5  475 1190.5  C 471.92 1190.5  469.5 1188.08  469.5 1185  C 469.5 1181.92  471.92 1179.5  475 1179.5  Z " stroke-width="1" stroke="#797979" fill="none" />
  <path d="M 475 1188  C 473.32 1188  472 1186.68  472 1185  C 472 1183.32  473.32 1182  475 1182  C 476.68 1182  478 1183.32  478 1185  C 478 1186.68  476.68 1188  475 1188  " fill-rule="nonzero" fill="#797979" stroke="none" />
</svg>