<?xml version="1.0" encoding="utf-8"?>
<svg version="1.1" xmlns:xlink="http://www.w3.org/1999/xlink" width="12px" height="12px" viewBox="469 435  12 12" xmlns="http://www.w3.org/2000/svg">
  <path d="M 475 435  C 478.36 435  481 437.64  481 441  C 481 444.36  478.36 447  475 447  C 471.64 447  469 444.36  469 441  C 469 437.64  471.64 435  475 435  Z " fill-rule="nonzero" fill="#ffffff" stroke="none" />
  <path d="M 475 435.5  C 478.08 435.5  480.5 437.92  480.5 441  C 480.5 444.08  478.08 446.5  475 446.5  C 471.92 446.5  469.5 444.08  469.5 441  C 469.5 437.92  471.92 435.5  475 435.5  Z " stroke-width="1" stroke="#797979" fill="none" />
  <path d="M 475 444  C 473.32 444  472 442.68  472 441  C 472 439.32  473.32 438  475 438  C 476.68 438  478 439.32  478 441  C 478 442.68  476.68 444  475 444  " fill-rule="nonzero" fill="#797979" stroke="none" />
</svg>