<?xml version="1.0" encoding="utf-8"?>
<svg version="1.1" xmlns:xlink="http://www.w3.org/1999/xlink" width="12px" height="12px" viewBox="459 1048  12 12" xmlns="http://www.w3.org/2000/svg">
  <path d="M 465 1048  C 468.36 1048  471 1050.64  471 1054  C 471 1057.36  468.36 1060  465 1060  C 461.64 1060  459 1057.36  459 1054  C 459 1050.64  461.64 1048  465 1048  Z " fill-rule="nonzero" fill="#ffffff" stroke="none" />
  <path d="M 465 1048.5  C 468.08 1048.5  470.5 1050.92  470.5 1054  C 470.5 1057.08  468.08 1059.5  465 1059.5  C 461.92 1059.5  459.5 1057.08  459.5 1054  C 459.5 1050.92  461.92 1048.5  465 1048.5  Z " stroke-width="1" stroke="#797979" fill="none" />
  <path d="M 465 1057  C 463.32 1057  462 1055.68  462 1054  C 462 1052.32  463.32 1051  465 1051  C 466.68 1051  468 1052.32  468 1054  C 468 1055.68  466.68 1057  465 1057  " fill-rule="nonzero" fill="#797979" stroke="none" />
</svg>