<?xml version="1.0" encoding="utf-8"?>
<svg version="1.1" xmlns:xlink="http://www.w3.org/1999/xlink" width="12px" height="12px" viewBox="364 1179  12 12" xmlns="http://www.w3.org/2000/svg">
  <path d="M 370 1179  C 373.36 1179  376 1181.64  376 1185  C 376 1188.36  373.36 1191  370 1191  C 366.64 1191  364 1188.36  364 1185  C 364 1181.64  366.64 1179  370 1179  Z " fill-rule="nonzero" fill="#f0f0f0" stroke="none" />
  <path d="M 370 1179.5  C 373.08 1179.5  375.5 1181.92  375.5 1185  C 375.5 1188.08  373.08 1190.5  370 1190.5  C 366.92 1190.5  364.5 1188.08  364.5 1185  C 364.5 1181.92  366.92 1179.5  370 1179.5  Z " stroke-width="1" stroke="#797979" fill="none" />
  <path d="M 370 1188  C 368.32 1188  367 1186.68  367 1185  C 367 1183.32  368.32 1182  370 1182  C 371.68 1182  373 1183.32  373 1185  C 373 1186.68  371.68 1188  370 1188  " fill-rule="nonzero" fill="#797979" stroke="none" />
</svg>