<?xml version="1.0" encoding="utf-8"?>
<svg version="1.1" xmlns:xlink="http://www.w3.org/1999/xlink" width="12px" height="12px" viewBox="364 435  12 12" xmlns="http://www.w3.org/2000/svg">
  <path d="M 370 435  C 373.36 435  376 437.64  376 441  C 376 444.36  373.36 447  370 447  C 366.64 447  364 444.36  364 441  C 364 437.64  366.64 435  370 435  Z " fill-rule="nonzero" fill="#ffffff" stroke="none" />
  <path d="M 370 435.5  C 373.08 435.5  375.5 437.92  375.5 441  C 375.5 444.08  373.08 446.5  370 446.5  C 366.92 446.5  364.5 444.08  364.5 441  C 364.5 437.92  366.92 435.5  370 435.5  Z " stroke-width="1" stroke="#797979" fill="none" />
  <path d="M 370 444  C 368.32 444  367 442.68  367 441  C 367 439.32  368.32 438  370 438  C 371.68 438  373 439.32  373 441  C 373 442.68  371.68 444  370 444  " fill-rule="nonzero" fill="#797979" stroke="none" />
</svg>