<?xml version="1.0" encoding="utf-8"?>
<svg version="1.1" xmlns:xlink="http://www.w3.org/1999/xlink" width="12px" height="12px" viewBox="542 1046  12 12" xmlns="http://www.w3.org/2000/svg">
  <path d="M 548 1046  C 551.36 1046  554 1048.64  554 1052  C 554 1055.36  551.36 1058  548 1058  C 544.64 1058  542 1055.36  542 1052  C 542 1048.64  544.64 1046  548 1046  Z " fill-rule="nonzero" fill="#f0f0f0" stroke="none" />
  <path d="M 548 1046.5  C 551.08 1046.5  553.5 1048.92  553.5 1052  C 553.5 1055.08  551.08 1057.5  548 1057.5  C 544.92 1057.5  542.5 1055.08  542.5 1052  C 542.5 1048.92  544.92 1046.5  548 1046.5  Z " stroke-width="1" stroke="#797979" fill="none" />
  <path d="M 548 1055  C 546.32 1055  545 1053.68  545 1052  C 545 1050.32  546.32 1049  548 1049  C 549.68 1049  551 1050.32  551 1052  C 551 1053.68  549.68 1055  548 1055  " fill-rule="nonzero" fill="#797979" stroke="none" />
</svg>