<?xml version="1.0" encoding="utf-8"?>
<svg version="1.1" xmlns:xlink="http://www.w3.org/1999/xlink" width="12px" height="12px" viewBox="863 730  12 12" xmlns="http://www.w3.org/2000/svg">
  <path d="M 869 730  C 872.36 730  875 732.64  875 736  C 875 739.36  872.36 742  869 742  C 865.64 742  863 739.36  863 736  C 863 732.64  865.64 730  869 730  Z " fill-rule="nonzero" fill="#ffffff" stroke="none" />
  <path d="M 869 730.5  C 872.08 730.5  874.5 732.92  874.5 736  C 874.5 739.08  872.08 741.5  869 741.5  C 865.92 741.5  863.5 739.08  863.5 736  C 863.5 732.92  865.92 730.5  869 730.5  Z " stroke-width="1" stroke="#797979" fill="none" />
  <path d="M 869 739  C 867.32 739  866 737.68  866 736  C 866 734.32  867.32 733  869 733  C 870.68 733  872 734.32  872 736  C 872 737.68  870.68 739  869 739  " fill-rule="nonzero" fill="#797979" stroke="none" />
</svg>