<?xml version="1.0" encoding="utf-8"?>
<svg version="1.1" xmlns:xlink="http://www.w3.org/1999/xlink" width="12px" height="12px" viewBox="364 763  12 12" xmlns="http://www.w3.org/2000/svg">
  <path d="M 370 763  C 373.36 763  376 765.64  376 769  C 376 772.36  373.36 775  370 775  C 366.64 775  364 772.36  364 769  C 364 765.64  366.64 763  370 763  Z " fill-rule="nonzero" fill="#ffffff" stroke="none" />
  <path d="M 370 763.5  C 373.08 763.5  375.5 765.92  375.5 769  C 375.5 772.08  373.08 774.5  370 774.5  C 366.92 774.5  364.5 772.08  364.5 769  C 364.5 765.92  366.92 763.5  370 763.5  Z " stroke-width="1" stroke="#797979" fill="none" />
  <path d="M 370 772  C 368.32 772  367 770.68  367 769  C 367 767.32  368.32 766  370 766  C 371.68 766  373 767.32  373 769  C 373 770.68  371.68 772  370 772  " fill-rule="nonzero" fill="#797979" stroke="none" />
</svg>