<?xml version="1.0" encoding="utf-8"?>
<svg version="1.1" xmlns:xlink="http://www.w3.org/1999/xlink" width="12px" height="12px" viewBox="364 697  12 12" xmlns="http://www.w3.org/2000/svg">
  <path d="M 370 697  C 373.36 697  376 699.64  376 703  C 376 706.36  373.36 709  370 709  C 366.64 709  364 706.36  364 703  C 364 699.64  366.64 697  370 697  Z " fill-rule="nonzero" fill="#f0f0f0" stroke="none" />
  <path d="M 370 697.5  C 373.08 697.5  375.5 699.92  375.5 703  C 375.5 706.08  373.08 708.5  370 708.5  C 366.92 708.5  364.5 706.08  364.5 703  C 364.5 699.92  366.92 697.5  370 697.5  Z " stroke-width="1" stroke="#797979" fill="none" />
  <path d="M 370 706  C 368.32 706  367 704.68  367 703  C 367 701.32  368.32 700  370 700  C 371.68 700  373 701.32  373 703  C 373 704.68  371.68 706  370 706  " fill-rule="nonzero" fill="#797979" stroke="none" />
</svg>