<?xml version="1.0" encoding="utf-8"?>
<svg version="1.1" xmlns:xlink="http://www.w3.org/1999/xlink" width="12px" height="12px" viewBox="863 1178  12 12" xmlns="http://www.w3.org/2000/svg">
  <path d="M 869 1178  C 872.36 1178  875 1180.64  875 1184  C 875 1187.36  872.36 1190  869 1190  C 865.64 1190  863 1187.36  863 1184  C 863 1180.64  865.64 1178  869 1178  Z " fill-rule="nonzero" fill="#ffffff" stroke="none" />
  <path d="M 869 1178.5  C 872.08 1178.5  874.5 1180.92  874.5 1184  C 874.5 1187.08  872.08 1189.5  869 1189.5  C 865.92 1189.5  863.5 1187.08  863.5 1184  C 863.5 1180.92  865.92 1178.5  869 1178.5  Z " stroke-width="1" stroke="#797979" fill="none" />
  <path d="M 869 1187  C 867.32 1187  866 1185.68  866 1184  C 866 1182.32  867.32 1181  869 1181  C 870.68 1181  872 1182.32  872 1184  C 872 1185.68  870.68 1187  869 1187  " fill-rule="nonzero" fill="#797979" stroke="none" />
</svg>