<?xml version="1.0" encoding="utf-8"?>
<svg version="1.1" xmlns:xlink="http://www.w3.org/1999/xlink" width="12px" height="12px" viewBox="968 795  12 12" xmlns="http://www.w3.org/2000/svg">
  <path d="M 974 795  C 977.36 795  980 797.64  980 801  C 980 804.36  977.36 807  974 807  C 970.64 807  968 804.36  968 801  C 968 797.64  970.64 795  974 795  Z " fill-rule="nonzero" fill="#ffffff" stroke="none" />
  <path d="M 974 795.5  C 977.08 795.5  979.5 797.92  979.5 801  C 979.5 804.08  977.08 806.5  974 806.5  C 970.92 806.5  968.5 804.08  968.5 801  C 968.5 797.92  970.92 795.5  974 795.5  Z " stroke-width="1" stroke="#797979" fill="none" />
  <path d="M 974 804  C 972.32 804  971 802.68  971 801  C 971 799.32  972.32 798  974 798  C 975.68 798  977 799.32  977 801  C 977 802.68  975.68 804  974 804  " fill-rule="nonzero" fill="#797979" stroke="none" />
</svg>