<?xml version="1.0" encoding="utf-8"?>
<svg version="1.1" xmlns:xlink="http://www.w3.org/1999/xlink" width="12px" height="12px" viewBox="643 1046  12 12" xmlns="http://www.w3.org/2000/svg">
  <path d="M 649 1046  C 652.36 1046  655 1048.64  655 1052  C 655 1055.36  652.36 1058  649 1058  C 645.64 1058  643 1055.36  643 1052  C 643 1048.64  645.64 1046  649 1046  Z " fill-rule="nonzero" fill="#ffffff" stroke="none" />
  <path d="M 649 1046.5  C 652.08 1046.5  654.5 1048.92  654.5 1052  C 654.5 1055.08  652.08 1057.5  649 1057.5  C 645.92 1057.5  643.5 1055.08  643.5 1052  C 643.5 1048.92  645.92 1046.5  649 1046.5  Z " stroke-width="1" stroke="#797979" fill="none" />
  <path d="M 649 1055  C 647.32 1055  646 1053.68  646 1052  C 646 1050.32  647.32 1049  649 1049  C 650.68 1049  652 1050.32  652 1052  C 652 1053.68  650.68 1055  649 1055  " fill-rule="nonzero" fill="#797979" stroke="none" />
</svg>