<?xml version="1.0" encoding="utf-8"?>
<svg version="1.1" xmlns:xlink="http://www.w3.org/1999/xlink" width="12px" height="12px" viewBox="968 467  12 12" xmlns="http://www.w3.org/2000/svg">
  <path d="M 974 467  C 977.36 467  980 469.64  980 473  C 980 476.36  977.36 479  974 479  C 970.64 479  968 476.36  968 473  C 968 469.64  970.64 467  974 467  Z " fill-rule="nonzero" fill="#ffffff" stroke="none" />
  <path d="M 974 467.5  C 977.08 467.5  979.5 469.92  979.5 473  C 979.5 476.08  977.08 478.5  974 478.5  C 970.92 478.5  968.5 476.08  968.5 473  C 968.5 469.92  970.92 467.5  974 467.5  Z " stroke-width="1" stroke="#797979" fill="none" />
  <path d="M 974 476  C 972.32 476  971 474.68  971 473  C 971 471.32  972.32 470  974 470  C 975.68 470  977 471.32  977 473  C 977 474.68  975.68 476  974 476  " fill-rule="nonzero" fill="#797979" stroke="none" />
</svg>