<?xml version="1.0" encoding="utf-8"?>
<svg version="1.1" xmlns:xlink="http://www.w3.org/1999/xlink" width="12px" height="12px" viewBox="469 763  12 12" xmlns="http://www.w3.org/2000/svg">
  <path d="M 475 763  C 478.36 763  481 765.64  481 769  C 481 772.36  478.36 775  475 775  C 471.64 775  469 772.36  469 769  C 469 765.64  471.64 763  475 763  Z " fill-rule="nonzero" fill="#f0f0f0" stroke="none" />
  <path d="M 475 763.5  C 478.08 763.5  480.5 765.92  480.5 769  C 480.5 772.08  478.08 774.5  475 774.5  C 471.92 774.5  469.5 772.08  469.5 769  C 469.5 765.92  471.92 763.5  475 763.5  Z " stroke-width="1" stroke="#797979" fill="none" />
  <path d="M 475 772  C 473.32 772  472 770.68  472 769  C 472 767.32  473.32 766  475 766  C 476.68 766  478 767.32  478 769  C 478 770.68  476.68 772  475 772  " fill-rule="nonzero" fill="#797979" stroke="none" />
</svg>