<?xml version="1.0" encoding="utf-8"?>
<svg version="1.1" xmlns:xlink="http://www.w3.org/1999/xlink" width="12px" height="12px" viewBox="469 796  12 12" xmlns="http://www.w3.org/2000/svg">
  <path d="M 475 796  C 478.36 796  481 798.64  481 802  C 481 805.36  478.36 808  475 808  C 471.64 808  469 805.36  469 802  C 469 798.64  471.64 796  475 796  Z " fill-rule="nonzero" fill="#ffffff" stroke="none" />
  <path d="M 475 796.5  C 478.08 796.5  480.5 798.92  480.5 802  C 480.5 805.08  478.08 807.5  475 807.5  C 471.92 807.5  469.5 805.08  469.5 802  C 469.5 798.92  471.92 796.5  475 796.5  Z " stroke-width="1" stroke="#797979" fill="none" />
  <path d="M 475 805  C 473.32 805  472 803.68  472 802  C 472 800.32  473.32 799  475 799  C 476.68 799  478 800.32  478 802  C 478 803.68  476.68 805  475 805  " fill-rule="nonzero" fill="#797979" stroke="none" />
</svg>