<?xml version="1.0" encoding="utf-8"?>
<svg version="1.1" xmlns:xlink="http://www.w3.org/1999/xlink" width="12px" height="12px" viewBox="469 1146  12 12" xmlns="http://www.w3.org/2000/svg">
  <path d="M 475 1146  C 478.36 1146  481 1148.64  481 1152  C 481 1155.36  478.36 1158  475 1158  C 471.64 1158  469 1155.36  469 1152  C 469 1148.64  471.64 1146  475 1146  Z " fill-rule="nonzero" fill="#f0f0f0" stroke="none" />
  <path d="M 475 1146.5  C 478.08 1146.5  480.5 1148.92  480.5 1152  C 480.5 1155.08  478.08 1157.5  475 1157.5  C 471.92 1157.5  469.5 1155.08  469.5 1152  C 469.5 1148.92  471.92 1146.5  475 1146.5  Z " stroke-width="1" stroke="#797979" fill="none" />
  <path d="M 475 1155  C 473.32 1155  472 1153.68  472 1152  C 472 1150.32  473.32 1149  475 1149  C 476.68 1149  478 1150.32  478 1152  C 478 1153.68  476.68 1155  475 1155  " fill-rule="nonzero" fill="#797979" stroke="none" />
</svg>