<?xml version="1.0" encoding="utf-8"?>
<svg version="1.1" xmlns:xlink="http://www.w3.org/1999/xlink" width="12px" height="12px" viewBox="364 468  12 12" xmlns="http://www.w3.org/2000/svg">
  <path d="M 370 468  C 373.36 468  376 470.64  376 474  C 376 477.36  373.36 480  370 480  C 366.64 480  364 477.36  364 474  C 364 470.64  366.64 468  370 468  Z " fill-rule="nonzero" fill="#ffffff" stroke="none" />
  <path d="M 370 468.5  C 373.08 468.5  375.5 470.92  375.5 474  C 375.5 477.08  373.08 479.5  370 479.5  C 366.92 479.5  364.5 477.08  364.5 474  C 364.5 470.92  366.92 468.5  370 468.5  Z " stroke-width="1" stroke="#797979" fill="none" />
  <path d="M 370 477  C 368.32 477  367 475.68  367 474  C 367 472.32  368.32 471  370 471  C 371.68 471  373 472.32  373 474  C 373 475.68  371.68 477  370 477  " fill-rule="nonzero" fill="#797979" stroke="none" />
</svg>