<?xml version="1.0" encoding="utf-8"?>
<svg version="1.1" xmlns:xlink="http://www.w3.org/1999/xlink" width="12px" height="12px" viewBox="968 1178  12 12" xmlns="http://www.w3.org/2000/svg">
  <path d="M 974 1178  C 977.36 1178  980 1180.64  980 1184  C 980 1187.36  977.36 1190  974 1190  C 970.64 1190  968 1187.36  968 1184  C 968 1180.64  970.64 1178  974 1178  Z " fill-rule="nonzero" fill="#f0f0f0" stroke="none" />
  <path d="M 974 1178.5  C 977.08 1178.5  979.5 1180.92  979.5 1184  C 979.5 1187.08  977.08 1189.5  974 1189.5  C 970.92 1189.5  968.5 1187.08  968.5 1184  C 968.5 1180.92  970.92 1178.5  974 1178.5  Z " stroke-width="1" stroke="#797979" fill="none" />
  <path d="M 974 1187  C 972.32 1187  971 1185.68  971 1184  C 971 1182.32  972.32 1181  974 1181  C 975.68 1181  977 1182.32  977 1184  C 977 1185.68  975.68 1187  974 1187  " fill-rule="nonzero" fill="#797979" stroke="none" />
</svg>