<svg t="1617071761440" class="icon" viewBox="0 0 1024 1024" version="1.1" xmlns="http://www.w3.org/2000/svg" p-id="3396" width="200" height="200"><path d="M0 0h1024v1024H0z" fill="#FFFFFF" p-id="3397"></path><path d="M817.664 918.656H124.672A34.56 34.56 0 0 1 89.6 883.968v-614.4a34.688 34.688 0 0 1 34.56-34.688h264.064a34.688 34.688 0 1 1 0 69.248H159.232v545.28h623.872V576.896a34.688 34.688 0 1 1 69.248 0v307.2a34.688 34.688 0 0 1-34.688 34.56z" fill="#0082FD" p-id="3398"></path><path d="M755.7248 185.1264l98.56 98.56-394.3424 394.3552-98.56-98.56zM350.848 692.352a3.584 3.584 0 0 1-3.84-3.84l7.936-99.712 95.616 95.616z" fill="#0082FD" p-id="3399"></path><path d="M864.256 175.104m-69.76 0a69.76 69.76 0 1 0 139.52 0 69.76 69.76 0 1 0-139.52 0Z" fill="#ABE3FF" p-id="3400"></path></svg>