<svg t="1617638671828" class="icon" viewBox="0 0 1489 1024" version="1.1" xmlns="http://www.w3.org/2000/svg" p-id="2875" width="200" height="200"><path d="M744.947135 195.897852c-169.692006 0-312.232171 142.542165-312.23217 312.232171s142.539165 312.233171 312.23217 312.23317 312.233171-142.540165 312.233171-312.23317S914.639141 195.898852 744.946135 195.898852z m0 522.649938c-115.389324 0-210.417767-95.027443-210.417767-210.417767s95.028443-210.415767 210.418767-210.415767 203.628807 95.027443 203.628807 210.417767-88.239483 210.417767-203.628807 210.417767z" fill="#1296DB" p-id="2876"></path><path d="M1478.01384 474.193222c-47.513722-95.028443-101.814403-176.478966-176.478966-251.143529C894.27626-163.84804 229.085158-28.094835 5.09247 480.980182c-6.78896 13.57492-6.78896 40.725761 0 61.089642C154.421595 847.515034 405.564124 1003.629119 744.948135 1023.994c339.382011-13.57492 590.52654-169.692006 739.854665-475.137216 6.78796-27.149841 6.78796-47.513722-6.78896-74.663562zM1369.412476 548.856784c-135.752205 237.568608-346.169972 373.321813-624.464341 373.321813S256.235999 793.214352 113.693834 548.856784c-13.57492-20.363881-13.57492-40.725761 0-67.877602C256.233999 236.623614 459.864805 114.446329 738.159175 100.869409c285.08233 13.57492 495.500097 135.753205 631.253301 373.320813 13.57492 27.150841 13.57492 47.514722 0 74.664562z" fill="#1296DB" p-id="2877"></path><path d="M615.981891 447.042381a61.089642 61.089642 0 1 0 61.089642-61.089642 61.089642 61.089642 0 0 0-61.089642 61.089642z" fill="#1296DB" p-id="2878"></path></svg>