<svg t="1610695547624" class="icon" viewBox="0 0 1024 1024" version="1.1" xmlns="http://www.w3.org/2000/svg" p-id="17353" width="200" height="200"><path d="M544.523 200.48c0 17.963-14.561 32.527-32.525 32.527-17.965 0-32.527-14.564-32.527-32.527V32.528C479.47 14.564 494.034 0 511.999 0c17.963 0 32.525 14.564 32.525 32.528V200.48z" fill="#333333" fill-opacity=".08" p-id="17354"></path><path d="M544.523 991.475c0 17.963-14.561 32.525-32.525 32.525-17.965 0-32.527-14.562-32.527-32.525V823.523c0-17.964 14.562-32.53 32.527-32.53 17.963 0 32.525 14.565 32.525 32.53v167.952z" fill="#333333" fill-opacity=".56" p-id="17355"></path><path d="M384.408 225.952c8.983 15.557 3.653 35.451-11.905 44.434-15.559 8.982-35.451 3.65-44.431-11.906l-83.977-145.453c-8.982-15.556-3.653-35.451 11.906-44.433 15.554-8.982 35.448-3.65 44.43 11.907l83.977 145.451z" fill="#333333" fill-opacity=".96" p-id="17356"></path><path d="M779.906 910.973c8.983 15.556 3.652 35.45-11.905 44.433-15.559 8.983-35.45 3.649-44.432-11.905l-83.978-145.45c-8.982-15.559-3.653-35.453 11.906-44.436 15.557-8.982 35.447-3.651 44.43 11.905l83.979 145.453z" fill="#333333" fill-opacity=".48" p-id="17357"></path><path d="M258.48 328.069c15.555 8.982 20.887 28.875 11.906 44.434-8.983 15.558-28.877 20.886-44.43 11.903L80.502 300.43c-15.557-8.98-20.892-28.873-11.906-44.433 8.98-15.553 28.874-20.885 44.43-11.903L258.48 328.07z" fill="#333333" fill-opacity=".88" p-id="17358"></path><path d="M943.502 723.568c15.553 8.98 20.888 28.871 11.906 44.432-8.982 15.557-28.876 20.881-44.43 11.905l-145.456-83.977c-15.56-8.983-20.888-28.874-11.907-44.434 8.982-15.556 28.877-20.885 44.43-11.901l145.457 83.975z" fill="#333333" fill-opacity=".4" p-id="17359"></path><path d="M200.48 479.47c17.962 0 32.527 14.563 32.527 32.528 0 17.964-14.566 32.527-32.525 32.524H32.528C14.565 544.522 0 529.962 0 511.996c0-17.96 14.563-32.526 32.525-32.526H200.48z" fill="#333333" fill-opacity=".8" p-id="17360"></path><path d="M991.476 479.47c17.96 0 32.526 14.563 32.526 32.528 0 17.964-14.565 32.524-32.526 32.524H823.525c-17.971 0-32.533-14.56-32.533-32.524 0-17.965 14.567-32.528 32.527-32.525l167.957-0.003z" fill="#333333" fill-opacity=".32" p-id="17361"></path><path d="M225.95 639.588c15.559-8.982 35.453-3.653 44.436 11.905 8.982 15.559 3.647 35.452-11.906 44.43l-145.453 83.978c-15.556 8.981-35.45 3.652-44.433-11.906-8.98-15.554-3.653-35.448 11.906-44.43l145.45-83.977z" fill="#333333" fill-opacity=".72" p-id="17362"></path><path d="M910.972 244.09c15.559-8.981 35.453-3.652 44.436 11.905 8.982 15.56 3.643 35.45-11.906 44.43l-145.456 83.977c-15.559 8.983-35.448 3.653-44.43-11.905-8.982-15.555-3.653-35.45 11.906-44.43l145.45-83.978z" fill="#333333" fill-opacity=".24" p-id="17363"></path><path d="M328.067 765.515c8.985-15.555 28.88-20.887 44.436-11.906 15.558 8.983 20.885 28.876 11.902 44.43L300.43 943.494c-8.983 15.556-28.874 20.889-44.434 11.906-15.553-8.98-20.887-28.874-11.903-44.429l83.975-145.455z" fill="#333333" fill-opacity=".64" p-id="17364"></path><path d="M723.565 80.494c8.982-15.556 28.876-20.888 44.436-11.906 15.557 8.983 20.882 28.876 11.905 44.43l-83.979 145.453c-8.988 15.56-28.876 20.888-44.436 11.906-15.554-8.98-20.883-28.874-11.901-44.43l83.975-145.453z" fill="#333333" fill-opacity=".16" p-id="17365"></path></svg>