<svg t="1596733023875" class="icon" viewBox="0 0 1024 1024" version="1.1" xmlns="http://www.w3.org/2000/svg" p-id="11793" width="200" height="200"><path d="M0 512c0 283.733333 228.266667 512 512 512s512-228.266667 512-512S795.733333 0 512 0 0 228.266667 0 512z" fill="#D0F3EB" p-id="11794"></path><path d="M505.6 746.666667c-87.466667 0-123.733333-12.8-164.266667-38.4-32-19.2-25.6-32-19.2-49.066667 2.133333-4.266667 4.266667-10.666667 6.4-17.066667 4.266667-23.466667 4.266667-49.066667 2.133334-72.533333-2.133333-32-4.266667-61.866667 12.8-85.333333 12.8-17.066667 32-29.866667 53.333333-42.666667 21.333333-12.8 42.666667-25.6 53.333333-44.8 19.2 4.266667 40.533333 4.266667 59.733334 6.4 21.333333 0 42.666667-2.133333 61.866666-6.4 12.8 19.2 34.133333 32 53.333334 44.8 19.2 12.8 40.533333 25.6 53.333333 42.666667 2.133333 2.133333 4.266667 6.4 4.266667 8.533333-76.8-14.933333-153.6 36.266667-168.533334 113.066667-2.133333 10.666667-2.133333 19.2-2.133333 29.866666 0 42.666667 19.2 83.2 51.2 110.933334h-57.6z m2.133333-362.666667c-21.333333 0-44.8-2.133333-66.133333-6.4-4.266667-19.2-19.2-34.133333-32-46.933333-10.666667-8.533333-19.2-21.333333-27.733333-32 2.133333-6.4 8.533333-10.666667 14.933333-10.666667 8.533333 0 17.066667 4.266667 25.6 6.4 4.266667 2.133333 6.4 2.133333 10.666667 4.266667 2.133333-4.266667 4.266667-6.4 6.4-8.533334 6.4-12.8 17.066667-25.6 29.866666-34.133333 27.733333 2.133333 51.2 14.933333 68.266667 38.4 4.266667-2.133333 8.533333-6.4 12.8-10.666667 8.533333-8.533333 19.2-14.933333 32-14.933333 6.4 4.266667 12.8 8.533333 19.2 14.933333 8.533333 10.666667 21.333333 14.933333 34.133333 14.933334h6.4v4.266666c-8.533333 12.8-19.2 23.466667-32 32-14.933333 10.666667-29.866667 23.466667-38.4 44.8-23.466667 2.133333-44.8 4.266667-64 4.266667z" fill="#19AC89" p-id="11795"></path><path d="M736 554.666667c-44.8-42.666667-115.2-42.666667-160 0-21.333333 21.333333-32 49.066667-32 78.933333 0 61.866667 51.2 113.066667 113.066667 113.066667 29.866667 0 57.6-12.8 78.933333-32 44.8-44.8 42.666667-117.333333 0-160z m-27.733333 96h-36.266667v36.266666c0 8.533333-6.4 14.933333-14.933333 14.933334s-17.066667-6.4-17.066667-14.933334v-36.266666h-36.266667c-8.533333 0-14.933333-6.4-14.933333-14.933334s6.4-14.933333 14.933333-14.933333H640v-36.266667c0-8.533333 6.4-14.933333 14.933333-14.933333s14.933333 6.4 14.933334 14.933333V618.666667h36.266666c8.533333 0 14.933333 6.4 14.933334 14.933333s-4.266667 17.066667-12.8 17.066667z" fill="#19AC89" p-id="11796"></path></svg>