<svg t="1596732502660" class="icon" viewBox="0 0 1024 1024" version="1.1" xmlns="http://www.w3.org/2000/svg" p-id="8968" width="200" height="200"><path d="M228.072727 875.054545c-27.927273 0-39.563636-11.636364-39.563636-39.563636V235.054545c0-27.927273 13.963636-37.236364 41.890909-37.236363h51.2c9.309091 0 20.945455-11.636364 20.945455-27.927273 0-11.636364-6.981818-27.927273-18.618182-27.927273h-72.145455c-48.872727 0-76.8 27.927273-76.8 76.8v628.363637c0 48.872727 30.254545 76.8 76.8 76.8h269.963637s-25.6-27.927273-37.236364-51.2l-216.436364 2.327272zM681.890909 197.818182h58.181818c27.927273 0 37.236364 9.309091 37.236364 39.563636v209.454546c11.636364 6.981818 41.890909 20.945455 53.527273 27.927272V221.090909c0-48.872727-27.927273-76.8-76.8-76.8h-72.145455c-11.636364 0-20.945455 16.290909-20.945454 27.927273 2.327273 13.963636 13.963636 25.6 20.945454 25.6z" fill="#E98F36" p-id="8969"></path><path d="M267.636364 290.909091c0 20.945455 13.963636 41.890909 37.236363 41.890909h358.4c20.945455 0 37.236364-18.618182 37.236364-41.890909 0-20.945455-13.963636-41.890909-37.236364-41.890909h-74.472727v-88.436364c0-34.909091-27.927273-62.836364-62.836364-62.836363H442.181818c-34.909091 0-62.836364 27.927273-62.836363 62.836363v88.436364H302.545455c-18.618182 0-34.909091 20.945455-34.909091 41.890909zM609.745455 423.563636H302.545455c-20.945455 0-37.236364 18.618182-37.236364 41.890909 0 20.945455 13.963636 41.890909 37.236364 41.89091h158.254545c39.563636-39.563636 93.090909-69.818182 148.945455-83.781819zM267.636364 635.345455c0 20.945455 13.963636 41.890909 34.909091 41.890909h93.090909c4.654545-30.254545 11.636364-58.181818 30.254545-81.454546H302.545455c-18.618182 0-34.909091 18.618182-34.909091 39.563637zM674.909091 498.036364c-118.690909 0-214.109091 95.418182-214.109091 214.109091s95.418182 214.109091 214.109091 214.10909 214.109091-95.418182 214.109091-214.10909-97.745455-214.109091-214.109091-214.109091z" fill="#E98F36" p-id="8970"></path><path d="M535.272727 805.236364v-25.6h274.618182v25.6h-109.381818v60.509091h-62.836364V837.818182h30.254546v-32.581818H535.272727z m23.272728 60.509091l-20.945455-18.618182 72.145455-32.581818 23.272727 18.618181-74.472727 32.581819z m167.563636-235.054546v16.290909h79.127273v72.145455h-262.981819v-72.145455h76.8v-16.290909H535.272727V605.090909h274.618182v25.6h-83.781818z m-183.854546 107.054546h262.981819v25.6h-262.981819v-25.6z m76.8-44.218182V674.909091h-44.218181v18.618182h44.218181z m76.8-46.545455v-16.290909H651.636364v16.290909h44.218181z m0 46.545455V674.909091H651.636364v18.618182h44.218181z m23.272728 139.636363l23.272727-18.618181 72.145455 32.581818-20.945455 18.618182-74.472727-32.581819z m6.981818-158.254545v18.618182h46.545454V674.909091h-46.545454z" fill="#FFFFFF" p-id="8971"></path></svg>