<?xml version="1.0" encoding="utf-8"?>
<svg version="1.1" xmlns:xlink="http://www.w3.org/1999/xlink" width="20px" height="20px" xmlns="http://www.w3.org/2000/svg">
  <g transform="matrix(1 0 0 1 -562 -84 )">
    <path d="M 572 84  C 577.6 84  582 88.4  582 94  C 582 99.6  577.6 104  572 104  C 566.4 104  562 99.6  562 94  C 562 88.4  566.4 84  572 84  Z " fill-rule="nonzero" fill="#e4e4e4" stroke="none" />
    <path d="M 572 84.5  C 577.32 84.5  581.5 88.68  581.5 94  C 581.5 99.32  577.32 103.5  572 103.5  C 566.68 103.5  562.5 99.32  562.5 94  C 562.5 88.68  566.68 84.5  572 84.5  Z " stroke-width="1" stroke="#e4e4e4" fill="none" />
  </g>
</svg>