<?xml version="1.0" encoding="utf-8"?>
<svg version="1.1" xmlns:xlink="http://www.w3.org/1999/xlink" width="20px" height="20px" xmlns="http://www.w3.org/2000/svg">
  <g transform="matrix(1 0 0 1 -335 -84 )">
    <path d="M 345 84  C 350.6 84  355 88.4  355 94  C 355 99.6  350.6 104  345 104  C 339.4 104  335 99.6  335 94  C 335 88.4  339.4 84  345 84  Z " fill-rule="nonzero" fill="#ffbb33" stroke="none" />
    <path d="M 345 84.5  C 350.32 84.5  354.5 88.68  354.5 94  C 354.5 99.32  350.32 103.5  345 103.5  C 339.68 103.5  335.5 99.32  335.5 94  C 335.5 88.68  339.68 84.5  345 84.5  Z " stroke-width="1" stroke="#ffbb33" fill="none" />
  </g>
</svg>