<?xml version="1.0" encoding="utf-8"?>
<svg version="1.1" xmlns:xlink="http://www.w3.org/1999/xlink" width="20px" height="20px" xmlns="http://www.w3.org/2000/svg">
  <g transform="matrix(1 0 0 1 -118 -84 )">
    <path d="M 128 84  C 133.6 84  138 88.4  138 94  C 138 99.6  133.6 104  128 104  C 122.4 104  118 99.6  118 94  C 118 88.4  122.4 84  128 84  Z " fill-rule="nonzero" fill="#00b050" stroke="none" />
    <path d="M 128 84.5  C 133.32 84.5  137.5 88.68  137.5 94  C 137.5 99.32  133.32 103.5  128 103.5  C 122.68 103.5  118.5 99.32  118.5 94  C 118.5 88.68  122.68 84.5  128 84.5  Z " stroke-width="1" stroke="#00b050" fill="none" />
  </g>
</svg>