<svg t="1616053005580" class="icon" viewBox="0 0 1024 1024" version="1.1" xmlns="http://www.w3.org/2000/svg" p-id="2615" width="200" height="200"><path d="M512 0C229.888 0 1.536 229.376 1.536 512S230.4 1024 512 1024s510.464-229.376 510.464-512S794.112 0 512 0z m310.272 823.296c-40.448 40.448-87.04 72.192-139.776 94.208-54.272 23.04-111.616 34.304-171.008 34.304s-116.736-11.776-171.008-34.304c-52.224-22.016-99.328-53.76-139.776-94.208-40.448-40.448-72.192-87.552-94.208-139.776-23.04-54.272-34.304-112.128-34.304-171.52 0-59.392 11.776-117.248 34.304-171.52 22.016-52.224 53.76-99.328 94.208-139.776 40.448-40.448 87.04-72.192 139.776-94.208C395.264 83.456 452.608 71.68 512 71.68s116.736 11.776 171.008 34.304c52.224 22.016 99.328 53.76 139.776 94.208 40.448 40.448 72.192 87.552 94.208 139.776 23.04 54.272 34.304 112.128 34.304 171.52 0 59.392-11.776 117.248-34.304 171.52-22.528 52.736-54.272 99.84-94.72 140.288z" fill="#FF931D" p-id="2616"></path><path d="M462.336 312.32V212.992L265.728 407.04 462.336 599.04V482.816c59.392 0 210.944 1.536 210.944 159.744 0 82.944-57.856 152.576-134.656 168.448 123.904-16.896 219.136-123.904 219.136-254.464 0.512-242.176-254.464-244.224-295.424-244.224z" fill="#FF931D" p-id="2617"></path></svg>