<svg t="1615187656178" class="icon" viewBox="0 0 1118 1024" version="1.1" xmlns="http://www.w3.org/2000/svg" p-id="2152" width="200" height="200"><path d="M516.578733 0c-282.75 0-512 229.25-512 512s229.25 512 512 512 512-229.25 512-512S799.328733 0 516.578733 0z m201.75 653.75c16.5 16.5 16.5 43.375 0 59.875s-43.375 16.5-59.875 0L516.578733 571.75 374.828733 713.625c-16.5 16.5-43.375 16.5-59.875 0-16.5-16.5-16.5-43.375 0-59.875l141.875-141.875L314.953733 370.125c-16.5-16.5-16.5-43.375 0-59.875 16.5-16.5 43.375-16.5 59.875 0L516.703733 452.125l141.875-141.875c16.5-16.5 43.375-16.5 59.875 0 16.5 16.5 16.5 43.375 0 59.875L576.453733 512l141.875 141.75z" fill="#FD5556" p-id="2153"></path></svg>