<svg t="1596732724373" class="icon" viewBox="0 0 1028 1024" version="1.1" xmlns="http://www.w3.org/2000/svg" p-id="9856" width="200" height="200"><path d="M516.077 512m-512 0a512 512 0 1 0 1024 0 512 512 0 1 0-1024 0Z" fill="#4383BD" p-id="9857"></path><path d="M423.564 651.255c4.085 13.617 12.937 32.682 18.384 41.533-111.664 90.557-129.367 104.855-139.58 119.153-5.447-10.213-19.064-27.916-27.916-36.086 12.256-10.214 32.682-32.002 32.682-65.364V466.055H201.598v-49.023h154.56v286.649l67.406-52.426z m-59.236-285.288c-24.512-31.32-76.258-78.982-117.111-113.026l31.32-33.363c40.853 32.001 93.961 78.301 119.834 108.259l-34.043 38.13z m283.926-153.198c-3.404 8.17-6.809 16.341-11.576 24.511 44.939 80.344 126.645 164.773 197.455 208.349-11.574 9.532-27.234 27.234-36.086 39.49-64.002-44.256-136.857-122.557-186.56-202.219-44.258 74.215-106.217 149.112-189.965 208.348-7.49-11.574-22.469-29.958-34.044-37.448 104.855-70.13 173.624-169.539 206.987-250.563l53.789 9.532z m67.406 549.468c33.363 0 39.49-14.979 43.576-93.961 11.574 8.852 32.002 17.022 46.301 19.745-6.811 93.962-22.471 119.835-87.152 119.835H578.123c-72.854 0-92.599-16.341-92.599-77.62V453.8h49.705v136.856c61.959-29.958 135.494-72.173 183.156-106.897l33.361 42.214c-62.641 40.854-149.111 85.11-216.518 115.068v89.876c0 25.874 6.809 31.32 46.299 31.32H715.66z" fill="#FFFFFF" p-id="9858"></path></svg>