<?xml version="1.0" encoding="utf-8"?>
<svg version="1.1" xmlns:xlink="http://www.w3.org/1999/xlink" width="12px" height="12px" viewBox="173 196  12 12" xmlns="http://www.w3.org/2000/svg">
  <path d="M 179 196  C 182.36 196  185 198.64  185 202  C 185 205.36  182.36 208  179 208  C 175.64 208  173 205.36  173 202  C 173 198.64  175.64 196  179 196  Z " fill-rule="nonzero" fill="#ffffff" stroke="none" />
  <path d="M 179 196.5  C 182.08 196.5  184.5 198.92  184.5 202  C 184.5 205.08  182.08 207.5  179 207.5  C 175.92 207.5  173.5 205.08  173.5 202  C 173.5 198.92  175.92 196.5  179 196.5  Z " stroke-width="1" stroke="#797979" fill="none" />
  <path d="M 179 205  C 177.32 205  176 203.68  176 202  C 176 200.32  177.32 199  179 199  C 180.68 199  182 200.32  182 202  C 182 203.68  180.68 205  179 205  " fill-rule="nonzero" fill="#797979" stroke="none" />
</svg>