<?xml version="1.0" encoding="utf-8"?>
<svg version="1.1" xmlns:xlink="http://www.w3.org/1999/xlink" width="12px" height="12px" viewBox="283 196  12 12" xmlns="http://www.w3.org/2000/svg">
  <path d="M 289 196  C 292.36 196  295 198.64  295 202  C 295 205.36  292.36 208  289 208  C 285.64 208  283 205.36  283 202  C 283 198.64  285.64 196  289 196  Z " fill-rule="nonzero" fill="#ffffff" stroke="none" />
  <path d="M 289 196.5  C 292.08 196.5  294.5 198.92  294.5 202  C 294.5 205.08  292.08 207.5  289 207.5  C 285.92 207.5  283.5 205.08  283.5 202  C 283.5 198.92  285.92 196.5  289 196.5  Z " stroke-width="1" stroke="#797979" fill="none" />
  <path d="M 289 205  C 287.32 205  286 203.68  286 202  C 286 200.32  287.32 199  289 199  C 290.68 199  292 200.32  292 202  C 292 203.68  290.68 205  289 205  " fill-rule="nonzero" fill="#797979" stroke="none" />
</svg>