<?xml version="1.0" encoding="utf-8"?>
<svg version="1.1" xmlns:xlink="http://www.w3.org/1999/xlink" width="12px" height="12px" viewBox="374 491  12 12" xmlns="http://www.w3.org/2000/svg">
  <path d="M 380 491  C 383.36 491  386 493.64  386 497  C 386 500.36  383.36 503  380 503  C 376.64 503  374 500.36  374 497  C 374 493.64  376.64 491  380 491  Z " fill-rule="nonzero" fill="#ffffff" stroke="none" />
  <path d="M 380 491.5  C 383.08 491.5  385.5 493.92  385.5 497  C 385.5 500.08  383.08 502.5  380 502.5  C 376.92 502.5  374.5 500.08  374.5 497  C 374.5 493.92  376.92 491.5  380 491.5  Z " stroke-width="1" stroke="#797979" fill="none" />
  <path d="M 380 500  C 378.32 500  377 498.68  377 497  C 377 495.32  378.32 494  380 494  C 381.68 494  383 495.32  383 497  C 383 498.68  381.68 500  380 500  " fill-rule="nonzero" fill="#797979" stroke="none" />
</svg>