<?xml version="1.0" encoding="utf-8"?>
<svg version="1.1" xmlns:xlink="http://www.w3.org/1999/xlink" width="12px" height="12px" viewBox="179 491  12 12" xmlns="http://www.w3.org/2000/svg">
  <path d="M 185 491  C 188.36 491  191 493.64  191 497  C 191 500.36  188.36 503  185 503  C 181.64 503  179 500.36  179 497  C 179 493.64  181.64 491  185 491  Z " fill-rule="nonzero" fill="#f0f0f0" stroke="none" />
  <path d="M 185 491.5  C 188.08 491.5  190.5 493.92  190.5 497  C 190.5 500.08  188.08 502.5  185 502.5  C 181.92 502.5  179.5 500.08  179.5 497  C 179.5 493.92  181.92 491.5  185 491.5  Z " stroke-width="1" stroke="#797979" fill="none" />
  <path d="M 185 500  C 183.32 500  182 498.68  182 497  C 182 495.32  183.32 494  185 494  C 186.68 494  188 495.32  188 497  C 188 498.68  186.68 500  185 500  " fill-rule="nonzero" fill="#797979" stroke="none" />
</svg>