<?xml version="1.0" encoding="utf-8"?>
<svg version="1.1" xmlns:xlink="http://www.w3.org/1999/xlink" width="12px" height="12px" viewBox="576 489  12 12" xmlns="http://www.w3.org/2000/svg">
  <path d="M 582 489  C 585.36 489  588 491.64  588 495  C 588 498.36  585.36 501  582 501  C 578.64 501  576 498.36  576 495  C 576 491.64  578.64 489  582 489  Z " fill-rule="nonzero" fill="#f0f0f0" stroke="none" />
  <path d="M 582 489.5  C 585.08 489.5  587.5 491.92  587.5 495  C 587.5 498.08  585.08 500.5  582 500.5  C 578.92 500.5  576.5 498.08  576.5 495  C 576.5 491.92  578.92 489.5  582 489.5  Z " stroke-width="1" stroke="#797979" fill="none" />
  <path d="M 582 498  C 580.32 498  579 496.68  579 495  C 579 493.32  580.32 492  582 492  C 583.68 492  585 493.32  585 495  C 585 496.68  583.68 498  582 498  " fill-rule="nonzero" fill="#797979" stroke="none" />
</svg>