<?xml version="1.0" encoding="utf-8"?>
<svg version="1.1" xmlns:xlink="http://www.w3.org/1999/xlink" width="12px" height="12px" viewBox="1068 301  12 12" xmlns="http://www.w3.org/2000/svg">
  <path d="M 1074 301  C 1077.36 301  1080 303.64  1080 307  C 1080 310.36  1077.36 313  1074 313  C 1070.64 313  1068 310.36  1068 307  C 1068 303.64  1070.64 301  1074 301  Z " fill-rule="nonzero" fill="#ffffff" stroke="none" />
  <path d="M 1074 301.5  C 1077.08 301.5  1079.5 303.92  1079.5 307  C 1079.5 310.08  1077.08 312.5  1074 312.5  C 1070.92 312.5  1068.5 310.08  1068.5 307  C 1068.5 303.92  1070.92 301.5  1074 301.5  Z " stroke-width="1" stroke="#797979" fill="none" />
  <path d="M 1074 310  C 1072.32 310  1071 308.68  1071 307  C 1071 305.32  1072.32 304  1074 304  C 1075.68 304  1077 305.32  1077 307  C 1077 308.68  1075.68 310  1074 310  " fill-rule="nonzero" fill="#797979" stroke="none" />
</svg>