<?xml version="1.0" encoding="utf-8"?>
<svg version="1.1" xmlns:xlink="http://www.w3.org/1999/xlink" width="12px" height="12px" viewBox="521 441  12 12" xmlns="http://www.w3.org/2000/svg">
  <path d="M 527 441  C 530.36 441  533 443.64  533 447  C 533 450.36  530.36 453  527 453  C 523.64 453  521 450.36  521 447  C 521 443.64  523.64 441  527 441  Z " fill-rule="nonzero" fill="#ffffff" stroke="none" />
  <path d="M 527 441.5  C 530.08 441.5  532.5 443.92  532.5 447  C 532.5 450.08  530.08 452.5  527 452.5  C 523.92 452.5  521.5 450.08  521.5 447  C 521.5 443.92  523.92 441.5  527 441.5  Z " stroke-width="1" stroke="#797979" fill="none" />
  <path d="M 527 450  C 525.32 450  524 448.68  524 447  C 524 445.32  525.32 444  527 444  C 528.68 444  530 445.32  530 447  C 530 448.68  528.68 450  527 450  " fill-rule="nonzero" fill="#797979" stroke="none" />
</svg>