<?xml version="1.0" encoding="utf-8"?>
<svg version="1.1" xmlns:xlink="http://www.w3.org/1999/xlink" width="12px" height="12px" viewBox="169 441  12 12" xmlns="http://www.w3.org/2000/svg">
  <path d="M 175 441  C 178.36 441  181 443.64  181 447  C 181 450.36  178.36 453  175 453  C 171.64 453  169 450.36  169 447  C 169 443.64  171.64 441  175 441  Z " fill-rule="nonzero" fill="#f0f0f0" stroke="none" />
  <path d="M 175 441.5  C 178.08 441.5  180.5 443.92  180.5 447  C 180.5 450.08  178.08 452.5  175 452.5  C 171.92 452.5  169.5 450.08  169.5 447  C 169.5 443.92  171.92 441.5  175 441.5  Z " stroke-width="1" stroke="#797979" fill="none" />
  <path d="M 175 450  C 173.32 450  172 448.68  172 447  C 172 445.32  173.32 444  175 444  C 176.68 444  178 445.32  178 447  C 178 448.68  176.68 450  175 450  " fill-rule="nonzero" fill="#797979" stroke="none" />
</svg>