<?xml version="1.0" encoding="utf-8"?>
<svg version="1.1" xmlns:xlink="http://www.w3.org/1999/xlink" width="12px" height="12px" viewBox="251 441  12 12" xmlns="http://www.w3.org/2000/svg">
  <path d="M 257 441  C 260.36 441  263 443.64  263 447  C 263 450.36  260.36 453  257 453  C 253.64 453  251 450.36  251 447  C 251 443.64  253.64 441  257 441  Z " fill-rule="nonzero" fill="#f0f0f0" stroke="none" />
  <path d="M 257 441.5  C 260.08 441.5  262.5 443.92  262.5 447  C 262.5 450.08  260.08 452.5  257 452.5  C 253.92 452.5  251.5 450.08  251.5 447  C 251.5 443.92  253.92 441.5  257 441.5  Z " stroke-width="1" stroke="#797979" fill="none" />
  <path d="M 257 450  C 255.32 450  254 448.68  254 447  C 254 445.32  255.32 444  257 444  C 258.68 444  260 445.32  260 447  C 260 448.68  258.68 450  257 450  " fill-rule="nonzero" fill="#797979" stroke="none" />
</svg>