<?xml version="1.0" encoding="utf-8"?>
<svg version="1.1" xmlns:xlink="http://www.w3.org/1999/xlink" width="12px" height="12px" viewBox="882 301  12 12" xmlns="http://www.w3.org/2000/svg">
  <path d="M 888 301  C 891.36 301  894 303.64  894 307  C 894 310.36  891.36 313  888 313  C 884.64 313  882 310.36  882 307  C 882 303.64  884.64 301  888 301  Z " fill-rule="nonzero" fill="#f0f0f0" stroke="none" />
  <path d="M 888 301.5  C 891.08 301.5  893.5 303.92  893.5 307  C 893.5 310.08  891.08 312.5  888 312.5  C 884.92 312.5  882.5 310.08  882.5 307  C 882.5 303.92  884.92 301.5  888 301.5  Z " stroke-width="1" stroke="#797979" fill="none" />
  <path d="M 888 310  C 886.32 310  885 308.68  885 307  C 885 305.32  886.32 304  888 304  C 889.68 304  891 305.32  891 307  C 891 308.68  889.68 310  888 310  " fill-rule="nonzero" fill="#797979" stroke="none" />
</svg>