<?xml version="1.0" encoding="utf-8"?>
<svg version="1.1" xmlns:xlink="http://www.w3.org/1999/xlink" width="12px" height="12px" viewBox="441 441  12 12" xmlns="http://www.w3.org/2000/svg">
  <path d="M 447 441  C 450.36 441  453 443.64  453 447  C 453 450.36  450.36 453  447 453  C 443.64 453  441 450.36  441 447  C 441 443.64  443.64 441  447 441  Z " fill-rule="nonzero" fill="#f0f0f0" stroke="none" />
  <path d="M 447 441.5  C 450.08 441.5  452.5 443.92  452.5 447  C 452.5 450.08  450.08 452.5  447 452.5  C 443.92 452.5  441.5 450.08  441.5 447  C 441.5 443.92  443.92 441.5  447 441.5  Z " stroke-width="1" stroke="#797979" fill="none" />
  <path d="M 447 450  C 445.32 450  444 448.68  444 447  C 444 445.32  445.32 444  447 444  C 448.68 444  450 445.32  450 447  C 450 448.68  448.68 450  447 450  " fill-rule="nonzero" fill="#797979" stroke="none" />
</svg>