<?xml version="1.0" encoding="utf-8"?>
<svg version="1.1" xmlns:xlink="http://www.w3.org/1999/xlink" width="12px" height="12px" viewBox="968 301  12 12" xmlns="http://www.w3.org/2000/svg">
  <path d="M 974 301  C 977.36 301  980 303.64  980 307  C 980 310.36  977.36 313  974 313  C 970.64 313  968 310.36  968 307  C 968 303.64  970.64 301  974 301  Z " fill-rule="nonzero" fill="#f0f0f0" stroke="none" />
  <path d="M 974 301.5  C 977.08 301.5  979.5 303.92  979.5 307  C 979.5 310.08  977.08 312.5  974 312.5  C 970.92 312.5  968.5 310.08  968.5 307  C 968.5 303.92  970.92 301.5  974 301.5  Z " stroke-width="1" stroke="#797979" fill="none" />
  <path d="M 974 310  C 972.32 310  971 308.68  971 307  C 971 305.32  972.32 304  974 304  C 975.68 304  977 305.32  977 307  C 977 308.68  975.68 310  974 310  " fill-rule="nonzero" fill="#797979" stroke="none" />
</svg>