<?xml version="1.0" encoding="utf-8"?>
<svg version="1.1" xmlns:xlink="http://www.w3.org/1999/xlink" width="12px" height="12px" viewBox="341 441  12 12" xmlns="http://www.w3.org/2000/svg">
  <path d="M 347 441  C 350.36 441  353 443.64  353 447  C 353 450.36  350.36 453  347 453  C 343.64 453  341 450.36  341 447  C 341 443.64  343.64 441  347 441  Z " fill-rule="nonzero" fill="#ffffff" stroke="none" />
  <path d="M 347 441.5  C 350.08 441.5  352.5 443.92  352.5 447  C 352.5 450.08  350.08 452.5  347 452.5  C 343.92 452.5  341.5 450.08  341.5 447  C 341.5 443.92  343.92 441.5  347 441.5  Z " stroke-width="1" stroke="#797979" fill="none" />
  <path d="M 347 450  C 345.32 450  344 448.68  344 447  C 344 445.32  345.32 444  347 444  C 348.68 444  350 445.32  350 447  C 350 448.68  348.68 450  347 450  " fill-rule="nonzero" fill="#797979" stroke="none" />
</svg>