<?xml version="1.0" encoding="utf-8"?>
<svg version="1.1" xmlns:xlink="http://www.w3.org/1999/xlink" width="12px" height="12px" viewBox="180 419  12 12" xmlns="http://www.w3.org/2000/svg">
  <path d="M 186 419  C 189.36 419  192 421.64  192 425  C 192 428.36  189.36 431  186 431  C 182.64 431  180 428.36  180 425  C 180 421.64  182.64 419  186 419  Z " fill-rule="nonzero" fill="#f0f0f0" stroke="none" />
  <path d="M 186 419.5  C 189.08 419.5  191.5 421.92  191.5 425  C 191.5 428.08  189.08 430.5  186 430.5  C 182.92 430.5  180.5 428.08  180.5 425  C 180.5 421.92  182.92 419.5  186 419.5  Z " stroke-width="1" stroke="#797979" fill="none" />
  <path d="M 186 428  C 184.32 428  183 426.68  183 425  C 183 423.32  184.32 422  186 422  C 187.68 422  189 423.32  189 425  C 189 426.68  187.68 428  186 428  " fill-rule="nonzero" fill="#797979" stroke="none" />
</svg>