<?xml version="1.0" encoding="utf-8"?>
<svg version="1.1" xmlns:xlink="http://www.w3.org/1999/xlink" width="12px" height="12px" viewBox="1028 499  12 12" xmlns="http://www.w3.org/2000/svg">
  <path d="M 1034 499  C 1037.36 499  1040 501.64  1040 505  C 1040 508.36  1037.36 511  1034 511  C 1030.64 511  1028 508.36  1028 505  C 1028 501.64  1030.64 499  1034 499  Z " fill-rule="nonzero" fill="#f0f0f0" stroke="none" />
  <path d="M 1034 499.5  C 1037.08 499.5  1039.5 501.92  1039.5 505  C 1039.5 508.08  1037.08 510.5  1034 510.5  C 1030.92 510.5  1028.5 508.08  1028.5 505  C 1028.5 501.92  1030.92 499.5  1034 499.5  Z " stroke-width="1" stroke="#797979" fill="none" />
  <path d="M 1034 508  C 1032.32 508  1031 506.68  1031 505  C 1031 503.32  1032.32 502  1034 502  C 1035.68 502  1037 503.32  1037 505  C 1037 506.68  1035.68 508  1034 508  " fill-rule="nonzero" fill="#797979" stroke="none" />
</svg>