<?xml version="1.0" encoding="utf-8"?>
<svg version="1.1" xmlns:xlink="http://www.w3.org/1999/xlink" width="12px" height="12px" viewBox="384 119  12 12" xmlns="http://www.w3.org/2000/svg">
  <path d="M 390 119  C 393.36 119  396 121.64  396 125  C 396 128.36  393.36 131  390 131  C 386.64 131  384 128.36  384 125  C 384 121.64  386.64 119  390 119  Z " fill-rule="nonzero" fill="#f0f0f0" stroke="none" />
  <path d="M 390 119.5  C 393.08 119.5  395.5 121.92  395.5 125  C 395.5 128.08  393.08 130.5  390 130.5  C 386.92 130.5  384.5 128.08  384.5 125  C 384.5 121.92  386.92 119.5  390 119.5  Z " stroke-width="1" stroke="#797979" fill="none" />
  <path d="M 390 128  C 388.32 128  387 126.68  387 125  C 387 123.32  388.32 122  390 122  C 391.68 122  393 123.32  393 125  C 393 126.68  391.68 128  390 128  " fill-rule="nonzero" fill="#797979" stroke="none" />
</svg>