<?xml version="1.0" encoding="utf-8"?>
<svg version="1.1" xmlns:xlink="http://www.w3.org/1999/xlink" width="12px" height="12px" viewBox="197 555  12 12" xmlns="http://www.w3.org/2000/svg">
  <path d="M 203 555  C 206.36 555  209 557.64  209 561  C 209 564.36  206.36 567  203 567  C 199.64 567  197 564.36  197 561  C 197 557.64  199.64 555  203 555  Z " fill-rule="nonzero" fill="#f0f0f0" stroke="none" />
  <path d="M 203 555.5  C 206.08 555.5  208.5 557.92  208.5 561  C 208.5 564.08  206.08 566.5  203 566.5  C 199.92 566.5  197.5 564.08  197.5 561  C 197.5 557.92  199.92 555.5  203 555.5  Z " stroke-width="1" stroke="#797979" fill="none" />
  <path d="M 203 564  C 201.32 564  200 562.68  200 561  C 200 559.32  201.32 558  203 558  C 204.68 558  206 559.32  206 561  C 206 562.68  204.68 564  203 564  " fill-rule="nonzero" fill="#797979" stroke="none" />
</svg>