<?xml version="1.0" encoding="utf-8"?>
<svg version="1.1" xmlns:xlink="http://www.w3.org/1999/xlink" width="12px" height="12px" viewBox="879 166  12 12" xmlns="http://www.w3.org/2000/svg">
  <path d="M 885 166  C 888.36 166  891 168.64  891 172  C 891 175.36  888.36 178  885 178  C 881.64 178  879 175.36  879 172  C 879 168.64  881.64 166  885 166  Z " fill-rule="nonzero" fill="#f0f0f0" stroke="none" />
  <path d="M 885 166.5  C 888.08 166.5  890.5 168.92  890.5 172  C 890.5 175.08  888.08 177.5  885 177.5  C 881.92 177.5  879.5 175.08  879.5 172  C 879.5 168.92  881.92 166.5  885 166.5  Z " stroke-width="1" stroke="#797979" fill="none" />
  <path d="M 885 175  C 883.32 175  882 173.68  882 172  C 882 170.32  883.32 169  885 169  C 886.68 169  888 170.32  888 172  C 888 173.68  886.68 175  885 175  " fill-rule="nonzero" fill="#797979" stroke="none" />
</svg>