<?xml version="1.0" encoding="utf-8"?>
<svg version="1.1" xmlns:xlink="http://www.w3.org/1999/xlink" width="12px" height="12px" viewBox="880 211  12 12" xmlns="http://www.w3.org/2000/svg">
  <path d="M 886 211  C 889.36 211  892 213.64  892 217  C 892 220.36  889.36 223  886 223  C 882.64 223  880 220.36  880 217  C 880 213.64  882.64 211  886 211  Z " fill-rule="nonzero" fill="#ffffff" stroke="none" />
  <path d="M 886 211.5  C 889.08 211.5  891.5 213.92  891.5 217  C 891.5 220.08  889.08 222.5  886 222.5  C 882.92 222.5  880.5 220.08  880.5 217  C 880.5 213.92  882.92 211.5  886 211.5  Z " stroke-width="1" stroke="#797979" fill="none" />
  <path d="M 886 220  C 884.32 220  883 218.68  883 217  C 883 215.32  884.32 214  886 214  C 887.68 214  889 215.32  889 217  C 889 218.68  887.68 220  886 220  " fill-rule="nonzero" fill="#797979" stroke="none" />
</svg>