<?xml version="1.0" encoding="utf-8"?>
<svg version="1.1" xmlns:xlink="http://www.w3.org/1999/xlink" width="12px" height="12px" viewBox="497 555  12 12" xmlns="http://www.w3.org/2000/svg">
  <path d="M 503 555  C 506.36 555  509 557.64  509 561  C 509 564.36  506.36 567  503 567  C 499.64 567  497 564.36  497 561  C 497 557.64  499.64 555  503 555  Z " fill-rule="nonzero" fill="#f0f0f0" stroke="none" />
  <path d="M 503 555.5  C 506.08 555.5  508.5 557.92  508.5 561  C 508.5 564.08  506.08 566.5  503 566.5  C 499.92 566.5  497.5 564.08  497.5 561  C 497.5 557.92  499.92 555.5  503 555.5  Z " stroke-width="1" stroke="#797979" fill="none" />
  <path d="M 503 564  C 501.32 564  500 562.68  500 561  C 500 559.32  501.32 558  503 558  C 504.68 558  506 559.32  506 561  C 506 562.68  504.68 564  503 564  " fill-rule="nonzero" fill="#797979" stroke="none" />
</svg>