<?xml version="1.0" encoding="utf-8"?>
<svg version="1.1" xmlns:xlink="http://www.w3.org/1999/xlink" width="12px" height="12px" viewBox="397 555  12 12" xmlns="http://www.w3.org/2000/svg">
  <path d="M 403 555  C 406.36 555  409 557.64  409 561  C 409 564.36  406.36 567  403 567  C 399.64 567  397 564.36  397 561  C 397 557.64  399.64 555  403 555  Z " fill-rule="nonzero" fill="#f0f0f0" stroke="none" />
  <path d="M 403 555.5  C 406.08 555.5  408.5 557.92  408.5 561  C 408.5 564.08  406.08 566.5  403 566.5  C 399.92 566.5  397.5 564.08  397.5 561  C 397.5 557.92  399.92 555.5  403 555.5  Z " stroke-width="1" stroke="#797979" fill="none" />
  <path d="M 403 564  C 401.32 564  400 562.68  400 561  C 400 559.32  401.32 558  403 558  C 404.68 558  406 559.32  406 561  C 406 562.68  404.68 564  403 564  " fill-rule="nonzero" fill="#797979" stroke="none" />
</svg>