<?xml version="1.0" encoding="utf-8"?>
<svg version="1.1" xmlns:xlink="http://www.w3.org/1999/xlink" width="12px" height="12px" viewBox="44 299  12 12" xmlns="http://www.w3.org/2000/svg">
  <path d="M 50 299  C 53.36 299  56 301.64  56 305  C 56 308.36  53.36 311  50 311  C 46.64 311  44 308.36  44 305  C 44 301.64  46.64 299  50 299  Z " fill-rule="nonzero" fill="#ffffff" stroke="none" />
  <path d="M 50 299.5  C 53.08 299.5  55.5 301.92  55.5 305  C 55.5 308.08  53.08 310.5  50 310.5  C 46.92 310.5  44.5 308.08  44.5 305  C 44.5 301.92  46.92 299.5  50 299.5  Z " stroke-width="1" stroke="#797979" fill="none" />
  <path d="M 50 308  C 48.32 308  47 306.68  47 305  C 47 303.32  48.32 302  50 302  C 51.68 302  53 303.32  53 305  C 53 306.68  51.68 308  50 308  " fill-rule="nonzero" fill="#797979" stroke="none" />
</svg>