<svg t="1610681165272" class="icon" viewBox="0 0 1360 1024" version="1.1" xmlns="http://www.w3.org/2000/svg" p-id="6794" width="200" height="200"><path d="M674.363015 200.852211c101.052632 0 190.666105 49.084632 246.541473 124.793263l39.087158 10.509473c-58.341053-97.118316-164.432842-162.074947-285.642105-162.074947a330.738526 330.738526 0 0 0-161.374316 41.808842l39.01979 10.496a304.505263 304.505263 0 0 1 122.341052-25.532631h0.026948z m201.391158-17.421474l21.409684 17.421474 6.588631-26.098527 23.969685-14.066526-23.983158-14.066526-6.575158-26.098527-21.423158 17.421474-28.025263-2.074947 10.725052 24.818526-10.725052 24.832 28.038737-2.088421zM504.379015 124.995368l-22.002527-15.386947-4.810105 27.257263-22.541474 16.869053 24.306527 11.708631 8.08421 25.815579 19.81979-20.021894 27.54021-0.916211-12.045473-24.077474 8.933052-26.381473-27.28421 5.133473z m206.147368-37.632l-16.303158-21.382736-12.840421 24.481684-26.583579 9.202526 19.617684 18.566737-0.107789 27.055158 24.953263-13.002105 26.502737 7.518315-4.203789-26.597052 16.518736-22.420211-27.553684-3.422316z m298.374737 168.138106l-23.107368-16.060632-3.287579 26.866526-21.786948 15.912421 25.209263 12.490106 9.660632 25.923368 18.863158-19.132631 27.755789 0.067368-13.554526-24.32 7.491368-25.869474-27.243789 4.122948zM1309.18912 457.835789l-1159.194947-311.915789a53.180632 53.180632 0 0 0-40.488421 5.349053 53.504 53.504 0 0 0-24.845474 32.525473L1.837541 494.214737a53.598316 53.598316 0 0 0 37.712842 65.589895L1198.731857 871.747368a53.167158 53.167158 0 0 0 40.488421-5.349052 53.490526 53.490526 0 0 0 24.845474-32.512l82.822736-310.433684a53.571368 53.571368 0 0 0-37.699368-65.589895z m8.488421 71.599158l-75.910737 284.550737a40.124632 40.124632 0 0 1-18.634105 24.387369 39.882105 39.882105 0 0 1-30.356211 4.015158L59.329752 537.438316a40.192 40.192 0 0 1-28.294737-49.205895l75.937684-284.56421a40.124632 40.124632 0 0 1 18.634105-24.373895 39.882105 39.882105 0 0 1 30.356211-4.015158l1133.433263 304.976842c10.24 2.762105 18.997895 9.498947 24.293053 18.728421 5.308632 9.229474 6.736842 20.183579 3.98821 30.477474zM674.363015 26.785684c222.181053 0 409.047579 151.552 463.76421 357.322105l29.534316 7.936C1115.073752 167.302737 914.194594 0 674.363015 0 528.928067 0 397.842594 61.520842 305.453541 160.040421l29.466947 7.922526C421.798804 80.734316 541.808909 26.785684 674.363015 26.785684z m122.394947 764.496842a304.464842 304.464842 0 0 1-122.381474 25.532632c-101.052632 0-190.652632-49.084632-246.541473-124.793263l-39.087158-10.509474c58.354526 97.118316 164.432842 162.074947 285.642105 162.074947a330.738526 330.738526 0 0 0 161.401263-41.808842l-39.033263-10.496z m-286.140631 55.605895l-21.221053-17.381053-6.548211 26.058106-23.754105 14.026105 23.754105 14.012632 6.548211 26.058105 21.221053-17.381053 27.823157 2.088421-10.64421-24.791579 10.64421-24.764631-27.823157 2.074947z m163.664842 82.485895l16.195368 21.342316 12.719158-24.441264 26.368-9.162105-19.456-18.526316 0.107789-27.001263-24.737684 12.988632-26.314105-7.518316 4.176842 26.543158-16.370526 22.366316 27.324631 3.408842z m-337.111579-168.326737l21.746526 17.623579 5.133474-26.489263 22.67621-14.336-24.064-14.201263-7.733895-26.47579-20.008421 17.731369-27.459368-2.021053 11.708632 25.141895-9.242948 25.195789 27.257263-2.155789h-0.013473zM674.363015 990.895158c-222.140632 0-409.007158-151.565474-463.764211-357.322105l-29.507368-7.949474c52.560842 224.741053 253.466947 392.043789 493.271579 392.043789 145.421474 0 276.520421-61.507368 368.909473-160.040421l-29.466947-7.922526c-86.878316 87.228632-206.888421 141.190737-339.442526 141.190737z m192.808421-98.277053l21.867789 15.373474 4.71579-27.149474 22.339368-16.801684-24.158316-11.695158-8.057263-25.761684-19.644631 19.941053-27.324632 0.875789 11.991579 24.010105-8.798316 26.300632 27.055158-5.093053z" fill="#E9494F" p-id="6795"></path><path d="M195.993331 339.267368l7.275789-27.149473 169.525895 45.419789-6.938948 25.896421 23.349895 6.25179 12.853895-47.966316-96.431158-25.842526a371.105684 371.105684 0 0 0-1.118316-21.234527l-26.718316-2.816c1.253053 5.510737 2.169263 11.183158 2.964211 17.381053l-94.922105-25.424842-13.190737 49.232842 23.349895 6.251789z m52.816842 194.762106l13.46021-50.256842 51.765895 13.877894-3.462737 12.948211 23.592421 6.332631 33.738105-125.884631-75.385263-20.197053 5.928421-22.083368-23.861894-6.386527-5.928422 22.083369-74.603789-19.994947-33.926737 126.639157 23.605895 6.332632 3.664842-13.716211 51.011368 13.662316-13.473684 50.256842 23.861895 6.386527z m83.105684-103.114106l-51.765895-13.877894 6.386526-23.848421 51.779369 13.877894-6.4 23.848421z m-75.62779-20.264421l-51.011368-13.675789 6.4-23.848421 51.011368 13.662316-6.4 23.848421z m-11.964631 44.665264l-51.011369-13.67579 6.332632-23.592421 50.997895 13.662316-6.319158 23.605895z m75.627789 20.264421l-51.765894-13.877895 6.319157-23.605895 51.765895 13.877895-6.319158 23.605895z m171.910737 62.652631c53.867789-5.146947 100.109474-29.480421 139.021474-73.189052l-16.761263-15.629474a286.046316 286.046316 0 0 1-24.158316 23.174737 771.597474 771.597474 0 0 1-41.862737-8.232421c12.045474-7.383579 27.176421-20.197053 45.392842-38.426948l69.524211 18.620632 5.928421-22.069895-55.336421-14.821053a225.616842 225.616842 0 0 0-2.883369-28.793263l-25.707789-2.546526c2.290526 7.68 3.866947 16.006737 4.985263 25.007158l-60.133053-16.114526-5.928421 22.083368 44.678737 11.964632c-21.072842 20.749474-36.823579 32.835368-47.521684 36.230736a13.312 13.312 0 0 1-5.12 0.808421l-0.404211 20.830316c18.216421 4.069053 35.678316 7.922526 52.197053 11.264-24.980211 15.063579-52.911158 23.902316-83.738947 26.246737l7.814736 23.578947z m-50.566737 46.565053l32.916211-122.839579c3.435789 11.533474 7.464421 25.950316 11.897263 42.913684l18.957474-16.963368a625.690947 625.690947 0 0 0-23.646316-52.84379l3.678316-13.702737 27.904 7.477895 6.197894-23.093895-27.917473-7.477894 12.719158-47.454316-23.093895-6.197895-12.719158 47.454316-32.997053-8.838737-6.197894 23.093895 31.730526 8.501894c-15.764211 28.429474-35.031579 52.628211-58.179369 72.003369l3.233685 27.513263c16.060632-15.279158 30.639158-33.131789 43.843368-52.978526l-31.420631 117.248 23.093894 6.184421z m156.914527 41.768421l22.528-13.002105c-8.353684-18.566737-19.321263-37.551158-32.498527-57.397895 20.210526-12.530526 39.168-28.402526 56.68379-47.104l-17.25979-15.764211c-44.126316 46.915368-97.899789 71.949474-161.94021 75.466106l7.68 24.090947c34.465684-2.735158 66.425263-11.317895 95.919158-25.977263 12.948211 21.692632 22.554947 41.674105 28.887579 59.688421z m191.043368-89.977263c27.109053-1.711158 51.941053-8.111158 75.075368-19.321263a548.944842 548.944842 0 0 1 36.513685 45.406315l18.32421-16.572631a577.28 577.28 0 0 0-33.657263-40.838737 224.296421 224.296421 0 0 0 36.702316-30.423579l-17.00379-15.710316a203.439158 203.439158 0 0 1-35.73221 28.77979 592.168421 592.168421 0 0 0-47.494737-44.005053l-17.731368 15.373474a495.144421 495.144421 0 0 1 43.183157 39.855158c-20.156632 8.205474-42.091789 12.934737-65.818947 14.187789l7.639579 23.269053zM700.636699 651.021474c18.782316 5.039158 32.188632 3.732211 40.474947-3.84 8.030316-7.639579 20.318316-41.337263 36.378948-101.22779l-18.79579-5.039158 39.949474-101.362526-89.586526-23.996632-6.117053 22.837895 64.714105 17.340632-32.296421 78.928842-26.138947-7.006316 27.661473-64.673684-23.013052-7.518316-36.015158 87.713684 70.29221 18.849684c-9.310316 34.762105-16.478316 55.417263-21.248 62.032843-4.446316 6.426947-13.002105 7.949474-26.206315 4.405894-4.042105-1.077895-10.698105-3.691789-20.58779-7.410526l0.498527 23.511579c6.979368 2.425263 13.433263 4.688842 20.035368 6.467368z m58.556632 20.048842c22.164211-3.584 42.752-11.398737 62.208-23.04 11.722105 19.186526 27.041684 36.069053 45.662315 50.849684l20.493474-17.623579c-18.634105-13.702737-33.913263-29.763368-45.581474-48.114526 18.944-15.872 36.432842-36.486737 52.224-61.898106l-19.388631-14.982736c-12.988632 22.083368-27.701895 40.448-44.638316 54.945684-8.407579-19.402105-13.716211-41.216-15.481263-65.077895l-23.107369 6.049684c2.546526 27.068632 8.501895 51.509895 18.324211 73.728a153.653895 153.653895 0 0 1-60.766316 20.709053l10.051369 24.454737z m-101.591579-76.719158c25.263158 3.233684 48.303158 4.500211 68.850526 4.015158l5.968842-22.325895c-20.897684-0.161684-44.894316-1.967158-71.599158-5.861053l-3.206737 24.17179z m287.838315 120.360421l2.371369-8.879158 161.414737 43.250526-2.384842 8.892632 23.349894 6.238316 57.667369-215.201684-208.114527-55.767579-57.667368 215.215157 23.363368 6.25179z m169.498948 13.056l-161.414737-43.250526 43.856842-163.705264 161.414737 43.250527-43.856842 163.705263z m-20.183579-43.493053l25.168842-93.898105-101.510737-27.203368-25.168842 93.911579 101.510737 27.189894z m-17.461895-26.165894l-56.346947-15.090527 14.349473-53.557894 56.346948 15.090526-14.349474 53.557895z" fill="#E9494F" p-id="6796"></path></svg>