<svg t="1618806708302" class="icon" viewBox="0 0 1024 1024" version="1.1" xmlns="http://www.w3.org/2000/svg" p-id="2347" width="200" height="200"><path d="M716.8 273.066667a34.133333 34.133333 0 0 1-34.133333-34.133334V0H204.373333A136.533333 136.533333 0 0 0 68.266667 136.533333v750.933334A136.106667 136.106667 0 0 0 204.373333 1024h615.253334a136.106667 136.106667 0 0 0 136.106666-136.533333V273.066667zM149.76 213.333333h349.013333a42.666667 42.666667 0 0 1 38.826667 42.666667 42.666667 42.666667 0 0 1-38.826667 42.666667H149.76a42.666667 42.666667 0 0 1-38.826667-42.666667 42.666667 42.666667 0 0 1 38.826667-42.666667z m0 170.666667h561.066667a42.666667 42.666667 0 0 1 0 85.333333H151.04a42.666667 42.666667 0 0 1 0-85.333333z m0 256a42.666667 42.666667 0 0 1 0-85.333333h561.066667a42.666667 42.666667 0 0 1 0 85.333333z m426.666667 298.666667l37.12-90.026667 61.013333 55.04z m277.76-194.56l-167.253334 149.333333-61.44-55.466667 166.826667-148.906666a42.666667 42.666667 0 0 1 40.106667-15.786667 42.666667 42.666667 0 0 1 32.426666 29.013333 42.666667 42.666667 0 0 1-10.666666 42.666667z" fill="#78D6A9" p-id="2348"></path><path d="M750.933333 0l204.8 204.8h-162.56a42.666667 42.666667 0 0 1-42.666666-42.666667V0z" fill="#78D6A9" p-id="2349"></path></svg>