<svg t="1610680988555" class="icon" viewBox="0 0 1347 1024" version="1.1" xmlns="http://www.w3.org/2000/svg" p-id="6166" width="200" height="200"><path d="M673.684211 202.428632c100.944842 0 190.464 49.313684 246.298947 125.44l39.019789 10.563368C900.715789 240.801684 794.758737 175.508211 673.684211 175.508211a328.757895 328.757895 0 0 0-161.226106 42.037894l38.992842 10.536421A302.618947 302.618947 0 0 1 673.684211 202.428632z m201.162105-17.51579l21.39621 17.51579 6.575158-26.246737 23.929263-14.120421-23.929263-14.147369-6.575158-26.246737-21.39621 17.51579-28.025263-2.074947 10.752 24.953263-10.725053 24.953263 28.025263-2.101895zM503.915789 126.167579l-21.989052-15.440842-4.796632 27.378526-22.528 16.976842 24.279579 11.749053 8.084211 25.950316 19.806316-20.129685 27.486315-0.91621-12.018526-24.198737 8.919579-26.51621-27.24379 5.173894z m205.93179-37.807158l-16.303158-21.504-12.826947 24.602947-26.543158 9.269895 19.590737 18.647579-0.10779 27.216842 24.926316-13.096421 26.489263 7.545263-4.203789-26.731789 16.491789-22.528-27.513263-3.422316zM1007.831579 257.347368l-23.093895-16.168421-3.287579 27.028211-21.746526 16.006737 25.168842 12.557473 9.647158 26.058106 18.863158-19.240421 27.701895 0.080842-13.527579-24.441263 7.491368-26.004211-27.216842 4.122947z m299.951158 203.398737L149.881263 147.213474A53.221053 53.221053 0 0 0 84.614737 185.290105L1.886316 497.340632a53.894737 53.894737 0 0 0 37.672421 65.913263l1157.928421 313.532631a53.221053 53.221053 0 0 0 65.266526-38.076631l82.728421-312.050527a53.894737 53.894737 0 0 0-37.672421-65.913263z m8.488421 71.949474l-75.829895 286.046316a39.909053 39.909053 0 0 1-48.936421 28.56421L59.284211 540.698947a40.421053 40.421053 0 0 1-28.26779-49.448421L106.900211 205.258105a39.909053 39.909053 0 0 1 48.936421-28.56421L1288.084211 483.301053a40.421053 40.421053 0 0 1 28.240842 49.448421zM673.684211 27.486316c221.911579 0 408.576 152.333474 463.279157 359.154526l29.480421 7.976421C1113.923368 168.717474 913.246316 0.538947 673.684211 0.538947c-145.246316 0-276.210526 61.844211-368.505264 160.87579l29.426527 7.976421c86.770526-87.686737 206.686316-141.931789 339.078737-141.93179z m122.233263 768.458105c-37.456842 16.491789-78.767158 25.653895-122.233263 25.653895-100.944842 0-190.464-49.313684-246.298948-125.44l-39.019789-10.563369c58.287158 97.630316 164.244211 162.923789 285.318737 162.92379a328.757895 328.757895 0 0 0 161.226105-42.037895l-38.992842-10.536421zM510.113684 851.806316l-21.207579-17.461895-6.54821 26.165895-23.713684 14.120421 23.713684 14.093474 6.54821 26.165894 21.207579-17.461894 27.75579 2.101894-10.617263-24.899368 10.64421-24.899369-27.782737 2.074948z m163.489684 82.917052l16.168421 21.450106 12.719158-24.576 26.327579-9.216-19.429052-18.593685 0.107789-27.162947-24.737684 13.042526-26.246737-7.545263 4.149895 26.677895-16.357053 22.474105 27.297684 3.449263zM336.842105 765.520842l21.719579 17.704421 5.12-26.624 22.662737-14.416842-24.037053-14.282105-7.733894-26.597053-19.994948 17.839158-27.405473-2.048 11.66821 25.276632-9.216 25.330526 27.216842-2.182737zM673.684211 996.540632c-221.911579 0-408.576-152.333474-463.279158-359.154527l-29.480421-7.976421C233.445053 855.282526 434.122105 1023.461053 673.684211 1023.461053c145.246316 0 276.210526-61.844211 368.53221-160.87579l-29.453474-7.949474c-86.770526 87.659789-206.686316 141.904842-339.078736 141.904843z m192.565894-98.762106l21.854316 15.440842 4.71579-27.297684 22.312421-16.869052-24.117895-11.776-8.057263-25.869474-19.617685 20.021895-27.297684 0.889263 11.991579 24.117895-8.811789 26.435368 27.02821-5.12z" fill="#16B998" p-id="6167"></path><path d="M177.044211 415.824842l-6.440422 24.064 54.972632 14.740211 6.467368-24.064-54.972631-14.740211zM218.273684 481.818947l-54.972631-14.74021-3.988211 14.901895-29.184-7.814737 38.669474-144.330106 84.156631 22.554948 6.305685-23.444211 29.776842 7.949474-6.305685 23.471158 85.045895 22.797474-38.426947 143.440842-29.210948-7.814737 3.772632-14.012632-55.834947-14.982737-15.117474 56.400843-29.776842-7.976422 15.090526-56.400842z m37.079579-19.213473l55.834948 14.955789 6.467368-24.064-55.861895-14.955789-6.440421 24.064z m69.254737-35.166316l6.602105-24.602947-55.834947-14.982737-6.602105 24.629894 55.834947 14.95579z m-79.009684-47.562105l-54.972632-14.713264-6.602105 24.629895 54.972632 14.713263 6.602105-24.629894z m160.444631-52.439579l-14.901894 55.538526-29.184-7.814737 7.57221-28.348631-187.823158-50.337685-7.976421 29.776842-29.184-7.814736 15.252211-56.966737 106.226526 28.456421a222.935579 222.935579 0 0 0-3.072-18.324211l33.145263 3.368421c0.619789 6.898526 0.997053 14.686316 1.13179 23.309474l108.813473 29.157053z m70.063158 138.159158l-36.109473 134.844631-28.941474-7.733895 34.007579-126.841263c-14.093474 20.48-29.130105 38.831158-45.810526 55.242106l-4.311579-34.304c25.222737-20.857263 46.672842-47.023158 64.134736-77.93179l-35.193263-9.431579 7.599158-28.375579 36.378948 9.754948 14.093473-52.682106 28.914527 7.760842-14.120422 52.682106 30.639158 8.192-7.599158 28.348631-30.639157-8.192-3.907369 14.578527c8.919579 17.138526 17.866105 36.405895 26.435369 57.128421l-23.794527 21.234526c-4.527158-17.488842-8.218947-32.282947-11.776-44.274526z m62.464-92.213895l66.425263 17.785263a211.563789 211.563789 0 0 0-5.658947-26.947368l32.013474 3.018105c1.428211 9.593263 2.263579 20.264421 2.856421 31.770947l61.84421 16.572632-7.275789 27.216842-78.470737-21.018947c-19.294316 19.348211-35.570526 33.091368-48.936421 41.768421 14.821053 3.072 29.722947 5.847579 44.355368 8.542315 9.485474-7.895579 18.243368-16.599579 26.893474-25.950315l20.58779 19.34821c-43.897263 49.313684-96.040421 76.746105-156.833685 82.566737l-9.701052-28.995368c33.468632-2.398316 63.811368-11.452632 91.109052-27.459369l-56.239158-12.314947 0.431158-25.653895a19.994947 19.994947 0 0 0 6.144-1.104842c11.695158-3.637895 29.049263-16.788211 51.550316-38.965895l-48.370526-12.988631 7.275789-27.189895z m44.112842 207.602526a288.417684 288.417684 0 0 1-106.90021 29.049263l-9.781895-29.911579c71.895579-3.772632 132.554105-32.013474 181.625263-84.533894l21.423158 19.563789a323.853474 323.853474 0 0 1-62.922105 52.789895c14.443789 21.665684 26.516211 43.008 35.84 63.299368l-27.621053 15.925895c-6.844632-20.237474-17.246316-42.064842-31.663158-66.182737z m174.457264-176.963368a408.791579 408.791579 0 0 1 36.271157 58.206316l-26.408421 15.009684c-7.356632-17.300211-19.159579-37.349053-35.328-59.472842l25.465264-13.743158z m94.073263 301.702737c-15.737263-4.203789-32.848842-9.108211-51.092211-14.282106-18.539789-5.281684-33.253053-11.075368-44.517052-17.165473a66.613895 66.613895 0 0 1-24.764632-27.809685c-2.694737-5.928421-5.524211-9.162105-8.677053-9.970526-5.712842-1.562947-18.836211 8.434526-40.043789 30.369684l-16.599579-26.246737c20.453053-19.051789 36.971789-30.288842 50.122105-33.522526l21.018948-78.443789-37.807158-10.132211 7.356631-27.486316 65.562948 17.569685-29.157053 108.786526 2.317474 4.015158c4.581053 9.189053 9.647158 16.707368 15.521684 22.258526 7.141053 6.521263 19.132632 12.180211 35.866947 17.273263 16.518737 4.742737 35.624421 10.159158 57.96379 16.168421 14.336 3.826526 28.725895 7.383579 43.600842 11.37179 14.767158 3.341474 26.085053 5.739789 33.953684 7.248842l-15.063579 27.567158-65.562947-17.569684z m10.320842-241.178948l-54.110316-14.524631 6.602105-24.629895 158.31579 42.442105-5.578106 20.884211c-20.021895 9.377684-40.690526 16.707368-62.275368 21.692631l0.404211 0.727579 57.856 15.494737-34.007579 126.841263c-4.742737 17.731368-16.949895 24.306526-36.405895 19.078737l-21.477053-5.739789v-26.408421l19.536842 6.170947c6.305684 1.670737 10.293895-0.619789 11.910737-6.629053l3.233684-12.045473-38.373052-10.266948-12.449684 46.376421-27.486316-7.356631 12.449684-46.403369-37.241263-9.970526-12.503579 46.672842-28.052211-7.518316 41.660632-155.486316 63.568842 17.057685c-7.356632-8.084211-15.467789-16.707368-24.737684-25.653895l19.159579-10.832842z m28.591158 27.270737c12.395789-2.802526 24.037053-6.117053 35.247158-10.186105l-57.263158-15.36c8.057263 8.919579 15.629474 17.381053 22.016 25.546105z m-76.39579 66.371368l-4.850526 18.054737 37.241263 9.970527 4.850526-18.054737-37.241263-9.970527z m64.700632 17.354106l-4.850527 18.054737 38.4 10.24 4.823579-18.02779-38.373052-10.266947z m44.813473-13.770106l4.850527-18.054736-38.373053-10.266948-4.850526 18.054737 38.373052 10.24z m-65.859368-17.650526l4.850526-18.054737-37.241263-9.970526-4.823579 18.054737 37.214316 9.970526z m184.643368-63.757474c15.198316 20.021895 27.594105 38.992842 37.079579 57.505685l-27.594105 15.898947c-7.329684-17.300211-18.863158-37.268211-35.031579-59.392l25.546105-14.012632z m101.807158 303.777685c-16.303158-4.365474-33.980632-9.431579-53.086315-14.848-19.402105-5.497263-34.977684-11.506526-46.511158-17.677474a65.805474 65.805474 0 0 1-25.923369-28.133053c-2.694737-5.928421-6.090105-9.296842-9.539368-10.213052-5.712842-1.536-19.267368 8.946526-40.933053 31.366737l-16.599579-26.21979c20.614737-19.671579 37.753263-30.989474 50.930527-34.223158l21.018947-78.470737-38.4-10.266947 7.545263-28.079158 66.694737 17.893053-29.157053 108.786526c0.835368 1.455158 1.751579 2.640842 2.586948 4.069053 4.877474 9.296842 10.509474 16.949895 16.384 22.501052 7.814737 6.386526 20.291368 12.503579 37.888 17.812211 17.084632 4.904421 37.349053 10.644211 60.550737 16.842105 13.150316 3.530105 26.677895 6.844632 40.528842 10.24 13.877895 3.125895 24.629895 5.389474 31.932631 6.736842l-15.198316 28.133053-60.712421-16.249263z m2.15579-41.175579l-40.097684-10.725053 1.077894-30.396631c12.288 4.500211 24.387368 8.677053 35.84 11.749052 7.437474 1.994105 12.503579-0.943158 14.497685-8.407579l29.642105-110.48421-107.088842-28.725895 7.814737-29.184 107.088842 28.672 11.506526-42.927158 29.776842 7.976421-11.506526 42.927158 39.801263 10.671158-7.814737 29.210947-39.82821-10.671158-31.609264 117.975579c-5.443368 20.318316-18.512842 27.863579-39.127579 22.366316z m-33.495579-147.671579c11.668211 25.222737 20.210526 47.157895 25.519158 65.131789l-28.510316 10.186106a535.578947 535.578947 0 0 0-24.037053-67.206737l27.028211-8.084211z" fill="#16B998" p-id="6168"></path></svg>