<svg t="1610694611557" class="icon" viewBox="0 0 1348 1024" version="1.1" xmlns="http://www.w3.org/2000/svg" p-id="15262" width="200" height="200"><path d="M1112.107449 352.323041c-13.842406-4.376905-24.055184-16.760343-27.702605-30.620541A421.67741 421.67741 0 0 0 750.692544 6.885618c-220.820183-40.086042-432.886557 99.103088-485.373829 314.816882-3.558459 14.57189-13.842406 26.243636-27.684812 30.620541A338.05362 338.05362 0 0 0 0 675.164249C0 843.354821 123.709833 982.223689 284.676733 1007.48875a41.989818 41.989818 0 0 0 13.362014 2.188452h151.608152a42.274495 42.274495 0 0 0 0-84.54899h-148.672423c-122.428787-18.183726-216.443278-123.158272-216.443279-250.693448a253.184369 253.184369 0 0 1 218.631731-250.693447 41.046826 41.046826 0 0 0 35.709138-36.438622c17.489827-169.809671 161.785346-301.721752 335.971921-301.721752s317.734818 132.641565 335.242438 302.469028c1.441176 18.948795 16.74255 33.520685 35.709137 36.438622 123.887756 16.760343 218.631731 122.428787 218.631731 249.23448 0 127.535176-94.014491 233.203621-216.461071 250.693447-1.334422 0.177923-2.651052 0.427015-3.932097 0.729485h-144.010842a42.274495 42.274495 0 0 0 0 84.548989h151.59036a42.256703 42.256703 0 0 0 17.240735-3.683005A337.679982 337.679982 0 0 0 1338.745713 752.436189c41.545011-173.474884-59.017045-347.643668-226.638264-400.113148z" fill="#1544F7" p-id="15263"></path><path d="M730.800758 676.80114V965.40997a41.064619 41.064619 0 0 1-40.086043 40.797734 40.121627 40.121627 0 0 1-40.086042-40.797734V676.80114l-45.832954 45.921915a40.92228 40.92228 0 0 1-56.935347 0 39.392143 39.392143 0 0 1-0.729484-56.116901l0.729484-0.729484 115.151739-115.151738a40.246173 40.246173 0 0 1 28.467673-11.653954c10.92447 0 21.137247 3.647421 28.467673 11.653954l115.151739 115.151738a40.92228 40.92228 0 0 1 0 56.846385 39.392143 39.392143 0 0 1-56.116901 0.729484l-0.729485-0.729484z m0 0" fill="#1544F7" p-id="15264"></path><path d="M691.017184 1024h-0.302469c-32.453148 0-57.878338-25.72766-57.878338-58.59003V719.751742l-15.835143 15.835143a58.892499 58.892499 0 0 1-81.417546 0 57.166646 57.166646 0 0 1-1.014161-81.559884l0.711692-0.729484 115.169531-115.151738a58.269769 58.269769 0 0 1 40.92228-16.867097c16.404497 0 31.029764 6.084965 41.260334 17.133981l115.169531 115.169531a58.856914 58.856914 0 0 1 0 81.417545 56.543916 56.543916 0 0 1-40.602019 17.632166h-0.658315a57.2734 57.2734 0 0 1-40.29955-16.600212l-0.640523-0.640523-17.080604-16.564628V965.40997a58.714576 58.714576 0 0 1-57.291192 58.59003z m-22.596216-390.149462V965.40997a22.436085 22.436085 0 0 0 21.991278 23.005438 23.254531 23.254531 0 0 0 22.596216-23.005438V634.72236l78.464024 76.079857a21.582055 21.582055 0 0 0 30.673918-0.444807 23.129985 23.129985 0 0 0 0.124546-32.132887l-115.294077-115.276284-0.284676-0.320261c-4.376905-4.821712-10.675377-5.835873-15.247998-5.835873a22.489462 22.489462 0 0 0-15.835143 6.440811l-115.881223 115.970184a21.582055 21.582055 0 0 0 0.427016 30.656125 23.129985 23.129985 0 0 0 32.150678 0.124546z" fill="#1544F7" p-id="15265"></path></svg>