<svg t="1614165095760" class="icon" viewBox="0 0 1792 1024" version="1.1" xmlns="http://www.w3.org/2000/svg" p-id="5317" width="200" height="200"><path d="M1593.088 3.328H203.392A169.472 169.472 0 0 0 34.368 172.352v790.016c0 52.096 62.72 77.632 99.904 41.472l119.104-119.04c23.424-23.424 765.568-35.2 797.44-35.2h542.272a169.472 169.472 0 0 0 169.024-168.96V172.288A169.472 169.472 0 0 0 1593.088 3.328zM541.568 617.856c0 42.56-18.112 63.808-53.184 63.808a54.08 54.08 0 0 1-23.424-4.224 55.744 55.744 0 0 1-20.224-11.712 99.328 99.328 0 0 1-16.96-19.2l-16-22.272-184.96-283.904v283.904c0 18.048-4.288 32.96-12.8 42.496a41.152 41.152 0 0 1-32.96 13.824 40.512 40.512 0 0 1-32.96-14.848c-8.512-9.6-12.736-23.424-12.736-41.472V249.984c0-16 2.112-28.672 5.312-37.184a51.84 51.84 0 0 1 21.248-24.448c9.6-6.4 20.224-9.6 31.936-9.6a49.28 49.28 0 0 1 22.336 4.224c6.4 3.2 11.648 6.4 16.96 11.712 4.288 5.312 9.6 10.624 14.912 19.2 5.312 7.424 9.6 15.872 14.912 24.384l189.248 286.08v-289.28c0-19.136 4.224-32.96 11.648-42.496a41.152 41.152 0 0 1 33.024-13.824c13.76 0 25.472 4.224 32.96 13.824 8.448 9.6 12.736 23.36 12.736 42.496v382.784H541.44z m469.888 44.672c-7.424 7.424-19.136 10.624-35.072 10.624H708.48c-21.312 0-37.248-4.224-45.76-13.824-9.6-9.6-13.824-24.448-13.824-45.696V247.872c0-13.824 2.112-25.536 6.4-35.072a35.776 35.776 0 0 1 20.224-19.2c8.448-4.224 20.16-6.4 33.984-6.4h259.456c15.936 0 27.648 3.2 35.072 10.688 7.424 7.424 11.712 16 11.712 27.648a36.864 36.864 0 0 1-11.712 27.648c-7.424 7.424-19.136 10.624-35.072 10.624h-222.208v119.04h204.16c14.848 0 26.56 3.2 33.984 9.6 7.424 6.4 10.624 16 10.624 26.624 0 10.624-3.2 20.16-10.624 26.56-7.424 7.424-18.048 10.624-34.048 10.624h-204.16v138.24h228.608c16 0 26.624 3.2 35.136 10.624a39.232 39.232 0 0 1 11.648 28.672 34.816 34.816 0 0 1-10.624 28.736z m652.8-395.52l-80.768 326.4c-5.312 22.336-9.6 38.272-13.824 48.896a56.832 56.832 0 0 1-18.048 26.624c-8.512 7.424-21.248 11.648-37.248 11.648a56.704 56.704 0 0 1-36.096-11.648 62.336 62.336 0 0 1-19.2-25.536c-3.2-9.6-8.448-25.536-14.848-47.872l-78.72-291.328-79.68 291.328c-6.4 22.4-10.688 38.272-14.912 47.872a54.208 54.208 0 0 1-19.136 25.536 56.704 56.704 0 0 1-36.16 11.648 61.76 61.76 0 0 1-29.76-6.4 54.912 54.912 0 0 1-19.2-19.072 108.736 108.736 0 0 1-11.648-29.76c-3.2-11.712-6.4-22.4-8.512-31.936l-80.768-326.4a167.68 167.68 0 0 1-7.488-43.584c0-12.8 4.288-23.424 12.8-31.936a45.76 45.76 0 0 1 32.96-12.736c18.048 0 29.76 5.312 36.16 17.024 6.4 11.712 11.648 27.648 15.936 49.92l63.808 283.904 71.232-264.704c5.312-20.224 9.6-36.16 13.824-46.784 4.224-10.624 10.624-20.224 20.16-27.648a60.8 60.8 0 0 1 38.272-11.712c17.024 0 29.76 4.224 38.272 11.712 9.6 8.512 16 17.024 19.2 26.56 3.2 9.6 8.448 25.536 13.76 46.784l72.32 264.768 63.808-283.904c3.2-14.912 6.4-26.56 8.512-35.072a60.736 60.736 0 0 1 13.824-22.4c6.4-6.336 17.024-9.536 29.76-9.536 12.8 0 23.36 4.288 32.96 12.8a44.16 44.16 0 0 1 13.824 31.872c2.112 10.624 0 25.536-5.312 44.672z" fill="#FF1D00" p-id="5318"></path></svg>