<svg t="1610498392659" class="icon" viewBox="0 0 1024 1024" version="1.1" xmlns="http://www.w3.org/2000/svg" p-id="3327" width="200" height="200"><path d="M517.622701 50.95795a35.415775 35.415775 0 0 1 35.415775 35.415775V152.873849l36.689724 10.70117A280.268724 280.268724 0 0 1 790.247732 433.142573v266.510077a100.387161 100.387161 0 0 0 47.136103 85.099776H182.574181a100.387161 100.387161 0 0 0 47.136104-85.099776V433.142573a280.268724 280.268724 0 0 1 201.538691-268.803185L467.9387 152.873849V86.373725A35.415775 35.415775 0 0 1 503.354475 50.95795H517.622701m0-50.95795h-13.249067a86.373725 86.373725 0 0 0-86.373725 86.373725v29.046031A331.226673 331.226673 0 0 0 178.752335 433.142573v266.510077a49.429211 49.429211 0 0 1-49.429211 49.429211A44.333416 44.333416 0 0 0 84.480128 789.848221a43.314257 43.314257 0 0 0 43.314257 45.862155h764.369246a43.314257 43.314257 0 0 0 43.314258-45.862155 44.333416 44.333416 0 0 0-44.842996-40.51157 49.429211 49.429211 0 0 1-49.429211-49.429211V433.142573a331.226673 331.226673 0 0 0-238.228415-317.722817V86.373725A86.373725 86.373725 0 0 0 517.622701 0zM582.848876 932.53048a92.233889 92.233889 0 0 1-145.739736 0h145.739736m69.557602-50.95795H367.551539a142.42747 142.42747 0 0 0 284.854939 0z" fill="#3072F6" p-id="3328"></path></svg>