<svg t="1623377109573" class="icon" viewBox="0 0 1024 1024" version="1.1" xmlns="http://www.w3.org/2000/svg" p-id="4782" width="200" height="200"><path d="M640.682133 703.999413H383.317014a63.402614 63.402614 0 0 1-63.317281-63.31728V383.317014c0-34.901304 28.415976-63.317281 63.317281-63.317281h257.365119c34.901304 0 63.317281 28.415976 63.31728 63.317281v257.365119a63.402614 63.402614 0 0 1-63.31728 63.31728z m342.954381-391.423673a509.439575 509.439575 0 0 0-109.738576-162.730532A511.572907 511.572907 0 0 0 40.2773 312.746406C13.567989 375.807687 0 442.879631 0 511.999573s13.567989 136.191887 40.2773 199.253168c25.770645 61.013282 62.719948 115.711904 109.738575 162.730531A510.890241 510.890241 0 0 0 511.999573 1023.999147a509.439575 509.439575 0 0 0 361.983699-150.015875 510.890241 510.890241 0 0 0 109.653242-561.407532z" fill="#EE5D5D" p-id="4783"></path></svg>