<svg t="1610694194037" class="icon" viewBox="0 0 1024 1024" version="1.1" xmlns="http://www.w3.org/2000/svg" p-id="12931" width="200" height="200"><path d="M0 0m136.533333 0l750.933334 0q136.533333 0 136.533333 136.533333l0 750.933334q0 136.533333-136.533333 136.533333l-750.933334 0q-136.533333 0-136.533333-136.533333l0-750.933334q0-136.533333 136.533333-136.533333Z" fill="#FFA43B" p-id="12932"></path><path d="M717.073067 309.589333H648.533333v-5.188266a30.242133 30.242133 0 0 0-30.037333-30.037334 30.242133 30.242133 0 0 0-30.037333 30.037334v5.188266h-151.210667v-5.188266a30.242133 30.242133 0 0 0-30.037333-30.037334 30.242133 30.242133 0 0 0-30.037334 30.037334v5.188266H308.155733a31.266133 31.266133 0 0 0-30.993066 30.958934v408.917333c0 17.408 14.097067 31.470933 31.470933 31.470933h408.917333a31.470933 31.470933 0 0 0 31.470934-31.4368V340.5824c-0.955733-16.930133-14.574933-30.993067-31.9488-30.993067z m-73.693867 239.445334l-134.7584 134.724266a19.5584 19.5584 0 0 1-28.16 0l-84.992-84.992a19.5584 19.5584 0 0 1 0-28.16 19.5584 19.5584 0 0 1 28.194133 0l70.894934 70.894934 121.105066-120.661334a19.5584 19.5584 0 0 1 28.194134 0c7.509333 7.9872 7.509333 20.650667-0.477867 28.194134z m64.3072-185.924267c-0.443733 5.632-0.443733 13.6192-0.443733 23.4496-0.477867 8.465067-0.477867 16.452267-0.477867 23.005867H317.098667v-56.797867c0-1.877333 1.365333-3.2768 3.2768-3.2768h56.32v5.154133c0 16.452267 13.653333 30.037333 30.037333 30.037334 16.452267 0 30.071467-13.585067 30.071467-30.037334v-5.154133h150.698666v5.154133c0 16.452267 13.653333 30.037333 30.037334 30.037334 16.452267 0 30.037333-13.585067 30.037333-30.037334v-5.154133h56.354133c1.877333 0 3.310933 1.399467 3.310934 3.2768 0.443733 3.2768 0.443733 7.031467 0.443733 10.3424z" fill="#FFFFFF" p-id="12933"></path></svg>