<svg t="1609323945417" class="icon" viewBox="0 0 1024 1024" version="1.1" xmlns="http://www.w3.org/2000/svg" p-id="9893" width="200" height="200"><path d="M0 0h1024v1024H0z" fill="#FF0000" fill-opacity="0" p-id="9894"></path><path d="M512 85.333333c234.666667 0 418.133333 153.6 426.666667 371.2V682.666667c0 25.6-17.066667 42.666667-42.666667 42.666666-21.333333 0-38.4-17.066667-42.666667-38.4V469.333333c0-174.933333-149.333333-298.666667-341.333333-298.666666-187.733333 0-337.066667 119.466667-341.333333 290.133333V853.333333c0 25.6-17.066667 42.666667-42.666667 42.666667-21.333333 0-38.4-17.066667-42.666667-38.4V469.333333c0-221.866667 187.733333-384 426.666667-384zM597.333333 938.666667c25.6 0 42.666667 17.066667 42.666667 42.666666 0 21.333333-17.066667 38.4-38.4 42.666667H426.666667c-25.6 0-42.666667-17.066667-42.666667-42.666667 0-21.333333 17.066667-38.4 38.4-42.666666H597.333333z" fill="#F0731E" p-id="9895"></path><path d="M512 0c21.333333 0 38.4 17.066667 42.666667 38.4V128c0 25.6-17.066667 42.666667-42.666667 42.666667-21.333333 0-38.4-17.066667-42.666667-38.4V42.666667c0-25.6 17.066667-42.666667 42.666667-42.666667zM981.333333 810.666667c25.6 0 42.666667 17.066667 42.666667 42.666666 0 21.333333-17.066667 38.4-38.4 42.666667H42.666667c-25.6 0-42.666667-17.066667-42.666667-42.666667 0-21.333333 17.066667-38.4 38.4-42.666666H981.333333z" fill="#F0731E" p-id="9896"></path></svg>