<svg t="1609324974459" class="icon" viewBox="0 0 1024 1024" version="1.1" xmlns="http://www.w3.org/2000/svg" p-id="11057" width="200" height="200"><path d="M515 64c-246.3 0-446 199.7-446 446s199.7 446 446 446 446-199.7 446-446-199.7-446-446-446z m-49.9 213.7c12.1-13.7 27.6-20.8 46.4-20.8 18.8 0 34.3 6.6 46.5 20.8 11.7 13.7 18 31.1 18 51.9 0 17.7-25.1 149.5-33.8 245.4H481.5c-7.1-95.9-34.7-227.7-34.7-245.4-0.1-20.4 6.2-37.7 18.3-51.9z m93.2 442.7c-12.7 12.5-28 18.7-45.9 18.7-17.8 0-33.5-6.2-46.3-18.7-13.2-12.5-19.5-27.5-19.5-45.4 0-17.5 6.3-32.9 19.5-45.4 12.7-13 28.5-19.2 46.3-19.2 17.8 0 33.1 6.2 45.9 19.2 13.2 12.4 19.5 27.9 19.5 45.4 0.1 17.9-6.2 32.8-19.5 45.4z" fill="#FF0000" p-id="11058"></path></svg>