<?xml version="1.0" encoding="utf-8"?>
<svg version="1.1" xmlns:xlink="http://www.w3.org/1999/xlink" width="12px" height="12px" viewBox="390 447  12 12" xmlns="http://www.w3.org/2000/svg">
  <path d="M 396 447  C 399.36 447  402 449.64  402 453  C 402 456.36  399.36 459  396 459  C 392.64 459  390 456.36  390 453  C 390 449.64  392.64 447  396 447  Z " fill-rule="nonzero" fill="#ffffff" stroke="none" />
  <path d="M 396 447.5  C 399.08 447.5  401.5 449.92  401.5 453  C 401.5 456.08  399.08 458.5  396 458.5  C 392.92 458.5  390.5 456.08  390.5 453  C 390.5 449.92  392.92 447.5  396 447.5  Z " stroke-width="1" stroke="#797979" fill="none" />
  <path d="M 396 456  C 394.32 456  393 454.68  393 453  C 393 451.32  394.32 450  396 450  C 397.68 450  399 451.32  399 453  C 399 454.68  397.68 456  396 456  " fill-rule="nonzero" fill="#797979" stroke="none" />
</svg>