<?xml version="1.0" encoding="utf-8"?>
<svg version="1.1" xmlns:xlink="http://www.w3.org/1999/xlink" width="12px" height="12px" viewBox="490 447  12 12" xmlns="http://www.w3.org/2000/svg">
  <path d="M 496 447  C 499.36 447  502 449.64  502 453  C 502 456.36  499.36 459  496 459  C 492.64 459  490 456.36  490 453  C 490 449.64  492.64 447  496 447  Z " fill-rule="nonzero" fill="#f0f0f0" stroke="none" />
  <path d="M 496 447.5  C 499.08 447.5  501.5 449.92  501.5 453  C 501.5 456.08  499.08 458.5  496 458.5  C 492.92 458.5  490.5 456.08  490.5 453  C 490.5 449.92  492.92 447.5  496 447.5  Z " stroke-width="1" stroke="#797979" fill="none" />
  <path d="M 496 456  C 494.32 456  493 454.68  493 453  C 493 451.32  494.32 450  496 450  C 497.68 450  499 451.32  499 453  C 499 454.68  497.68 456  496 456  " fill-rule="nonzero" fill="#797979" stroke="none" />
</svg>