<?xml version="1.0" encoding="utf-8"?>
<svg version="1.1" xmlns:xlink="http://www.w3.org/1999/xlink" width="12px" height="12px" viewBox="290 447  12 12" xmlns="http://www.w3.org/2000/svg">
  <path d="M 296 447  C 299.36 447  302 449.64  302 453  C 302 456.36  299.36 459  296 459  C 292.64 459  290 456.36  290 453  C 290 449.64  292.64 447  296 447  Z " fill-rule="nonzero" fill="#ffffff" stroke="none" />
  <path d="M 296 447.5  C 299.08 447.5  301.5 449.92  301.5 453  C 301.5 456.08  299.08 458.5  296 458.5  C 292.92 458.5  290.5 456.08  290.5 453  C 290.5 449.92  292.92 447.5  296 447.5  Z " stroke-width="1" stroke="#797979" fill="none" />
  <path d="M 296 456  C 294.32 456  293 454.68  293 453  C 293 451.32  294.32 450  296 450  C 297.68 450  299 451.32  299 453  C 299 454.68  297.68 456  296 456  " fill-rule="nonzero" fill="#797979" stroke="none" />
</svg>