<?xml version="1.0" encoding="utf-8"?>
<svg version="1.1" xmlns:xlink="http://www.w3.org/1999/xlink" width="12px" height="12px" viewBox="423 326  12 12" xmlns="http://www.w3.org/2000/svg">
  <path d="M 429 326  C 432.36 326  435 328.64  435 332  C 435 335.36  432.36 338  429 338  C 425.64 338  423 335.36  423 332  C 423 328.64  425.64 326  429 326  Z " fill-rule="nonzero" fill="#f0f0f0" stroke="none" />
  <path d="M 429 326.5  C 432.08 326.5  434.5 328.92  434.5 332  C 434.5 335.08  432.08 337.5  429 337.5  C 425.92 337.5  423.5 335.08  423.5 332  C 423.5 328.92  425.92 326.5  429 326.5  Z " stroke-width="1" stroke="#797979" fill="none" />
  <path d="M 429 335  C 427.32 335  426 333.68  426 332  C 426 330.32  427.32 329  429 329  C 430.68 329  432 330.32  432 332  C 432 333.68  430.68 335  429 335  " fill-rule="nonzero" fill="#797979" stroke="none" />
</svg>