<?xml version="1.0" encoding="utf-8"?>
<svg version="1.1" xmlns:xlink="http://www.w3.org/1999/xlink" width="12px" height="12px" viewBox="227 410  12 12" xmlns="http://www.w3.org/2000/svg">
  <path d="M 233 410  C 236.36 410  239 412.64  239 416  C 239 419.36  236.36 422  233 422  C 229.64 422  227 419.36  227 416  C 227 412.64  229.64 410  233 410  Z " fill-rule="nonzero" fill="#ffffff" stroke="none" />
  <path d="M 233 410.5  C 236.08 410.5  238.5 412.92  238.5 416  C 238.5 419.08  236.08 421.5  233 421.5  C 229.92 421.5  227.5 419.08  227.5 416  C 227.5 412.92  229.92 410.5  233 410.5  Z " stroke-width="1" stroke="#797979" fill="none" />
  <path d="M 233 419  C 231.32 419  230 417.68  230 416  C 230 414.32  231.32 413  233 413  C 234.68 413  236 414.32  236 416  C 236 417.68  234.68 419  233 419  " fill-rule="nonzero" fill="#797979" stroke="none" />
</svg>