<?xml version="1.0" encoding="utf-8"?>
<svg version="1.1" xmlns:xlink="http://www.w3.org/1999/xlink" width="12px" height="12px" viewBox="378 410  12 12" xmlns="http://www.w3.org/2000/svg">
  <path d="M 384 410  C 387.36 410  390 412.64  390 416  C 390 419.36  387.36 422  384 422  C 380.64 422  378 419.36  378 416  C 378 412.64  380.64 410  384 410  Z " fill-rule="nonzero" fill="#ffffff" stroke="none" />
  <path d="M 384 410.5  C 387.08 410.5  389.5 412.92  389.5 416  C 389.5 419.08  387.08 421.5  384 421.5  C 380.92 421.5  378.5 419.08  378.5 416  C 378.5 412.92  380.92 410.5  384 410.5  Z " stroke-width="1" stroke="#797979" fill="none" />
  <path d="M 384 419  C 382.32 419  381 417.68  381 416  C 381 414.32  382.32 413  384 413  C 385.68 413  387 414.32  387 416  C 387 417.68  385.68 419  384 419  " fill-rule="nonzero" fill="#797979" stroke="none" />
</svg>