<?xml version="1.0" encoding="utf-8"?>
<svg version="1.1" xmlns:xlink="http://www.w3.org/1999/xlink" width="12px" height="12px" viewBox="303 410  12 12" xmlns="http://www.w3.org/2000/svg">
  <path d="M 309 410  C 312.36 410  315 412.64  315 416  C 315 419.36  312.36 422  309 422  C 305.64 422  303 419.36  303 416  C 303 412.64  305.64 410  309 410  Z " fill-rule="nonzero" fill="#f0f0f0" stroke="none" />
  <path d="M 309 410.5  C 312.08 410.5  314.5 412.92  314.5 416  C 314.5 419.08  312.08 421.5  309 421.5  C 305.92 421.5  303.5 419.08  303.5 416  C 303.5 412.92  305.92 410.5  309 410.5  Z " stroke-width="1" stroke="#797979" fill="none" />
  <path d="M 309 419  C 307.32 419  306 417.68  306 416  C 306 414.32  307.32 413  309 413  C 310.68 413  312 414.32  312 416  C 312 417.68  310.68 419  309 419  " fill-rule="nonzero" fill="#797979" stroke="none" />
</svg>