<?xml version="1.0" encoding="utf-8"?>
<svg version="1.1" xmlns:xlink="http://www.w3.org/1999/xlink" width="12px" height="12px" viewBox="227 326  12 12" xmlns="http://www.w3.org/2000/svg">
  <path d="M 233 326  C 236.36 326  239 328.64  239 332  C 239 335.36  236.36 338  233 338  C 229.64 338  227 335.36  227 332  C 227 328.64  229.64 326  233 326  Z " fill-rule="nonzero" fill="#ffffff" stroke="none" />
  <path d="M 233 326.5  C 236.08 326.5  238.5 328.92  238.5 332  C 238.5 335.08  236.08 337.5  233 337.5  C 229.92 337.5  227.5 335.08  227.5 332  C 227.5 328.92  229.92 326.5  233 326.5  Z " stroke-width="1" stroke="#797979" fill="none" />
  <path d="M 233 335  C 231.32 335  230 333.68  230 332  C 230 330.32  231.32 329  233 329  C 234.68 329  236 330.32  236 332  C 236 333.68  234.68 335  233 335  " fill-rule="nonzero" fill="#797979" stroke="none" />
</svg>