<?xml version="1.0" encoding="utf-8"?>
<svg version="1.1" xmlns:xlink="http://www.w3.org/1999/xlink" width="12px" height="12px" viewBox="323 326  12 12" xmlns="http://www.w3.org/2000/svg">
  <path d="M 329 326  C 332.36 326  335 328.64  335 332  C 335 335.36  332.36 338  329 338  C 325.64 338  323 335.36  323 332  C 323 328.64  325.64 326  329 326  Z " fill-rule="nonzero" fill="#f0f0f0" stroke="none" />
  <path d="M 329 326.5  C 332.08 326.5  334.5 328.92  334.5 332  C 334.5 335.08  332.08 337.5  329 337.5  C 325.92 337.5  323.5 335.08  323.5 332  C 323.5 328.92  325.92 326.5  329 326.5  Z " stroke-width="1" stroke="#797979" fill="none" />
  <path d="M 329 335  C 327.32 335  326 333.68  326 332  C 326 330.32  327.32 329  329 329  C 330.68 329  332 330.32  332 332  C 332 333.68  330.68 335  329 335  " fill-rule="nonzero" fill="#797979" stroke="none" />
</svg>