<?xml version="1.0" encoding="utf-8"?>
<svg version="1.1" xmlns:xlink="http://www.w3.org/1999/xlink" width="12px" height="12px" viewBox="898 392  12 12" xmlns="http://www.w3.org/2000/svg">
  <path d="M 904 392  C 907.36 392  910 394.64  910 398  C 910 401.36  907.36 404  904 404  C 900.64 404  898 401.36  898 398  C 898 394.64  900.64 392  904 392  Z " fill-rule="nonzero" fill="#ffffff" stroke="none" />
  <path d="M 904 392.5  C 907.08 392.5  909.5 394.92  909.5 398  C 909.5 401.08  907.08 403.5  904 403.5  C 900.92 403.5  898.5 401.08  898.5 398  C 898.5 394.92  900.92 392.5  904 392.5  Z " stroke-width="1" stroke="#797979" fill="none" />
  <path d="M 904 401  C 902.32 401  901 399.68  901 398  C 901 396.32  902.32 395  904 395  C 905.68 395  907 396.32  907 398  C 907 399.68  905.68 401  904 401  " fill-rule="nonzero" fill="#797979" stroke="none" />
</svg>