<?xml version="1.0" encoding="utf-8"?>
<svg version="1.1" xmlns:xlink="http://www.w3.org/1999/xlink" width="12px" height="12px" viewBox="157 608  12 12" xmlns="http://www.w3.org/2000/svg">
  <path d="M 163 608  C 166.36 608  169 610.64  169 614  C 169 617.36  166.36 620  163 620  C 159.64 620  157 617.36  157 614  C 157 610.64  159.64 608  163 608  Z " fill-rule="nonzero" fill="#f0f0f0" stroke="none" />
  <path d="M 163 608.5  C 166.08 608.5  168.5 610.92  168.5 614  C 168.5 617.08  166.08 619.5  163 619.5  C 159.92 619.5  157.5 617.08  157.5 614  C 157.5 610.92  159.92 608.5  163 608.5  Z " stroke-width="1" stroke="#797979" fill="none" />
  <path d="M 163 617  C 161.32 617  160 615.68  160 614  C 160 612.32  161.32 611  163 611  C 164.68 611  166 612.32  166 614  C 166 615.68  164.68 617  163 617  " fill-rule="nonzero" fill="#797979" stroke="none" />
</svg>