<?xml version="1.0" encoding="utf-8"?>
<svg version="1.1" xmlns:xlink="http://www.w3.org/1999/xlink" width="12px" height="12px" viewBox="975 797  12 12" xmlns="http://www.w3.org/2000/svg">
  <path d="M 981 797  C 984.36 797  987 799.64  987 803  C 987 806.36  984.36 809  981 809  C 977.64 809  975 806.36  975 803  C 975 799.64  977.64 797  981 797  Z " fill-rule="nonzero" fill="#f0f0f0" stroke="none" />
  <path d="M 981 797.5  C 984.08 797.5  986.5 799.92  986.5 803  C 986.5 806.08  984.08 808.5  981 808.5  C 977.92 808.5  975.5 806.08  975.5 803  C 975.5 799.92  977.92 797.5  981 797.5  Z " stroke-width="1" stroke="#797979" fill="none" />
  <path d="M 981 806  C 979.32 806  978 804.68  978 803  C 978 801.32  979.32 800  981 800  C 982.68 800  984 801.32  984 803  C 984 804.68  982.68 806  981 806  " fill-rule="nonzero" fill="#797979" stroke="none" />
</svg>