<?xml version="1.0" encoding="utf-8"?>
<svg version="1.1" xmlns:xlink="http://www.w3.org/1999/xlink" width="12px" height="12px" viewBox="994 608  12 12" xmlns="http://www.w3.org/2000/svg">
  <path d="M 1000 608  C 1003.36 608  1006 610.64  1006 614  C 1006 617.36  1003.36 620  1000 620  C 996.64 620  994 617.36  994 614  C 994 610.64  996.64 608  1000 608  Z " fill-rule="nonzero" fill="#ffffff" stroke="none" />
  <path d="M 1000 608.5  C 1003.08 608.5  1005.5 610.92  1005.5 614  C 1005.5 617.08  1003.08 619.5  1000 619.5  C 996.92 619.5  994.5 617.08  994.5 614  C 994.5 610.92  996.92 608.5  1000 608.5  Z " stroke-width="1" stroke="#797979" fill="none" />
  <path d="M 1000 617  C 998.32 617  997 615.68  997 614  C 997 612.32  998.32 611  1000 611  C 1001.68 611  1003 612.32  1003 614  C 1003 615.68  1001.68 617  1000 617  " fill-rule="nonzero" fill="#797979" stroke="none" />
</svg>