<?xml version="1.0" encoding="utf-8"?>
<svg version="1.1" xmlns:xlink="http://www.w3.org/1999/xlink" width="12px" height="12px" viewBox="157 388  12 12" xmlns="http://www.w3.org/2000/svg">
  <path d="M 163 388  C 166.36 388  169 390.64  169 394  C 169 397.36  166.36 400  163 400  C 159.64 400  157 397.36  157 394  C 157 390.64  159.64 388  163 388  Z " fill-rule="nonzero" fill="#f0f0f0" stroke="none" />
  <path d="M 163 388.5  C 166.08 388.5  168.5 390.92  168.5 394  C 168.5 397.08  166.08 399.5  163 399.5  C 159.92 399.5  157.5 397.08  157.5 394  C 157.5 390.92  159.92 388.5  163 388.5  Z " stroke-width="1" stroke="#797979" fill="none" />
  <path d="M 163 397  C 161.32 397  160 395.68  160 394  C 160 392.32  161.32 391  163 391  C 164.68 391  166 392.32  166 394  C 166 395.68  164.68 397  163 397  " fill-rule="nonzero" fill="#797979" stroke="none" />
</svg>