<svg t="1630495556965" class="icon" viewBox="0 0 1024 1024" version="1.1" xmlns="http://www.w3.org/2000/svg" p-id="3002" width="200" height="200"><path d="M512 200.3968c42.0864 0 82.8416 8.192 121.2416 24.4736 37.0688 15.6672 70.4512 38.1952 99.0208 66.7648 28.672 28.672 51.0976 61.952 66.7648 99.0208 16.2816 38.4 24.4736 79.1552 24.4736 121.2416s-8.192 82.8416-24.4736 121.2416C783.36 670.208 760.832 703.5904 732.2624 732.16c-28.672 28.672-61.952 51.0976-99.0208 66.7648-38.4 16.2816-79.1552 24.4736-121.2416 24.4736s-82.8416-8.192-121.2416-24.4736c-37.0688-15.6672-70.4512-38.1952-99.0208-66.7648-28.672-28.672-51.0976-61.952-66.7648-99.0208-16.2816-38.4-24.4736-79.1552-24.4736-121.2416s8.192-82.8416 24.4736-121.2416c15.6672-37.0688 38.1952-70.4512 66.7648-99.0208 28.672-28.672 61.952-51.0976 99.0208-66.7648 38.4-16.2816 79.1552-24.4736 121.2416-24.4736m0-40.96c-194.7648 0-352.5632 157.9008-352.5632 352.5632S317.2352 864.5632 512 864.5632 864.5632 706.7648 864.5632 512 706.7648 159.4368 512 159.4368z" p-id="3003"></path><path d="M516.1984 693.4528c-2.048 0-4.096-1.2288-5.8368-3.6864-1.8432-2.4576-2.7648-5.5296-2.7648-9.216 0-19.0464 13.824-74.9568 41.472-167.7312 16.896-56.7296 25.3952-88.8832 25.3952-96.4608 0-6.2464-2.2528-11.264-6.656-14.848-4.4032-3.6864-10.8544-5.5296-19.1488-5.5296-15.1552 0-33.4848 6.0416-54.9888 18.2272s-45.3632 32.5632-71.4752 61.3376l17.2032 13.312c23.04-22.4256 37.7856-35.84 44.4416-39.936 6.656-4.1984 12.5952-6.2464 17.8176-6.2464 4.7104 0 7.0656 2.6624 7.0656 7.8848 0 4.7104-0.9216 10.0352-2.7648 16.0768-39.2192 126.976-58.7776 206.848-58.7776 239.5136 0 10.24 2.6624 18.1248 7.9872 23.8592 5.3248 5.7344 12.5952 8.6016 21.7088 8.6016 10.4448 0 23.9616-4.7104 40.3456-14.1312 16.4864-9.4208 42.5984-30.9248 78.4384-64.7168l-15.2576-14.848c-34.4064 32.3584-55.9104 48.5376-64.2048 48.5376z" p-id="3004"></path><path d="M567.1936 320.2048m-34.7136 0a34.7136 34.7136 0 1 0 69.4272 0 34.7136 34.7136 0 1 0-69.4272 0Z" p-id="3005"></path></svg>