<?xml version="1.0" encoding="utf-8"?>
<svg version="1.1" xmlns:xlink="http://www.w3.org/1999/xlink" width="12px" height="12px" viewBox="998 392  12 12" xmlns="http://www.w3.org/2000/svg">
  <path d="M 1004 392  C 1007.36 392  1010 394.64  1010 398  C 1010 401.36  1007.36 404  1004 404  C 1000.64 404  998 401.36  998 398  C 998 394.64  1000.64 392  1004 392  Z " fill-rule="nonzero" fill="#ffffff" stroke="none" />
  <path d="M 1004 392.5  C 1007.08 392.5  1009.5 394.92  1009.5 398  C 1009.5 401.08  1007.08 403.5  1004 403.5  C 1000.92 403.5  998.5 401.08  998.5 398  C 998.5 394.92  1000.92 392.5  1004 392.5  Z " stroke-width="1" stroke="#797979" fill="none" />
  <path d="M 1004 401  C 1002.32 401  1001 399.68  1001 398  C 1001 396.32  1002.32 395  1004 395  C 1005.68 395  1007 396.32  1007 398  C 1007 399.68  1005.68 401  1004 401  " fill-rule="nonzero" fill="#797979" stroke="none" />
</svg>