<?xml version="1.0" encoding="utf-8"?>
<svg version="1.1" xmlns:xlink="http://www.w3.org/1999/xlink" width="12px" height="12px" viewBox="257 388  12 12" xmlns="http://www.w3.org/2000/svg">
  <path d="M 263 388  C 266.36 388  269 390.64  269 394  C 269 397.36  266.36 400  263 400  C 259.64 400  257 397.36  257 394  C 257 390.64  259.64 388  263 388  Z " fill-rule="nonzero" fill="#ffffff" stroke="none" />
  <path d="M 263 388.5  C 266.08 388.5  268.5 390.92  268.5 394  C 268.5 397.08  266.08 399.5  263 399.5  C 259.92 399.5  257.5 397.08  257.5 394  C 257.5 390.92  259.92 388.5  263 388.5  Z " stroke-width="1" stroke="#797979" fill="none" />
  <path d="M 263 397  C 261.32 397  260 395.68  260 394  C 260 392.32  261.32 391  263 391  C 264.68 391  266 392.32  266 394  C 266 395.68  264.68 397  263 397  " fill-rule="nonzero" fill="#797979" stroke="none" />
</svg>