<?xml version="1.0" encoding="utf-8"?>
<svg version="1.1" xmlns:xlink="http://www.w3.org/1999/xlink" width="12px" height="12px" viewBox="218 234  12 12" xmlns="http://www.w3.org/2000/svg">
  <path d="M 224 234  C 227.36 234  230 236.64  230 240  C 230 243.36  227.36 246  224 246  C 220.64 246  218 243.36  218 240  C 218 236.64  220.64 234  224 234  Z " fill-rule="nonzero" fill="#f0f0f0" stroke="none" />
  <path d="M 224 234.5  C 227.08 234.5  229.5 236.92  229.5 240  C 229.5 243.08  227.08 245.5  224 245.5  C 220.92 245.5  218.5 243.08  218.5 240  C 218.5 236.92  220.92 234.5  224 234.5  Z " stroke-width="1" stroke="#797979" fill="none" />
  <path d="M 224 243  C 222.32 243  221 241.68  221 240  C 221 238.32  222.32 237  224 237  C 225.68 237  227 238.32  227 240  C 227 241.68  225.68 243  224 243  " fill-rule="nonzero" fill="#797979" stroke="none" />
</svg>