<?xml version="1.0" encoding="utf-8"?>
<svg version="1.1" xmlns:xlink="http://www.w3.org/1999/xlink" width="12px" height="12px" viewBox="928 198  12 12" xmlns="http://www.w3.org/2000/svg">
  <path d="M 934 198  C 937.36 198  940 200.64  940 204  C 940 207.36  937.36 210  934 210  C 930.64 210  928 207.36  928 204  C 928 200.64  930.64 198  934 198  Z " fill-rule="nonzero" fill="#f0f0f0" stroke="none" />
  <path d="M 934 198.5  C 937.08 198.5  939.5 200.92  939.5 204  C 939.5 207.08  937.08 209.5  934 209.5  C 930.92 209.5  928.5 207.08  928.5 204  C 928.5 200.92  930.92 198.5  934 198.5  Z " stroke-width="1" stroke="#797979" fill="none" />
  <path d="M 934 207  C 932.32 207  931 205.68  931 204  C 931 202.32  932.32 201  934 201  C 935.68 201  937 202.32  937 204  C 937 205.68  935.68 207  934 207  " fill-rule="nonzero" fill="#797979" stroke="none" />
</svg>