<?xml version="1.0" encoding="utf-8"?>
<svg version="1.1" xmlns:xlink="http://www.w3.org/1999/xlink" width="12px" height="12px" viewBox="257 244  12 12" xmlns="http://www.w3.org/2000/svg">
  <path d="M 263 244  C 266.36 244  269 246.64  269 250  C 269 253.36  266.36 256  263 256  C 259.64 256  257 253.36  257 250  C 257 246.64  259.64 244  263 244  Z " fill-rule="nonzero" fill="#ffffff" stroke="none" />
  <path d="M 263 244.5  C 266.08 244.5  268.5 246.92  268.5 250  C 268.5 253.08  266.08 255.5  263 255.5  C 259.92 255.5  257.5 253.08  257.5 250  C 257.5 246.92  259.92 244.5  263 244.5  Z " stroke-width="1" stroke="#797979" fill="none" />
  <path d="M 263 253  C 261.32 253  260 251.68  260 250  C 260 248.32  261.32 247  263 247  C 264.68 247  266 248.32  266 250  C 266 251.68  264.68 253  263 253  " fill-rule="nonzero" fill="#797979" stroke="none" />
</svg>