<?xml version="1.0" encoding="utf-8"?>
<svg version="1.1" xmlns:xlink="http://www.w3.org/1999/xlink" width="12px" height="12px" viewBox="923 91  12 12" xmlns="http://www.w3.org/2000/svg">
  <path d="M 929 91  C 932.36 91  935 93.64  935 97  C 935 100.36  932.36 103  929 103  C 925.64 103  923 100.36  923 97  C 923 93.64  925.64 91  929 91  Z " fill-rule="nonzero" fill="#f0f0f0" stroke="none" />
  <path d="M 929 91.5  C 932.08 91.5  934.5 93.92  934.5 97  C 934.5 100.08  932.08 102.5  929 102.5  C 925.92 102.5  923.5 100.08  923.5 97  C 923.5 93.92  925.92 91.5  929 91.5  Z " stroke-width="1" stroke="#797979" fill="none" />
  <path d="M 929 100  C 927.32 100  926 98.68  926 97  C 926 95.32  927.32 94  929 94  C 930.68 94  932 95.32  932 97  C 932 98.68  930.68 100  929 100  " fill-rule="nonzero" fill="#797979" stroke="none" />
</svg>