<?xml version="1.0" encoding="utf-8"?>
<svg version="1.1" xmlns:xlink="http://www.w3.org/1999/xlink" width="12px" height="12px" viewBox="1017 198  12 12" xmlns="http://www.w3.org/2000/svg">
  <path d="M 1023 198  C 1026.36 198  1029 200.64  1029 204  C 1029 207.36  1026.36 210  1023 210  C 1019.64 210  1017 207.36  1017 204  C 1017 200.64  1019.64 198  1023 198  Z " fill-rule="nonzero" fill="#f0f0f0" stroke="none" />
  <path d="M 1023 198.5  C 1026.08 198.5  1028.5 200.92  1028.5 204  C 1028.5 207.08  1026.08 209.5  1023 209.5  C 1019.92 209.5  1017.5 207.08  1017.5 204  C 1017.5 200.92  1019.92 198.5  1023 198.5  Z " stroke-width="1" stroke="#797979" fill="none" />
  <path d="M 1023 207  C 1021.32 207  1020 205.68  1020 204  C 1020 202.32  1021.32 201  1023 201  C 1024.68 201  1026 202.32  1026 204  C 1026 205.68  1024.68 207  1023 207  " fill-rule="nonzero" fill="#797979" stroke="none" />
</svg>