<?xml version="1.0" encoding="utf-8"?>
<svg version="1.1" xmlns:xlink="http://www.w3.org/1999/xlink" width="12px" height="12px" viewBox="1017 411  12 12" xmlns="http://www.w3.org/2000/svg">
  <path d="M 1023 411  C 1026.36 411  1029 413.64  1029 417  C 1029 420.36  1026.36 423  1023 423  C 1019.64 423  1017 420.36  1017 417  C 1017 413.64  1019.64 411  1023 411  Z " fill-rule="nonzero" fill="#ffffff" stroke="none" />
  <path d="M 1023 411.5  C 1026.08 411.5  1028.5 413.92  1028.5 417  C 1028.5 420.08  1026.08 422.5  1023 422.5  C 1019.92 422.5  1017.5 420.08  1017.5 417  C 1017.5 413.92  1019.92 411.5  1023 411.5  Z " stroke-width="1" stroke="#797979" fill="none" />
  <path d="M 1023 420  C 1021.32 420  1020 418.68  1020 417  C 1020 415.32  1021.32 414  1023 414  C 1024.68 414  1026 415.32  1026 417  C 1026 418.68  1024.68 420  1023 420  " fill-rule="nonzero" fill="#797979" stroke="none" />
</svg>