<?xml version="1.0" encoding="utf-8"?>
<svg version="1.1" xmlns:xlink="http://www.w3.org/1999/xlink" width="12px" height="12px" viewBox="1012 91  12 12" xmlns="http://www.w3.org/2000/svg">
  <path d="M 1018 91  C 1021.36 91  1024 93.64  1024 97  C 1024 100.36  1021.36 103  1018 103  C 1014.64 103  1012 100.36  1012 97  C 1012 93.64  1014.64 91  1018 91  Z " fill-rule="nonzero" fill="#ffffff" stroke="none" />
  <path d="M 1018 91.5  C 1021.08 91.5  1023.5 93.92  1023.5 97  C 1023.5 100.08  1021.08 102.5  1018 102.5  C 1014.92 102.5  1012.5 100.08  1012.5 97  C 1012.5 93.92  1014.92 91.5  1018 91.5  Z " stroke-width="1" stroke="#797979" fill="none" />
  <path d="M 1018 100  C 1016.32 100  1015 98.68  1015 97  C 1015 95.32  1016.32 94  1018 94  C 1019.68 94  1021 95.32  1021 97  C 1021 98.68  1019.68 100  1018 100  " fill-rule="nonzero" fill="#797979" stroke="none" />
</svg>