<?xml version="1.0" encoding="utf-8"?>
<svg version="1.1" xmlns:xlink="http://www.w3.org/1999/xlink" width="12px" height="12px" viewBox="327 1218  12 12" xmlns="http://www.w3.org/2000/svg">
  <path d="M 333 1218  C 336.36 1218  339 1220.64  339 1224  C 339 1227.36  336.36 1230  333 1230  C 329.64 1230  327 1227.36  327 1224  C 327 1220.64  329.64 1218  333 1218  Z " fill-rule="nonzero" fill="#ffffff" stroke="none" />
  <path d="M 333 1218.5  C 336.08 1218.5  338.5 1220.92  338.5 1224  C 338.5 1227.08  336.08 1229.5  333 1229.5  C 329.92 1229.5  327.5 1227.08  327.5 1224  C 327.5 1220.92  329.92 1218.5  333 1218.5  Z " stroke-width="1" stroke="#797979" fill="none" />
  <path d="M 333 1227  C 331.32 1227  330 1225.68  330 1224  C 330 1222.32  331.32 1221  333 1221  C 334.68 1221  336 1222.32  336 1224  C 336 1225.68  334.68 1227  333 1227  " fill-rule="nonzero" fill="#797979" stroke="none" />
</svg>