<?xml version="1.0" encoding="utf-8"?>
<svg version="1.1" xmlns:xlink="http://www.w3.org/1999/xlink" width="12px" height="12px" viewBox="227 1218  12 12" xmlns="http://www.w3.org/2000/svg">
  <path d="M 233 1218  C 236.36 1218  239 1220.64  239 1224  C 239 1227.36  236.36 1230  233 1230  C 229.64 1230  227 1227.36  227 1224  C 227 1220.64  229.64 1218  233 1218  Z " fill-rule="nonzero" fill="#ffffff" stroke="none" />
  <path d="M 233 1218.5  C 236.08 1218.5  238.5 1220.92  238.5 1224  C 238.5 1227.08  236.08 1229.5  233 1229.5  C 229.92 1229.5  227.5 1227.08  227.5 1224  C 227.5 1220.92  229.92 1218.5  233 1218.5  Z " stroke-width="1" stroke="#797979" fill="none" />
  <path d="M 233 1227  C 231.32 1227  230 1225.68  230 1224  C 230 1222.32  231.32 1221  233 1221  C 234.68 1221  236 1222.32  236 1224  C 236 1225.68  234.68 1227  233 1227  " fill-rule="nonzero" fill="#797979" stroke="none" />
</svg>