<?xml version="1.0" encoding="utf-8"?>
<svg version="1.1" xmlns:xlink="http://www.w3.org/1999/xlink" width="12px" height="12px" viewBox="927 197  12 12" xmlns="http://www.w3.org/2000/svg">
  <path d="M 933 197  C 936.36 197  939 199.64  939 203  C 939 206.36  936.36 209  933 209  C 929.64 209  927 206.36  927 203  C 927 199.64  929.64 197  933 197  Z " fill-rule="nonzero" fill="#f0f0f0" stroke="none" />
  <path d="M 933 197.5  C 936.08 197.5  938.5 199.92  938.5 203  C 938.5 206.08  936.08 208.5  933 208.5  C 929.92 208.5  927.5 206.08  927.5 203  C 927.5 199.92  929.92 197.5  933 197.5  Z " stroke-width="1" stroke="#797979" fill="none" />
  <path d="M 933 206  C 931.32 206  930 204.68  930 203  C 930 201.32  931.32 200  933 200  C 934.68 200  936 201.32  936 203  C 936 204.68  934.68 206  933 206  " fill-rule="nonzero" fill="#797979" stroke="none" />
</svg>