<?xml version="1.0" encoding="utf-8"?>
<svg version="1.1" xmlns:xlink="http://www.w3.org/1999/xlink" width="12px" height="12px" viewBox="1016 197  12 12" xmlns="http://www.w3.org/2000/svg">
  <path d="M 1022 197  C 1025.36 197  1028 199.64  1028 203  C 1028 206.36  1025.36 209  1022 209  C 1018.64 209  1016 206.36  1016 203  C 1016 199.64  1018.64 197  1022 197  Z " fill-rule="nonzero" fill="#f0f0f0" stroke="none" />
  <path d="M 1022 197.5  C 1025.08 197.5  1027.5 199.92  1027.5 203  C 1027.5 206.08  1025.08 208.5  1022 208.5  C 1018.92 208.5  1016.5 206.08  1016.5 203  C 1016.5 199.92  1018.92 197.5  1022 197.5  Z " stroke-width="1" stroke="#797979" fill="none" />
  <path d="M 1022 206  C 1020.32 206  1019 204.68  1019 203  C 1019 201.32  1020.32 200  1022 200  C 1023.68 200  1025 201.32  1025 203  C 1025 204.68  1023.68 206  1022 206  " fill-rule="nonzero" fill="#797979" stroke="none" />
</svg>