<?xml version="1.0" encoding="utf-8"?>
<svg version="1.1" xmlns:xlink="http://www.w3.org/1999/xlink" width="12px" height="12px" viewBox="167 243  12 12" xmlns="http://www.w3.org/2000/svg">
  <path d="M 173 243  C 176.36 243  179 245.64  179 249  C 179 252.36  176.36 255  173 255  C 169.64 255  167 252.36  167 249  C 167 245.64  169.64 243  173 243  Z " fill-rule="nonzero" fill="#f0f0f0" stroke="none" />
  <path d="M 173 243.5  C 176.08 243.5  178.5 245.92  178.5 249  C 178.5 252.08  176.08 254.5  173 254.5  C 169.92 254.5  167.5 252.08  167.5 249  C 167.5 245.92  169.92 243.5  173 243.5  Z " stroke-width="1" stroke="#797979" fill="none" />
  <path d="M 173 252  C 171.32 252  170 250.68  170 249  C 170 247.32  171.32 246  173 246  C 174.68 246  176 247.32  176 249  C 176 250.68  174.68 252  173 252  " fill-rule="nonzero" fill="#797979" stroke="none" />
</svg>