<?xml version="1.0" encoding="utf-8"?>
<svg version="1.1" xmlns:xlink="http://www.w3.org/1999/xlink" width="12px" height="12px" viewBox="256 243  12 12" xmlns="http://www.w3.org/2000/svg">
  <path d="M 262 243  C 265.36 243  268 245.64  268 249  C 268 252.36  265.36 255  262 255  C 258.64 255  256 252.36  256 249  C 256 245.64  258.64 243  262 243  Z " fill-rule="nonzero" fill="#ffffff" stroke="none" />
  <path d="M 262 243.5  C 265.08 243.5  267.5 245.92  267.5 249  C 267.5 252.08  265.08 254.5  262 254.5  C 258.92 254.5  256.5 252.08  256.5 249  C 256.5 245.92  258.92 243.5  262 243.5  Z " stroke-width="1" stroke="#797979" fill="none" />
  <path d="M 262 252  C 260.32 252  259 250.68  259 249  C 259 247.32  260.32 246  262 246  C 263.68 246  265 247.32  265 249  C 265 250.68  263.68 252  262 252  " fill-rule="nonzero" fill="#797979" stroke="none" />
</svg>