<?xml version="1.0" encoding="utf-8"?>
<svg version="1.1" xmlns:xlink="http://www.w3.org/1999/xlink" width="12px" height="12px" viewBox="922 90  12 12" xmlns="http://www.w3.org/2000/svg">
  <path d="M 928 90  C 931.36 90  934 92.64  934 96  C 934 99.36  931.36 102  928 102  C 924.64 102  922 99.36  922 96  C 922 92.64  924.64 90  928 90  Z " fill-rule="nonzero" fill="#ffffff" stroke="none" />
  <path d="M 928 90.5  C 931.08 90.5  933.5 92.92  933.5 96  C 933.5 99.08  931.08 101.5  928 101.5  C 924.92 101.5  922.5 99.08  922.5 96  C 922.5 92.92  924.92 90.5  928 90.5  Z " stroke-width="1" stroke="#797979" fill="none" />
  <path d="M 928 99  C 926.32 99  925 97.68  925 96  C 925 94.32  926.32 93  928 93  C 929.68 93  931 94.32  931 96  C 931 97.68  929.68 99  928 99  " fill-rule="nonzero" fill="#797979" stroke="none" />
</svg>