<?xml version="1.0" encoding="utf-8"?>
<svg version="1.1" xmlns:xlink="http://www.w3.org/1999/xlink" width="38px" height="33px" xmlns="http://www.w3.org/2000/svg">
  <g transform="matrix(1 0 0 1 -806 -156 )">
    <path d="M 825 156  C 835.64 156  844 163.26  844 172.5  C 844 181.74  835.64 189  825 189  C 814.36 189  806 181.74  806 172.5  C 806 163.26  814.36 156  825 156  Z " fill-rule="nonzero" fill="#f2f2f2" stroke="none" />
    <path d="M 825 156.5  C 835.36 156.5  843.5 163.54  843.5 172.5  C 843.5 181.46  835.36 188.5  825 188.5  C 814.64 188.5  806.5 181.46  806.5 172.5  C 806.5 163.54  814.64 156.5  825 156.5  Z " stroke-width="1" stroke="#797979" fill="none" />
  </g>
</svg>