<?xml version="1.0" encoding="utf-8"?>
<svg version="1.1" xmlns:xlink="http://www.w3.org/1999/xlink" width="12px" height="12px" viewBox="1011 90  12 12" xmlns="http://www.w3.org/2000/svg">
  <path d="M 1017 90  C 1020.36 90  1023 92.64  1023 96  C 1023 99.36  1020.36 102  1017 102  C 1013.64 102  1011 99.36  1011 96  C 1011 92.64  1013.64 90  1017 90  Z " fill-rule="nonzero" fill="#ffffff" stroke="none" />
  <path d="M 1017 90.5  C 1020.08 90.5  1022.5 92.92  1022.5 96  C 1022.5 99.08  1020.08 101.5  1017 101.5  C 1013.92 101.5  1011.5 99.08  1011.5 96  C 1011.5 92.92  1013.92 90.5  1017 90.5  Z " stroke-width="1" stroke="#797979" fill="none" />
  <path d="M 1017 99  C 1015.32 99  1014 97.68  1014 96  C 1014 94.32  1015.32 93  1017 93  C 1018.68 93  1020 94.32  1020 96  C 1020 97.68  1018.68 99  1017 99  " fill-rule="nonzero" fill="#797979" stroke="none" />
</svg>