<?xml version="1.0" encoding="utf-8"?>
<svg version="1.1" xmlns:xlink="http://www.w3.org/1999/xlink" width="12px" height="12px" viewBox="157 1154  12 12" xmlns="http://www.w3.org/2000/svg">
  <path d="M 163 1154  C 166.36 1154  169 1156.64  169 1160  C 169 1163.36  166.36 1166  163 1166  C 159.64 1166  157 1163.36  157 1160  C 157 1156.64  159.64 1154  163 1154  Z " fill-rule="nonzero" fill="#ffffff" stroke="none" />
  <path d="M 163 1154.5  C 166.08 1154.5  168.5 1156.92  168.5 1160  C 168.5 1163.08  166.08 1165.5  163 1165.5  C 159.92 1165.5  157.5 1163.08  157.5 1160  C 157.5 1156.92  159.92 1154.5  163 1154.5  Z " stroke-width="1" stroke="#797979" fill="none" />
  <path d="M 163 1163  C 161.32 1163  160 1161.68  160 1160  C 160 1158.32  161.32 1157  163 1157  C 164.68 1157  166 1158.32  166 1160  C 166 1161.68  164.68 1163  163 1163  " fill-rule="nonzero" fill="#797979" stroke="none" />
</svg>