<?xml version="1.0" encoding="utf-8"?>
<svg version="1.1" xmlns:xlink="http://www.w3.org/1999/xlink" width="661px" height="173px" xmlns="http://www.w3.org/2000/svg">
  <defs>
    <mask fill="white" id="clip181">
      <path d="M 242 75  L 242 0  L 661 0  L 661 74.5493421052632  L 384.692307692308 75.4248481781377  L 0.0769230769230944 172.606022267206  L 348.384615451344 75  L 242 75  Z " fill-rule="evenodd" />
    </mask>
  </defs>
  <g transform="matrix(1 0 0 1 -1177 -490 )">
    <path d="M 242 75  L 242 0  L 661 0  L 661 74.5493421052632  L 384.692307692308 75.4248481781377  L 0.0769230769230944 172.606022267206  L 348.384615451344 75  L 242 75  Z " fill-rule="nonzero" fill="#f2f2f2" stroke="none" fill-opacity="0.498039215686275" transform="matrix(1 0 0 1 1177 490 )" />
    <path d="M 242 75  L 242 0  L 661 0  L 661 74.5493421052632  L 384.692307692308 75.4248481781377  L 0.0769230769230944 172.606022267206  L 348.384615451344 75  L 242 75  Z " stroke-width="2" stroke="#ffd100" fill="none" transform="matrix(1 0 0 1 1177 490 )" mask="url(#clip181)" />
  </g>
</svg>