<svg t="1610360270413" class="icon" viewBox="0 0 1024 1024" version="1.1" xmlns="http://www.w3.org/2000/svg" p-id="7203" width="200" height="200"><path d="M554.46733152 519.02696852L778.41376318 295.08053686c11.30425371-11.30425371 11.30425371-29.94099632-1e-8-41.24525001l-1.22208149-1.22208149c-11.30425371-11.30425371-29.94099632-11.30425371-41.24525003 0L512 476.86515738 288.05356835 252.61320536c-11.30425371-11.30425371-29.94099632-11.30425371-41.24525003 0l-1.22208149 1.22208149c-11.60977409 11.30425371-11.60977409 29.94099632 0 41.24525002l223.94643165 223.94643165L245.58623682 742.97340018c-11.30425371 11.30425371-11.30425371 29.94099632 1e-8 41.24525003l1.22208149 1.22208149c11.30425371 11.30425371 29.94099632 11.30425371 41.24525003 0L512 561.49430005 735.94643165 785.4407317c11.30425371 11.30425371 29.94099632 11.30425371 41.24525003 0l1.22208149-1.22208149c11.30425371-11.30425371 11.30425371-29.94099632 0-41.24525003L554.46733152 519.02696852z" fill="#515151" p-id="7204"></path></svg>