<?xml version="1.0" encoding="utf-8"?>
<svg version="1.1" xmlns:xlink="http://www.w3.org/1999/xlink" width="12px" height="12px" viewBox="121 423  12 12" xmlns="http://www.w3.org/2000/svg">
  <path d="M 127 423  C 130.36 423  133 425.64  133 429  C 133 432.36  130.36 435  127 435  C 123.64 435  121 432.36  121 429  C 121 425.64  123.64 423  127 423  Z " fill-rule="nonzero" fill="#f0f0f0" stroke="none" />
  <path d="M 127 423.5  C 130.08 423.5  132.5 425.92  132.5 429  C 132.5 432.08  130.08 434.5  127 434.5  C 123.92 434.5  121.5 432.08  121.5 429  C 121.5 425.92  123.92 423.5  127 423.5  Z " stroke-width="1" stroke="#797979" fill="none" />
  <path d="M 127 432  C 125.32 432  124 430.68  124 429  C 124 427.32  125.32 426  127 426  C 128.68 426  130 427.32  130 429  C 130 430.68  128.68 432  127 432  " fill-rule="nonzero" fill="#797979" stroke="none" />
</svg>