<?xml version="1.0" encoding="utf-8"?>
<svg version="1.1" xmlns:xlink="http://www.w3.org/1999/xlink" width="12px" height="12px" viewBox="802 147  12 12" xmlns="http://www.w3.org/2000/svg">
  <path d="M 808 147  C 811.36 147  814 149.64  814 153  C 814 156.36  811.36 159  808 159  C 804.64 159  802 156.36  802 153  C 802 149.64  804.64 147  808 147  Z " fill-rule="nonzero" fill="#f0f0f0" stroke="none" />
  <path d="M 808 147.5  C 811.08 147.5  813.5 149.92  813.5 153  C 813.5 156.08  811.08 158.5  808 158.5  C 804.92 158.5  802.5 156.08  802.5 153  C 802.5 149.92  804.92 147.5  808 147.5  Z " stroke-width="1" stroke="#797979" fill="none" />
  <path d="M 808 156  C 806.32 156  805 154.68  805 153  C 805 151.32  806.32 150  808 150  C 809.68 150  811 151.32  811 153  C 811 154.68  809.68 156  808 156  " fill-rule="nonzero" fill="#797979" stroke="none" />
</svg>