<?xml version="1.0" encoding="utf-8"?>
<svg version="1.1" xmlns:xlink="http://www.w3.org/1999/xlink" width="12px" height="12px" viewBox="954 147  12 12" xmlns="http://www.w3.org/2000/svg">
  <path d="M 960 147  C 963.36 147  966 149.64  966 153  C 966 156.36  963.36 159  960 159  C 956.64 159  954 156.36  954 153  C 954 149.64  956.64 147  960 147  Z " fill-rule="nonzero" fill="#ffffff" stroke="none" />
  <path d="M 960 147.5  C 963.08 147.5  965.5 149.92  965.5 153  C 965.5 156.08  963.08 158.5  960 158.5  C 956.92 158.5  954.5 156.08  954.5 153  C 954.5 149.92  956.92 147.5  960 147.5  Z " stroke-width="1" stroke="#797979" fill="none" />
  <path d="M 960 156  C 958.32 156  957 154.68  957 153  C 957 151.32  958.32 150  960 150  C 961.68 150  963 151.32  963 153  C 963 154.68  961.68 156  960 156  " fill-rule="nonzero" fill="#797979" stroke="none" />
</svg>