<?xml version="1.0" encoding="utf-8"?>
<svg version="1.1" xmlns:xlink="http://www.w3.org/1999/xlink" width="10px" height="10px" xmlns="http://www.w3.org/2000/svg">
  <g transform="matrix(1 0 0 1 -87 -83 )">
    <path d="M 92 84  C 94.24 84  96 85.76  96 88  C 96 90.24  94.24 92  92 92  C 89.76 92  88 90.24  88 88  C 88 85.76  89.76 84  92 84  Z " fill-rule="nonzero" fill="#1890ff" stroke="none" />
    <path d="M 92 84  C 94.24 84  96 85.76  96 88  C 96 90.24  94.24 92  92 92  C 89.76 92  88 90.24  88 88  C 88 85.76  89.76 84  92 84  Z " stroke-width="2" stroke="#ffffff" fill="none" />
  </g>
</svg>