<?xml version="1.0" encoding="utf-8"?>
<svg version="1.1" xmlns:xlink="http://www.w3.org/1999/xlink" width="12px" height="12px" viewBox="875 147  12 12" xmlns="http://www.w3.org/2000/svg">
  <path d="M 881 147  C 884.36 147  887 149.64  887 153  C 887 156.36  884.36 159  881 159  C 877.64 159  875 156.36  875 153  C 875 149.64  877.64 147  881 147  Z " fill-rule="nonzero" fill="#f0f0f0" stroke="none" />
  <path d="M 881 147.5  C 884.08 147.5  886.5 149.92  886.5 153  C 886.5 156.08  884.08 158.5  881 158.5  C 877.92 158.5  875.5 156.08  875.5 153  C 875.5 149.92  877.92 147.5  881 147.5  Z " stroke-width="1" stroke="#797979" fill="none" />
  <path d="M 881 156  C 879.32 156  878 154.68  878 153  C 878 151.32  879.32 150  881 150  C 882.68 150  884 151.32  884 153  C 884 154.68  882.68 156  881 156  " fill-rule="nonzero" fill="#797979" stroke="none" />
</svg>