<?xml version="1.0" encoding="utf-8"?>
<svg version="1.1" xmlns:xlink="http://www.w3.org/1999/xlink" width="12px" height="12px" viewBox="1027 187  12 12" xmlns="http://www.w3.org/2000/svg">
  <path d="M 1033 187  C 1036.36 187  1039 189.64  1039 193  C 1039 196.36  1036.36 199  1033 199  C 1029.64 199  1027 196.36  1027 193  C 1027 189.64  1029.64 187  1033 187  Z " fill-rule="nonzero" fill="#f0f0f0" stroke="none" />
  <path d="M 1033 187.5  C 1036.08 187.5  1038.5 189.92  1038.5 193  C 1038.5 196.08  1036.08 198.5  1033 198.5  C 1029.92 198.5  1027.5 196.08  1027.5 193  C 1027.5 189.92  1029.92 187.5  1033 187.5  Z " stroke-width="1" stroke="#797979" fill="none" />
  <path d="M 1033 196  C 1031.32 196  1030 194.68  1030 193  C 1030 191.32  1031.32 190  1033 190  C 1034.68 190  1036 191.32  1036 193  C 1036 194.68  1034.68 196  1033 196  " fill-rule="nonzero" fill="#797979" stroke="none" />
</svg>