<?xml version="1.0" encoding="utf-8"?>
<svg version="1.1" xmlns:xlink="http://www.w3.org/1999/xlink" width="12px" height="12px" viewBox="327 67  12 12" xmlns="http://www.w3.org/2000/svg">
  <path d="M 333 67  C 336.36 67  339 69.64  339 73  C 339 76.36  336.36 79  333 79  C 329.64 79  327 76.36  327 73  C 327 69.64  329.64 67  333 67  Z " fill-rule="nonzero" fill="#ffffff" stroke="none" />
  <path d="M 333 67.5  C 336.08 67.5  338.5 69.92  338.5 73  C 338.5 76.08  336.08 78.5  333 78.5  C 329.92 78.5  327.5 76.08  327.5 73  C 327.5 69.92  329.92 67.5  333 67.5  Z " stroke-width="1" stroke="#797979" fill="none" />
  <path d="M 333 76  C 331.32 76  330 74.68  330 73  C 330 71.32  331.32 70  333 70  C 334.68 70  336 71.32  336 73  C 336 74.68  334.68 76  333 76  " fill-rule="nonzero" fill="#797979" stroke="none" />
</svg>