<?xml version="1.0" encoding="utf-8"?>
<svg version="1.1" xmlns:xlink="http://www.w3.org/1999/xlink" width="14px" height="14px" xmlns="http://www.w3.org/2000/svg">
  <g transform="matrix(1 0 0 1 -83 -232 )">
    <path d="M 90 233  C 93.36 233  96 235.64  96 239  C 96 242.36  93.36 245  90 245  C 86.64 245  84 242.36  84 239  C 84 235.64  86.64 233  90 233  Z " fill-rule="nonzero" fill="#1890ff" stroke="none" />
    <path d="M 90 233  C 93.36 233  96 235.64  96 239  C 96 242.36  93.36 245  90 245  C 86.64 245  84 242.36  84 239  C 84 235.64  86.64 233  90 233  Z " stroke-width="2" stroke="#ffffff" fill="none" />
  </g>
</svg>