<?xml version="1.0" encoding="utf-8"?>
<svg version="1.1" xmlns:xlink="http://www.w3.org/1999/xlink" width="12px" height="12px" viewBox="318 237  12 12" xmlns="http://www.w3.org/2000/svg">
  <path d="M 324 237  C 327.36 237  330 239.64  330 243  C 330 246.36  327.36 249  324 249  C 320.64 249  318 246.36  318 243  C 318 239.64  320.64 237  324 237  Z " fill-rule="nonzero" fill="#f0f0f0" stroke="none" />
  <path d="M 324 237.5  C 327.08 237.5  329.5 239.92  329.5 243  C 329.5 246.08  327.08 248.5  324 248.5  C 320.92 248.5  318.5 246.08  318.5 243  C 318.5 239.92  320.92 237.5  324 237.5  Z " stroke-width="1" stroke="#797979" fill="none" />
  <path d="M 324 246  C 322.32 246  321 244.68  321 243  C 321 241.32  322.32 240  324 240  C 325.68 240  327 241.32  327 243  C 327 244.68  325.68 246  324 246  " fill-rule="nonzero" fill="#797979" stroke="none" />
</svg>