<?xml version="1.0" encoding="utf-8"?>
<svg version="1.1" xmlns:xlink="http://www.w3.org/1999/xlink" width="12px" height="12px" viewBox="218 237  12 12" xmlns="http://www.w3.org/2000/svg">
  <path d="M 224 237  C 227.36 237  230 239.64  230 243  C 230 246.36  227.36 249  224 249  C 220.64 249  218 246.36  218 243  C 218 239.64  220.64 237  224 237  Z " fill-rule="nonzero" fill="#ffffff" stroke="none" />
  <path d="M 224 237.5  C 227.08 237.5  229.5 239.92  229.5 243  C 229.5 246.08  227.08 248.5  224 248.5  C 220.92 248.5  218.5 246.08  218.5 243  C 218.5 239.92  220.92 237.5  224 237.5  Z " stroke-width="1" stroke="#797979" fill="none" />
  <path d="M 224 246  C 222.32 246  221 244.68  221 243  C 221 241.32  222.32 240  224 240  C 225.68 240  227 241.32  227 243  C 227 244.68  225.68 246  224 246  " fill-rule="nonzero" fill="#797979" stroke="none" />
</svg>