<?xml version="1.0" encoding="utf-8"?>
<svg version="1.1" xmlns:xlink="http://www.w3.org/1999/xlink" width="12px" height="12px" viewBox="172 529  12 12" xmlns="http://www.w3.org/2000/svg">
  <path d="M 178 529  C 181.36 529  184 531.64  184 535  C 184 538.36  181.36 541  178 541  C 174.64 541  172 538.36  172 535  C 172 531.64  174.64 529  178 529  Z " fill-rule="nonzero" fill="#ffffff" stroke="none" />
  <path d="M 178 529.5  C 181.08 529.5  183.5 531.92  183.5 535  C 183.5 538.08  181.08 540.5  178 540.5  C 174.92 540.5  172.5 538.08  172.5 535  C 172.5 531.92  174.92 529.5  178 529.5  Z " stroke-width="1" stroke="#797979" fill="none" />
  <path d="M 178 538  C 176.32 538  175 536.68  175 535  C 175 533.32  176.32 532  178 532  C 179.68 532  181 533.32  181 535  C 181 536.68  179.68 538  178 538  " fill-rule="nonzero" fill="#797979" stroke="none" />
</svg>