<?xml version="1.0" encoding="utf-8"?>
<svg version="1.1" xmlns:xlink="http://www.w3.org/1999/xlink" width="12px" height="12px" viewBox="273 529  12 12" xmlns="http://www.w3.org/2000/svg">
  <path d="M 279 529  C 282.36 529  285 531.64  285 535  C 285 538.36  282.36 541  279 541  C 275.64 541  273 538.36  273 535  C 273 531.64  275.64 529  279 529  Z " fill-rule="nonzero" fill="#f0f0f0" stroke="none" />
  <path d="M 279 529.5  C 282.08 529.5  284.5 531.92  284.5 535  C 284.5 538.08  282.08 540.5  279 540.5  C 275.92 540.5  273.5 538.08  273.5 535  C 273.5 531.92  275.92 529.5  279 529.5  Z " stroke-width="1" stroke="#797979" fill="none" />
  <path d="M 279 538  C 277.32 538  276 536.68  276 535  C 276 533.32  277.32 532  279 532  C 280.68 532  282 533.32  282 535  C 282 536.68  280.68 538  279 538  " fill-rule="nonzero" fill="#797979" stroke="none" />
</svg>