<?xml version="1.0" encoding="utf-8"?>
<svg version="1.1" xmlns:xlink="http://www.w3.org/1999/xlink" width="12px" height="12px" viewBox="748 195  12 12" xmlns="http://www.w3.org/2000/svg">
  <path d="M 754 195  C 757.36 195  760 197.64  760 201  C 760 204.36  757.36 207  754 207  C 750.64 207  748 204.36  748 201  C 748 197.64  750.64 195  754 195  Z " fill-rule="nonzero" fill="#f0f0f0" stroke="none" />
  <path d="M 754 195.5  C 757.08 195.5  759.5 197.92  759.5 201  C 759.5 204.08  757.08 206.5  754 206.5  C 750.92 206.5  748.5 204.08  748.5 201  C 748.5 197.92  750.92 195.5  754 195.5  Z " stroke-width="1" stroke="#797979" fill="none" />
  <path d="M 754 204  C 752.32 204  751 202.68  751 201  C 751 199.32  752.32 198  754 198  C 755.68 198  757 199.32  757 201  C 757 202.68  755.68 204  754 204  " fill-rule="nonzero" fill="#797979" stroke="none" />
</svg>