<?xml version="1.0" encoding="utf-8"?>
<svg version="1.1" xmlns:xlink="http://www.w3.org/1999/xlink" width="12px" height="12px" viewBox="538 195  12 12" xmlns="http://www.w3.org/2000/svg">
  <path d="M 544 195  C 547.36 195  550 197.64  550 201  C 550 204.36  547.36 207  544 207  C 540.64 207  538 204.36  538 201  C 538 197.64  540.64 195  544 195  Z " fill-rule="nonzero" fill="#f0f0f0" stroke="none" />
  <path d="M 544 195.5  C 547.08 195.5  549.5 197.92  549.5 201  C 549.5 204.08  547.08 206.5  544 206.5  C 540.92 206.5  538.5 204.08  538.5 201  C 538.5 197.92  540.92 195.5  544 195.5  Z " stroke-width="1" stroke="#797979" fill="none" />
  <path d="M 544 204  C 542.32 204  541 202.68  541 201  C 541 199.32  542.32 198  544 198  C 545.68 198  547 199.32  547 201  C 547 202.68  545.68 204  544 204  " fill-rule="nonzero" fill="#797979" stroke="none" />
</svg>