<?xml version="1.0" encoding="utf-8"?>
<svg version="1.1" xmlns:xlink="http://www.w3.org/1999/xlink" width="12px" height="12px" viewBox="150 239  12 12" xmlns="http://www.w3.org/2000/svg">
  <path d="M 156 239  C 159.36 239  162 241.64  162 245  C 162 248.36  159.36 251  156 251  C 152.64 251  150 248.36  150 245  C 150 241.64  152.64 239  156 239  Z " fill-rule="nonzero" fill="#f0f0f0" stroke="none" />
  <path d="M 156 239.5  C 159.08 239.5  161.5 241.92  161.5 245  C 161.5 248.08  159.08 250.5  156 250.5  C 152.92 250.5  150.5 248.08  150.5 245  C 150.5 241.92  152.92 239.5  156 239.5  Z " stroke-width="1" stroke="#797979" fill="none" />
  <path d="M 156 248  C 154.32 248  153 246.68  153 245  C 153 243.32  154.32 242  156 242  C 157.68 242  159 243.32  159 245  C 159 246.68  157.68 248  156 248  " fill-rule="nonzero" fill="#797979" stroke="none" />
</svg>