<svg t="1608858132639" class="icon" viewBox="0 0 1024 1024" version="1.1" xmlns="http://www.w3.org/2000/svg" p-id="2674" width="200" height="200"><path d="M512.5 169.7c189.1 0 342.9 153.8 342.9 342.9S701.6 855.4 512.5 855.4 169.7 701.6 169.7 512.6s153.8-342.9 342.8-342.9m0-57.1c-220.9 0-400 179.1-400 400s179.1 400 400 400 400-179.1 400-400-179.1-400-400-400z" fill="#999999" p-id="2675"></path><path d="M435.2 377.3l214.7 135.3L435.2 648V377.3" fill="#999999" p-id="2676"></path><path d="M423.3 311.2c-8 0-15.9 1.8-23.1 5.5-13.9 7.1-22.1 19.6-22.1 33.5v324.9c0 13.9 8.3 26.5 22.2 33.6 7 3.5 14.8 5.4 22.7 5.4 7.8 0 15.8-1.8 23.4-5.4l257-162.1c14.4-7 23-19.6 23-33.8 0-14.5-8.9-27.3-22.4-33.5L445 316c-6.8-3.2-14.3-4.8-21.7-4.8z" fill="#999999" p-id="2677"></path></svg>