<svg t="1608858387613" class="icon" viewBox="0 0 1119 1024" version="1.1" xmlns="http://www.w3.org/2000/svg" p-id="9663" width="200" height="200"><path d="M796.695531 0.00037H79.851681A79.595564 79.595564 0 0 0 0.014229 79.837822v863.214884a79.595564 79.595564 0 0 0 79.837452 79.780537h481.386684a4.353994 4.353994 0 0 0 2.845748-0.583378 129.60958 129.60958 0 0 1-19.820633-68.184115v-41.96055a128.841228 128.841228 0 0 1 128.9266-128.798542h12.236715l49.530239-60.031048a176.066411 176.066411 0 0 1-41.96055-68.184115c-30.890591-92.657546 19.237255-193.510845 111.894801-224.372979a169.122787 169.122787 0 0 1 56.530778-9.334053 131.288571 131.288571 0 0 1 15.153607 0.583379V79.852051c0.583378-43.710685-35.571846-79.837452-79.851681-79.837452zM194.649144 208.067214h203.926281a40.231758 40.231758 0 0 1 0 80.463517H194.649144a40.21753 40.21753 0 0 1 0-80.435059z m328.128941 552.50192H194.649144a40.210415 40.210415 0 1 1 0-80.420831h328.128941a40.295788 40.295788 0 0 1 40.210415 40.210416c-0.583378 22.154146-18.070498 40.210415-40.210415 40.210415z m60.031048-236.040545H194.649144a40.21753 40.21753 0 0 1 0-80.435059h388.159989a40.295788 40.295788 0 0 1 40.210415 40.224644c-0.583378 22.139917-18.070498 40.210415-40.210415 40.210415z m0 0" p-id="9664" fill="#dbdbdb"></path><path d="M1050.251653 844.504463h-40.822251l-110.144666-133.465568c61.183576-20.404011 94.407681-87.42137 73.989441-148.619175-16.320363-48.961089-62.364561-79.851681-111.311422-79.851681a104.709287 104.709287 0 0 0-37.293524 6.417161c-61.183576 20.404011-94.421909 87.42137-73.989441 148.604946a116.946002 116.946002 0 0 0 73.989441 73.989441l-109.561287 133.465568h-40.793794a68.895552 68.895552 0 0 0-68.767493 68.767493v41.377172a68.895552 68.895552 0 0 0 68.767493 68.767494h375.937503a68.909781 68.909781 0 0 0 68.781722-68.767494v-41.917864c-0.583378-37.876902-30.890591-68.767494-68.781722-68.767493z m0 0" p-id="9665" fill="#dbdbdb"></path></svg>