<svg t="1608858211193" class="icon" viewBox="0 0 1024 1024" version="1.1" xmlns="http://www.w3.org/2000/svg" p-id="4558" width="200" height="200"><path d="M512 512m-512 0a512 512 0 1 0 1024 0 512 512 0 1 0-1024 0Z" fill="#FF5723" p-id="4559"></path><path d="M682.666667 405.333333V298.666667H298.666667v426.666666h68.266666c8.533333 0 17.066667 8.533333 17.066667 21.333334s-8.533333 21.333333-21.333333 21.333333H298.666667c-25.6 0-42.666667-17.066667-42.666667-42.666667V298.666667c0-25.6 17.066667-42.666667 42.666667-42.666667h384c25.6 0 42.666667 17.066667 42.666666 42.666667v106.666666c0 12.8-8.533333 21.333333-21.333333 21.333334s-21.333333-8.533333-21.333333-21.333334z" fill="#FFFFFF" p-id="4560"></path><path d="M362.666667 341.333333h213.333333c12.8 0 21.333333 8.533333 21.333333 21.333334s-8.533333 21.333333-21.333333 21.333333h-213.333333c-12.8 0-21.333333-8.533333-21.333334-21.333333s8.533333-21.333333 21.333334-21.333334zM362.666667 426.666667h85.333333c12.8 0 21.333333 8.533333 21.333333 21.333333s-8.533333 21.333333-21.333333 21.333333h-85.333333c-12.8 0-21.333333-8.533333-21.333334-21.333333s8.533333-21.333333 21.333334-21.333333zM618.666667 853.333333C512 853.333333 426.666667 768 426.666667 661.333333s85.333333-192 192-192 192 85.333333 192 192-85.333333 192-192 192z m0-42.666666c81.066667 0 149.333333-68.266667 149.333333-149.333334S699.733333 512 618.666667 512 469.333333 580.266667 469.333333 661.333333s68.266667 149.333333 149.333334 149.333334z" fill="#FFFFFF" p-id="4561"></path><path d="M618.666667 631.466667l46.933333-46.933334c8.533333-8.533333 21.333333-8.533333 29.866667 0 8.533333 8.533333 8.533333 21.333333 0 29.866667l-46.933334 46.933333 46.933334 46.933334c8.533333 8.533333 8.533333 21.333333 0 29.866666-8.533333 8.533333-21.333333 8.533333-29.866667 0l-46.933333-46.933333-46.933334 46.933333c-8.533333 8.533333-21.333333 8.533333-29.866666 0-8.533333-8.533333-8.533333-21.333333 0-29.866666l46.933333-46.933334-46.933333-46.933333c-8.533333-8.533333-8.533333-21.333333 0-29.866667s21.333333-8.533333 29.866666 0l46.933334 46.933334z" fill="#FFFFFF" p-id="4562"></path></svg>