<svg t="1579917324068" class="icon" viewBox="0 0 1024 1024" version="1.1" xmlns="http://www.w3.org/2000/svg" p-id="5611" width="200" height="200"><path d="M924.6 336.9c-22.6-53.3-54.8-101.2-96-142.3-41.1-41.1-89-73.4-142.3-96C631.1 75.2 572.5 63.4 512 63.4S392.9 75.2 337.7 98.6c-53.3 22.6-101.2 54.8-142.3 96-41.1 41.1-73.4 89-96 142.3C76 392.1 64.2 450.8 64.2 511.2S76 630.3 99.4 685.5c22.6 53.3 54.8 101.2 96 142.3 41.1 41.1 89 73.4 142.3 96C392.9 947.2 451.6 959 512 959c60.4 0 119.1-11.8 174.3-35.2 53.3-22.6 101.2-54.8 142.3-96 41.1-41.1 73.4-89 96-142.3 23.4-55.2 35.2-113.9 35.2-174.3 0-60.4-11.8-119.1-35.2-174.3zM788.2 752.4C750.6 729.6 713 727 713 727l-123.7-52.4v-65c24.1-12.2 34-81.7 34-81.7C651 529 647 476 647.4 454c0.4-22-11.5-17.7-11.5-17.7 6.3-42 3.6-74.2 3.6-74.2-16.6-103.7-126.9-104.9-126.9-104.9l-0.1 11.8-0.1-11.8s-110.3 1.2-126.9 104.9c0 0-2.8 32.2 3.6 74.2 0 0-11.9-4.3-11.5 17.7s-3.6 75 24.1 73.8c0 0 9.9 69.5 34 81.7v65L312 727s-38 2.7-75.8 25.9c-56.6-64.6-91-149.2-91-241.6 0-202.3 164.6-366.9 366.9-366.9S879 309 879 511.3c-0.1 92.2-34.3 176.6-90.8 241.1z" p-id="5612"></path></svg>