<?xml version="1.0" encoding="utf-8"?>
<svg version="1.1" xmlns:xlink="http://www.w3.org/1999/xlink" width="14px" height="14px" xmlns="http://www.w3.org/2000/svg">
  <g transform="matrix(1 0 0 1 -55 -207 )">
    <path d="M 11.3650568181818 6.453125  C 11.4247159090909 6.51278409090907  11.4545454545455 6.58901515151513  11.4545454545455 6.68181818181819  L 11.4545454545455 7.31818181818181  C 11.4545454545455 7.41098484848487  11.4247159090909 7.48721590909093  11.3650568181818 7.546875  C 11.3053977272727 7.60653409090907  11.2291666666667 7.63636363636363  11.1363636363636 7.63636363636363  L 7.63636363636364 7.63636363636363  L 7.63636363636364 11.1363636363636  C 7.63636363636364 11.2291666666667  7.60653409090909 11.3053977272727  7.546875 11.3650568181818  C 7.48721590909091 11.4247159090909  7.41098484848484 11.4545454545454  7.31818181818181 11.4545454545454  L 6.68181818181819 11.4545454545454  C 6.58901515151516 11.4545454545454  6.51278409090909 11.4247159090909  6.453125 11.3650568181818  C 6.39346590909091 11.3053977272727  6.36363636363636 11.2291666666667  6.36363636363636 11.1363636363636  L 6.36363636363636 7.63636363636363  L 2.86363636363636 7.63636363636363  C 2.77083333333333 7.63636363636363  2.69460227272727 7.60653409090907  2.63494318181819 7.546875  C 2.57528409090909 7.48721590909093  2.54545454545455 7.41098484848487  2.54545454545455 7.31818181818181  L 2.54545454545455 6.68181818181819  C 2.54545454545455 6.58901515151513  2.57528409090909 6.51278409090907  2.63494318181819 6.453125  C 2.69460227272727 6.39346590909093  2.77083333333333 6.36363636363637  2.86363636363636 6.36363636363637  L 6.36363636363636 6.36363636363637  L 6.36363636363636 2.86363636363637  C 6.36363636363636 2.77083333333331  6.39346590909091 2.69460227272725  6.453125 2.63494318181819  C 6.51278409090909 2.57528409090907  6.58901515151516 2.54545454545456  6.68181818181819 2.54545454545456  L 7.31818181818181 2.54545454545456  C 7.41098484848484 2.54545454545456  7.48721590909091 2.57528409090907  7.546875 2.63494318181819  C 7.60653409090909 2.69460227272725  7.63636363636364 2.77083333333331  7.63636363636364 2.86363636363637  L 7.63636363636364 6.36363636363637  L 11.1363636363636 6.36363636363637  C 11.2291666666667 6.36363636363637  11.3053977272727 6.39346590909093  11.3650568181818 6.453125  Z M 12.2599431818182 12.2599431818182  C 12.5714962121212 11.9483901515151  12.7272727272727 11.5738636363636  12.7272727272727 11.1363636363636  L 12.7272727272727 2.86363636363637  C 12.7272727272727 2.42613636363637  12.5714962121212 2.05160984848487  12.2599431818182 1.74005681818181  C 11.9483901515152 1.42850378787881  11.5738636363636 1.27272727272725  11.1363636363636 1.27272727272725  L 2.86363636363636 1.27272727272725  C 2.42613636363636 1.27272727272725  2.05160984848484 1.42850378787881  1.74005681818181 1.74005681818181  C 1.42850378787878 2.05160984848487  1.27272727272727 2.42613636363637  1.27272727272727 2.86363636363637  L 1.27272727272727 11.1363636363636  C 1.27272727272727 11.5738636363636  1.42850378787878 11.9483901515151  1.74005681818181 12.2599431818182  C 2.05160984848484 12.5714962121212  2.42613636363636 12.7272727272727  2.86363636363636 12.7272727272727  L 11.1363636363636 12.7272727272727  C 11.5738636363636 12.7272727272727  11.9483901515152 12.5714962121212  12.2599431818182 12.2599431818182  Z M 13.1598011363636 0.840198863636374  C 13.7199337121212 1.40033143939394  14 2.07481060606062  14 2.86363636363637  L 14 11.1363636363636  C 14 11.9251893939394  13.7199337121212 12.5996685606061  13.1598011363636 13.1598011363636  C 12.5996685606061 13.7199337121212  11.9251893939394 14  11.1363636363636 14  L 2.86363636363636 14  C 2.07481060606061 14  1.40033143939394 13.7199337121212  0.84019886363636 13.1598011363636  C 0.280066287878782 12.5996685606061  0 11.9251893939394  0 11.1363636363636  L 0 2.86363636363637  C 0 2.07481060606062  0.280066287878782 1.40033143939394  0.84019886363636 0.840198863636374  C 1.40033143939394 0.28006628787881  2.07481060606061 0  2.86363636363636 0  L 11.1363636363636 0  C 11.9251893939394 0  12.5996685606061 0.28006628787881  13.1598011363636 0.840198863636374  Z " fill-rule="nonzero" fill="#169bd5" stroke="none" transform="matrix(1 0 0 1 55 207 )" />
  </g>
</svg>