<svg t="1608772296847" class="icon" viewBox="0 0 1024 1024" version="1.1" xmlns="http://www.w3.org/2000/svg" p-id="6668" width="16" height="16"><path d="M377.857 105C403.894 105 425 126.106 425 152.143v767.895l-0.01 0.793c-0.629 26.01-32.172 38.946-50.876 20.499L78.959 650.217l-0.554-0.56c-17.982-18.611-5.29-49.999 20.829-50.625l231.48-6.372V152.143c0-26.037 21.107-47.143 47.143-47.143zM698 790.1c16.513 0 29.9 13.387 29.9 29.9 0 16.348-13.12 29.632-29.406 29.896l-0.494 0.004H548c-16.513 0-29.9-13.387-29.9-29.9 0-16.348 13.12-29.632 29.406-29.896l0.494-0.004h150z m87-195c16.513 0 29.9 13.387 29.9 29.9 0 16.348-13.12 29.632-29.406 29.896l-0.494 0.004H548c-16.513 0-29.9-13.387-29.9-29.9 0-16.348 13.12-29.632 29.406-29.896l0.494-0.004h237z m83-196c16.513 0 29.9 13.387 29.9 29.9 0 16.348-13.12 29.632-29.406 29.896l-0.494 0.004H548c-16.513 0-29.9-13.387-29.9-29.9 0-16.348 13.12-29.632 29.406-29.896l0.494-0.004h320z m83-195c16.513 0 29.9 13.387 29.9 29.9 0 16.348-13.12 29.632-29.406 29.896l-0.494 0.004H548c-16.513 0-29.9-13.387-29.9-29.9 0-16.348 13.12-29.632 29.406-29.896l0.494-0.004h403z" fill="#333333" p-id="6669"></path></svg>