<?xml version="1.0" encoding="utf-8"?>
<svg version="1.1" xmlns:xlink="http://www.w3.org/1999/xlink" width="12px" height="12px" viewBox="25 106  12 12" xmlns="http://www.w3.org/2000/svg">
  <path d="M 31 106  C 34.36 106  37 108.64  37 112  C 37 115.36  34.36 118  31 118  C 27.64 118  25 115.36  25 112  C 25 108.64  27.64 106  31 106  Z " fill-rule="nonzero" fill="#f0f0f0" stroke="none" />
  <path d="M 31 106.5  C 34.08 106.5  36.5 108.92  36.5 112  C 36.5 115.08  34.08 117.5  31 117.5  C 27.92 117.5  25.5 115.08  25.5 112  C 25.5 108.92  27.92 106.5  31 106.5  Z " stroke-width="1" stroke="#797979" fill="none" />
  <path d="M 31 115  C 29.32 115  28 113.68  28 112  C 28 110.32  29.32 109  31 109  C 32.68 109  34 110.32  34 112  C 34 113.68  32.68 115  31 115  " fill-rule="nonzero" fill="#797979" stroke="none" />
</svg>