<?xml version="1.0" encoding="utf-8"?>
<svg version="1.1" xmlns:xlink="http://www.w3.org/1999/xlink" width="12px" height="12px" viewBox="25 151  12 12" xmlns="http://www.w3.org/2000/svg">
  <path d="M 31 151  C 34.36 151  37 153.64  37 157  C 37 160.36  34.36 163  31 163  C 27.64 163  25 160.36  25 157  C 25 153.64  27.64 151  31 151  Z " fill-rule="nonzero" fill="#f0f0f0" stroke="none" />
  <path d="M 31 151.5  C 34.08 151.5  36.5 153.92  36.5 157  C 36.5 160.08  34.08 162.5  31 162.5  C 27.92 162.5  25.5 160.08  25.5 157  C 25.5 153.92  27.92 151.5  31 151.5  Z " stroke-width="1" stroke="#797979" fill="none" />
  <path d="M 31 160  C 29.32 160  28 158.68  28 157  C 28 155.32  29.32 154  31 154  C 32.68 154  34 155.32  34 157  C 34 158.68  32.68 160  31 160  " fill-rule="nonzero" fill="#797979" stroke="none" />
</svg>