<svg t="1614302943754" class="icon" viewBox="0 0 1024 1024" version="1.1" xmlns="http://www.w3.org/2000/svg" p-id="1141" width="16" height="16"><path d="M810.666667 170.666667a42.666667 42.666667 0 0 1 42.666666 42.666666v298.666667h-42.666666V213.333333H213.333333v597.333334h298.666667v42.666666H213.333333a42.666667 42.666667 0 0 1-42.666666-42.666666V213.333333a42.666667 42.666667 0 0 1 42.666666-42.666666h597.333334z m-106.666667 341.333333v149.333333H853.333333v42.666667h-149.376L704 853.333333h-42.666667l-0.042666-149.333333H512v-42.666667h149.333333V512h42.666667zM469.333333 512v42.666667H298.666667v-42.666667h170.666666z m170.666667-170.666667v42.666667H298.666667V341.333333h341.333333z" p-id="1142"></path></svg>