<?xml version="1.0" encoding="utf-8"?>
<svg version="1.1" xmlns:xlink="http://www.w3.org/1999/xlink" width="12px" height="12px" viewBox="23 78  12 12" xmlns="http://www.w3.org/2000/svg">
  <path d="M 29 78  C 32.36 78  35 80.64  35 84  C 35 87.36  32.36 90  29 90  C 25.64 90  23 87.36  23 84  C 23 80.64  25.64 78  29 78  Z " fill-rule="nonzero" fill="#ffffff" stroke="none" />
  <path d="M 29 78.5  C 32.08 78.5  34.5 80.92  34.5 84  C 34.5 87.08  32.08 89.5  29 89.5  C 25.92 89.5  23.5 87.08  23.5 84  C 23.5 80.92  25.92 78.5  29 78.5  Z " stroke-width="1" stroke="#797979" fill="none" />
  <path d="M 29 87  C 27.32 87  26 85.68  26 84  C 26 82.32  27.32 81  29 81  C 30.68 81  32 82.32  32 84  C 32 85.68  30.68 87  29 87  " fill-rule="nonzero" fill="#797979" stroke="none" />
</svg>