<?xml version="1.0" encoding="utf-8"?>
<svg version="1.1" xmlns:xlink="http://www.w3.org/1999/xlink" width="12px" height="12px" viewBox="23 101  12 12" xmlns="http://www.w3.org/2000/svg">
  <path d="M 29 101  C 32.36 101  35 103.64  35 107  C 35 110.36  32.36 113  29 113  C 25.64 113  23 110.36  23 107  C 23 103.64  25.64 101  29 101  Z " fill-rule="nonzero" fill="#ffffff" stroke="none" />
  <path d="M 29 101.5  C 32.08 101.5  34.5 103.92  34.5 107  C 34.5 110.08  32.08 112.5  29 112.5  C 25.92 112.5  23.5 110.08  23.5 107  C 23.5 103.92  25.92 101.5  29 101.5  Z " stroke-width="1" stroke="#797979" fill="none" />
  <path d="M 29 110  C 27.32 110  26 108.68  26 107  C 26 105.32  27.32 104  29 104  C 30.68 104  32 105.32  32 107  C 32 108.68  30.68 110  29 110  " fill-rule="nonzero" fill="#797979" stroke="none" />
</svg>