<?xml version="1.0" encoding="utf-8"?>
<svg version="1.1" xmlns:xlink="http://www.w3.org/1999/xlink" width="12px" height="12px" viewBox="23 123  12 12" xmlns="http://www.w3.org/2000/svg">
  <path d="M 29 123  C 32.36 123  35 125.64  35 129  C 35 132.36  32.36 135  29 135  C 25.64 135  23 132.36  23 129  C 23 125.64  25.64 123  29 123  Z " fill-rule="nonzero" fill="#ffffff" stroke="none" />
  <path d="M 29 123.5  C 32.08 123.5  34.5 125.92  34.5 129  C 34.5 132.08  32.08 134.5  29 134.5  C 25.92 134.5  23.5 132.08  23.5 129  C 23.5 125.92  25.92 123.5  29 123.5  Z " stroke-width="1" stroke="#797979" fill="none" />
  <path d="M 29 132  C 27.32 132  26 130.68  26 129  C 26 127.32  27.32 126  29 126  C 30.68 126  32 127.32  32 129  C 32 130.68  30.68 132  29 132  " fill-rule="nonzero" fill="#797979" stroke="none" />
</svg>