<?xml version="1.0" encoding="utf-8"?>
<svg version="1.1" xmlns:xlink="http://www.w3.org/1999/xlink" width="12px" height="12px" viewBox="25 128  12 12" xmlns="http://www.w3.org/2000/svg">
  <path d="M 31 128  C 34.36 128  37 130.64  37 134  C 37 137.36  34.36 140  31 140  C 27.64 140  25 137.36  25 134  C 25 130.64  27.64 128  31 128  Z " fill-rule="nonzero" fill="#ffffff" stroke="none" />
  <path d="M 31 128.5  C 34.08 128.5  36.5 130.92  36.5 134  C 36.5 137.08  34.08 139.5  31 139.5  C 27.92 139.5  25.5 137.08  25.5 134  C 25.5 130.92  27.92 128.5  31 128.5  Z " stroke-width="1" stroke="#797979" fill="none" />
  <path d="M 31 137  C 29.32 137  28 135.68  28 134  C 28 132.32  29.32 131  31 131  C 32.68 131  34 132.32  34 134  C 34 135.68  32.68 137  31 137  " fill-rule="nonzero" fill="#797979" stroke="none" />
</svg>